<?xml version="1.0" encoding="UTF-8" standalone="no"?>
<!-- Created with Inkscape (http://www.inkscape.org/) -->

<svg
   version="1.1"
   id="svg1"
   width="48.789848"
   height="48.792236"
   viewBox="0 0 48.789848 48.792236"
   sodipodi:docname="Qr_code.png"
   inkscape:export-filename="Qr_code_SVG.svg"
   inkscape:export-xdpi="96"
   inkscape:export-ydpi="96"
   xmlns:inkscape="http://www.inkscape.org/namespaces/inkscape"
   xmlns:sodipodi="http://sodipodi.sourceforge.net/DTD/sodipodi-0.dtd"
   xmlns="http://www.w3.org/2000/svg"
   xmlns:svg="http://www.w3.org/2000/svg">
  <defs
     id="defs1" />
  <sodipodi:namedview
     id="namedview1"
     pagecolor="#505050"
     bordercolor="#eeeeee"
     borderopacity="1"
     inkscape:showpageshadow="0"
     inkscape:pageopacity="0"
     inkscape:pagecheckerboard="0"
     inkscape:deskcolor="#505050"
     showgrid="false" />
  <g
     inkscape:groupmode="layer"
     inkscape:label="Image"
     id="g1"
     transform="translate(-48,1401.1689)">
    <path
       style="fill:#000000;stroke-width:0.053971"
       d="m 48,-1356.5348 v -4.1558 h 4.155773 4.155773 v 4.1558 4.1558 H 52.155773 48 Z m 7.124182,0 v -2.9684 h -2.968409 -2.968409 v 2.9684 2.9684 h 2.968409 2.968409 z m -4.749455,0 v -1.781 h 1.781046 1.781045 v 1.781 1.7811 h -1.781045 -1.781046 z m 8.311547,2.9702 v -1.1856 l 0.607173,-0.015 0.607175,-0.015 0.01531,-0.5802 0.01531,-0.5802 H 58.71507 57.498894 v -0.5937 -0.5937 h 0.593682 0.593683 v -1.781 -1.7811 h -0.593683 -0.593682 v -1.1873 -1.1874 h -0.593682 -0.593681 v 0.5937 0.5937 h -0.593683 -0.593682 v -0.5937 -0.5937 h 0.593682 0.593682 v -0.6205 -0.6205 l -1.173871,0.013 -1.173871,0.013 -0.01453,1.2008 -0.01453,1.2009 H 52.15472 50.374707 v -1.1874 -1.1874 h 0.593682 0.593682 v -0.6206 -0.6207 h -1.187364 -1.187364 v -0.5937 -0.5936 H 48.593682 48 v -0.5937 -0.5937 h 0.593682 0.593682 v 0.5937 0.5937 h 1.185596 1.185596 l 0.01526,0.6071 0.01526,0.6072 0.580189,0.015 0.580189,0.015 v -1.8098 -1.8099 H 52.155772 51.56209 v -0.5937 -0.5936 h 1.187364 1.187364 v -0.5937 -0.5937 h -0.593682 -0.593682 v -0.5937 -0.5937 h 0.593682 0.593682 v -0.5936 -0.5937 h 0.593682 0.593681 v -0.5937 -0.5937 h -1.187365 -1.187363 v 0.5937 0.5937 h -1.187364 -1.187364 v 0.5937 0.5936 h 0.593682 0.593682 v 0.5937 0.5937 h -0.593683 -0.593682 v 0.5937 0.5937 h -0.593682 -0.593681 v 0.5936 0.5937 H 48.593682 48 v -1.1873 -1.1874 h 0.593682 0.593682 v -0.5937 -0.5937 H 48.593682 48 v -1.1873 -1.1874 h 0.593682 0.593682 v -0.5937 -0.5937 h 0.593681 0.593682 v -1.1873 -1.1874 h -0.593682 -0.593681 v 0.5937 0.5937 H 48.593682 48 v -0.5937 -0.5937 h 0.593682 0.593682 v -0.5937 -0.5936 h 0.593681 0.593682 v 0.5936 0.5937 h 0.593682 0.593682 v -0.5937 -0.5936 h 0.593682 0.593682 v 0.5936 0.5937 h -0.593682 -0.593682 v 1.1874 1.1873 h 0.593682 0.593682 v -0.5936 -0.5937 h 0.593682 0.593681 v -1.1874 -1.1873 h 1.187364 1.187364 v -0.5937 -0.5937 h -1.187364 -1.187364 v -0.5937 -0.5937 h -0.593681 -0.593682 v 0.5937 0.5937 h -0.593682 -0.593682 v -1.1874 -1.1873 h -0.593682 -0.593682 v 0.5936 0.5937 H 49.187364 48 v -4.1827 -4.1828 h 1.781045 1.781046 v -0.5937 -0.5936 h 0.593682 0.593682 v 0.5936 0.5937 h 1.187363 1.187364 v -0.5937 -0.5936 h 0.593682 0.593682 v 0.5936 0.5937 h 1.185596 1.185596 l 0.01527,0.6072 0.01527,0.6072 0.59368,0.011 c 0.326526,0.01 0.853946,0.012 1.172046,0.013 h 0.578364 l 0.01531,0.5802 0.01531,0.5802 0.607175,0.015 0.607173,0.015 v 0.591 0.5911 l 1.767554,-0.012 1.767552,-0.013 0.01531,-0.5802 0.01531,-0.5801 h 0.578364 c 0.3181,0 0.84552,-0.01 1.172046,-0.013 l 0.59368,-0.011 v -0.5937 -0.5937 l -0.578382,-0.015 -0.578381,-0.015 -0.01529,-0.5784 -0.01531,-0.5783 -2.341979,-0.012 c -1.28809,-0.01 -2.351214,-0.021 -2.362501,-0.033 -0.01129,-0.011 -0.02602,-1.0744 -0.03274,-2.3625 l -0.01223,-2.342 -0.580187,-0.015 -0.580189,-0.015 v -0.5918 -0.5919 h 0.593682 0.59368 v -0.5937 -0.5936 h -0.59368 -0.593682 v -1.1874 -1.1874 h 0.593682 0.59368 v 0.5937 0.5937 h 1.187364 1.187365 v -0.5937 -0.5937 h 0.59368 0.593682 v 0.5937 0.5937 h 0.593682 0.593683 v 0.5937 0.5937 h 0.593682 0.59368 v -0.5937 -0.5937 h 0.593682 0.593682 v -0.5937 -0.5937 h -0.593682 -0.593682 v -0.5936 -0.5937 h 2.968409 2.968411 v 0.5937 0.5936 h 0.593681 0.593681 v -0.5936 -0.5937 h 1.187367 1.187362 v 1.1873 1.1874 h -0.593681 -0.593681 v 0.5937 0.5937 h 1.187362 1.187366 v -0.5937 -0.5937 h 0.593681 0.593681 v -0.5937 -0.5937 H 79.519101 78.92542 v -0.5936 -0.5937 h 1.781043 1.781048 v 0.5937 0.5936 h 0.593681 0.593681 v 1.1874 1.1874 h 1.214347 1.214352 v -0.5937 -0.5937 h 0.593681 0.593681 v 1.1868 1.1868 l -2.388219,0.014 -2.388219,0.014 -0.01533,0.5802 -0.01533,0.5802 h 1.809854 1.80986 v 0.5937 0.5937 h 0.59368 0.593681 v 0.5937 0.5936 H 86.69723 86.10355 v 0.5937 0.5937 h -0.607177 c -0.333942,0 -1.141488,0.01 -1.794538,0.013 l -1.187361,0.011 -0.01533,0.5802 -0.01533,0.5802 h 0.59374 0.593741 l 0.01528,0.6071 0.01523,0.6072 h 1.187361 1.187367 l 0.01523,-0.6072 0.01528,-0.6071 h 1.779277 1.779276 v -0.5937 -0.5937 h 1.781048 1.781043 v 0.5937 0.5937 h 0.593681 0.593686 v -0.5937 -0.5937 h 1.187361 1.187362 v 1.1874 1.1873 H 96.196101 95.60242 v 1.2144 1.2143 h 0.593681 0.593681 v 0.5937 0.5937 H 96.196101 95.60242 v 0.5937 0.5937 h 0.593681 0.593681 v 0.5936 0.5937 h -2.374753 -2.374724 v 0.5937 0.5937 h 0.593681 0.593681 v 0.5937 0.5936 h -0.593681 -0.593681 v -0.5936 -0.5937 h -0.593681 -0.593686 v 1.1873 1.1874 h 0.593686 0.593681 v 0.5937 0.5937 h -0.593681 -0.593686 v 1.781 1.7811 h 0.593686 0.593681 v 1.1873 1.1874 h 0.593681 0.593681 v -1.1874 -1.1873 h 0.593681 0.593681 v -0.5937 -0.5937 h -0.593681 -0.593681 v -0.5937 -0.5937 h 0.593681 0.593681 v -1.781 -1.7811 h 0.593686 0.593681 v -0.5936 -0.5937 h 0.593681 0.59368 v 1.781 1.7811 h -0.59368 -0.593681 v 1.1873 1.1874 h 0.593681 0.59368 v 0.5937 0.5937 h -0.59368 -0.593681 v 0.5936 0.5937 h 0.593681 0.59368 v 1.1874 1.1874 h -1.187361 -1.187367 v -0.5937 -0.5937 h -0.593681 -0.593681 v 1.1874 1.1873 h -0.593681 -0.593681 v 0.5937 0.5937 h -0.593681 -0.593686 v 0.5937 0.5936 h -0.593681 -0.59368 v -1.1873 -1.1874 h 1.187361 1.187367 v -1.1873 -1.1874 h -0.593681 -0.593686 v 0.5937 0.5937 h -1.187361 -1.187362 v 2.3747 2.3747 h 0.593681 0.593681 v 0.6213 0.6212 h 1.173871 c 0.645628,0 1.447095,0 1.781048,0 h 0.607171 v 1.1874 1.1873 h 0.593681 0.593681 v 0.5937 0.5937 h 0.593686 0.593681 v -0.5937 -0.5937 h 0.593681 0.59368 v 1.1874 1.1873 h -1.781042 -1.781048 v -1.1873 -1.1874 h -0.593681 -0.593681 v 2.3747 2.3748 h 0.593681 0.593681 v -0.5937 -0.5937 h 1.781048 1.781042 v 1.1874 1.1873 h -0.59368 -0.593681 v -0.5936 -0.5937 h -0.593681 -0.593686 v 0.5937 0.5936 h -1.187362 -1.187362 v 0.5937 0.5937 h 1.187362 1.187362 v 0.5937 0.5937 h 0.593686 0.593681 v -0.5937 -0.5937 h 0.593681 0.59368 v 0.5937 0.5937 h -0.59368 -0.593681 v 1.1873 1.1874 h -0.593681 -0.593686 v -1.1874 -1.1873 h -1.781043 -1.781048 v 0.5936 0.5937 h 1.187367 1.187362 v 0.5937 0.5937 h -1.781043 -1.781047 v -0.5937 -0.5937 h -0.593681 -0.593681 v -0.5937 -0.5936 h 1.187362 1.187361 v -1.1874 -1.1874 h -0.593681 -0.59368 v 0.5937 0.5937 h -1.781048 -1.781043 v 0.5937 0.5937 h 0.593681 0.593681 v 1.1873 1.1874 h -0.593681 -0.593681 v -0.5937 -0.5937 h -0.593681 -0.593686 v -1.7792 -1.7792 l 0.580191,-0.015 0.580191,-0.015 0.01265,-1.7676 0.01265,-1.7676 h -0.592857 -0.592858 v -0.5936 -0.5937 H 84.322401 83.72872 v -0.5937 -0.5937 H 83.1082 82.487673 l 0.01335,1.1739 0.01335,1.1739 0.578385,0.015 0.57838,0.015 0.01533,0.5513 c 0.0084,0.3033 0.0078,0.8368 -0.0015,1.1856 l -0.01677,0.6342 H 82.48411 81.300013 v 1.1873 1.1874 h -0.593686 -0.593681 v -0.5937 -0.5937 h -1.187362 -1.187366 v 1.1874 1.1874 h 1.187366 1.187362 v 0.5936 0.5937 h 0.593681 0.593686 v -0.5937 -0.5936 h 0.593681 0.593681 v -1.1874 -1.1874 h 0.593681 0.593681 v 2.3748 2.3747 h -0.593681 -0.593681 v -0.5937 -0.5937 h -0.593681 -0.593681 v 0.5937 0.5937 h -0.593686 -0.593681 v -0.5937 -0.5937 h -0.593681 -0.593681 v 0.5937 0.5937 h -0.59368 -0.593686 v -0.5937 -0.5937 h -0.593681 -0.593681 v -1.781 -1.7811 h -0.593681 -0.593681 v 1.1874 1.1874 h -1.187367 -1.187363 v -0.5937 -0.5937 H 71.8011 70.613737 v 0.5937 0.5937 h 0.593681 0.593682 v 1.1873 1.1874 h -1.187363 -1.187364 v -0.5937 -0.5937 h -0.593682 -0.593682 v -0.5937 -0.5936 h -0.593681 -0.593682 v 0.5936 0.5937 h -0.593462 -0.593683 v 0.5937 0.5937 H 64.083457 62.30241 v -0.5937 -0.5937 h -0.620666 -0.620668 v 0.5937 0.5937 h -1.187364 -1.187363 z m 4.803425,-0.5955 v -0.5936 h 0.593682 0.593683 v 0.5936 0.5937 h 0.593679 0.593683 v -0.5937 -0.5936 h 0.593682 0.593682 v -0.5937 -0.5937 h 0.593683 0.593679 v -1.1874 -1.1873 h 0.593683 0.593682 v -0.5937 -0.5937 h 0.593682 0.593683 v -0.5937 -0.5937 H 70.020761 69.42764 l -0.01406,-2.3882 -0.01406,-2.3882 -1.767552,-0.012 -1.767553,-0.012 v 0.6198 0.6198 h 0.593682 0.593682 v 0.5937 0.5937 h 0.593683 0.59368 v 1.1874 1.1873 h 0.593682 0.593682 v 0.5937 0.5937 H 68.832832 68.23915 v 0.5937 0.5937 h -0.59368 -0.593683 v 0.5936 0.5937 h -0.593682 -0.593682 v -0.5937 -0.5936 H 65.27074 64.677061 v -1.1874 -1.1874 h -0.593684 -0.593682 v -0.5937 -0.5936 h -1.807889 -1.807889 l 0.01334,1.1738 0.01336,1.1739 h 0.593682 0.593683 l 0.01531,-0.5802 0.01531,-0.5802 h 0.591856 0.591855 v 0.5937 0.5937 H 62.896 63.489682 v 0.5937 0.5937 H 62.896 62.302318 v 0.5936 0.5937 h -0.619443 -0.619444 l -1.63e-4,1.1874 -1.61e-4,1.1873 h 0.619618 0.619593 v 0.5937 0.5937 H 62.896 63.489682 Z m -1.187365,-1.1873 v -0.5937 h 0.593683 0.593682 v 0.5937 0.5937 h -0.593682 -0.593683 z m 2.37473,0 v -0.5937 h 0.593679 0.593683 v 0.5937 0.5937 h -0.593683 -0.593679 z m -1.187365,-2.3748 v -0.5936 h 0.593682 0.593683 v 0.5936 0.5937 h -0.593683 -0.593682 z m 7.124183,3.5621 v -0.5936 h -0.593683 -0.593682 v 0.5936 0.5937 h 0.593682 0.593683 z m -9.510577,-3.5755 0.01531,-0.5802 h -0.622494 -0.622494 v 0.5576 c 0,0.3068 0.01696,0.5747 0.0377,0.5955 0.02073,0.021 0.29396,0.031 0.607172,0.022 l 0.569479,-0.015 z m 11.885303,0.013 v -0.5936 h -0.593682 -0.593682 v 0.5936 0.5937 h 0.593682 0.593682 z m 4.749454,-1.781 v -2.3747 h 0.591855 0.59186 l 0.01533,0.5802 0.01533,0.5802 0.578384,0.015 0.57838,0.015 0.01533,0.5783 0.01533,0.5784 0.580186,0.015 0.58019,0.015 v -1.7828 -1.7829 H 80.70656 80.11288 v -0.6224 -0.6226 l -0.580191,0.015 -0.580191,0.015 v 0.5936 0.5937 l 0.580191,0.015 0.580191,0.015 v 0.5919 0.5918 h -0.593681 -0.593686 v -0.5937 -0.5936 h -0.593681 -0.593681 v 0.5936 0.5937 H 77.14447 76.550789 v -0.5937 -0.5936 h -0.593681 -0.593686 v -0.5937 -0.5937 h 0.593686 0.593681 v -0.6236 -0.6236 l -0.580191,0.01 c -0.319102,0 -1.120575,0 -1.781047,0 h -1.200854 v -0.5937 -0.5937 h 0.593682 0.593681 v -1.1873 -1.1874 h 0.593681 0.593681 v -0.5937 -0.5937 h 1.187367 1.187362 v -1.1873 -1.1874 H 77.14447 76.550789 v 0.5937 0.5937 h -0.593681 -0.593686 v -1.7811 -1.781 h 0.593686 0.593681 v 0.5937 0.5936 h 0.593681 0.593681 v -1.1873 -1.1874 h 0.593681 0.593681 v 1.1874 1.1873 h 1.187367 1.187361 v 0.5919 0.5918 l -0.58019,0.015 -0.580186,0.015 -0.01424,1.7676 -0.01424,1.7675 h 0.594415 0.59442 v -0.5937 -0.5936 h 1.216179 1.216173 l -0.01533,-0.5802 -0.01533,-0.5802 -0.607171,-0.015 -0.607177,-0.015 v -0.5919 -0.5919 h 0.623594 0.623594 l -0.0061,-0.5802 c -0.0035,-0.3191 -0.0045,-0.8534 -0.003,-1.1874 l 0.003,-0.6071 h 1.187362 1.187366 v 1.1863 1.1863 l -1.200857,0.014 -1.200857,0.014 -0.01533,0.5802 -0.01533,0.5802 h 1.216179 1.216173 v 0.5937 0.5936 h 0.595506 0.595507 l -0.01533,-0.5802 -0.01533,-0.5801 -0.58019,-0.015 -0.580191,-0.015 v -0.5919 -0.5918 h 1.187367 1.187362 v -0.5937 -0.5937 H 87.88442 87.290739 v -0.5937 -0.5937 h -0.593686 -0.593681 v -1.781 -1.7811 h 0.593681 0.593686 v 0.5937 0.5937 h 0.593681 0.593681 v -1.7811 -1.781 h 0.59368 0.593681 v -0.5937 -0.5937 h 0.593681 0.593686 v -0.5937 -0.5936 h 0.593681 0.593681 v -0.5937 -0.5937 h 1.187362 1.187367 v -1.1874 -1.1873 H 93.823005 93.23109 l -0.01528,-0.6072 -0.01523,-0.6072 -0.579139,-0.015 -0.579143,-0.015 -0.01454,-1.1721 -0.01454,-1.172 -1.173871,-0.014 -1.173872,-0.014 v 1.1851 1.1852 l -0.634161,0.017 c -0.348788,0.01 -0.882291,0.01 -1.185556,0 l -0.551394,-0.015 -0.01533,-0.5784 -0.01528,-0.5784 -0.58019,-0.015 -0.580186,-0.015 v 0.5937 0.5937 l -0.607176,0.015 -0.607176,0.015 v 0.5937 0.5937 l 1.781047,0.012 c 0.979575,0.01 2.054277,0.012 2.388219,0.013 h 0.607176 v 2.3747 2.3748 h -0.593681 -0.593685 v -1.1874 -1.1874 H 87.29074 86.103378 v -0.5936 -0.5937 H 85.509696 84.91601 v -0.5937 -0.5937 H 84.296123 83.67623 l 9.92e-4,2.3613 c 4.97e-4,1.2986 2.04e-4,2.6344 -9.92e-4,2.9684 l -0.002,0.6071 h -0.59367 -0.593681 v -0.5936 -0.5937 h -0.593681 -0.593681 v -0.5937 -0.5937 H 80.70401 80.108503 l 0.01533,0.5802 0.01533,0.5802 0.580191,0.015 0.580186,0.015 v 0.5919 0.5918 H 80.705866 80.11218 v 0.5937 0.5937 h -0.593681 -0.593681 v -0.5937 -0.5937 h -0.593681 -0.593681 v -0.5936 -0.5937 h 0.593681 0.593681 v -1.1874 -1.1874 h -0.593681 -0.593681 v 0.5937 0.5937 h -1.187367 -1.187361 v 1.7811 1.781 h 0.593681 0.59368 v -0.5937 -0.5937 h 0.593681 0.593686 v 0.5937 0.5937 h 0.593681 0.593681 v 0.5937 0.5937 h -0.593681 -0.593681 v 0.5936 0.5937 H 77.14377 76.550089 v 0.5937 0.5937 h -1.187361 -1.187362 v -1.1874 -1.1873 h -1.187367 -1.187364 v -0.5937 -0.5937 h -1.187363 -1.187364 v -1.1874 -1.1873 h -0.593682 -0.593681 v -1.7811 -1.781 h 0.593681 0.593682 v -0.5937 -0.5937 h 0.593682 0.593682 v -0.5937 -0.5936 h 0.593682 0.593681 v -0.5937 -0.5937 h 0.593682 0.593682 v 0.5937 0.5937 h 1.185541 1.185536 l 0.01533,0.5801 0.01533,0.5802 0.580191,0.015 0.58019,0.015 v -0.5955 -0.5955 h 0.593681 0.593681 v -0.6207 -0.6207 H 77.1438 76.550119 v -0.5937 -0.5936 h 0.593681 0.593681 v -1.1874 -1.1873 h 0.593681 0.593686 v 0.5936 0.5937 h 0.593681 0.593681 v -0.5937 -0.5936 h 0.593681 0.593681 v -0.5955 -0.5956 l -0.580186,0.015 -0.580191,0.015 -0.01533,0.5802 -0.01533,0.5802 h -0.59185 -0.59186 v -1.1874 -1.1873 h 0.593681 0.593686 v -0.5937 -0.5937 h 0.593681 0.593681 v -1.1874 -1.1873 h 0.593681 0.593681 v -0.5937 -0.5937 h -0.593681 -0.593681 v 0.5937 0.5937 H 80.705871 80.11219 v 0.5937 0.5936 h -0.593686 -0.593681 v 0.5937 0.5937 H 77.14378 75.362733 v -0.5937 -0.5937 h -0.593681 -0.593681 v -1.1873 -1.1874 h -1.781047 -1.781045 v 0.5937 0.5937 h -0.593682 -0.593683 v 0.5937 0.5936 h 1.187365 1.187363 v -0.5936 -0.5937 h 0.593682 0.593682 v 0.5937 0.5936 h 0.593682 0.593683 v 0.5937 0.5937 h 0.593681 0.593681 v 1.781 1.7811 h 0.593681 0.593685 v 0.5936 0.5937 h -0.593685 -0.593681 v 0.5937 0.5937 h -0.593681 -0.593681 v -0.5937 -0.5937 h -1.187365 -1.187364 v -1.781 -1.781 h 0.593682 0.593682 v 1.1873 1.1874 h 0.593682 0.593683 v -1.1874 -1.1873 h -0.593683 -0.593682 v -0.5937 -0.5937 h -1.781047 -1.781045 v 0.5937 0.5937 H 67.64487 65.863824 v -1.1874 -1.1874 h -1.186762 -1.187365 v 0.5937 0.5937 h -0.593682 -0.593683 v 0.5937 0.5937 h 1.781047 1.781045 v 1.1873 1.1874 h 0.593682 0.593682 v -0.5937 -0.5937 h 0.593683 0.593679 v 1.781 1.7811 h 0.593683 0.593682 v 1.808 1.8081 H 68.23915 67.051788 v 1.1874 1.1873 h -0.593682 -0.593682 v 0.5937 0.5937 h 0.593682 0.593682 v 0.5936 0.5937 h -1.187364 -1.187362 v -0.5937 -0.5936 h -0.593683 -0.593682 v 0.5936 0.5937 h -1.216176 -1.216174 l 0.01531,0.5802 0.01531,0.5802 1.200855,0.014 1.200857,0.014 v 0.5926 0.5927 h -0.593683 -0.593682 v 0.5937 0.5937 h 0.593682 0.593682 v 0.5936 0.5937 h -1.187364 -1.187363 l -0.0031,-1.2008 c -0.0018,-0.6605 -3.98e-4,-1.462 0.0029,-1.7811 l 0.0061,-0.5802 h -0.59661 -0.596608 v -0.5937 -0.5936 H 58.711435 57.49526 l 0.01532,0.5802 0.01532,0.5802 0.580189,0.015 0.58019,0.015 v 1.1855 1.1856 h -0.593683 -0.593682 v 1.1873 1.1874 H 56.31155 55.124187 v 0.5937 0.5937 h 1.187363 1.187364 v 0.5936 0.5937 h 0.593682 0.593683 v 0.5937 0.5937 h 0.59368 0.593682 l 0.0031,0.6072 c 0.0018,0.3339 3.98e-4,0.8682 -0.0029,1.1873 l -0.0061,0.5802 h 0.622396 0.622394 l -0.0123,-2.3612 -0.01228,-2.3613 -0.578382,-0.015 -0.578382,-0.015 -0.01529,-0.5784 -0.01529,-0.5784 -0.607175,-0.015 -0.607173,-0.015 v -1.1855 -1.1856 h 0.59368 0.593682 v 1.1873 1.1874 h 1.214351 1.214347 v 1.1874 1.1873 h 0.593683 0.593682 v 0.5937 0.5937 h 0.593682 0.593683 v 0.5937 0.5936 h -0.593683 -0.593682 v 0.5937 0.5937 h 0.593682 0.593683 v 0.5937 0.5937 h -0.591857 -0.591857 l -0.01531,-0.5802 -0.01531,-0.5802 -0.580189,-0.015 -0.58019,-0.015 v 1.1892 1.1892 h 0.593683 0.593682 v 1.1874 1.1873 h -0.607175 c -0.333946,0 -1.408645,0.01 -2.38822,0.013 l -1.781045,0.012 -0.01529,0.5784 -0.01531,0.5784 -0.578382,0.015 -0.578382,0.015 v 0.5937 0.5937 l 0.578382,0.015 0.578382,0.015 0.01531,0.5783 0.01529,0.5784 h 0.593681 0.593682 l 0.01531,-0.5802 0.01531,-0.5801 h 0.578364 c 0.3181,0 1.112677,-0.01 1.765726,-0.013 l 1.187365,-0.011 0.01531,-0.5785 0.01529,-0.5783 0.578382,-0.015 0.578381,-0.015 0.01157,-1.1874 c 0.0064,-0.653 0.01244,-1.4605 0.0135,-1.7945 l 0.002,-0.6072 h 0.59368 0.593682 v 0.5937 0.5937 h 2.374727 2.374729 v 0.6207 0.6206 h 0.593683 0.593679 v 0.5937 0.5937 h 1.187365 1.187364 v 0.5937 0.5936 h -0.593682 -0.593682 v 0.5937 0.5937 h -0.592649 -0.592651 l -0.01453,-1.2008 -0.01453,-1.2009 -0.580187,-0.015 -0.58019,-0.015 v 1.2161 1.2162 h 0.593683 0.59368 v 1.1874 1.1873 h 0.593682 0.593682 v -0.5936 -0.5937 h 0.593682 0.593681 v 1.1873 1.1874 h 0.593681 0.593681 v -1.1874 -1.1873 h 0.593685 0.593681 v 1.781 1.7811 h 0.593681 0.593681 z m -3.562091,-1.781 v -0.5937 h 0.593681 0.593681 v 0.5937 0.5937 h -0.593681 -0.593681 z m -3.562089,-5.9908 v -0.5937 h -2.37473 -2.374726 v -0.5937 -0.5937 h 1.187364 1.187362 v -0.5937 -0.5936 h 1.781047 1.781045 v -1.1874 -1.1873 h 0.593682 0.593682 v -0.5937 -0.5937 h 0.593683 0.59368 v 1.1874 1.1873 h 0.593681 0.593681 v 0.5937 0.5937 h -0.593681 -0.593681 v -0.5937 -0.5937 h -0.59368 -0.593683 v 0.5937 0.5937 h -0.593682 -0.593682 v 1.1873 1.1874 h 0.593682 0.593682 v 0.5937 0.5937 h -1.187364 -1.187362 z m -3.562092,-4.7495 v -0.5936 h -1.187364 -1.187362 v -0.5937 -0.5937 h 0.593679 0.593683 v -0.5937 -0.5937 h -0.593683 -0.593679 v -0.5937 -0.5936 h -0.593683 -0.593682 v -0.5937 -0.5937 h 0.593682 0.593683 v -1.1874 -1.1873 h 1.187362 1.187364 v -1.1874 -1.1874 h 0.593683 0.593679 v 1.1874 1.1874 h 0.593683 0.593682 v 0.5936 0.5937 h 0.593682 0.593683 v 0.5937 0.5937 h -1.187365 -1.187365 v 1.1874 1.1873 h 1.187365 1.187365 v -0.5937 -0.5936 h 0.59368 0.593682 v 1.1873 1.1874 h -1.781045 -1.781047 v 1.1874 1.1873 H 67.645473 67.05179 Z m 1.187362,-2.3747 v -0.5937 H 67.645473 67.05179 v -1.1873 -1.1874 h 0.593683 0.593679 v -1.1874 -1.1873 H 67.645473 67.05179 v 0.5936 0.5937 h -0.593682 -0.593682 v 0.5937 0.5937 h -0.593683 -0.593679 v 0.5937 0.5937 h 0.593679 0.593683 v 0.5936 0.5937 h 0.593682 0.593682 v 0.5937 0.5937 h 0.593683 0.593679 z m 1.187365,2.3747 v -0.5936 h 0.593682 0.593683 v 0.5936 0.5937 h -0.593683 -0.593682 z m 11.873635,-4.1557 v -1.1874 H 80.706471 80.11279 v -0.5937 -0.5937 h 0.593681 0.593681 v -1.1873 -1.1874 h 0.59186 0.591855 l 0.01533,0.5802 0.01533,0.5802 1.173867,0.014 1.173871,0.014 v 0.5926 0.5927 h -0.593681 -0.593681 v 0.5936 0.5937 h 0.593681 0.593681 v 0.5937 0.5937 h -1.187362 -1.187361 v 0.5937 0.5937 h -0.593686 -0.593681 z m 1.187367,-1.7811 v -0.5937 h -0.593681 -0.593686 v 0.5937 0.5937 h 0.593686 0.593681 z m 2.418469,-3.6026 c -0.0092,-0.3487 -0.0099,-0.883 -0.0015,-1.1873 l 0.01533,-0.5532 h 1.185541 1.185536 v 0.5936 0.5937 h -0.593681 -0.59368 v 0.5937 0.5937 h -0.590417 -0.590411 z m 5.947045,-4.7089 v -0.5937 h 1.187366 1.187362 v 0.5937 0.5936 h -1.187362 -1.187366 z m -17.864425,-3.6161 v -0.5937 h 0.593683 0.59368 v 0.5937 0.5937 h -0.59368 -0.593683 z m -3.562091,-3.5621 v -1.781 h 0.593682 0.593683 v 1.781 1.7811 h -0.593683 -0.593682 z m 7.124183,0 v -0.5937 h 0.593681 0.593681 v 0.5937 0.5937 H 77.144381 76.5507 Z m 14.302333,33.3541 v -1.781 H 89.07199 87.290942 v 1.781 1.7811 h 1.781048 1.781043 z m -2.374724,0 v -0.5936 h 0.593681 0.593681 v 0.5936 0.5937 H 89.07199 88.478309 Z m -21.438186,-1.2008 0.01531,-0.5802 h -0.595508 -0.595508 v -0.5937 -0.5937 h -0.593682 -0.59368 v 0.5937 0.5937 h 0.59368 0.593682 v 0.5955 0.5955 l 0.58019,-0.015 0.580189,-0.015 z m -14.290668,-2.39 v -0.6226 l -0.580189,0.015 -0.58019,0.015 -0.01526,0.6072 -0.01526,0.6072 h 0.59545 0.595449 z m 34.529823,0.015 0.01528,-0.5802 h 0.59186 0.591855 v 0.5936 0.5935 l 1.173872,-0.013 1.173871,-0.013 v -0.5937 -0.5936 l -0.578384,-0.015 -0.57838,-0.015 -0.01533,-0.5784 -0.01528,-0.5783 -0.593681,-0.011 c -0.326525,-0.01 -0.853946,-0.012 -1.172046,-0.013 H 87.29455 l -0.01528,-0.5802 -0.01533,-0.5802 -0.580191,-0.015 -0.580186,-0.015 -0.002,-0.5783 c -9.92e-4,-0.3182 -0.0071,-1.1127 -0.01349,-1.7658 l -0.01156,-1.1873 h -0.593681 -0.59368 l -0.01107,0.5936 c -0.0061,0.3266 -0.01216,0.854 -0.0135,1.1721 l -0.0025,0.5784 -0.58019,0.015 -0.580186,0.015 v 1.7811 1.781 l 0.580186,0.015 0.58019,0.015 v 0.5558 c 0,0.3058 0.01613,0.572 0.03582,0.5917 0.0197,0.02 0.560082,0.03 1.200857,0.022 l 1.165041,-0.013 z m -2.363064,-2.4152 v -0.5936 h 0.593685 0.593681 v 0.5936 0.5937 h -0.593681 -0.593685 z m -27.417305,0.6216 v -1.2136 l -1.767552,0.013 -1.767553,0.012 v 0.5937 0.5937 l 0.593682,0.011 c 0.326525,0.01 0.854766,0.012 1.173871,0.013 h 0.580189 v 0.5577 c 0,0.3067 0.01619,0.5739 0.03598,0.5937 0.01979,0.02 0.286947,0.036 0.593682,0.036 h 0.557701 z m 21.426519,0.5909 v -0.6224 l -0.58019,0.015 -0.580191,0.015 -0.01558,0.5359 c -0.0086,0.2947 -0.0035,0.568 0.01181,0.6072 0.02029,0.053 0.174496,0.071 0.59575,0.071 h 0.568392 z m 3.562091,-0.5948 v -1.215 l -0.580191,0.015 -0.58019,0.015 -0.01533,0.5785 -0.01528,0.5783 -0.578384,0.015 -0.57838,0.015 -0.01558,0.5359 c -0.0086,0.2947 -0.0035,0.5674 0.01136,0.606 0.02094,0.055 0.285617,0.07 1.189435,0.07 h 1.162525 z m -2.374729,-1.1873 v -1.2173 l -0.58019,0.01 c -0.319103,0 -0.853415,0 -1.187362,0 h -0.607176 v -0.5956 -0.5955 l -0.580186,0.015 -0.580191,0.015 -0.01533,0.5802 -0.01533,0.5802 h 0.595507 0.595507 v 0.5937 0.5936 h 0.593686 0.593681 v 0.5847 c 0,0.3216 0.01617,0.6009 0.03597,0.6207 0.0198,0.02 0.286943,0.036 0.593681,0.036 h 0.5577 z m -17.822123,-0.6042 -0.01531,-0.5802 h -0.59368 -0.593682 l -0.01531,0.5802 -0.01531,0.5802 h 0.624319 0.624318 z m -5.979121,-1.2027 v -0.5955 l -0.580189,0.015 -0.58019,0.015 -0.01532,0.5802 -0.01532,0.5802 h 0.595508 0.595507 z m 4.791759,0.015 -0.01531,-0.5802 -0.578382,-0.015 -0.578381,-0.015 -0.01529,-0.5783 -0.01529,-0.5785 h -0.59368 -0.593681 l -0.01336,1.1739 -0.01336,1.1739 h 1.216032 1.216035 z m 21.384214,-0.015 v -0.5955 l -0.580191,0.015 -0.58019,0.015 -0.01533,0.5802 -0.01533,0.5802 h 0.595506 0.595507 z m -26.175973,-2.3729 v -0.5937 h -0.593682 -0.593682 v -0.5937 -0.5937 h 0.593682 0.593682 v -0.5936 -0.5937 h -0.593682 -0.593682 v 0.5937 0.5936 H 54.5305 53.936818 v 0.5937 0.5937 h 0.593682 0.593682 v 0.5937 0.5937 h 0.593682 0.593682 z m 2.374728,0 v -0.5955 l -0.58019,0.015 -0.580189,0.015 -0.01532,0.5801 -0.01532,0.5802 h 0.595508 0.595508 z m 32.166759,-2.3729 v -0.5937 h -0.593681 -0.593681 v 0.5937 0.5937 h 0.593681 0.593681 z m -39.290942,-2.3748 v -0.5936 h -0.593682 -0.593682 v 0.5936 0.5937 h 0.593682 0.593682 z m 4.749455,-2.3747 v -0.5937 h -0.593682 -0.593682 v 0.5937 0.5937 h 0.593682 0.593682 z m 34.541487,-1.1874 v -0.5936 h -0.593681 -0.593681 v 0.5936 0.5937 h 0.593681 0.593681 z m -34.541487,-3.562 v -0.5937 h -1.187364 -1.187364 v 0.5937 0.5937 h 1.187364 1.187364 z m -3.562091,-1.7811 v -1.1874 h -0.593682 -0.593682 v 1.1874 1.1874 h 0.593682 0.593682 z m 5.936819,0.5937 v -0.5937 h -0.593683 -0.593682 v -0.5937 -0.5937 h 0.591856 0.591855 l 0.01531,0.5802 0.01531,0.5802 h 0.59368 0.593682 l 0.01336,-1.1738 0.01334,-1.1739 h -0.620525 -0.620524 v -1.2162 -1.2162 l -0.580191,0.015 -0.580189,0.015 -0.01532,0.5802 -0.01532,0.5802 H 56.91687 c -0.3181,0 -0.845521,0.01 -1.172046,0.013 l -0.593681,0.011 v 0.5936 0.5937 l 0.580189,0.015 0.580189,0.015 v 0.5918 0.5919 h -0.595508 -0.595508 l 0.01532,0.5802 0.01532,0.5802 1.173871,0.014 1.17387,0.014 v 0.5566 c 0,0.3062 0.01619,0.5728 0.03598,0.5926 0.01979,0.02 0.286946,0.036 0.593682,0.036 h 0.557701 z m 3.604393,-0.013 0.01531,-0.5802 h 0.578363 c 0.3181,0 0.845521,-0.01 1.172046,-0.013 l 0.593682,-0.011 0.01531,-0.5802 0.01531,-0.5802 h -1.189191 -1.18919 v 0.5937 0.5936 h -0.620666 -0.620668 v 0.5578 c 0,0.3067 0.01696,0.5746 0.0377,0.5954 0.02073,0.021 0.293963,0.031 0.607175,0.022 l 0.569476,-0.015 z m 14.260033,-1.1739 v -0.5937 h -1.187367 -1.187362 v -0.5936 -0.5937 h -1.187363 -1.187364 v 0.5937 0.5936 h 0.593682 0.593682 v 0.5937 0.5937 h 1.781044 1.781048 z m 5.936819,0 v -0.5937 h -0.593681 -0.593686 v -0.5936 -0.5937 H 80.706471 80.11279 v -0.5937 -0.5937 h 0.593681 0.593681 v -1.8098 -1.8099 l -0.580186,0.015 -0.58019,0.015 -0.01106,0.5937 c -0.0061,0.3265 -0.01216,0.8539 -0.0135,1.172 l -0.0025,0.5784 -0.580191,0.015 -0.580191,0.015 -0.01533,0.5784 -0.01528,0.5784 -0.57838,0.015 -0.578384,0.015 v 0.5937 0.5937 l 0.593681,0.011 c 0.326525,0.01 0.853945,0.012 1.172045,0.013 h 0.578365 l 0.01533,0.5802 0.01533,0.5802 0.580191,0.015 0.580185,0.015 v 0.5558 c 0,0.3057 0.01618,0.5721 0.03597,0.5919 0.0198,0.02 0.286947,0.036 0.593686,0.036 h 0.5577 z m -32.112792,-1.1873 v -0.5937 h 1.781046 1.781045 v -0.6207 -0.6206 h -0.593681 -0.593682 v -0.5955 -0.5956 l -0.580189,0.015 -0.58019,0.015 -0.01532,0.5802 -0.01532,0.5802 H 50.96658 50.374724 v -0.5937 -0.5936 h -0.593682 -0.593681 v 0.6206 0.6207 h 0.593681 0.593682 v 0.5936 0.5937 h -0.593682 -0.593681 v 0.5937 0.5937 h 0.593681 0.593682 z m 11.91594,-0.013 0.01531,-0.5802 h -0.622492 -0.622494 v 0.5577 c 0,0.3067 0.01696,0.5747 0.0377,0.5954 0.02073,0.021 0.293964,0.031 0.607176,0.022 l 0.569475,-0.015 z m -1.20268,-1.2009 v -0.5936 h -0.593683 -0.593682 l -0.01557,0.5359 c -0.0086,0.2947 -0.0029,0.5687 0.0125,0.6089 0.02173,0.057 0.159202,0.07 0.609245,0.058 l 0.581179,-0.015 z m 22.613879,0 v -0.5936 h -0.593681 -0.593681 l -0.01558,0.5359 c -0.0086,0.2947 -0.003,0.5687 0.0125,0.6089 0.02173,0.057 0.159199,0.07 0.609245,0.058 l 0.581178,-0.015 z m -28.577684,-1.1892 v -0.6225 l -0.580189,0.015 -0.580189,0.015 -0.01557,0.5359 c -0.0086,0.2947 -0.0032,0.568 0.0118,0.6072 0.02028,0.053 0.174496,0.071 0.595753,0.071 h 0.568389 z m 1.187364,-1.1873 v -0.6225 l -0.580189,0.015 -0.58019,0.015 -0.01556,0.5358 c -0.0086,0.2948 -0.0032,0.568 0.0118,0.6072 0.02028,0.053 0.174496,0.071 0.595753,0.071 h 0.568389 z m 22.613882,0 v -0.6225 l -0.58019,0.015 -0.580191,0.015 -0.01558,0.5358 c -0.0086,0.2948 -0.0035,0.568 0.01181,0.6072 0.02029,0.053 0.174496,0.071 0.59575,0.071 h 0.568392 z m -14.260806,-2.9801 -0.01453,-1.1738 -0.580189,-0.015 -0.580189,-0.015 v 1.1892 1.1892 h 0.594733 0.594736 z m 19.05256,-0.5936 -0.01533,-0.5802 H 83.10817 82.514484 l -0.01533,0.5802 -0.01533,0.5801 h 0.624318 0.624318 z m 2.374729,0 -0.01533,-0.5802 h -0.593686 -0.593681 l -0.01533,0.5802 -0.01533,0.5801 h 0.624323 0.624318 z m -9.541211,-5.9504 v -0.5937 h -0.593681 -0.593686 v 0.5937 0.5937 h 0.593686 0.593681 z m -3.562092,46.4152 v -0.5937 h 0.593683 0.59368 v 0.5937 0.5937 h -0.59368 -0.593683 z M 48,-1362.4716 v -0.5937 h 0.593682 0.593682 v 0.5937 0.5937 H 48.593682 48 Z m 0,-2.4017 v -0.5667 h 0.593682 0.593682 v 0.5667 0.5667 H 48.593682 48 Z m 46.415123,-1.2144 v -1.781 h 1.187367 1.187362 v 1.781 1.7811 H 95.60249 94.415123 Z m 0,-3.5621 v -0.5937 h 1.187367 1.187362 v 0.5937 0.5937 H 95.60249 94.415123 Z m -34.487515,-21.4265 v -0.5937 h 0.566696 0.566697 v 0.5937 0.5937 H 60.494304 59.927608 Z M 48,-1397.0131 v -4.1558 h 4.155773 4.155773 v 4.1558 4.1558 H 52.155773 48 Z m 7.124182,0 v -2.9685 h -2.968409 -2.968409 v 2.9685 2.9684 h 2.968409 2.968409 z m -4.749455,0 v -1.7811 h 1.781046 1.781045 v 1.7811 1.781 h -1.781045 -1.781046 z m 7.124182,3.5621 v -0.5937 h 0.593682 0.593683 v -0.5937 -0.5937 h 0.59368 0.593682 v 0.5937 0.5937 h 0.593683 0.593682 v 0.5937 0.5937 H 60.49613 59.931259 l -0.01531,-0.5802 -0.01531,-0.5802 h -0.593683 -0.59368 l -0.01531,0.5802 -0.01531,0.5802 h -0.59186 -0.591856 z m 30.9794,-3.5621 v -4.1558 h 4.155771 4.155772 v 4.1558 4.1558 H 92.63408 88.478309 Z m 7.124181,0 v -2.9685 h -2.96841 -2.968409 v 2.9685 2.9684 h 2.968409 2.96841 z m -4.749457,0 v -1.7811 h 1.781047 1.781043 v 1.7811 1.781 H 92.63408 90.853033 Z m -33.354124,0 v -0.5937 h 1.187365 1.187362 v 0.5937 0.5936 h -1.187362 -1.187365 z m 0,-2.9685 v -1.1873 h 1.187365 1.187362 v 0.5937 0.5936 h -0.593682 -0.59368 v 0.5937 0.5937 h -0.593683 -0.593682 z m 27.417305,-0.5936 v -0.5937 h 0.593685 0.593681 v 0.5937 0.5936 h -0.593681 -0.593685 z"
       id="path1-3"
       inkscape:export-filename="Qr_code_SVG_2.svg"
       inkscape:export-xdpi="96"
       inkscape:export-ydpi="96" />
  </g>
</svg>
