%TF.GenerationSoftware,KiCad,Pcbnew,(6.0.10)*%
%TF.CreationDate,2025-05-13T20:49:54+02:00*%
%TF.ProjectId,Progetto Lidar,50726f67-6574-4746-9f20-4c696461722e,rev?*%
%TF.SameCoordinates,Original*%
%TF.FileFunction,Legend,Top*%
%TF.FilePolarity,Positive*%
%FSLAX46Y46*%
G04 Gerber Fmt 4.6, Leading zero omitted, Abs format (unit mm)*
G04 Created by KiCad (PCBNEW (6.0.10)) date 2025-05-13 20:49:54*
%MOMM*%
%LPD*%
G01*
G04 APERTURE LIST*
G04 Aperture macros list*
%AMRoundRect*
0 Rectangle with rounded corners*
0 $1 Rounding radius*
0 $2 $3 $4 $5 $6 $7 $8 $9 X,Y pos of 4 corners*
0 Add a 4 corners polygon primitive as box body*
4,1,4,$2,$3,$4,$5,$6,$7,$8,$9,$2,$3,0*
0 Add four circle primitives for the rounded corners*
1,1,$1+$1,$2,$3*
1,1,$1+$1,$4,$5*
1,1,$1+$1,$6,$7*
1,1,$1+$1,$8,$9*
0 Add four rect primitives between the rounded corners*
20,1,$1+$1,$2,$3,$4,$5,0*
20,1,$1+$1,$4,$5,$6,$7,0*
20,1,$1+$1,$6,$7,$8,$9,0*
20,1,$1+$1,$8,$9,$2,$3,0*%
%AMFreePoly0*
4,1,22,0.500000,-0.750000,0.000000,-0.750000,0.000000,-0.745033,-0.079941,-0.743568,-0.215256,-0.701293,-0.333266,-0.622738,-0.424486,-0.514219,-0.481581,-0.384460,-0.499164,-0.250000,-0.500000,-0.250000,-0.500000,0.250000,-0.499164,0.250000,-0.499963,0.256109,-0.478152,0.396186,-0.417904,0.524511,-0.324060,0.630769,-0.204165,0.706417,-0.067858,0.745374,0.000000,0.744959,0.000000,0.750000,
0.500000,0.750000,0.500000,-0.750000,0.500000,-0.750000,$1*%
%AMFreePoly1*
4,1,20,0.000000,0.744959,0.073905,0.744508,0.209726,0.703889,0.328688,0.626782,0.421226,0.519385,0.479903,0.390333,0.500000,0.250000,0.500000,-0.250000,0.499851,-0.262216,0.476331,-0.402017,0.414519,-0.529596,0.319384,-0.634700,0.198574,-0.708877,0.061801,-0.746166,0.000000,-0.745033,0.000000,-0.750000,-0.500000,-0.750000,-0.500000,0.750000,0.000000,0.750000,0.000000,0.744959,
0.000000,0.744959,$1*%
G04 Aperture macros list end*
%ADD10C,0.150000*%
%ADD11C,0.000000*%
%ADD12C,0.400000*%
%ADD13C,0.254000*%
%ADD14C,0.120000*%
%ADD15C,0.200000*%
%ADD16C,0.100000*%
%ADD17RoundRect,0.250000X-0.250000X-0.475000X0.250000X-0.475000X0.250000X0.475000X-0.250000X0.475000X0*%
%ADD18R,5.080000X2.290000*%
%ADD19R,5.080000X2.420000*%
%ADD20R,0.550000X1.050000*%
%ADD21RoundRect,0.250000X-0.262500X-0.450000X0.262500X-0.450000X0.262500X0.450000X-0.262500X0.450000X0*%
%ADD22R,1.700000X1.700000*%
%ADD23O,1.700000X1.700000*%
%ADD24R,1.200000X0.400000*%
%ADD25R,1.200000X0.600000*%
%ADD26R,1.500000X1.000000*%
%ADD27RoundRect,0.250000X0.250000X0.475000X-0.250000X0.475000X-0.250000X-0.475000X0.250000X-0.475000X0*%
%ADD28R,0.900000X0.800000*%
%ADD29RoundRect,0.250000X-0.450000X0.262500X-0.450000X-0.262500X0.450000X-0.262500X0.450000X0.262500X0*%
%ADD30RoundRect,0.243750X0.456250X-0.243750X0.456250X0.243750X-0.456250X0.243750X-0.456250X-0.243750X0*%
%ADD31R,1.475000X0.450000*%
%ADD32FreePoly0,0.000000*%
%ADD33FreePoly1,0.000000*%
%ADD34R,0.600000X1.200000*%
%ADD35RoundRect,0.250000X0.262500X0.450000X-0.262500X0.450000X-0.262500X-0.450000X0.262500X-0.450000X0*%
%ADD36RoundRect,0.250000X-0.475000X0.250000X-0.475000X-0.250000X0.475000X-0.250000X0.475000X0.250000X0*%
%ADD37FreePoly0,180.000000*%
%ADD38FreePoly1,180.000000*%
%ADD39RoundRect,0.250000X0.475000X-0.250000X0.475000X0.250000X-0.475000X0.250000X-0.475000X-0.250000X0*%
%ADD40RoundRect,0.250000X0.450000X-0.262500X0.450000X0.262500X-0.450000X0.262500X-0.450000X-0.262500X0*%
%ADD41C,3.200000*%
%ADD42O,1.727200X1.727200*%
%ADD43R,1.727200X1.727200*%
G04 APERTURE END LIST*
D10*
X209804000Y-60198000D02*
X200914000Y-60198000D01*
X186679025Y-68389002D02*
G75*
G03*
X184584491Y-68389002I-1047267J31268D01*
G01*
D11*
G36*
X128377617Y-82094769D02*
G01*
X127749328Y-82094769D01*
X127749328Y-81780611D01*
X128377617Y-81780611D01*
X128377617Y-82094769D01*
G37*
G36*
X117667580Y-86507369D02*
G01*
X117668129Y-86507369D01*
X117668129Y-86821372D01*
X117353937Y-86821372D01*
X117353937Y-86507215D01*
X117667580Y-86507215D01*
X117667580Y-86507369D01*
G37*
G36*
X123651323Y-87449688D02*
G01*
X123337130Y-87449688D01*
X123337130Y-87135532D01*
X123651323Y-87135532D01*
X123651323Y-87449688D01*
G37*
G36*
X115783231Y-84607991D02*
G01*
X115469071Y-84607991D01*
X115469071Y-84293836D01*
X115783231Y-84293836D01*
X115783231Y-84607991D01*
G37*
G36*
X128064361Y-90591255D02*
G01*
X128063327Y-90591255D01*
X128063327Y-90591231D01*
X128064361Y-90591231D01*
X128064361Y-90591255D01*
G37*
D10*
X177800000Y-53594000D02*
X177800000Y-58674000D01*
D11*
G36*
X125864851Y-94375410D02*
G01*
X125550658Y-94375410D01*
X125550658Y-94061254D01*
X125864851Y-94061254D01*
X125864851Y-94375410D01*
G37*
G36*
X121451490Y-81780611D02*
G01*
X122079778Y-81780611D01*
X122079778Y-81466454D01*
X122393971Y-81466454D01*
X122393971Y-81780611D01*
X122708131Y-81780611D01*
X122708131Y-81466454D01*
X123336452Y-81466454D01*
X123336452Y-82094769D01*
X123022259Y-82094769D01*
X123022259Y-82408925D01*
X122394035Y-82408925D01*
X122394035Y-82094769D01*
X122079843Y-82094769D01*
X122079843Y-82408925D01*
X121765650Y-82408925D01*
X121765650Y-82094769D01*
X120823169Y-82094769D01*
X120823169Y-81780611D01*
X120509008Y-81780611D01*
X120509008Y-81466454D01*
X121451490Y-81466454D01*
X121451490Y-81780611D01*
G37*
G36*
X115469103Y-83665522D02*
G01*
X115469103Y-83351364D01*
X115783231Y-83351364D01*
X117354033Y-83351364D01*
X117354033Y-81780582D01*
X115783231Y-81780582D01*
X115783231Y-83351364D01*
X115469103Y-83351364D01*
X115469103Y-81466428D01*
X117668194Y-81466428D01*
X117668194Y-83665524D01*
X117354033Y-83665524D01*
X116568649Y-83665522D01*
X115469103Y-83665522D01*
G37*
D10*
X181864000Y-65439000D02*
X184912000Y-67564000D01*
D11*
G36*
X118610610Y-87763843D02*
G01*
X118296418Y-87763843D01*
X118296418Y-87449686D01*
X118610610Y-87449686D01*
X118610610Y-87763843D01*
G37*
D10*
X187420732Y-70104000D02*
G75*
G03*
X189515268Y-70104000I1047268J0D01*
G01*
D11*
G36*
X120196043Y-93432942D02*
G01*
X120195429Y-93432942D01*
X120195429Y-93432941D01*
X120196043Y-93432941D01*
X120196043Y-93432942D01*
G37*
D10*
X184584490Y-69088000D02*
G75*
G03*
X186679026Y-69088000I1047268J0D01*
G01*
D11*
G36*
X127749780Y-93747096D02*
G01*
X126807299Y-93747096D01*
X126807299Y-92804626D01*
X127749780Y-92804626D01*
X127749780Y-93747096D01*
G37*
G36*
X123965613Y-82094743D02*
G01*
X123651420Y-82094743D01*
X123651420Y-81466428D01*
X123965613Y-81466428D01*
X123965613Y-82094743D01*
G37*
G36*
X117039873Y-93747096D02*
G01*
X116097392Y-93747096D01*
X116097392Y-92804626D01*
X117039873Y-92804626D01*
X117039873Y-93747096D01*
G37*
G36*
X127749813Y-90591251D02*
G01*
X127435620Y-90591251D01*
X127435620Y-90277095D01*
X127749813Y-90277095D01*
X127749813Y-90591251D01*
G37*
D10*
X209804000Y-99314000D02*
X200914000Y-99314000D01*
X184912000Y-65439000D02*
X187706000Y-67310000D01*
D11*
G36*
X125864979Y-92490474D02*
G01*
X125550788Y-92490474D01*
X125550788Y-92176318D01*
X125864979Y-92176318D01*
X125864979Y-92490474D01*
G37*
G36*
X126807655Y-89334625D02*
G01*
X127121815Y-89334625D01*
X127121815Y-89648781D01*
X126807655Y-89648781D01*
X126807655Y-89962937D01*
X127121492Y-89962937D01*
X127121492Y-90277094D01*
X126964396Y-90277095D01*
X126807332Y-90277095D01*
X126807332Y-89962937D01*
X126179334Y-89962937D01*
X126179334Y-90277094D01*
X125865174Y-90277094D01*
X125865174Y-91233768D01*
X126175749Y-91230238D01*
X126486356Y-91226704D01*
X126486356Y-90912547D01*
X126179334Y-90904447D01*
X126179334Y-90591257D01*
X126493527Y-90591257D01*
X126493527Y-90277099D01*
X126807720Y-90277099D01*
X126807720Y-90591255D01*
X127121880Y-90591255D01*
X127121880Y-90919044D01*
X127436040Y-90919088D01*
X127750168Y-90919130D01*
X127750168Y-90591255D01*
X128063327Y-90591255D01*
X128063327Y-90919667D01*
X128377520Y-90919667D01*
X128377520Y-91547980D01*
X128064394Y-91548000D01*
X127750718Y-91548000D01*
X127742772Y-91226704D01*
X127589261Y-91222653D01*
X127435750Y-91218603D01*
X127435750Y-91862161D01*
X127121557Y-91862161D01*
X127121557Y-91548005D01*
X126179076Y-91548005D01*
X126179076Y-91862161D01*
X125550788Y-91862161D01*
X125550788Y-92176318D01*
X125222448Y-92176318D01*
X125225872Y-92486904D01*
X125229295Y-92797490D01*
X125547008Y-92801335D01*
X125864753Y-92805179D01*
X125864753Y-93747102D01*
X125236433Y-93747102D01*
X125236433Y-93432946D01*
X124907997Y-93432946D01*
X124907997Y-94061259D01*
X124593836Y-94061259D01*
X124593836Y-94375410D01*
X124279644Y-94375410D01*
X124279644Y-94061254D01*
X124593836Y-94061254D01*
X124593836Y-93433876D01*
X124754453Y-93429838D01*
X124915103Y-93425801D01*
X124919075Y-93272293D01*
X124923048Y-93118786D01*
X125221188Y-93118786D01*
X125225161Y-93272294D01*
X125229133Y-93425802D01*
X125389783Y-93429839D01*
X125550432Y-93433877D01*
X125550432Y-93118785D01*
X125385907Y-93118786D01*
X125221188Y-93118786D01*
X124923048Y-93118786D01*
X124923048Y-93118785D01*
X123965322Y-93118785D01*
X123965322Y-93432940D01*
X123651162Y-93432940D01*
X123651162Y-92804627D01*
X123337130Y-92804627D01*
X123337130Y-92490472D01*
X123022938Y-92490472D01*
X123022938Y-92490471D01*
X123337130Y-92490471D01*
X123651323Y-92490471D01*
X123651323Y-92176316D01*
X123964514Y-92176316D01*
X123968487Y-92329825D01*
X123972459Y-92483333D01*
X124125971Y-92487386D01*
X124279482Y-92491440D01*
X124279482Y-92176316D01*
X123964514Y-92176316D01*
X123651323Y-92176316D01*
X123651323Y-92176315D01*
X123337130Y-92176315D01*
X123337130Y-92490471D01*
X123022938Y-92490471D01*
X123022938Y-92176315D01*
X122708778Y-92176315D01*
X122708778Y-92490472D01*
X123022938Y-92490472D01*
X123022938Y-92804627D01*
X123336969Y-92804627D01*
X123336969Y-93118784D01*
X123022776Y-93118784D01*
X123022776Y-92804627D01*
X122708616Y-92804627D01*
X122708616Y-92490471D01*
X122394423Y-92490471D01*
X122394423Y-93118785D01*
X122708616Y-93118785D01*
X122708616Y-93747097D01*
X123022776Y-93747097D01*
X123022776Y-93432941D01*
X123336969Y-93432941D01*
X123336969Y-93747097D01*
X123651162Y-93747097D01*
X123651162Y-94061254D01*
X123965322Y-94061254D01*
X123965322Y-94375410D01*
X123337033Y-94375410D01*
X123337033Y-94061254D01*
X123022841Y-94061254D01*
X123022841Y-94375410D01*
X122394552Y-94375410D01*
X122394552Y-94061254D01*
X122080360Y-94061254D01*
X122080360Y-93747097D01*
X121452071Y-93747097D01*
X121452071Y-93432942D01*
X122081006Y-93432942D01*
X122081006Y-93747098D01*
X122395166Y-93747098D01*
X122395166Y-93432942D01*
X122081006Y-93432942D01*
X121452071Y-93432942D01*
X121452071Y-93432941D01*
X122080360Y-93432941D01*
X122080360Y-93118785D01*
X121766199Y-93118785D01*
X121766199Y-92804628D01*
X121137911Y-92804628D01*
X121137911Y-92490472D01*
X121452653Y-92490472D01*
X121766845Y-92490472D01*
X121766845Y-92176315D01*
X121452653Y-92176315D01*
X121452653Y-92490472D01*
X121137911Y-92490472D01*
X121137911Y-92176315D01*
X120823718Y-92176315D01*
X120823718Y-92804628D01*
X120510236Y-92804628D01*
X120510236Y-92176315D01*
X120196043Y-92176315D01*
X120196043Y-92804628D01*
X120509525Y-92804628D01*
X120509525Y-93118785D01*
X120823718Y-93118785D01*
X120823718Y-93432941D01*
X120196043Y-93432941D01*
X120196043Y-93118786D01*
X119567722Y-93118786D01*
X119567722Y-93432942D01*
X120195429Y-93432942D01*
X120195429Y-93747097D01*
X120509590Y-93747097D01*
X120509590Y-94375410D01*
X118296224Y-94375410D01*
X118296224Y-93432940D01*
X117982063Y-93432940D01*
X117982063Y-93118786D01*
X118610158Y-93118786D01*
X118614131Y-93272294D01*
X118618103Y-93425802D01*
X118771615Y-93429856D01*
X118925126Y-93433909D01*
X118925126Y-93747097D01*
X118610966Y-93747097D01*
X118610966Y-94061254D01*
X118939402Y-94061254D01*
X118939402Y-93747097D01*
X119253562Y-93747097D01*
X119253562Y-94061254D01*
X119567755Y-94061254D01*
X119567755Y-93747097D01*
X119566560Y-93747097D01*
X119410820Y-93747099D01*
X119253723Y-93747099D01*
X119253723Y-92804629D01*
X118925288Y-92804629D01*
X118925288Y-93118786D01*
X118610158Y-93118786D01*
X117982063Y-93118786D01*
X117982063Y-93118784D01*
X118296224Y-93118784D01*
X118296224Y-92490472D01*
X118610287Y-92490472D01*
X118618233Y-92797488D01*
X118760020Y-92801608D01*
X118788882Y-92802290D01*
X118816556Y-92802638D01*
X118842379Y-92802667D01*
X118865694Y-92802389D01*
X118885840Y-92801818D01*
X118902158Y-92800969D01*
X118913987Y-92799853D01*
X118918013Y-92799201D01*
X118920669Y-92798487D01*
X118921956Y-92797879D01*
X118923190Y-92797057D01*
X118924371Y-92796014D01*
X118925501Y-92794745D01*
X118926580Y-92793242D01*
X118927609Y-92791499D01*
X118928588Y-92789510D01*
X118929520Y-92787268D01*
X118930403Y-92784766D01*
X118931240Y-92782000D01*
X118932031Y-92778961D01*
X118932777Y-92775643D01*
X118933478Y-92772040D01*
X118934136Y-92768146D01*
X118935324Y-92759458D01*
X118936348Y-92749526D01*
X118937215Y-92738300D01*
X118937930Y-92725727D01*
X118938500Y-92711756D01*
X118938933Y-92696336D01*
X118939234Y-92679414D01*
X118939409Y-92660939D01*
X118939466Y-92640860D01*
X118939466Y-92490474D01*
X118775006Y-92490472D01*
X118610287Y-92490472D01*
X118296224Y-92490472D01*
X118296224Y-92490471D01*
X117982063Y-92490471D01*
X117982063Y-92176315D01*
X118296159Y-92176315D01*
X118300132Y-92329824D01*
X118304104Y-92483332D01*
X118445860Y-92487449D01*
X118474731Y-92488131D01*
X118502409Y-92488479D01*
X118528233Y-92488507D01*
X118551546Y-92488229D01*
X118571688Y-92487659D01*
X118588002Y-92486809D01*
X118599828Y-92485694D01*
X118603853Y-92485041D01*
X118606509Y-92484327D01*
X118607796Y-92483719D01*
X118609030Y-92482897D01*
X118610211Y-92481855D01*
X118611341Y-92480585D01*
X118612420Y-92479082D01*
X118613448Y-92477339D01*
X118614428Y-92475350D01*
X118615359Y-92473108D01*
X118616243Y-92470607D01*
X118617079Y-92467840D01*
X118617870Y-92464801D01*
X118618616Y-92461484D01*
X118619317Y-92457881D01*
X118619975Y-92453987D01*
X118621164Y-92445299D01*
X118622188Y-92435367D01*
X118623054Y-92424141D01*
X118623769Y-92411568D01*
X118624340Y-92397597D01*
X118624772Y-92382176D01*
X118625073Y-92365255D01*
X118625249Y-92346780D01*
X118625306Y-92326701D01*
X118625306Y-92176315D01*
X118296224Y-92176315D01*
X118296224Y-91548936D01*
X118333086Y-91548009D01*
X118609964Y-91548009D01*
X118613937Y-91701518D01*
X118617910Y-91855026D01*
X118771421Y-91859080D01*
X118924932Y-91863133D01*
X118924932Y-92016155D01*
X118925358Y-92087966D01*
X118926353Y-92170371D01*
X118928356Y-92326259D01*
X118931263Y-92483337D01*
X119245423Y-92483337D01*
X119249396Y-92329829D01*
X119253368Y-92176320D01*
X119566560Y-92176320D01*
X119566560Y-92491444D01*
X119720071Y-92487390D01*
X119873582Y-92483337D01*
X119877297Y-92172751D01*
X119881011Y-91862164D01*
X120028288Y-91862164D01*
X120058067Y-91861970D01*
X120086222Y-91861413D01*
X120112112Y-91860533D01*
X120135093Y-91859368D01*
X120154525Y-91857958D01*
X120169763Y-91856341D01*
X120180168Y-91854557D01*
X120183356Y-91853614D01*
X120185094Y-91852644D01*
X120185588Y-91851963D01*
X120186074Y-91850909D01*
X120187025Y-91847720D01*
X120187941Y-91843159D01*
X120188818Y-91837305D01*
X120189651Y-91830239D01*
X120190437Y-91822042D01*
X120191845Y-91802576D01*
X120193004Y-91779551D01*
X120193878Y-91753612D01*
X120194430Y-91725402D01*
X120194622Y-91695566D01*
X120194622Y-91548008D01*
X120038979Y-91548003D01*
X119881883Y-91548003D01*
X119881883Y-91862159D01*
X119567690Y-91862159D01*
X119567690Y-91548969D01*
X119721202Y-91544918D01*
X119874713Y-91540868D01*
X119874713Y-91226712D01*
X119564138Y-91223177D01*
X119401454Y-91221328D01*
X119253530Y-91219648D01*
X119253530Y-91548009D01*
X118609964Y-91548009D01*
X118333086Y-91548009D01*
X118617522Y-91540856D01*
X118620429Y-91383778D01*
X118622045Y-91310712D01*
X118623037Y-91227890D01*
X118623043Y-91226706D01*
X118932587Y-91226706D01*
X119074374Y-91230826D01*
X119103246Y-91231504D01*
X119130944Y-91231842D01*
X119156808Y-91231853D01*
X119180177Y-91231553D01*
X119200390Y-91230955D01*
X119216784Y-91230074D01*
X119228700Y-91228923D01*
X119232772Y-91228252D01*
X119235475Y-91227518D01*
X119236855Y-91226888D01*
X119238168Y-91226068D01*
X119239414Y-91225051D01*
X119240595Y-91223825D01*
X119241711Y-91222382D01*
X119242763Y-91220711D01*
X119243753Y-91218804D01*
X119244681Y-91216651D01*
X119245548Y-91214241D01*
X119246355Y-91211567D01*
X119247102Y-91208618D01*
X119247792Y-91205385D01*
X119248425Y-91201857D01*
X119249001Y-91198027D01*
X119249522Y-91193883D01*
X119249989Y-91189417D01*
X119250763Y-91179479D01*
X119251330Y-91168137D01*
X119251699Y-91155314D01*
X119251876Y-91140935D01*
X119251869Y-91124922D01*
X119251685Y-91107200D01*
X119251332Y-91087692D01*
X119250817Y-91066322D01*
X119247029Y-90919693D01*
X119253885Y-90919693D01*
X119401454Y-90919693D01*
X119431292Y-90919490D01*
X119459526Y-90918906D01*
X119485509Y-90917984D01*
X119508593Y-90916763D01*
X119528132Y-90915286D01*
X119543478Y-90913592D01*
X119553984Y-90911722D01*
X119557219Y-90910735D01*
X119559002Y-90909718D01*
X119559514Y-90909010D01*
X119560009Y-90907921D01*
X119560945Y-90904640D01*
X119561806Y-90899958D01*
X119562590Y-90893957D01*
X119563293Y-90886720D01*
X119563913Y-90878328D01*
X119564888Y-90858414D01*
X119565491Y-90834871D01*
X119565697Y-90808360D01*
X119565480Y-90779540D01*
X119564816Y-90749069D01*
X119560843Y-90598396D01*
X119407396Y-90594340D01*
X119290652Y-90591260D01*
X119568691Y-90591260D01*
X119882852Y-90591260D01*
X119882852Y-90919696D01*
X120030420Y-90919696D01*
X120060257Y-90919492D01*
X120088488Y-90918909D01*
X120114467Y-90917987D01*
X120137548Y-90916766D01*
X120157085Y-90915289D01*
X120172431Y-90913595D01*
X120182941Y-90911725D01*
X120186181Y-90910737D01*
X120187969Y-90909721D01*
X120188481Y-90909013D01*
X120188976Y-90907924D01*
X120189912Y-90904643D01*
X120190773Y-90899961D01*
X120191557Y-90893960D01*
X120192260Y-90886723D01*
X120192880Y-90878331D01*
X120193855Y-90858417D01*
X120194458Y-90834875D01*
X120194663Y-90808364D01*
X120194447Y-90779544D01*
X120193782Y-90749073D01*
X120189810Y-90598399D01*
X120035555Y-90594340D01*
X119882044Y-90590290D01*
X119882044Y-90437265D01*
X119881618Y-90365454D01*
X119880623Y-90283050D01*
X119878621Y-90127161D01*
X119875714Y-89970083D01*
X119722203Y-89966032D01*
X119568691Y-89961980D01*
X119568691Y-90591260D01*
X119290652Y-90591260D01*
X119253885Y-90590290D01*
X119253885Y-90919693D01*
X119247029Y-90919693D01*
X119246844Y-90912551D01*
X119089651Y-90912549D01*
X118932587Y-90912549D01*
X118932587Y-91226706D01*
X118623043Y-91226706D01*
X118623852Y-91073674D01*
X118623852Y-90920648D01*
X118777364Y-90916598D01*
X118930875Y-90912547D01*
X118934848Y-90751899D01*
X118938820Y-90591251D01*
X119251560Y-90591251D01*
X119248394Y-90123587D01*
X119244971Y-89655921D01*
X119091460Y-89651869D01*
X118937980Y-89647818D01*
X118937980Y-89494793D01*
X118937555Y-89422982D01*
X118936559Y-89340577D01*
X118934557Y-89184690D01*
X118931650Y-89027612D01*
X118617457Y-89027612D01*
X118613485Y-89180643D01*
X118609512Y-89333674D01*
X118456485Y-89337719D01*
X118303491Y-89341771D01*
X118300326Y-89961420D01*
X118296159Y-90400641D01*
X118293931Y-90535495D01*
X118291605Y-90586497D01*
X118277891Y-90587654D01*
X118240639Y-90588861D01*
X118105784Y-90591282D01*
X117907567Y-90593476D01*
X117666514Y-90595160D01*
X117353872Y-90596793D01*
X117046849Y-90598396D01*
X117042877Y-90751904D01*
X117038904Y-90905412D01*
X116725713Y-90905412D01*
X116725713Y-90591256D01*
X116411552Y-90591256D01*
X116411552Y-90905412D01*
X115783231Y-90905412D01*
X115783231Y-90591256D01*
X116097424Y-90591256D01*
X116097424Y-89962943D01*
X115783231Y-89962943D01*
X115783231Y-89648787D01*
X116097424Y-89648787D01*
X116097424Y-89334631D01*
X116411617Y-89334631D01*
X116411617Y-89020474D01*
X116097424Y-89020474D01*
X116097424Y-88706469D01*
X116096714Y-88706469D01*
X116096714Y-88706318D01*
X116097424Y-88706318D01*
X116097424Y-88706469D01*
X116410874Y-88706469D01*
X116410874Y-88078156D01*
X116096714Y-88078156D01*
X116096714Y-87764000D01*
X116410874Y-87764000D01*
X116410874Y-87449844D01*
X116725067Y-87449844D01*
X116725067Y-87135688D01*
X117667548Y-87135688D01*
X117667548Y-86821531D01*
X117981708Y-86821531D01*
X117981708Y-87135688D01*
X118295901Y-87135688D01*
X118295901Y-87449844D01*
X117981708Y-87449844D01*
X117981708Y-88078156D01*
X117039259Y-88078156D01*
X117039259Y-87764000D01*
X117667548Y-87764000D01*
X117667548Y-87449844D01*
X117039259Y-87449844D01*
X117039259Y-87764000D01*
X116725067Y-87764000D01*
X116725067Y-88706469D01*
X117039259Y-88706469D01*
X117039259Y-89648940D01*
X116410939Y-89648940D01*
X116410939Y-90277095D01*
X116725131Y-90277095D01*
X116725131Y-90591251D01*
X117039324Y-90591251D01*
X117039324Y-90277090D01*
X117353872Y-90277090D01*
X117983162Y-90277090D01*
X117983162Y-89962378D01*
X117672392Y-89966230D01*
X117361817Y-89970073D01*
X117357845Y-90123582D01*
X117353872Y-90277090D01*
X117039324Y-90277090D01*
X117039324Y-89648781D01*
X117667612Y-89648781D01*
X117667612Y-89334625D01*
X117353420Y-89334625D01*
X117353420Y-89020468D01*
X118295901Y-89020468D01*
X118295901Y-88706312D01*
X119252658Y-88706312D01*
X119252658Y-89334625D01*
X119880946Y-89334625D01*
X119880946Y-89648781D01*
X120195139Y-89648781D01*
X120195139Y-89334625D01*
X120509299Y-89334625D01*
X120509299Y-89962937D01*
X120195139Y-89962937D01*
X120195139Y-90277094D01*
X120509299Y-90277094D01*
X120509299Y-90920653D01*
X120662810Y-90916603D01*
X120816322Y-90912552D01*
X120823750Y-90277100D01*
X121137362Y-90277100D01*
X121137362Y-90591256D01*
X121451554Y-90591256D01*
X121451554Y-90277100D01*
X121765715Y-90277100D01*
X121765715Y-90905412D01*
X121448001Y-90906233D01*
X121178497Y-90906355D01*
X120976745Y-90905466D01*
X120823234Y-90903852D01*
X120823234Y-91219558D01*
X120509073Y-91219558D01*
X120509073Y-91863123D01*
X120662584Y-91859070D01*
X120816096Y-91855016D01*
X120820068Y-91701508D01*
X120824041Y-91548000D01*
X121451393Y-91548000D01*
X121451393Y-91862156D01*
X122079681Y-91862156D01*
X122079681Y-92490469D01*
X122393874Y-92490469D01*
X122393874Y-91862156D01*
X122708035Y-91862156D01*
X122708035Y-91548002D01*
X123336678Y-91548002D01*
X123344624Y-91855018D01*
X123498103Y-91859072D01*
X123651614Y-91863125D01*
X123651614Y-91862161D01*
X124594225Y-91862161D01*
X124597647Y-92329826D01*
X124600813Y-92797490D01*
X124915005Y-92797490D01*
X124917912Y-92640412D01*
X124919528Y-92567309D01*
X124920520Y-92484382D01*
X124921336Y-92329826D01*
X124921336Y-92176318D01*
X125068904Y-92176318D01*
X125098733Y-92176123D01*
X125126938Y-92175566D01*
X125152876Y-92174686D01*
X125175903Y-92173521D01*
X125195373Y-92172111D01*
X125210642Y-92170494D01*
X125221066Y-92168710D01*
X125224260Y-92167768D01*
X125226000Y-92166798D01*
X125226494Y-92166117D01*
X125226980Y-92165062D01*
X125227931Y-92161874D01*
X125228847Y-92157312D01*
X125229724Y-92151458D01*
X125230558Y-92144392D01*
X125231343Y-92136195D01*
X125232751Y-92116729D01*
X125233911Y-92093704D01*
X125234785Y-92067765D01*
X125235336Y-92039555D01*
X125235529Y-92009720D01*
X125235529Y-91862161D01*
X124594225Y-91862161D01*
X123651614Y-91862161D01*
X123651614Y-91548002D01*
X123336678Y-91548002D01*
X122708035Y-91548002D01*
X122708035Y-91548000D01*
X123022227Y-91548000D01*
X123022227Y-91540854D01*
X123658525Y-91540854D01*
X123969133Y-91544388D01*
X124279741Y-91547923D01*
X124279741Y-90912547D01*
X124286782Y-90912547D01*
X124440293Y-90916598D01*
X124593804Y-90920648D01*
X124593804Y-90590280D01*
X124440293Y-90594340D01*
X124286782Y-90598391D01*
X124286782Y-90912547D01*
X124279741Y-90912547D01*
X124279741Y-90904439D01*
X124126035Y-90908497D01*
X123972524Y-90912547D01*
X123968552Y-91065577D01*
X123964579Y-91218607D01*
X123811585Y-91222652D01*
X123658525Y-91226698D01*
X123658525Y-91540854D01*
X123022227Y-91540854D01*
X123022227Y-91233843D01*
X123182876Y-91233023D01*
X123341406Y-91232901D01*
X123497004Y-91233790D01*
X123650515Y-91235404D01*
X123650515Y-90906053D01*
X123025780Y-90909307D01*
X122401012Y-90912556D01*
X122393066Y-91218616D01*
X122240040Y-91222661D01*
X122087013Y-91226707D01*
X122083040Y-91387355D01*
X122079068Y-91548003D01*
X121451716Y-91548003D01*
X121451716Y-91233846D01*
X122080004Y-91233846D01*
X122080004Y-90591253D01*
X122708293Y-90591253D01*
X122708293Y-90277097D01*
X123022485Y-90277097D01*
X123022485Y-89962939D01*
X122708874Y-89962939D01*
X122708874Y-89648783D01*
X122394682Y-89648783D01*
X122394682Y-89962939D01*
X122080521Y-89962939D01*
X122080521Y-90277096D01*
X121766328Y-90277096D01*
X121766328Y-89962939D01*
X121138040Y-89962939D01*
X121138040Y-89334627D01*
X120509719Y-89334627D01*
X120509719Y-89020470D01*
X121138040Y-89020470D01*
X121138040Y-88706314D01*
X121452201Y-88706314D01*
X121452201Y-88392157D01*
X121766393Y-88392157D01*
X121766393Y-89020468D01*
X121138137Y-89020468D01*
X121138137Y-89334625D01*
X121452297Y-89334625D01*
X121452297Y-89648781D01*
X121766490Y-89648781D01*
X121766490Y-89962937D01*
X122080682Y-89962937D01*
X122080682Y-89648781D01*
X122394843Y-89648781D01*
X122394843Y-89334625D01*
X122709035Y-89334625D01*
X122709035Y-89020470D01*
X122708809Y-89020470D01*
X122708809Y-89020468D01*
X122551810Y-89020470D01*
X122394714Y-89020470D01*
X122394714Y-89334625D01*
X121766425Y-89334625D01*
X121766425Y-89020470D01*
X121766393Y-89020470D01*
X121766393Y-89020468D01*
X121766425Y-89020468D01*
X121766425Y-89020470D01*
X122394682Y-89020470D01*
X122394682Y-88392157D01*
X122080521Y-88392157D01*
X122080521Y-88078001D01*
X122708809Y-88078001D01*
X122708809Y-89020468D01*
X122709035Y-89020468D01*
X122709035Y-89020470D01*
X123337098Y-89020470D01*
X123337098Y-89334625D01*
X123180131Y-89334627D01*
X123023067Y-89334627D01*
X123023067Y-89962939D01*
X123336646Y-89962939D01*
X123336646Y-90277096D01*
X123650838Y-90277096D01*
X123650838Y-89962939D01*
X123965031Y-89962939D01*
X123965031Y-90276131D01*
X123811520Y-90280181D01*
X123658009Y-90284232D01*
X123650063Y-90591248D01*
X124279353Y-90591248D01*
X124279353Y-90277091D01*
X124907642Y-90277091D01*
X124907642Y-90437740D01*
X124911066Y-91069623D01*
X124914230Y-91540858D01*
X125067257Y-91544903D01*
X125220284Y-91548953D01*
X125224257Y-91701983D01*
X125228229Y-91855013D01*
X125542422Y-91855013D01*
X125546395Y-91701983D01*
X125550367Y-91548953D01*
X125703362Y-91544903D01*
X125856389Y-91540858D01*
X125856389Y-91233848D01*
X126807364Y-91233848D01*
X126954900Y-91233848D01*
X126984748Y-91233645D01*
X127012986Y-91233062D01*
X127038970Y-91232139D01*
X127062052Y-91230919D01*
X127081587Y-91229441D01*
X127096929Y-91227747D01*
X127107432Y-91225878D01*
X127110667Y-91224890D01*
X127112449Y-91223874D01*
X127112961Y-91223165D01*
X127113456Y-91222076D01*
X127114392Y-91218795D01*
X127115253Y-91214113D01*
X127116037Y-91208112D01*
X127116741Y-91200875D01*
X127117360Y-91192484D01*
X127118335Y-91172569D01*
X127118938Y-91149027D01*
X127119144Y-91122517D01*
X127118927Y-91093696D01*
X127118263Y-91063225D01*
X127114290Y-90912550D01*
X126960875Y-90908496D01*
X126807364Y-90904446D01*
X126807364Y-91233848D01*
X125856389Y-91233848D01*
X125856389Y-91226702D01*
X125702878Y-91222651D01*
X125549398Y-91218601D01*
X125549398Y-91065575D01*
X125545974Y-90598394D01*
X125543068Y-90284236D01*
X125390009Y-90280186D01*
X125237014Y-90276141D01*
X125233041Y-90123110D01*
X125229069Y-89970079D01*
X124914909Y-89967017D01*
X124908837Y-89966971D01*
X124593804Y-89964602D01*
X124593643Y-89964601D01*
X124440099Y-89963446D01*
X124286056Y-89962939D01*
X125550562Y-89962939D01*
X125864753Y-89962939D01*
X125864753Y-89648783D01*
X126179851Y-89648783D01*
X126175878Y-89495274D01*
X126171905Y-89341764D01*
X126018265Y-89337713D01*
X125864753Y-89333662D01*
X125864753Y-89648783D01*
X125550562Y-89648783D01*
X125550562Y-89962939D01*
X124286056Y-89962939D01*
X124279676Y-89962918D01*
X124279450Y-89962917D01*
X124279450Y-89648785D01*
X124908837Y-89648785D01*
X125236788Y-89648785D01*
X125236788Y-89334628D01*
X125550981Y-89334628D01*
X125550981Y-89020472D01*
X126179269Y-89020472D01*
X126179269Y-88706316D01*
X126493462Y-88706316D01*
X126493462Y-89020468D01*
X126807299Y-89020468D01*
X126807299Y-88706312D01*
X127749813Y-88706312D01*
X128063973Y-88706312D01*
X128063973Y-88392156D01*
X127749813Y-88392156D01*
X127749813Y-88706312D01*
X126807299Y-88706312D01*
X126493106Y-88706312D01*
X126493106Y-88392156D01*
X126178914Y-88392156D01*
X126178914Y-88706013D01*
X125547041Y-88709733D01*
X124915167Y-88713454D01*
X124912002Y-89181119D01*
X124908837Y-89648785D01*
X124279450Y-89648785D01*
X124279450Y-89648783D01*
X124279676Y-89648783D01*
X124279676Y-89648761D01*
X124593643Y-89648761D01*
X124593643Y-88392157D01*
X124593804Y-88392157D01*
X124593804Y-88392136D01*
X124593643Y-88392136D01*
X124593643Y-88392157D01*
X124436773Y-88392156D01*
X124279676Y-88392156D01*
X124279676Y-89648761D01*
X124279450Y-89648761D01*
X124279450Y-89648783D01*
X123965483Y-89648783D01*
X123965483Y-89020470D01*
X123651323Y-89020470D01*
X123651323Y-88078001D01*
X124279611Y-88078001D01*
X124279611Y-87763845D01*
X124593804Y-87763845D01*
X124593804Y-88392136D01*
X124922079Y-88392136D01*
X124922079Y-88077979D01*
X125236271Y-88077979D01*
X125236271Y-87449666D01*
X125550432Y-87449666D01*
X125550432Y-87763822D01*
X125864625Y-87763822D01*
X125864625Y-88077434D01*
X125546912Y-88081277D01*
X125229166Y-88085121D01*
X125225194Y-88238628D01*
X125221221Y-88392137D01*
X125864753Y-88392137D01*
X125864753Y-88077999D01*
X126807235Y-88077999D01*
X127121396Y-88077999D01*
X127121396Y-87763843D01*
X126807235Y-87763843D01*
X126807235Y-88077999D01*
X125864753Y-88077999D01*
X125864753Y-88077981D01*
X126493043Y-88077981D01*
X126493043Y-87763825D01*
X126178882Y-87763825D01*
X126178882Y-87449686D01*
X126178946Y-87449686D01*
X126178946Y-87449668D01*
X126178882Y-87449668D01*
X126178882Y-87449686D01*
X125864753Y-87449686D01*
X125864753Y-87135530D01*
X126178946Y-87135530D01*
X126178946Y-87449668D01*
X126807170Y-87449668D01*
X126807170Y-87135512D01*
X126178882Y-87135512D01*
X126178882Y-86821356D01*
X127121363Y-86821356D01*
X127121363Y-86507254D01*
X127120943Y-86507254D01*
X127120943Y-86507199D01*
X126493075Y-86507217D01*
X125864753Y-86507217D01*
X125864753Y-86194026D01*
X126018265Y-86189971D01*
X126171776Y-86185915D01*
X126175749Y-86032885D01*
X126179721Y-85879855D01*
X126332717Y-85875800D01*
X126485743Y-85871745D01*
X126489715Y-85718238D01*
X126493688Y-85564728D01*
X125550238Y-85564728D01*
X125550238Y-85878879D01*
X125220833Y-85878879D01*
X125224805Y-86032388D01*
X125228778Y-86185897D01*
X125542939Y-86185897D01*
X125546912Y-86032388D01*
X125550884Y-85878879D01*
X125864075Y-85878879D01*
X125864075Y-86193037D01*
X125549915Y-86193037D01*
X125549915Y-86507193D01*
X125864075Y-86507193D01*
X125864075Y-86821348D01*
X125549915Y-86821348D01*
X125549915Y-87135506D01*
X125235722Y-87135506D01*
X125235722Y-86821348D01*
X124905704Y-86821348D01*
X124908352Y-86974857D01*
X124908352Y-87763817D01*
X124594160Y-87763817D01*
X124594160Y-87449660D01*
X123965871Y-87449660D01*
X123965871Y-87135504D01*
X123651679Y-87135504D01*
X123651679Y-86507219D01*
X123965613Y-86507219D01*
X123969585Y-86660726D01*
X123973558Y-86814236D01*
X124127069Y-86818291D01*
X124280580Y-86822347D01*
X124280580Y-86507225D01*
X124594740Y-86507225D01*
X124594740Y-86193067D01*
X124749447Y-86193067D01*
X124750414Y-86193061D01*
X124906995Y-86193061D01*
X124910968Y-86346570D01*
X124914941Y-86500080D01*
X125056728Y-86504202D01*
X125085591Y-86504887D01*
X125113264Y-86505243D01*
X125139088Y-86505281D01*
X125162402Y-86505012D01*
X125182548Y-86504446D01*
X125198866Y-86503594D01*
X125210696Y-86502467D01*
X125214721Y-86501804D01*
X125217377Y-86501077D01*
X125218664Y-86500469D01*
X125219898Y-86499646D01*
X125221080Y-86498604D01*
X125222209Y-86497334D01*
X125223288Y-86495831D01*
X125224317Y-86494088D01*
X125225297Y-86492099D01*
X125226228Y-86489857D01*
X125227111Y-86487356D01*
X125227948Y-86484589D01*
X125228739Y-86481550D01*
X125229485Y-86478232D01*
X125230186Y-86474630D01*
X125230844Y-86470736D01*
X125232032Y-86462047D01*
X125233056Y-86452116D01*
X125233923Y-86440889D01*
X125234638Y-86428317D01*
X125235208Y-86414346D01*
X125235641Y-86398926D01*
X125235941Y-86382004D01*
X125236117Y-86363530D01*
X125236174Y-86343451D01*
X125236174Y-86193065D01*
X125138867Y-86193062D01*
X125071682Y-86193061D01*
X124906995Y-86193061D01*
X124750414Y-86193061D01*
X124780724Y-86192873D01*
X124810276Y-86192317D01*
X124837432Y-86191438D01*
X124861516Y-86190273D01*
X124881857Y-86188864D01*
X124897780Y-86187247D01*
X124908613Y-86185463D01*
X124911910Y-86184520D01*
X124913682Y-86183550D01*
X124914175Y-86182869D01*
X124914661Y-86181814D01*
X124915612Y-86178625D01*
X124916528Y-86174063D01*
X124917405Y-86168209D01*
X124918238Y-86161143D01*
X124919024Y-86152946D01*
X124920431Y-86133480D01*
X124921591Y-86110456D01*
X124922465Y-86084517D01*
X124923017Y-86056307D01*
X124923209Y-86026471D01*
X124923209Y-85878913D01*
X124600167Y-85878904D01*
X124278094Y-85878904D01*
X124280742Y-86032414D01*
X124280742Y-86507219D01*
X123965613Y-86507219D01*
X123651679Y-86507219D01*
X123651679Y-86507189D01*
X123023390Y-86507189D01*
X123023390Y-86821348D01*
X123337583Y-86821348D01*
X123337583Y-87135506D01*
X122395101Y-87135506D01*
X122395101Y-86821348D01*
X122709262Y-86821348D01*
X122709262Y-86507191D01*
X122080973Y-86507191D01*
X122080973Y-86193035D01*
X122709262Y-86193035D01*
X122709262Y-85564720D01*
X123022453Y-85564720D01*
X123026426Y-85718229D01*
X123030398Y-85871736D01*
X123498070Y-85875503D01*
X123965709Y-85879270D01*
X123965709Y-85564724D01*
X123651549Y-85564724D01*
X123651549Y-85250590D01*
X123964514Y-85250590D01*
X123968487Y-85404099D01*
X123972459Y-85557609D01*
X124125971Y-85561664D01*
X124279482Y-85565720D01*
X124279482Y-85250598D01*
X124161418Y-85250592D01*
X124592835Y-85250592D01*
X124596808Y-85404101D01*
X124600780Y-85557610D01*
X124753840Y-85561665D01*
X124906834Y-85565709D01*
X124910807Y-85718740D01*
X124914779Y-85871769D01*
X125056567Y-85875891D01*
X125085422Y-85876576D01*
X125113075Y-85876934D01*
X125138867Y-85876977D01*
X125162140Y-85876716D01*
X125182237Y-85876164D01*
X125198500Y-85875334D01*
X125210271Y-85874237D01*
X125214267Y-85873592D01*
X125216893Y-85872886D01*
X125218227Y-85872174D01*
X125219501Y-85871065D01*
X125220715Y-85869540D01*
X125221870Y-85867580D01*
X125222968Y-85865166D01*
X125224010Y-85862277D01*
X125224997Y-85858896D01*
X125225930Y-85855003D01*
X125227640Y-85845605D01*
X125229150Y-85833929D01*
X125230470Y-85819822D01*
X125231609Y-85803131D01*
X125232577Y-85783702D01*
X125233385Y-85761383D01*
X125234041Y-85736020D01*
X125234556Y-85707459D01*
X125234940Y-85675548D01*
X125235202Y-85640133D01*
X125235400Y-85558180D01*
X125235400Y-85250596D01*
X125230523Y-85250596D01*
X124914295Y-85250592D01*
X124592835Y-85250592D01*
X124161418Y-85250592D01*
X124122063Y-85250590D01*
X123964514Y-85250590D01*
X123651549Y-85250590D01*
X123651549Y-84921164D01*
X123498038Y-84925220D01*
X123344526Y-84929275D01*
X123340554Y-85089923D01*
X123336581Y-85250572D01*
X123023357Y-85250572D01*
X123023357Y-84920586D01*
X122869846Y-84922200D01*
X122714244Y-84923094D01*
X122555686Y-84922994D01*
X122395069Y-84922200D01*
X122395069Y-84293888D01*
X123022809Y-84293888D01*
X123030237Y-84929342D01*
X123183748Y-84933397D01*
X123337259Y-84937453D01*
X123337259Y-84615155D01*
X123659882Y-84615155D01*
X123816946Y-84618085D01*
X123972856Y-84620343D01*
X124127069Y-84621655D01*
X124280096Y-84622317D01*
X124284069Y-84775827D01*
X124288042Y-84929335D01*
X125230523Y-84929335D01*
X125234495Y-84775827D01*
X125238468Y-84622317D01*
X125385520Y-84622317D01*
X125415262Y-84622124D01*
X125443381Y-84621569D01*
X125469235Y-84620692D01*
X125492183Y-84619533D01*
X125511582Y-84618129D01*
X125526790Y-84616519D01*
X125537166Y-84614744D01*
X125540341Y-84613806D01*
X125542067Y-84612841D01*
X125543029Y-84610276D01*
X125543925Y-84604645D01*
X125545510Y-84584838D01*
X125546796Y-84554721D01*
X125547760Y-84515599D01*
X125548375Y-84468774D01*
X125548616Y-84415549D01*
X125548460Y-84357227D01*
X125547881Y-84295113D01*
X125544457Y-83986863D01*
X125389880Y-83982772D01*
X125272621Y-83979683D01*
X125864753Y-83979683D01*
X126807235Y-83979683D01*
X126807235Y-83037211D01*
X126335978Y-83037214D01*
X125864753Y-83037214D01*
X125864753Y-83979683D01*
X125272621Y-83979683D01*
X125236369Y-83978728D01*
X125236369Y-83665537D01*
X125550464Y-83665537D01*
X125547041Y-83354949D01*
X125543617Y-83044362D01*
X125229457Y-83044362D01*
X125221511Y-83350422D01*
X125068485Y-83354477D01*
X124915490Y-83358520D01*
X124912583Y-83515598D01*
X124910967Y-83588663D01*
X124909975Y-83671485D01*
X124909159Y-83825702D01*
X124909159Y-83978728D01*
X124755648Y-83982772D01*
X124602137Y-83986827D01*
X124598164Y-84140336D01*
X124594192Y-84293843D01*
X124907964Y-84293843D01*
X124907964Y-84608000D01*
X124593804Y-84608000D01*
X124593804Y-84293845D01*
X124594192Y-84293843D01*
X124593804Y-84293843D01*
X124593804Y-84293845D01*
X124441197Y-84294372D01*
X123974010Y-84297941D01*
X123659882Y-84301000D01*
X123659882Y-84615155D01*
X123337259Y-84615155D01*
X123337259Y-84293894D01*
X123651420Y-84293894D01*
X123651420Y-83978772D01*
X123497908Y-83982828D01*
X123344430Y-83986883D01*
X123340457Y-84140392D01*
X123336485Y-84293901D01*
X123023293Y-84293901D01*
X123023293Y-83665587D01*
X122709100Y-83665587D01*
X122709100Y-83979735D01*
X122394908Y-83979735D01*
X122394908Y-84293894D01*
X121452427Y-84293894D01*
X121452427Y-83979735D01*
X121766619Y-83979735D01*
X121766619Y-83665579D01*
X120824138Y-83665579D01*
X120824138Y-83351422D01*
X120509945Y-83351422D01*
X120509945Y-83037264D01*
X120195785Y-83037264D01*
X120195785Y-82723108D01*
X119881592Y-82723108D01*
X119881592Y-82094793D01*
X119253304Y-82094793D01*
X119253304Y-82408019D01*
X119092655Y-82412063D01*
X118932005Y-82416091D01*
X118928033Y-82569323D01*
X118924060Y-82722553D01*
X118613937Y-82726400D01*
X118303846Y-82730247D01*
X118300132Y-83040835D01*
X118296418Y-83351422D01*
X118923544Y-83351422D01*
X118928033Y-83519212D01*
X118929523Y-83595872D01*
X118930019Y-83680567D01*
X118929523Y-83763004D01*
X118928033Y-83832889D01*
X118924060Y-83978779D01*
X118771033Y-83982834D01*
X118618007Y-83986877D01*
X118614034Y-84140386D01*
X118610061Y-84293894D01*
X118924254Y-84293894D01*
X118928227Y-84454543D01*
X118932199Y-84615192D01*
X119246392Y-84615192D01*
X119249557Y-84143957D01*
X119252165Y-83763957D01*
X119252981Y-83512073D01*
X119252981Y-83351425D01*
X120509622Y-83351425D01*
X120509622Y-83665581D01*
X119881301Y-83665581D01*
X119881301Y-84293892D01*
X119567141Y-84293892D01*
X119567141Y-84608050D01*
X119252948Y-84608050D01*
X119252948Y-84936074D01*
X119877717Y-84935812D01*
X120663101Y-84936074D01*
X120823718Y-84936603D01*
X120823718Y-85250757D01*
X120509558Y-85250757D01*
X120509558Y-85564914D01*
X120195365Y-85564914D01*
X120195365Y-85880035D01*
X120348876Y-85875979D01*
X120502388Y-85871924D01*
X120506360Y-85718415D01*
X120510333Y-85564908D01*
X120823524Y-85564908D01*
X120823524Y-85879063D01*
X121137717Y-85879063D01*
X121137717Y-86193218D01*
X120823524Y-86193218D01*
X120823524Y-86507375D01*
X121137717Y-86507375D01*
X121137717Y-86193218D01*
X121451910Y-86193218D01*
X121451910Y-86507375D01*
X121766070Y-86507375D01*
X121766070Y-86821533D01*
X122080263Y-86821533D01*
X122080263Y-87449846D01*
X121451974Y-87449846D01*
X121451974Y-88078161D01*
X121137782Y-88078161D01*
X121137782Y-88706473D01*
X120509493Y-88706473D01*
X120509493Y-89020630D01*
X119567012Y-89020630D01*
X119567012Y-88706473D01*
X119252819Y-88706473D01*
X119252819Y-88392317D01*
X118938659Y-88392317D01*
X118938659Y-88078161D01*
X118624466Y-88078161D01*
X118624466Y-88078001D01*
X119253691Y-88078001D01*
X119567852Y-88078001D01*
X119567852Y-87763845D01*
X119882044Y-87763845D01*
X119882044Y-86821374D01*
X119567852Y-86821374D01*
X119567852Y-87449688D01*
X119253691Y-87449688D01*
X119253691Y-88078001D01*
X118624466Y-88078001D01*
X118624466Y-87764004D01*
X118938659Y-87764004D01*
X118938659Y-87136657D01*
X119092138Y-87132601D01*
X119245649Y-87128546D01*
X119249622Y-86975037D01*
X119253594Y-86821527D01*
X118938497Y-86821527D01*
X118938497Y-86507375D01*
X119881043Y-86507375D01*
X120195236Y-86507375D01*
X120195236Y-87135690D01*
X121137717Y-87135690D01*
X121137717Y-86821533D01*
X120823524Y-86821533D01*
X120823524Y-86507375D01*
X120509364Y-86507375D01*
X120509364Y-86193218D01*
X119881043Y-86193218D01*
X119881043Y-86507375D01*
X118938497Y-86507375D01*
X118938497Y-86507371D01*
X118610029Y-86507371D01*
X118610029Y-86821525D01*
X118295868Y-86821525D01*
X118295868Y-86507369D01*
X117668129Y-86507369D01*
X117668129Y-86507215D01*
X117667580Y-86507215D01*
X117667580Y-86193211D01*
X117981741Y-86193211D01*
X117981741Y-86193059D01*
X118296159Y-86193059D01*
X118300132Y-86346568D01*
X118304104Y-86500078D01*
X118445860Y-86504199D01*
X118474731Y-86504884D01*
X118502409Y-86505241D01*
X118528233Y-86505279D01*
X118551546Y-86505009D01*
X118571688Y-86504444D01*
X118588002Y-86503592D01*
X118599828Y-86502465D01*
X118603853Y-86501802D01*
X118606509Y-86501075D01*
X118607796Y-86500467D01*
X118609030Y-86499644D01*
X118610211Y-86498602D01*
X118611341Y-86497332D01*
X118612420Y-86495829D01*
X118613448Y-86494086D01*
X118614428Y-86492097D01*
X118615359Y-86489855D01*
X118616243Y-86487354D01*
X118617079Y-86484587D01*
X118617870Y-86481548D01*
X118618616Y-86478230D01*
X118619317Y-86474628D01*
X118619975Y-86470733D01*
X118621164Y-86462045D01*
X118622188Y-86452114D01*
X118623054Y-86440887D01*
X118623769Y-86428315D01*
X118624340Y-86414344D01*
X118624772Y-86398924D01*
X118625073Y-86382002D01*
X118625249Y-86363528D01*
X118625306Y-86343450D01*
X118625306Y-86193063D01*
X118460878Y-86193059D01*
X118296159Y-86193059D01*
X117981741Y-86193059D01*
X117981741Y-85879054D01*
X117667580Y-85879054D01*
X117667580Y-85564897D01*
X117352451Y-85564897D01*
X117356423Y-85718405D01*
X117360396Y-85871914D01*
X117513907Y-85875970D01*
X117667419Y-85880025D01*
X117667419Y-86193214D01*
X117039130Y-86193214D01*
X117039130Y-85879056D01*
X116724937Y-85879056D01*
X116724937Y-85564899D01*
X116096649Y-85564899D01*
X116096649Y-85564744D01*
X117981773Y-85564744D01*
X117985746Y-85718251D01*
X117989718Y-85871761D01*
X118146814Y-85874688D01*
X118302696Y-85876946D01*
X118456905Y-85878259D01*
X118609932Y-85878920D01*
X118613905Y-86032431D01*
X118617877Y-86185940D01*
X118770904Y-86189995D01*
X118923931Y-86194038D01*
X118927904Y-86347067D01*
X118931876Y-86500098D01*
X119246069Y-86500098D01*
X119248976Y-86343019D01*
X119250592Y-86269955D01*
X119251584Y-86187132D01*
X119252399Y-86032917D01*
X119252399Y-85879891D01*
X119405911Y-85875836D01*
X119559422Y-85871781D01*
X119563395Y-85718272D01*
X119567367Y-85564765D01*
X119714419Y-85564765D01*
X119744153Y-85564571D01*
X119772272Y-85564014D01*
X119798132Y-85563134D01*
X119821090Y-85561969D01*
X119840503Y-85560559D01*
X119855726Y-85558943D01*
X119866116Y-85557159D01*
X119869298Y-85556216D01*
X119871031Y-85555246D01*
X119871524Y-85554565D01*
X119872011Y-85553511D01*
X119872961Y-85550322D01*
X119873877Y-85545760D01*
X119874754Y-85539906D01*
X119875588Y-85532840D01*
X119876373Y-85524643D01*
X119877781Y-85505177D01*
X119878941Y-85482152D01*
X119879815Y-85456213D01*
X119880366Y-85428003D01*
X119880559Y-85398167D01*
X119880559Y-85250608D01*
X119724948Y-85250590D01*
X119567852Y-85250590D01*
X119567852Y-85564749D01*
X119253691Y-85564749D01*
X119253691Y-85878900D01*
X118939499Y-85878900D01*
X118939499Y-85564744D01*
X117981773Y-85564744D01*
X116096649Y-85564744D01*
X116096649Y-85250744D01*
X115782456Y-85250744D01*
X115782456Y-85564899D01*
X116096649Y-85564899D01*
X116096649Y-85878907D01*
X115783167Y-85878907D01*
X115783167Y-86193059D01*
X115469006Y-86193059D01*
X115469006Y-85250588D01*
X115783167Y-85250588D01*
X115783167Y-84936432D01*
X116411488Y-84936432D01*
X116411488Y-84293837D01*
X116097295Y-84293837D01*
X116097295Y-83979681D01*
X116725293Y-83979681D01*
X116729007Y-84611565D01*
X116732721Y-85243448D01*
X116886232Y-85247503D01*
X117039744Y-85251559D01*
X117039744Y-85243454D01*
X117361817Y-85243454D01*
X117515328Y-85247510D01*
X117668807Y-85251565D01*
X117668807Y-84921195D01*
X117515328Y-84925240D01*
X117361817Y-84929295D01*
X117361817Y-85243454D01*
X117039744Y-85243454D01*
X117039744Y-84615142D01*
X117361817Y-84615142D01*
X117515328Y-84619197D01*
X117668807Y-84623252D01*
X117668807Y-84293845D01*
X117668097Y-84293845D01*
X117668097Y-84292902D01*
X117515328Y-84296927D01*
X117361817Y-84300983D01*
X117361817Y-84615142D01*
X117039744Y-84615142D01*
X117039744Y-84293843D01*
X117353937Y-84293843D01*
X117353937Y-83979687D01*
X117668097Y-83979687D01*
X117668097Y-84292902D01*
X117668807Y-84292883D01*
X117668807Y-84293845D01*
X117982290Y-84293845D01*
X117982290Y-84454494D01*
X117985713Y-84929300D01*
X117988620Y-85243456D01*
X118142131Y-85247512D01*
X118295642Y-85251567D01*
X118295642Y-85243450D01*
X118932587Y-85243450D01*
X119074374Y-85247572D01*
X119103246Y-85248251D01*
X119130944Y-85248592D01*
X119156808Y-85248607D01*
X119180177Y-85248309D01*
X119200390Y-85247713D01*
X119216784Y-85246832D01*
X119228700Y-85245678D01*
X119232772Y-85245003D01*
X119235475Y-85244265D01*
X119236855Y-85243635D01*
X119238168Y-85242816D01*
X119239414Y-85241798D01*
X119240595Y-85240572D01*
X119241711Y-85239129D01*
X119242763Y-85237459D01*
X119243753Y-85235551D01*
X119244681Y-85233398D01*
X119245548Y-85230989D01*
X119246355Y-85228315D01*
X119247102Y-85225366D01*
X119247792Y-85222132D01*
X119248425Y-85218605D01*
X119249001Y-85214774D01*
X119249522Y-85210631D01*
X119249989Y-85206165D01*
X119250763Y-85196227D01*
X119251330Y-85184885D01*
X119251699Y-85172062D01*
X119251876Y-85157682D01*
X119251869Y-85141670D01*
X119251685Y-85123948D01*
X119251332Y-85104440D01*
X119250817Y-85083070D01*
X119246844Y-84929300D01*
X119089651Y-84929294D01*
X118932587Y-84929294D01*
X118932587Y-85243450D01*
X118295642Y-85243450D01*
X118295642Y-84937378D01*
X118456259Y-84933335D01*
X118616908Y-84929306D01*
X118616908Y-84300991D01*
X118456259Y-84296962D01*
X118295642Y-84292919D01*
X118295642Y-83351386D01*
X117981450Y-83351386D01*
X117981450Y-82408915D01*
X118295642Y-82408915D01*
X118295642Y-82094757D01*
X117981450Y-82094757D01*
X117981450Y-81466444D01*
X118609738Y-81466444D01*
X118609738Y-81780604D01*
X119252335Y-81780604D01*
X119252335Y-81466448D01*
X119566527Y-81466448D01*
X119566527Y-81780604D01*
X119880720Y-81780604D01*
X119880720Y-81466448D01*
X120194881Y-81466448D01*
X120194881Y-82723082D01*
X120509073Y-82723082D01*
X120509073Y-83037240D01*
X121137362Y-83037240D01*
X121137362Y-82723082D01*
X121451554Y-82723082D01*
X121451554Y-83037214D01*
X121138525Y-83037214D01*
X121138525Y-83351370D01*
X121452685Y-83351370D01*
X121452685Y-83037240D01*
X121451554Y-83037240D01*
X121451554Y-83037214D01*
X121452685Y-83037214D01*
X121452685Y-83037240D01*
X122394035Y-83037240D01*
X122394035Y-82723082D01*
X123022324Y-82723082D01*
X123022324Y-83037214D01*
X122709294Y-83037214D01*
X122709294Y-83351370D01*
X123023487Y-83351370D01*
X123023487Y-83037240D01*
X123022324Y-83037240D01*
X123022324Y-83037214D01*
X123023487Y-83037214D01*
X123023487Y-83037240D01*
X123336517Y-83037240D01*
X123336517Y-83665553D01*
X124593158Y-83665553D01*
X124593158Y-83351396D01*
X124921918Y-83351396D01*
X124921918Y-82408925D01*
X125550206Y-82408925D01*
X125550206Y-82723082D01*
X126806847Y-82723082D01*
X126806847Y-82408925D01*
X126492654Y-82408925D01*
X126492654Y-81466454D01*
X127120943Y-81466454D01*
X127120943Y-81780611D01*
X126806782Y-81780611D01*
X126806782Y-82094769D01*
X127120943Y-82094769D01*
X127120943Y-82723082D01*
X127435135Y-82723082D01*
X127435135Y-82094769D01*
X127749328Y-82094769D01*
X127749328Y-83037238D01*
X127121008Y-83037238D01*
X127121008Y-83351395D01*
X127435200Y-83351395D01*
X127435200Y-84293865D01*
X127749393Y-84293865D01*
X127749393Y-83979710D01*
X128377681Y-83979710D01*
X128377681Y-84293865D01*
X128063489Y-84293865D01*
X128063489Y-84608024D01*
X127122009Y-84608024D01*
X127118036Y-84454514D01*
X127114064Y-84301005D01*
X126807235Y-84298810D01*
X126646392Y-84297659D01*
X126178720Y-84294311D01*
X126178720Y-84608032D01*
X125864560Y-84608032D01*
X125864560Y-84922186D01*
X125550367Y-84922186D01*
X125550367Y-85250547D01*
X126171583Y-85243483D01*
X126175555Y-85090451D01*
X126179528Y-84937423D01*
X126325385Y-84933368D01*
X126395280Y-84932146D01*
X126477717Y-84931810D01*
X126562407Y-84932352D01*
X126639061Y-84933765D01*
X126806847Y-84938202D01*
X126806847Y-85564783D01*
X127435135Y-85564783D01*
X127435135Y-85878941D01*
X127120943Y-85878941D01*
X127120943Y-86507199D01*
X127121363Y-86507199D01*
X127121363Y-86507254D01*
X127749264Y-86507254D01*
X127749264Y-85878941D01*
X128063392Y-85878941D01*
X128063392Y-86193097D01*
X128377585Y-86193097D01*
X128377585Y-86507256D01*
X128063392Y-86507256D01*
X128063392Y-86821412D01*
X127120911Y-86821412D01*
X127120911Y-87135569D01*
X127749232Y-87135569D01*
X127749232Y-87763883D01*
X127435039Y-87763883D01*
X127435039Y-88392192D01*
X127749232Y-88392192D01*
X127749232Y-88078035D01*
X128377520Y-88078035D01*
X128377520Y-88706348D01*
X128063327Y-88706348D01*
X128063327Y-89020504D01*
X127749167Y-89020504D01*
X127749167Y-89334625D01*
X127435588Y-89334625D01*
X127435588Y-89020468D01*
X126807655Y-89020468D01*
X126807655Y-89334625D01*
G37*
G36*
X115782521Y-88392313D02*
G01*
X116096714Y-88392313D01*
X116096714Y-88706318D01*
X115783231Y-88706318D01*
X115783231Y-89020474D01*
X115469071Y-89020474D01*
X115469071Y-87449690D01*
X115783231Y-87449690D01*
X115783231Y-87135534D01*
X115469071Y-87135534D01*
X115469071Y-86507219D01*
X116097360Y-86507219D01*
X116097360Y-86821374D01*
X115783845Y-86821374D01*
X115783845Y-87135532D01*
X116098038Y-87135532D01*
X116098038Y-86821376D01*
X116097360Y-86821376D01*
X116097360Y-86821374D01*
X116098038Y-86821374D01*
X116098038Y-86821376D01*
X116411552Y-86821376D01*
X116411552Y-86193218D01*
X116410809Y-86193218D01*
X116410809Y-86193063D01*
X116097360Y-86193063D01*
X116097360Y-85879060D01*
X116096649Y-85879060D01*
X116096649Y-85878907D01*
X116097360Y-85878907D01*
X116097360Y-85879060D01*
X116410809Y-85879060D01*
X116410809Y-86193063D01*
X116411552Y-86193063D01*
X116411552Y-86193218D01*
X116725002Y-86193218D01*
X116725002Y-87135688D01*
X116410809Y-87135688D01*
X116410809Y-87449844D01*
X115782521Y-87449844D01*
X115782521Y-88392313D01*
G37*
G36*
X121452071Y-94061254D02*
G01*
X121137911Y-94061254D01*
X121137911Y-93747097D01*
X121452071Y-93747097D01*
X121452071Y-94061254D01*
G37*
G36*
X120509816Y-84293854D02*
G01*
X120824009Y-84293854D01*
X120824009Y-84606279D01*
X120656157Y-84610702D01*
X120579465Y-84612104D01*
X120494672Y-84612648D01*
X120412090Y-84612318D01*
X120342029Y-84611100D01*
X120195655Y-84607045D01*
X120195655Y-83979697D01*
X120509816Y-83979697D01*
X120509816Y-84293854D01*
G37*
D10*
X187420732Y-68103268D02*
X187420732Y-70104000D01*
D11*
G36*
X121766458Y-85878900D02*
G01*
X121452265Y-85878900D01*
X121452265Y-85564749D01*
X121766458Y-85564749D01*
X121766458Y-85878900D01*
G37*
G36*
X121452071Y-93432941D02*
G01*
X121137911Y-93432941D01*
X121137911Y-93118785D01*
X121452071Y-93118785D01*
X121452071Y-93432941D01*
G37*
G36*
X117039873Y-83037211D02*
G01*
X116568649Y-83037209D01*
X116097392Y-83037209D01*
X116097392Y-82094741D01*
X117039873Y-82094741D01*
X117039873Y-83037211D01*
G37*
G36*
X128377585Y-85878941D02*
G01*
X128063425Y-85878941D01*
X128063425Y-85564783D01*
X128377585Y-85564783D01*
X128377585Y-85878941D01*
G37*
G36*
X121766264Y-94375410D02*
G01*
X121452071Y-94375410D01*
X121452071Y-94061254D01*
X121766264Y-94061254D01*
X121766264Y-94375410D01*
G37*
G36*
X127749328Y-81780611D02*
G01*
X127435135Y-81780611D01*
X127435135Y-81466454D01*
X127749328Y-81466454D01*
X127749328Y-81780611D01*
G37*
D10*
X200914000Y-115062000D02*
X209804000Y-115062000D01*
D11*
G36*
X123337227Y-88706314D02*
G01*
X123023067Y-88706314D01*
X123023067Y-88392157D01*
X123337227Y-88392157D01*
X123337227Y-88706314D01*
G37*
G36*
X116725713Y-91862154D02*
G01*
X116411552Y-91862154D01*
X116411552Y-91233840D01*
X116725713Y-91233840D01*
X116725713Y-91862154D01*
G37*
D10*
X186679025Y-68389002D02*
X186679026Y-69088000D01*
D11*
G36*
X118296515Y-91219564D02*
G01*
X117982322Y-91219564D01*
X117982322Y-90919687D01*
X118296515Y-90919687D01*
X118296515Y-91219564D01*
G37*
G36*
X128378715Y-87763845D02*
G01*
X128064522Y-87763845D01*
X128064522Y-87449688D01*
X128378715Y-87449688D01*
X128378715Y-87763845D01*
G37*
G36*
X128377681Y-83351395D02*
G01*
X128063489Y-83351395D01*
X128063489Y-83665551D01*
X127749328Y-83665551D01*
X127749328Y-83037240D01*
X128063489Y-83037240D01*
X128063489Y-82408925D01*
X128377681Y-82408925D01*
X128377681Y-83351395D01*
G37*
G36*
X117982290Y-88706312D02*
G01*
X117039808Y-88706312D01*
X117039808Y-88392156D01*
X117982290Y-88392156D01*
X117982290Y-88706312D01*
G37*
D10*
X184584491Y-68389002D02*
X184584490Y-69088000D01*
D11*
G36*
X121452039Y-84936425D02*
G01*
X121766199Y-84936425D01*
X121766199Y-84622270D01*
X122080392Y-84622270D01*
X122080392Y-85250582D01*
X122394585Y-85250582D01*
X122394585Y-85564740D01*
X122080618Y-85564749D01*
X121766458Y-85564749D01*
X121766458Y-85250590D01*
X121452265Y-85250590D01*
X121452265Y-85564744D01*
X120823977Y-85564744D01*
X120823977Y-85251552D01*
X121130999Y-85243442D01*
X121138427Y-84622270D01*
X121452039Y-84622270D01*
X121452039Y-84936425D01*
G37*
D10*
X189515267Y-68103268D02*
G75*
G03*
X187420733Y-68103268I-1047267J31268D01*
G01*
D11*
G36*
X125222222Y-94375410D02*
G01*
X124922370Y-94375410D01*
X124922370Y-94061254D01*
X125222222Y-94061254D01*
X125222222Y-94375410D01*
G37*
D10*
X200914000Y-75946000D02*
X209804000Y-75946000D01*
X200914000Y-99314000D02*
X200914000Y-115062000D01*
D11*
G36*
X117668226Y-91218598D02*
G01*
X117514715Y-91222648D01*
X117361204Y-91226699D01*
X117361204Y-91540855D01*
X117514715Y-91544905D01*
X117668226Y-91548956D01*
X117668226Y-91862147D01*
X117511130Y-91862156D01*
X117354033Y-91862156D01*
X117354033Y-91548000D01*
X117039841Y-91548000D01*
X117039841Y-91233843D01*
X117354033Y-91233843D01*
X117354033Y-90919687D01*
X117668226Y-90919687D01*
X117668226Y-91218598D01*
G37*
G36*
X119567335Y-83037214D02*
G01*
X119253174Y-83037214D01*
X119253174Y-82408901D01*
X119567335Y-82408901D01*
X119567335Y-83037214D01*
G37*
G36*
X115783264Y-91547997D02*
G01*
X116097456Y-91547997D01*
X116097456Y-91862153D01*
X115783231Y-91862154D01*
X115469103Y-91862154D01*
X115469103Y-91233840D01*
X115783264Y-91233840D01*
X115783264Y-91547997D01*
G37*
G36*
X115469103Y-92176314D02*
G01*
X117668194Y-92176314D01*
X117668194Y-94375410D01*
X115469103Y-94375410D01*
X115469103Y-94061254D01*
X115783231Y-94061254D01*
X117354033Y-94061254D01*
X117354033Y-92490470D01*
X115783231Y-92490470D01*
X115783231Y-94061254D01*
X115469103Y-94061254D01*
X115469103Y-92176314D01*
G37*
G36*
X127749780Y-89334661D02*
G01*
X127749167Y-89334661D01*
X127749167Y-89334625D01*
X127749780Y-89334625D01*
X127749780Y-89334661D01*
G37*
G36*
X123337130Y-87763845D02*
G01*
X123651323Y-87763845D01*
X123651323Y-88078001D01*
X123023035Y-88078001D01*
X123023035Y-87763845D01*
X122708842Y-87763845D01*
X122708842Y-87449688D01*
X123337130Y-87449688D01*
X123337130Y-87763845D01*
G37*
D10*
X200914000Y-60198000D02*
X200914000Y-75946000D01*
D11*
G36*
X126493075Y-83665524D02*
G01*
X126335978Y-83665526D01*
X126178914Y-83665526D01*
X126178914Y-83351370D01*
X126493075Y-83351370D01*
X126493075Y-83665524D01*
G37*
G36*
X126178979Y-92176314D02*
G01*
X128378069Y-92176314D01*
X128378069Y-94375410D01*
X126178979Y-94375410D01*
X126178979Y-94061254D01*
X126493139Y-94061254D01*
X128063909Y-94061254D01*
X128063909Y-92490470D01*
X126493139Y-92490470D01*
X126493139Y-94061254D01*
X126178979Y-94061254D01*
X126178979Y-92176314D01*
G37*
G36*
X123650548Y-82723082D02*
G01*
X123022324Y-82723082D01*
X123022324Y-82408925D01*
X123650548Y-82408925D01*
X123650548Y-82723082D01*
G37*
G36*
X128377585Y-85250626D02*
G01*
X128063392Y-85250626D01*
X128063392Y-85564783D01*
X127749264Y-85564783D01*
X127749264Y-85250626D01*
X127120943Y-85250626D01*
X127120943Y-84936470D01*
X128377585Y-84936470D01*
X128377585Y-85250626D01*
G37*
D10*
X189515268Y-68103268D02*
X189515268Y-70104000D01*
D11*
G36*
X125222254Y-82094743D02*
G01*
X124279773Y-82094743D01*
X124279773Y-81466428D01*
X125222254Y-81466428D01*
X125222254Y-82094743D01*
G37*
G36*
X126178494Y-82408925D02*
G01*
X125550206Y-82408925D01*
X125550206Y-82094769D01*
X125864399Y-82094769D01*
X125864399Y-81780611D01*
X125550206Y-81780611D01*
X125550206Y-81466454D01*
X126178494Y-81466454D01*
X126178494Y-82408925D01*
G37*
G36*
X123964740Y-83037240D02*
G01*
X124278901Y-83037240D01*
X124278901Y-83351396D01*
X123650612Y-83351396D01*
X123650612Y-82723082D01*
X123964740Y-82723082D01*
X123964740Y-83037240D01*
G37*
G36*
X127749780Y-90277094D02*
G01*
X127749780Y-89962937D01*
X127749813Y-89962937D01*
X128063942Y-89962937D01*
X128063942Y-89648781D01*
X127749813Y-89648781D01*
X127749813Y-89962937D01*
X127749780Y-89962937D01*
X127435620Y-89962937D01*
X127435620Y-89648781D01*
X127749780Y-89648781D01*
X127749780Y-89334661D01*
X128063327Y-89334661D01*
X128063327Y-89648759D01*
X128377520Y-89648759D01*
X128377520Y-90591231D01*
X128064361Y-90591231D01*
X128064361Y-90277099D01*
X128063942Y-90277099D01*
X127906845Y-90277094D01*
X127749780Y-90277094D01*
G37*
D10*
X177800000Y-58166000D02*
X179345025Y-59603025D01*
D11*
G36*
X120823234Y-82723082D02*
G01*
X120509073Y-82723082D01*
X120509073Y-82408925D01*
X120823234Y-82408925D01*
X120823234Y-82723082D01*
G37*
D10*
X104084380Y-99360095D02*
X103084380Y-99360095D01*
X103084380Y-98979142D01*
X103132000Y-98883904D01*
X103179619Y-98836285D01*
X103274857Y-98788666D01*
X103417714Y-98788666D01*
X103512952Y-98836285D01*
X103560571Y-98883904D01*
X103608190Y-98979142D01*
X103608190Y-99360095D01*
X104084380Y-98360095D02*
X103417714Y-98360095D01*
X103608190Y-98360095D02*
X103512952Y-98312476D01*
X103465333Y-98264857D01*
X103417714Y-98169619D01*
X103417714Y-98074380D01*
X104084380Y-97598190D02*
X104036761Y-97693428D01*
X103989142Y-97741047D01*
X103893904Y-97788666D01*
X103608190Y-97788666D01*
X103512952Y-97741047D01*
X103465333Y-97693428D01*
X103417714Y-97598190D01*
X103417714Y-97455333D01*
X103465333Y-97360095D01*
X103512952Y-97312476D01*
X103608190Y-97264857D01*
X103893904Y-97264857D01*
X103989142Y-97312476D01*
X104036761Y-97360095D01*
X104084380Y-97455333D01*
X104084380Y-97598190D01*
X103417714Y-96407714D02*
X104227238Y-96407714D01*
X104322476Y-96455333D01*
X104370095Y-96502952D01*
X104417714Y-96598190D01*
X104417714Y-96741047D01*
X104370095Y-96836285D01*
X104036761Y-96407714D02*
X104084380Y-96502952D01*
X104084380Y-96693428D01*
X104036761Y-96788666D01*
X103989142Y-96836285D01*
X103893904Y-96883904D01*
X103608190Y-96883904D01*
X103512952Y-96836285D01*
X103465333Y-96788666D01*
X103417714Y-96693428D01*
X103417714Y-96502952D01*
X103465333Y-96407714D01*
X104036761Y-95550571D02*
X104084380Y-95645809D01*
X104084380Y-95836285D01*
X104036761Y-95931523D01*
X103941523Y-95979142D01*
X103560571Y-95979142D01*
X103465333Y-95931523D01*
X103417714Y-95836285D01*
X103417714Y-95645809D01*
X103465333Y-95550571D01*
X103560571Y-95502952D01*
X103655809Y-95502952D01*
X103751047Y-95979142D01*
X103417714Y-95217238D02*
X103417714Y-94836285D01*
X103084380Y-95074380D02*
X103941523Y-95074380D01*
X104036761Y-95026761D01*
X104084380Y-94931523D01*
X104084380Y-94836285D01*
X103417714Y-94645809D02*
X103417714Y-94264857D01*
X103084380Y-94502952D02*
X103941523Y-94502952D01*
X104036761Y-94455333D01*
X104084380Y-94360095D01*
X104084380Y-94264857D01*
X104084380Y-93788666D02*
X104036761Y-93883904D01*
X103989142Y-93931523D01*
X103893904Y-93979142D01*
X103608190Y-93979142D01*
X103512952Y-93931523D01*
X103465333Y-93883904D01*
X103417714Y-93788666D01*
X103417714Y-93645809D01*
X103465333Y-93550571D01*
X103512952Y-93502952D01*
X103608190Y-93455333D01*
X103893904Y-93455333D01*
X103989142Y-93502952D01*
X104036761Y-93550571D01*
X104084380Y-93645809D01*
X104084380Y-93788666D01*
X104084380Y-91836285D02*
X103084380Y-91836285D01*
X104036761Y-91836285D02*
X104084380Y-91931523D01*
X104084380Y-92122000D01*
X104036761Y-92217238D01*
X103989142Y-92264857D01*
X103893904Y-92312476D01*
X103608190Y-92312476D01*
X103512952Y-92264857D01*
X103465333Y-92217238D01*
X103417714Y-92122000D01*
X103417714Y-91931523D01*
X103465333Y-91836285D01*
X104084380Y-91360095D02*
X103417714Y-91360095D01*
X103084380Y-91360095D02*
X103132000Y-91407714D01*
X103179619Y-91360095D01*
X103132000Y-91312476D01*
X103084380Y-91360095D01*
X103179619Y-91360095D01*
X103417714Y-90264857D02*
X103417714Y-89883904D01*
X103084380Y-90122000D02*
X103941523Y-90122000D01*
X104036761Y-90074380D01*
X104084380Y-89979142D01*
X104084380Y-89883904D01*
X104036761Y-89169619D02*
X104084380Y-89264857D01*
X104084380Y-89455333D01*
X104036761Y-89550571D01*
X103941523Y-89598190D01*
X103560571Y-89598190D01*
X103465333Y-89550571D01*
X103417714Y-89455333D01*
X103417714Y-89264857D01*
X103465333Y-89169619D01*
X103560571Y-89122000D01*
X103655809Y-89122000D01*
X103751047Y-89598190D01*
X104036761Y-88741047D02*
X104084380Y-88645809D01*
X104084380Y-88455333D01*
X104036761Y-88360095D01*
X103941523Y-88312476D01*
X103893904Y-88312476D01*
X103798666Y-88360095D01*
X103751047Y-88455333D01*
X103751047Y-88598190D01*
X103703428Y-88693428D01*
X103608190Y-88741047D01*
X103560571Y-88741047D01*
X103465333Y-88693428D01*
X103417714Y-88598190D01*
X103417714Y-88455333D01*
X103465333Y-88360095D01*
X104084380Y-87883904D02*
X103417714Y-87883904D01*
X103084380Y-87883904D02*
X103132000Y-87931523D01*
X103179619Y-87883904D01*
X103132000Y-87836285D01*
X103084380Y-87883904D01*
X103179619Y-87883904D01*
X104084380Y-86217238D02*
X103084380Y-86217238D01*
X104036761Y-86217238D02*
X104084380Y-86312476D01*
X104084380Y-86502952D01*
X104036761Y-86598190D01*
X103989142Y-86645809D01*
X103893904Y-86693428D01*
X103608190Y-86693428D01*
X103512952Y-86645809D01*
X103465333Y-86598190D01*
X103417714Y-86502952D01*
X103417714Y-86312476D01*
X103465333Y-86217238D01*
X104084380Y-85741047D02*
X103417714Y-85741047D01*
X103084380Y-85741047D02*
X103132000Y-85788666D01*
X103179619Y-85741047D01*
X103132000Y-85693428D01*
X103084380Y-85741047D01*
X103179619Y-85741047D01*
X104084380Y-84502952D02*
X103084380Y-84502952D01*
X103084380Y-84122000D01*
X103132000Y-84026761D01*
X103179619Y-83979142D01*
X103274857Y-83931523D01*
X103417714Y-83931523D01*
X103512952Y-83979142D01*
X103560571Y-84026761D01*
X103608190Y-84122000D01*
X103608190Y-84502952D01*
X104084380Y-83074380D02*
X103560571Y-83074380D01*
X103465333Y-83122000D01*
X103417714Y-83217238D01*
X103417714Y-83407714D01*
X103465333Y-83502952D01*
X104036761Y-83074380D02*
X104084380Y-83169619D01*
X104084380Y-83407714D01*
X104036761Y-83502952D01*
X103941523Y-83550571D01*
X103846285Y-83550571D01*
X103751047Y-83502952D01*
X103703428Y-83407714D01*
X103703428Y-83169619D01*
X103655809Y-83074380D01*
X104036761Y-82645809D02*
X104084380Y-82550571D01*
X104084380Y-82360095D01*
X104036761Y-82264857D01*
X103941523Y-82217238D01*
X103893904Y-82217238D01*
X103798666Y-82264857D01*
X103751047Y-82360095D01*
X103751047Y-82502952D01*
X103703428Y-82598190D01*
X103608190Y-82645809D01*
X103560571Y-82645809D01*
X103465333Y-82598190D01*
X103417714Y-82502952D01*
X103417714Y-82360095D01*
X103465333Y-82264857D01*
X104084380Y-81788666D02*
X103417714Y-81788666D01*
X103084380Y-81788666D02*
X103132000Y-81836285D01*
X103179619Y-81788666D01*
X103132000Y-81741047D01*
X103084380Y-81788666D01*
X103179619Y-81788666D01*
X103417714Y-81312476D02*
X104084380Y-81312476D01*
X103512952Y-81312476D02*
X103465333Y-81264857D01*
X103417714Y-81169619D01*
X103417714Y-81026761D01*
X103465333Y-80931523D01*
X103560571Y-80883904D01*
X104084380Y-80883904D01*
X103798666Y-79693428D02*
X103798666Y-79217238D01*
X104084380Y-79788666D02*
X103084380Y-79455333D01*
X104084380Y-79122000D01*
X104084380Y-78645809D02*
X104036761Y-78741047D01*
X103941523Y-78788666D01*
X103084380Y-78788666D01*
X104036761Y-77883904D02*
X104084380Y-77979142D01*
X104084380Y-78169619D01*
X104036761Y-78264857D01*
X103941523Y-78312476D01*
X103560571Y-78312476D01*
X103465333Y-78264857D01*
X103417714Y-78169619D01*
X103417714Y-77979142D01*
X103465333Y-77883904D01*
X103560571Y-77836285D01*
X103655809Y-77836285D01*
X103751047Y-78312476D01*
X104036761Y-77455333D02*
X104084380Y-77360095D01*
X104084380Y-77169619D01*
X104036761Y-77074380D01*
X103941523Y-77026761D01*
X103893904Y-77026761D01*
X103798666Y-77074380D01*
X103751047Y-77169619D01*
X103751047Y-77312476D01*
X103703428Y-77407714D01*
X103608190Y-77455333D01*
X103560571Y-77455333D01*
X103465333Y-77407714D01*
X103417714Y-77312476D01*
X103417714Y-77169619D01*
X103465333Y-77074380D01*
X104036761Y-76645809D02*
X104084380Y-76550571D01*
X104084380Y-76360095D01*
X104036761Y-76264857D01*
X103941523Y-76217238D01*
X103893904Y-76217238D01*
X103798666Y-76264857D01*
X103751047Y-76360095D01*
X103751047Y-76502952D01*
X103703428Y-76598190D01*
X103608190Y-76645809D01*
X103560571Y-76645809D01*
X103465333Y-76598190D01*
X103417714Y-76502952D01*
X103417714Y-76360095D01*
X103465333Y-76264857D01*
X104084380Y-75788666D02*
X103417714Y-75788666D01*
X103084380Y-75788666D02*
X103132000Y-75836285D01*
X103179619Y-75788666D01*
X103132000Y-75741047D01*
X103084380Y-75788666D01*
X103179619Y-75788666D01*
X104084380Y-75169619D02*
X104036761Y-75264857D01*
X103989142Y-75312476D01*
X103893904Y-75360095D01*
X103608190Y-75360095D01*
X103512952Y-75312476D01*
X103465333Y-75264857D01*
X103417714Y-75169619D01*
X103417714Y-75026761D01*
X103465333Y-74931523D01*
X103512952Y-74883904D01*
X103608190Y-74836285D01*
X103893904Y-74836285D01*
X103989142Y-74883904D01*
X104036761Y-74931523D01*
X104084380Y-75026761D01*
X104084380Y-75169619D01*
X105624380Y-94264857D02*
X106624380Y-93931523D01*
X105624380Y-93598190D01*
X106624380Y-92741047D02*
X106624380Y-93312476D01*
X106624380Y-93026761D02*
X105624380Y-93026761D01*
X105767238Y-93122000D01*
X105862476Y-93217238D01*
X105910095Y-93312476D01*
X106529142Y-92312476D02*
X106576761Y-92264857D01*
X106624380Y-92312476D01*
X106576761Y-92360095D01*
X106529142Y-92312476D01*
X106624380Y-92312476D01*
X105624380Y-91360095D02*
X105624380Y-91836285D01*
X106100571Y-91883904D01*
X106052952Y-91836285D01*
X106005333Y-91741047D01*
X106005333Y-91502952D01*
X106052952Y-91407714D01*
X106100571Y-91360095D01*
X106195809Y-91312476D01*
X106433904Y-91312476D01*
X106529142Y-91360095D01*
X106576761Y-91407714D01*
X106624380Y-91502952D01*
X106624380Y-91741047D01*
X106576761Y-91836285D01*
X106529142Y-91883904D01*
X106624380Y-88836285D02*
X106624380Y-89407714D01*
X106624380Y-89122000D02*
X105624380Y-89122000D01*
X105767238Y-89217238D01*
X105862476Y-89312476D01*
X105910095Y-89407714D01*
X105624380Y-88502952D02*
X105624380Y-87883904D01*
X106005333Y-88217238D01*
X106005333Y-88074380D01*
X106052952Y-87979142D01*
X106100571Y-87931523D01*
X106195809Y-87883904D01*
X106433904Y-87883904D01*
X106529142Y-87931523D01*
X106576761Y-87979142D01*
X106624380Y-88074380D01*
X106624380Y-88360095D01*
X106576761Y-88455333D01*
X106529142Y-88502952D01*
X105576761Y-86741047D02*
X106862476Y-87598190D01*
X105624380Y-86217238D02*
X105624380Y-86122000D01*
X105672000Y-86026761D01*
X105719619Y-85979142D01*
X105814857Y-85931523D01*
X106005333Y-85883904D01*
X106243428Y-85883904D01*
X106433904Y-85931523D01*
X106529142Y-85979142D01*
X106576761Y-86026761D01*
X106624380Y-86122000D01*
X106624380Y-86217238D01*
X106576761Y-86312476D01*
X106529142Y-86360095D01*
X106433904Y-86407714D01*
X106243428Y-86455333D01*
X106005333Y-86455333D01*
X105814857Y-86407714D01*
X105719619Y-86360095D01*
X105672000Y-86312476D01*
X105624380Y-86217238D01*
X105624380Y-84979142D02*
X105624380Y-85455333D01*
X106100571Y-85502952D01*
X106052952Y-85455333D01*
X106005333Y-85360095D01*
X106005333Y-85122000D01*
X106052952Y-85026761D01*
X106100571Y-84979142D01*
X106195809Y-84931523D01*
X106433904Y-84931523D01*
X106529142Y-84979142D01*
X106576761Y-85026761D01*
X106624380Y-85122000D01*
X106624380Y-85360095D01*
X106576761Y-85455333D01*
X106529142Y-85502952D01*
X105576761Y-83788666D02*
X106862476Y-84645809D01*
X105719619Y-83502952D02*
X105672000Y-83455333D01*
X105624380Y-83360095D01*
X105624380Y-83122000D01*
X105672000Y-83026761D01*
X105719619Y-82979142D01*
X105814857Y-82931523D01*
X105910095Y-82931523D01*
X106052952Y-82979142D01*
X106624380Y-83550571D01*
X106624380Y-82931523D01*
X105624380Y-82312476D02*
X105624380Y-82217238D01*
X105672000Y-82122000D01*
X105719619Y-82074380D01*
X105814857Y-82026761D01*
X106005333Y-81979142D01*
X106243428Y-81979142D01*
X106433904Y-82026761D01*
X106529142Y-82074380D01*
X106576761Y-82122000D01*
X106624380Y-82217238D01*
X106624380Y-82312476D01*
X106576761Y-82407714D01*
X106529142Y-82455333D01*
X106433904Y-82502952D01*
X106243428Y-82550571D01*
X106005333Y-82550571D01*
X105814857Y-82502952D01*
X105719619Y-82455333D01*
X105672000Y-82407714D01*
X105624380Y-82312476D01*
X105719619Y-81598190D02*
X105672000Y-81550571D01*
X105624380Y-81455333D01*
X105624380Y-81217238D01*
X105672000Y-81122000D01*
X105719619Y-81074380D01*
X105814857Y-81026761D01*
X105910095Y-81026761D01*
X106052952Y-81074380D01*
X106624380Y-81645809D01*
X106624380Y-81026761D01*
X105624380Y-80122000D02*
X105624380Y-80598190D01*
X106100571Y-80645809D01*
X106052952Y-80598190D01*
X106005333Y-80502952D01*
X106005333Y-80264857D01*
X106052952Y-80169619D01*
X106100571Y-80122000D01*
X106195809Y-80074380D01*
X106433904Y-80074380D01*
X106529142Y-80122000D01*
X106576761Y-80169619D01*
X106624380Y-80264857D01*
X106624380Y-80502952D01*
X106576761Y-80598190D01*
X106529142Y-80645809D01*
D12*
X101393523Y-104455428D02*
X101488761Y-104169714D01*
X101488761Y-103693523D01*
X101393523Y-103503047D01*
X101298285Y-103407809D01*
X101107809Y-103312571D01*
X100917333Y-103312571D01*
X100726857Y-103407809D01*
X100631619Y-103503047D01*
X100536380Y-103693523D01*
X100441142Y-104074476D01*
X100345904Y-104264952D01*
X100250666Y-104360190D01*
X100060190Y-104455428D01*
X99869714Y-104455428D01*
X99679238Y-104360190D01*
X99584000Y-104264952D01*
X99488761Y-104074476D01*
X99488761Y-103598285D01*
X99584000Y-103312571D01*
X101393523Y-101598285D02*
X101488761Y-101788761D01*
X101488761Y-102169714D01*
X101393523Y-102360190D01*
X101298285Y-102455428D01*
X101107809Y-102550666D01*
X100536380Y-102550666D01*
X100345904Y-102455428D01*
X100250666Y-102360190D01*
X100155428Y-102169714D01*
X100155428Y-101788761D01*
X100250666Y-101598285D01*
X101488761Y-100741142D02*
X99488761Y-100741142D01*
X101488761Y-99884000D02*
X100441142Y-99884000D01*
X100250666Y-99979238D01*
X100155428Y-100169714D01*
X100155428Y-100455428D01*
X100250666Y-100645904D01*
X100345904Y-100741142D01*
X101393523Y-98169714D02*
X101488761Y-98360190D01*
X101488761Y-98741142D01*
X101393523Y-98931619D01*
X101203047Y-99026857D01*
X100441142Y-99026857D01*
X100250666Y-98931619D01*
X100155428Y-98741142D01*
X100155428Y-98360190D01*
X100250666Y-98169714D01*
X100441142Y-98074476D01*
X100631619Y-98074476D01*
X100822095Y-99026857D01*
X101488761Y-96360190D02*
X99488761Y-96360190D01*
X101393523Y-96360190D02*
X101488761Y-96550666D01*
X101488761Y-96931619D01*
X101393523Y-97122095D01*
X101298285Y-97217333D01*
X101107809Y-97312571D01*
X100536380Y-97312571D01*
X100345904Y-97217333D01*
X100250666Y-97122095D01*
X100155428Y-96931619D01*
X100155428Y-96550666D01*
X100250666Y-96360190D01*
X101488761Y-94550666D02*
X100441142Y-94550666D01*
X100250666Y-94645904D01*
X100155428Y-94836380D01*
X100155428Y-95217333D01*
X100250666Y-95407809D01*
X101393523Y-94550666D02*
X101488761Y-94741142D01*
X101488761Y-95217333D01*
X101393523Y-95407809D01*
X101203047Y-95503047D01*
X101012571Y-95503047D01*
X100822095Y-95407809D01*
X100726857Y-95217333D01*
X100726857Y-94741142D01*
X100631619Y-94550666D01*
X101393523Y-92169714D02*
X101488761Y-91884000D01*
X101488761Y-91407809D01*
X101393523Y-91217333D01*
X101298285Y-91122095D01*
X101107809Y-91026857D01*
X100917333Y-91026857D01*
X100726857Y-91122095D01*
X100631619Y-91217333D01*
X100536380Y-91407809D01*
X100441142Y-91788761D01*
X100345904Y-91979238D01*
X100250666Y-92074476D01*
X100060190Y-92169714D01*
X99869714Y-92169714D01*
X99679238Y-92074476D01*
X99584000Y-91979238D01*
X99488761Y-91788761D01*
X99488761Y-91312571D01*
X99584000Y-91026857D01*
X101393523Y-89407809D02*
X101488761Y-89598285D01*
X101488761Y-89979238D01*
X101393523Y-90169714D01*
X101203047Y-90264952D01*
X100441142Y-90264952D01*
X100250666Y-90169714D01*
X100155428Y-89979238D01*
X100155428Y-89598285D01*
X100250666Y-89407809D01*
X100441142Y-89312571D01*
X100631619Y-89312571D01*
X100822095Y-90264952D01*
X100155428Y-88455428D02*
X101488761Y-88455428D01*
X100345904Y-88455428D02*
X100250666Y-88360190D01*
X100155428Y-88169714D01*
X100155428Y-87884000D01*
X100250666Y-87693523D01*
X100441142Y-87598285D01*
X101488761Y-87598285D01*
X101393523Y-86741142D02*
X101488761Y-86550666D01*
X101488761Y-86169714D01*
X101393523Y-85979238D01*
X101203047Y-85884000D01*
X101107809Y-85884000D01*
X100917333Y-85979238D01*
X100822095Y-86169714D01*
X100822095Y-86455428D01*
X100726857Y-86645904D01*
X100536380Y-86741142D01*
X100441142Y-86741142D01*
X100250666Y-86645904D01*
X100155428Y-86455428D01*
X100155428Y-86169714D01*
X100250666Y-85979238D01*
X101488761Y-84741142D02*
X101393523Y-84931619D01*
X101298285Y-85026857D01*
X101107809Y-85122095D01*
X100536380Y-85122095D01*
X100345904Y-85026857D01*
X100250666Y-84931619D01*
X100155428Y-84741142D01*
X100155428Y-84455428D01*
X100250666Y-84264952D01*
X100345904Y-84169714D01*
X100536380Y-84074476D01*
X101107809Y-84074476D01*
X101298285Y-84169714D01*
X101393523Y-84264952D01*
X101488761Y-84455428D01*
X101488761Y-84741142D01*
X101488761Y-83217333D02*
X100155428Y-83217333D01*
X100536380Y-83217333D02*
X100345904Y-83122095D01*
X100250666Y-83026857D01*
X100155428Y-82836380D01*
X100155428Y-82645904D01*
X101393523Y-81217333D02*
X101488761Y-81407809D01*
X101488761Y-81788761D01*
X101393523Y-81979238D01*
X101203047Y-82074476D01*
X100441142Y-82074476D01*
X100250666Y-81979238D01*
X100155428Y-81788761D01*
X100155428Y-81407809D01*
X100250666Y-81217333D01*
X100441142Y-81122095D01*
X100631619Y-81122095D01*
X100822095Y-82074476D01*
X101488761Y-77788761D02*
X101488761Y-78741142D01*
X99488761Y-78741142D01*
X101488761Y-77122095D02*
X100155428Y-77122095D01*
X99488761Y-77122095D02*
X99584000Y-77217333D01*
X99679238Y-77122095D01*
X99584000Y-77026857D01*
X99488761Y-77122095D01*
X99679238Y-77122095D01*
X101488761Y-76169714D02*
X99488761Y-76169714D01*
X99488761Y-75693523D01*
X99584000Y-75407809D01*
X99774476Y-75217333D01*
X99964952Y-75122095D01*
X100345904Y-75026857D01*
X100631619Y-75026857D01*
X101012571Y-75122095D01*
X101203047Y-75217333D01*
X101393523Y-75407809D01*
X101488761Y-75693523D01*
X101488761Y-76169714D01*
X100917333Y-74264952D02*
X100917333Y-73312571D01*
X101488761Y-74455428D02*
X99488761Y-73788761D01*
X101488761Y-73122095D01*
X101488761Y-71312571D02*
X100536380Y-71979238D01*
X101488761Y-72455428D02*
X99488761Y-72455428D01*
X99488761Y-71693523D01*
X99584000Y-71503047D01*
X99679238Y-71407809D01*
X99869714Y-71312571D01*
X100155428Y-71312571D01*
X100345904Y-71407809D01*
X100441142Y-71503047D01*
X100536380Y-71693523D01*
X100536380Y-72455428D01*
D10*
%TO.C,C12*%
X199239142Y-91574857D02*
X199286761Y-91622476D01*
X199334380Y-91765333D01*
X199334380Y-91860571D01*
X199286761Y-92003428D01*
X199191523Y-92098666D01*
X199096285Y-92146285D01*
X198905809Y-92193904D01*
X198762952Y-92193904D01*
X198572476Y-92146285D01*
X198477238Y-92098666D01*
X198382000Y-92003428D01*
X198334380Y-91860571D01*
X198334380Y-91765333D01*
X198382000Y-91622476D01*
X198429619Y-91574857D01*
X199334380Y-90622476D02*
X199334380Y-91193904D01*
X199334380Y-90908190D02*
X198334380Y-90908190D01*
X198477238Y-91003428D01*
X198572476Y-91098666D01*
X198620095Y-91193904D01*
X198429619Y-90241523D02*
X198382000Y-90193904D01*
X198334380Y-90098666D01*
X198334380Y-89860571D01*
X198382000Y-89765333D01*
X198429619Y-89717714D01*
X198524857Y-89670095D01*
X198620095Y-89670095D01*
X198762952Y-89717714D01*
X199334380Y-90289142D01*
X199334380Y-89670095D01*
%TO.C,J2*%
X206184380Y-62167333D02*
X206898666Y-62167333D01*
X207041523Y-62214952D01*
X207136761Y-62310190D01*
X207184380Y-62453047D01*
X207184380Y-62548285D01*
X206279619Y-61738761D02*
X206232000Y-61691142D01*
X206184380Y-61595904D01*
X206184380Y-61357809D01*
X206232000Y-61262571D01*
X206279619Y-61214952D01*
X206374857Y-61167333D01*
X206470095Y-61167333D01*
X206612952Y-61214952D01*
X207184380Y-61786380D01*
X207184380Y-61167333D01*
X202287142Y-74183142D02*
X202334761Y-74230761D01*
X202382380Y-74373619D01*
X202382380Y-74468857D01*
X202334761Y-74611714D01*
X202239523Y-74706952D01*
X202144285Y-74754571D01*
X201953809Y-74802190D01*
X201810952Y-74802190D01*
X201620476Y-74754571D01*
X201525238Y-74706952D01*
X201430000Y-74611714D01*
X201382380Y-74468857D01*
X201382380Y-74373619D01*
X201430000Y-74230761D01*
X201477619Y-74183142D01*
X201382380Y-73564095D02*
X201382380Y-73373619D01*
X201430000Y-73278380D01*
X201525238Y-73183142D01*
X201715714Y-73135523D01*
X202049047Y-73135523D01*
X202239523Y-73183142D01*
X202334761Y-73278380D01*
X202382380Y-73373619D01*
X202382380Y-73564095D01*
X202334761Y-73659333D01*
X202239523Y-73754571D01*
X202049047Y-73802190D01*
X201715714Y-73802190D01*
X201525238Y-73754571D01*
X201430000Y-73659333D01*
X201382380Y-73564095D01*
X202382380Y-72706952D02*
X201382380Y-72706952D01*
X202382380Y-72135523D01*
X201382380Y-72135523D01*
X202382380Y-71659333D02*
X201382380Y-71659333D01*
X202382380Y-71087904D01*
X201382380Y-71087904D01*
X202477619Y-70849809D02*
X202477619Y-70087904D01*
X202382380Y-69278380D02*
X201906190Y-69611714D01*
X202382380Y-69849809D02*
X201382380Y-69849809D01*
X201382380Y-69468857D01*
X201430000Y-69373619D01*
X201477619Y-69326000D01*
X201572857Y-69278380D01*
X201715714Y-69278380D01*
X201810952Y-69326000D01*
X201858571Y-69373619D01*
X201906190Y-69468857D01*
X201906190Y-69849809D01*
X202382380Y-68849809D02*
X201382380Y-68849809D01*
X202287142Y-67802190D02*
X202334761Y-67849809D01*
X202382380Y-67992666D01*
X202382380Y-68087904D01*
X202334761Y-68230761D01*
X202239523Y-68326000D01*
X202144285Y-68373619D01*
X201953809Y-68421238D01*
X201810952Y-68421238D01*
X201620476Y-68373619D01*
X201525238Y-68326000D01*
X201430000Y-68230761D01*
X201382380Y-68087904D01*
X201382380Y-67992666D01*
X201430000Y-67849809D01*
X201477619Y-67802190D01*
X201858571Y-67373619D02*
X201858571Y-67040285D01*
X202382380Y-66897428D02*
X202382380Y-67373619D01*
X201382380Y-67373619D01*
X201382380Y-66897428D01*
X201382380Y-66611714D02*
X202382380Y-66278380D01*
X201382380Y-65945047D01*
X202382380Y-65611714D02*
X201382380Y-65611714D01*
X201382380Y-65278380D02*
X201382380Y-64706952D01*
X202382380Y-64992666D02*
X201382380Y-64992666D01*
X201382380Y-64183142D02*
X201382380Y-63992666D01*
X201430000Y-63897428D01*
X201525238Y-63802190D01*
X201715714Y-63754571D01*
X202049047Y-63754571D01*
X202239523Y-63802190D01*
X202334761Y-63897428D01*
X202382380Y-63992666D01*
X202382380Y-64183142D01*
X202334761Y-64278380D01*
X202239523Y-64373619D01*
X202049047Y-64421238D01*
X201715714Y-64421238D01*
X201525238Y-64373619D01*
X201430000Y-64278380D01*
X201382380Y-64183142D01*
X202382380Y-62754571D02*
X201906190Y-63087904D01*
X202382380Y-63326000D02*
X201382380Y-63326000D01*
X201382380Y-62945047D01*
X201430000Y-62849809D01*
X201477619Y-62802190D01*
X201572857Y-62754571D01*
X201715714Y-62754571D01*
X201810952Y-62802190D01*
X201858571Y-62849809D01*
X201906190Y-62945047D01*
X201906190Y-63326000D01*
X201858571Y-62326000D02*
X201858571Y-61992666D01*
X202382380Y-61849809D02*
X202382380Y-62326000D01*
X201382380Y-62326000D01*
X201382380Y-61849809D01*
D13*
%TO.C,IC_4*%
X197678523Y-81225571D02*
X196408523Y-81225571D01*
X197557571Y-79895095D02*
X197618047Y-79955571D01*
X197678523Y-80137000D01*
X197678523Y-80257952D01*
X197618047Y-80439380D01*
X197497095Y-80560333D01*
X197376142Y-80620809D01*
X197134238Y-80681285D01*
X196952809Y-80681285D01*
X196710904Y-80620809D01*
X196589952Y-80560333D01*
X196469000Y-80439380D01*
X196408523Y-80257952D01*
X196408523Y-80137000D01*
X196469000Y-79955571D01*
X196529476Y-79895095D01*
X197799476Y-79653190D02*
X197799476Y-78685571D01*
X196831857Y-77838904D02*
X197678523Y-77838904D01*
X196348047Y-78141285D02*
X197255190Y-78443666D01*
X197255190Y-77657476D01*
D10*
%TO.C,R9*%
X186126380Y-86780666D02*
X185650190Y-87114000D01*
X186126380Y-87352095D02*
X185126380Y-87352095D01*
X185126380Y-86971142D01*
X185174000Y-86875904D01*
X185221619Y-86828285D01*
X185316857Y-86780666D01*
X185459714Y-86780666D01*
X185554952Y-86828285D01*
X185602571Y-86875904D01*
X185650190Y-86971142D01*
X185650190Y-87352095D01*
X186126380Y-86304476D02*
X186126380Y-86114000D01*
X186078761Y-86018761D01*
X186031142Y-85971142D01*
X185888285Y-85875904D01*
X185697809Y-85828285D01*
X185316857Y-85828285D01*
X185221619Y-85875904D01*
X185174000Y-85923523D01*
X185126380Y-86018761D01*
X185126380Y-86209238D01*
X185174000Y-86304476D01*
X185221619Y-86352095D01*
X185316857Y-86399714D01*
X185554952Y-86399714D01*
X185650190Y-86352095D01*
X185697809Y-86304476D01*
X185745428Y-86209238D01*
X185745428Y-86018761D01*
X185697809Y-85923523D01*
X185650190Y-85875904D01*
X185554952Y-85828285D01*
%TO.C,J10*%
X147534380Y-55165523D02*
X148248666Y-55165523D01*
X148391523Y-55213142D01*
X148486761Y-55308380D01*
X148534380Y-55451238D01*
X148534380Y-55546476D01*
X148534380Y-54165523D02*
X148534380Y-54736952D01*
X148534380Y-54451238D02*
X147534380Y-54451238D01*
X147677238Y-54546476D01*
X147772476Y-54641714D01*
X147820095Y-54736952D01*
X147534380Y-53546476D02*
X147534380Y-53451238D01*
X147582000Y-53356000D01*
X147629619Y-53308380D01*
X147724857Y-53260761D01*
X147915333Y-53213142D01*
X148153428Y-53213142D01*
X148343904Y-53260761D01*
X148439142Y-53308380D01*
X148486761Y-53356000D01*
X148534380Y-53451238D01*
X148534380Y-53546476D01*
X148486761Y-53641714D01*
X148439142Y-53689333D01*
X148343904Y-53736952D01*
X148153428Y-53784571D01*
X147915333Y-53784571D01*
X147724857Y-53736952D01*
X147629619Y-53689333D01*
X147582000Y-53641714D01*
X147534380Y-53546476D01*
D13*
%TO.C,IC_3*%
X199456523Y-113991571D02*
X198186523Y-113991571D01*
X199335571Y-112661095D02*
X199396047Y-112721571D01*
X199456523Y-112903000D01*
X199456523Y-113023952D01*
X199396047Y-113205380D01*
X199275095Y-113326333D01*
X199154142Y-113386809D01*
X198912238Y-113447285D01*
X198730809Y-113447285D01*
X198488904Y-113386809D01*
X198367952Y-113326333D01*
X198247000Y-113205380D01*
X198186523Y-113023952D01*
X198186523Y-112903000D01*
X198247000Y-112721571D01*
X198307476Y-112661095D01*
X199577476Y-112419190D02*
X199577476Y-111451571D01*
X198186523Y-111270142D02*
X198186523Y-110483952D01*
X198670333Y-110907285D01*
X198670333Y-110725857D01*
X198730809Y-110604904D01*
X198791285Y-110544428D01*
X198912238Y-110483952D01*
X199214619Y-110483952D01*
X199335571Y-110544428D01*
X199396047Y-110604904D01*
X199456523Y-110725857D01*
X199456523Y-111088714D01*
X199396047Y-111209666D01*
X199335571Y-111270142D01*
%TO.C,IC_5*%
X180660523Y-58819571D02*
X179390523Y-58819571D01*
X180539571Y-57489095D02*
X180600047Y-57549571D01*
X180660523Y-57731000D01*
X180660523Y-57851952D01*
X180600047Y-58033380D01*
X180479095Y-58154333D01*
X180358142Y-58214809D01*
X180116238Y-58275285D01*
X179934809Y-58275285D01*
X179692904Y-58214809D01*
X179571952Y-58154333D01*
X179451000Y-58033380D01*
X179390523Y-57851952D01*
X179390523Y-57731000D01*
X179451000Y-57549571D01*
X179511476Y-57489095D01*
X180781476Y-57247190D02*
X180781476Y-56279571D01*
X179390523Y-55372428D02*
X179390523Y-55977190D01*
X179995285Y-56037666D01*
X179934809Y-55977190D01*
X179874333Y-55856238D01*
X179874333Y-55553857D01*
X179934809Y-55432904D01*
X179995285Y-55372428D01*
X180116238Y-55311952D01*
X180418619Y-55311952D01*
X180539571Y-55372428D01*
X180600047Y-55432904D01*
X180660523Y-55553857D01*
X180660523Y-55856238D01*
X180600047Y-55977190D01*
X180539571Y-56037666D01*
D10*
%TO.C,JP2*%
X186904380Y-57983333D02*
X187618666Y-57983333D01*
X187761523Y-58030952D01*
X187856761Y-58126190D01*
X187904380Y-58269047D01*
X187904380Y-58364285D01*
X187904380Y-57507142D02*
X186904380Y-57507142D01*
X186904380Y-57126190D01*
X186952000Y-57030952D01*
X186999619Y-56983333D01*
X187094857Y-56935714D01*
X187237714Y-56935714D01*
X187332952Y-56983333D01*
X187380571Y-57030952D01*
X187428190Y-57126190D01*
X187428190Y-57507142D01*
X186999619Y-56554761D02*
X186952000Y-56507142D01*
X186904380Y-56411904D01*
X186904380Y-56173809D01*
X186952000Y-56078571D01*
X186999619Y-56030952D01*
X187094857Y-55983333D01*
X187190095Y-55983333D01*
X187332952Y-56030952D01*
X187904380Y-56602380D01*
X187904380Y-55983333D01*
X191714380Y-59221428D02*
X191714380Y-59697619D01*
X190714380Y-59697619D01*
X191714380Y-58888095D02*
X190714380Y-58888095D01*
X190714380Y-58650000D01*
X190762000Y-58507142D01*
X190857238Y-58411904D01*
X190952476Y-58364285D01*
X191142952Y-58316666D01*
X191285809Y-58316666D01*
X191476285Y-58364285D01*
X191571523Y-58411904D01*
X191666761Y-58507142D01*
X191714380Y-58650000D01*
X191714380Y-58888095D01*
X190714380Y-57697619D02*
X190714380Y-57507142D01*
X190762000Y-57411904D01*
X190857238Y-57316666D01*
X191047714Y-57269047D01*
X191381047Y-57269047D01*
X191571523Y-57316666D01*
X191666761Y-57411904D01*
X191714380Y-57507142D01*
X191714380Y-57697619D01*
X191666761Y-57792857D01*
X191571523Y-57888095D01*
X191381047Y-57935714D01*
X191047714Y-57935714D01*
X190857238Y-57888095D01*
X190762000Y-57792857D01*
X190714380Y-57697619D01*
X191809619Y-57078571D02*
X191809619Y-56316666D01*
X191190571Y-56078571D02*
X191190571Y-55745238D01*
X191714380Y-55602380D02*
X191714380Y-56078571D01*
X190714380Y-56078571D01*
X190714380Y-55602380D01*
X191714380Y-55173809D02*
X190714380Y-55173809D01*
X191714380Y-54602380D01*
X190714380Y-54602380D01*
X188628380Y-60029333D02*
X188628380Y-59410285D01*
X189009333Y-59743619D01*
X189009333Y-59600761D01*
X189056952Y-59505523D01*
X189104571Y-59457904D01*
X189199809Y-59410285D01*
X189437904Y-59410285D01*
X189533142Y-59457904D01*
X189580761Y-59505523D01*
X189628380Y-59600761D01*
X189628380Y-59886476D01*
X189580761Y-59981714D01*
X189533142Y-60029333D01*
X189628380Y-54210285D02*
X189628380Y-54781714D01*
X189628380Y-54496000D02*
X188628380Y-54496000D01*
X188771238Y-54591238D01*
X188866476Y-54686476D01*
X188914095Y-54781714D01*
%TO.C,J1*%
X206184380Y-101425333D02*
X206898666Y-101425333D01*
X207041523Y-101472952D01*
X207136761Y-101568190D01*
X207184380Y-101711047D01*
X207184380Y-101806285D01*
X207184380Y-100425333D02*
X207184380Y-100996761D01*
X207184380Y-100711047D02*
X206184380Y-100711047D01*
X206327238Y-100806285D01*
X206422476Y-100901523D01*
X206470095Y-100996761D01*
X202287142Y-111600761D02*
X202334761Y-111648380D01*
X202382380Y-111791238D01*
X202382380Y-111886476D01*
X202334761Y-112029333D01*
X202239523Y-112124571D01*
X202144285Y-112172190D01*
X201953809Y-112219809D01*
X201810952Y-112219809D01*
X201620476Y-112172190D01*
X201525238Y-112124571D01*
X201430000Y-112029333D01*
X201382380Y-111886476D01*
X201382380Y-111791238D01*
X201430000Y-111648380D01*
X201477619Y-111600761D01*
X201382380Y-110981714D02*
X201382380Y-110791238D01*
X201430000Y-110696000D01*
X201525238Y-110600761D01*
X201715714Y-110553142D01*
X202049047Y-110553142D01*
X202239523Y-110600761D01*
X202334761Y-110696000D01*
X202382380Y-110791238D01*
X202382380Y-110981714D01*
X202334761Y-111076952D01*
X202239523Y-111172190D01*
X202049047Y-111219809D01*
X201715714Y-111219809D01*
X201525238Y-111172190D01*
X201430000Y-111076952D01*
X201382380Y-110981714D01*
X202382380Y-110124571D02*
X201382380Y-110124571D01*
X202382380Y-109553142D01*
X201382380Y-109553142D01*
X202382380Y-109076952D02*
X201382380Y-109076952D01*
X202382380Y-108505523D01*
X201382380Y-108505523D01*
X202477619Y-108267428D02*
X202477619Y-107505523D01*
X202382380Y-106791238D02*
X202382380Y-107267428D01*
X201382380Y-107267428D01*
X202096666Y-106505523D02*
X202096666Y-106029333D01*
X202382380Y-106600761D02*
X201382380Y-106267428D01*
X202382380Y-105934095D01*
X202334761Y-105648380D02*
X202382380Y-105505523D01*
X202382380Y-105267428D01*
X202334761Y-105172190D01*
X202287142Y-105124571D01*
X202191904Y-105076952D01*
X202096666Y-105076952D01*
X202001428Y-105124571D01*
X201953809Y-105172190D01*
X201906190Y-105267428D01*
X201858571Y-105457904D01*
X201810952Y-105553142D01*
X201763333Y-105600761D01*
X201668095Y-105648380D01*
X201572857Y-105648380D01*
X201477619Y-105600761D01*
X201430000Y-105553142D01*
X201382380Y-105457904D01*
X201382380Y-105219809D01*
X201430000Y-105076952D01*
X201858571Y-104648380D02*
X201858571Y-104315047D01*
X202382380Y-104172190D02*
X202382380Y-104648380D01*
X201382380Y-104648380D01*
X201382380Y-104172190D01*
X202382380Y-103172190D02*
X201906190Y-103505523D01*
X202382380Y-103743619D02*
X201382380Y-103743619D01*
X201382380Y-103362666D01*
X201430000Y-103267428D01*
X201477619Y-103219809D01*
X201572857Y-103172190D01*
X201715714Y-103172190D01*
X201810952Y-103219809D01*
X201858571Y-103267428D01*
X201906190Y-103362666D01*
X201906190Y-103743619D01*
%TO.C,C5*%
X195937142Y-102528666D02*
X195984761Y-102576285D01*
X196032380Y-102719142D01*
X196032380Y-102814380D01*
X195984761Y-102957238D01*
X195889523Y-103052476D01*
X195794285Y-103100095D01*
X195603809Y-103147714D01*
X195460952Y-103147714D01*
X195270476Y-103100095D01*
X195175238Y-103052476D01*
X195080000Y-102957238D01*
X195032380Y-102814380D01*
X195032380Y-102719142D01*
X195080000Y-102576285D01*
X195127619Y-102528666D01*
X195032380Y-101623904D02*
X195032380Y-102100095D01*
X195508571Y-102147714D01*
X195460952Y-102100095D01*
X195413333Y-102004857D01*
X195413333Y-101766761D01*
X195460952Y-101671523D01*
X195508571Y-101623904D01*
X195603809Y-101576285D01*
X195841904Y-101576285D01*
X195937142Y-101623904D01*
X195984761Y-101671523D01*
X196032380Y-101766761D01*
X196032380Y-102004857D01*
X195984761Y-102100095D01*
X195937142Y-102147714D01*
%TO.C,J8*%
X91654380Y-53419333D02*
X92368666Y-53419333D01*
X92511523Y-53466952D01*
X92606761Y-53562190D01*
X92654380Y-53705047D01*
X92654380Y-53800285D01*
X92082952Y-52800285D02*
X92035333Y-52895523D01*
X91987714Y-52943142D01*
X91892476Y-52990761D01*
X91844857Y-52990761D01*
X91749619Y-52943142D01*
X91702000Y-52895523D01*
X91654380Y-52800285D01*
X91654380Y-52609809D01*
X91702000Y-52514571D01*
X91749619Y-52466952D01*
X91844857Y-52419333D01*
X91892476Y-52419333D01*
X91987714Y-52466952D01*
X92035333Y-52514571D01*
X92082952Y-52609809D01*
X92082952Y-52800285D01*
X92130571Y-52895523D01*
X92178190Y-52943142D01*
X92273428Y-52990761D01*
X92463904Y-52990761D01*
X92559142Y-52943142D01*
X92606761Y-52895523D01*
X92654380Y-52800285D01*
X92654380Y-52609809D01*
X92606761Y-52514571D01*
X92559142Y-52466952D01*
X92463904Y-52419333D01*
X92273428Y-52419333D01*
X92178190Y-52466952D01*
X92130571Y-52514571D01*
X92082952Y-52609809D01*
D13*
%TO.C,D3*%
X198440523Y-72057380D02*
X197170523Y-72057380D01*
X197170523Y-71755000D01*
X197231000Y-71573571D01*
X197351952Y-71452619D01*
X197472904Y-71392142D01*
X197714809Y-71331666D01*
X197896238Y-71331666D01*
X198138142Y-71392142D01*
X198259095Y-71452619D01*
X198380047Y-71573571D01*
X198440523Y-71755000D01*
X198440523Y-72057380D01*
X197170523Y-70908333D02*
X197170523Y-70122142D01*
X197654333Y-70545476D01*
X197654333Y-70364047D01*
X197714809Y-70243095D01*
X197775285Y-70182619D01*
X197896238Y-70122142D01*
X198198619Y-70122142D01*
X198319571Y-70182619D01*
X198380047Y-70243095D01*
X198440523Y-70364047D01*
X198440523Y-70726904D01*
X198380047Y-70847857D01*
X198319571Y-70908333D01*
D10*
%TO.C,J7*%
X101814380Y-54435333D02*
X102528666Y-54435333D01*
X102671523Y-54482952D01*
X102766761Y-54578190D01*
X102814380Y-54721047D01*
X102814380Y-54816285D01*
X101814380Y-54054380D02*
X101814380Y-53387714D01*
X102814380Y-53816285D01*
%TO.C,C10*%
X192381142Y-72524857D02*
X192428761Y-72572476D01*
X192476380Y-72715333D01*
X192476380Y-72810571D01*
X192428761Y-72953428D01*
X192333523Y-73048666D01*
X192238285Y-73096285D01*
X192047809Y-73143904D01*
X191904952Y-73143904D01*
X191714476Y-73096285D01*
X191619238Y-73048666D01*
X191524000Y-72953428D01*
X191476380Y-72810571D01*
X191476380Y-72715333D01*
X191524000Y-72572476D01*
X191571619Y-72524857D01*
X192476380Y-71572476D02*
X192476380Y-72143904D01*
X192476380Y-71858190D02*
X191476380Y-71858190D01*
X191619238Y-71953428D01*
X191714476Y-72048666D01*
X191762095Y-72143904D01*
X191476380Y-70953428D02*
X191476380Y-70858190D01*
X191524000Y-70762952D01*
X191571619Y-70715333D01*
X191666857Y-70667714D01*
X191857333Y-70620095D01*
X192095428Y-70620095D01*
X192285904Y-70667714D01*
X192381142Y-70715333D01*
X192428761Y-70762952D01*
X192476380Y-70858190D01*
X192476380Y-70953428D01*
X192428761Y-71048666D01*
X192381142Y-71096285D01*
X192285904Y-71143904D01*
X192095428Y-71191523D01*
X191857333Y-71191523D01*
X191666857Y-71143904D01*
X191571619Y-71096285D01*
X191524000Y-71048666D01*
X191476380Y-70953428D01*
%TO.C,R3*%
X189682380Y-63920666D02*
X189206190Y-64254000D01*
X189682380Y-64492095D02*
X188682380Y-64492095D01*
X188682380Y-64111142D01*
X188730000Y-64015904D01*
X188777619Y-63968285D01*
X188872857Y-63920666D01*
X189015714Y-63920666D01*
X189110952Y-63968285D01*
X189158571Y-64015904D01*
X189206190Y-64111142D01*
X189206190Y-64492095D01*
X188682380Y-63587333D02*
X188682380Y-62968285D01*
X189063333Y-63301619D01*
X189063333Y-63158761D01*
X189110952Y-63063523D01*
X189158571Y-63015904D01*
X189253809Y-62968285D01*
X189491904Y-62968285D01*
X189587142Y-63015904D01*
X189634761Y-63063523D01*
X189682380Y-63158761D01*
X189682380Y-63444476D01*
X189634761Y-63539714D01*
X189587142Y-63587333D01*
%TO.C,D2*%
X186324380Y-61698095D02*
X185324380Y-61698095D01*
X185324380Y-61460000D01*
X185372000Y-61317142D01*
X185467238Y-61221904D01*
X185562476Y-61174285D01*
X185752952Y-61126666D01*
X185895809Y-61126666D01*
X186086285Y-61174285D01*
X186181523Y-61221904D01*
X186276761Y-61317142D01*
X186324380Y-61460000D01*
X186324380Y-61698095D01*
X185419619Y-60745714D02*
X185372000Y-60698095D01*
X185324380Y-60602857D01*
X185324380Y-60364761D01*
X185372000Y-60269523D01*
X185419619Y-60221904D01*
X185514857Y-60174285D01*
X185610095Y-60174285D01*
X185752952Y-60221904D01*
X186324380Y-60793333D01*
X186324380Y-60174285D01*
X187920380Y-70326095D02*
X187920380Y-69707047D01*
X188301333Y-70040380D01*
X188301333Y-69897523D01*
X188348952Y-69802285D01*
X188396571Y-69754666D01*
X188491809Y-69707047D01*
X188729904Y-69707047D01*
X188825142Y-69754666D01*
X188872761Y-69802285D01*
X188920380Y-69897523D01*
X188920380Y-70183238D01*
X188872761Y-70278476D01*
X188825142Y-70326095D01*
X187920380Y-69421333D02*
X188920380Y-69088000D01*
X187920380Y-68754666D01*
X187920380Y-68516571D02*
X187920380Y-67897523D01*
X188301333Y-68230857D01*
X188301333Y-68088000D01*
X188348952Y-67992761D01*
X188396571Y-67945142D01*
X188491809Y-67897523D01*
X188729904Y-67897523D01*
X188825142Y-67945142D01*
X188872761Y-67992761D01*
X188920380Y-68088000D01*
X188920380Y-68373714D01*
X188872761Y-68468952D01*
X188825142Y-68516571D01*
D13*
%TO.C,IC_1*%
X194630523Y-84781571D02*
X193360523Y-84781571D01*
X194509571Y-83451095D02*
X194570047Y-83511571D01*
X194630523Y-83693000D01*
X194630523Y-83813952D01*
X194570047Y-83995380D01*
X194449095Y-84116333D01*
X194328142Y-84176809D01*
X194086238Y-84237285D01*
X193904809Y-84237285D01*
X193662904Y-84176809D01*
X193541952Y-84116333D01*
X193421000Y-83995380D01*
X193360523Y-83813952D01*
X193360523Y-83693000D01*
X193421000Y-83511571D01*
X193481476Y-83451095D01*
X194751476Y-83209190D02*
X194751476Y-82241571D01*
X194630523Y-81273952D02*
X194630523Y-81999666D01*
X194630523Y-81636809D02*
X193360523Y-81636809D01*
X193541952Y-81757761D01*
X193662904Y-81878714D01*
X193723380Y-81999666D01*
D10*
%TO.C,JP3*%
X200620380Y-81859333D02*
X201334666Y-81859333D01*
X201477523Y-81906952D01*
X201572761Y-82002190D01*
X201620380Y-82145047D01*
X201620380Y-82240285D01*
X201620380Y-81383142D02*
X200620380Y-81383142D01*
X200620380Y-81002190D01*
X200668000Y-80906952D01*
X200715619Y-80859333D01*
X200810857Y-80811714D01*
X200953714Y-80811714D01*
X201048952Y-80859333D01*
X201096571Y-80906952D01*
X201144190Y-81002190D01*
X201144190Y-81383142D01*
X200620380Y-80478380D02*
X200620380Y-79859333D01*
X201001333Y-80192666D01*
X201001333Y-80049809D01*
X201048952Y-79954571D01*
X201096571Y-79906952D01*
X201191809Y-79859333D01*
X201429904Y-79859333D01*
X201525142Y-79906952D01*
X201572761Y-79954571D01*
X201620380Y-80049809D01*
X201620380Y-80335523D01*
X201572761Y-80430761D01*
X201525142Y-80478380D01*
X198080380Y-86756571D02*
X198080380Y-86566095D01*
X198128000Y-86470857D01*
X198223238Y-86375619D01*
X198413714Y-86328000D01*
X198747047Y-86328000D01*
X198937523Y-86375619D01*
X199032761Y-86470857D01*
X199080380Y-86566095D01*
X199080380Y-86756571D01*
X199032761Y-86851809D01*
X198937523Y-86947047D01*
X198747047Y-86994666D01*
X198413714Y-86994666D01*
X198223238Y-86947047D01*
X198128000Y-86851809D01*
X198080380Y-86756571D01*
X199032761Y-85947047D02*
X199080380Y-85804190D01*
X199080380Y-85566095D01*
X199032761Y-85470857D01*
X198985142Y-85423238D01*
X198889904Y-85375619D01*
X198794666Y-85375619D01*
X198699428Y-85423238D01*
X198651809Y-85470857D01*
X198604190Y-85566095D01*
X198556571Y-85756571D01*
X198508952Y-85851809D01*
X198461333Y-85899428D01*
X198366095Y-85947047D01*
X198270857Y-85947047D01*
X198175619Y-85899428D01*
X198128000Y-85851809D01*
X198080380Y-85756571D01*
X198080380Y-85518476D01*
X198128000Y-85375619D01*
X198985142Y-84375619D02*
X199032761Y-84423238D01*
X199080380Y-84566095D01*
X199080380Y-84661333D01*
X199032761Y-84804190D01*
X198937523Y-84899428D01*
X198842285Y-84947047D01*
X198651809Y-84994666D01*
X198508952Y-84994666D01*
X198318476Y-84947047D01*
X198223238Y-84899428D01*
X198128000Y-84804190D01*
X198080380Y-84661333D01*
X198080380Y-84566095D01*
X198128000Y-84423238D01*
X198175619Y-84375619D01*
X199175619Y-84185142D02*
X199175619Y-83423238D01*
X198556571Y-83185142D02*
X198556571Y-82851809D01*
X199080380Y-82708952D02*
X199080380Y-83185142D01*
X198080380Y-83185142D01*
X198080380Y-82708952D01*
X199080380Y-82280380D02*
X198080380Y-82280380D01*
X199080380Y-81708952D01*
X198080380Y-81708952D01*
%TO.C,C2*%
X185703142Y-52116666D02*
X185750761Y-52164285D01*
X185798380Y-52307142D01*
X185798380Y-52402380D01*
X185750761Y-52545238D01*
X185655523Y-52640476D01*
X185560285Y-52688095D01*
X185369809Y-52735714D01*
X185226952Y-52735714D01*
X185036476Y-52688095D01*
X184941238Y-52640476D01*
X184846000Y-52545238D01*
X184798380Y-52402380D01*
X184798380Y-52307142D01*
X184846000Y-52164285D01*
X184893619Y-52116666D01*
X184893619Y-51735714D02*
X184846000Y-51688095D01*
X184798380Y-51592857D01*
X184798380Y-51354761D01*
X184846000Y-51259523D01*
X184893619Y-51211904D01*
X184988857Y-51164285D01*
X185084095Y-51164285D01*
X185226952Y-51211904D01*
X185798380Y-51783333D01*
X185798380Y-51164285D01*
%TO.C,J5*%
X119594380Y-121745333D02*
X120308666Y-121745333D01*
X120451523Y-121792952D01*
X120546761Y-121888190D01*
X120594380Y-122031047D01*
X120594380Y-122126285D01*
X119594380Y-120792952D02*
X119594380Y-121269142D01*
X120070571Y-121316761D01*
X120022952Y-121269142D01*
X119975333Y-121173904D01*
X119975333Y-120935809D01*
X120022952Y-120840571D01*
X120070571Y-120792952D01*
X120165809Y-120745333D01*
X120403904Y-120745333D01*
X120499142Y-120792952D01*
X120546761Y-120840571D01*
X120594380Y-120935809D01*
X120594380Y-121173904D01*
X120546761Y-121269142D01*
X120499142Y-121316761D01*
D13*
%TO.C,IC_2*%
X204536523Y-90877571D02*
X203266523Y-90877571D01*
X204415571Y-89547095D02*
X204476047Y-89607571D01*
X204536523Y-89789000D01*
X204536523Y-89909952D01*
X204476047Y-90091380D01*
X204355095Y-90212333D01*
X204234142Y-90272809D01*
X203992238Y-90333285D01*
X203810809Y-90333285D01*
X203568904Y-90272809D01*
X203447952Y-90212333D01*
X203327000Y-90091380D01*
X203266523Y-89909952D01*
X203266523Y-89789000D01*
X203327000Y-89607571D01*
X203387476Y-89547095D01*
X204657476Y-89305190D02*
X204657476Y-88337571D01*
X203387476Y-88095666D02*
X203327000Y-88035190D01*
X203266523Y-87914238D01*
X203266523Y-87611857D01*
X203327000Y-87490904D01*
X203387476Y-87430428D01*
X203508428Y-87369952D01*
X203629380Y-87369952D01*
X203810809Y-87430428D01*
X204536523Y-88156142D01*
X204536523Y-87369952D01*
D10*
%TO.C,R5*%
X192476380Y-68746666D02*
X192000190Y-69080000D01*
X192476380Y-69318095D02*
X191476380Y-69318095D01*
X191476380Y-68937142D01*
X191524000Y-68841904D01*
X191571619Y-68794285D01*
X191666857Y-68746666D01*
X191809714Y-68746666D01*
X191904952Y-68794285D01*
X191952571Y-68841904D01*
X192000190Y-68937142D01*
X192000190Y-69318095D01*
X191476380Y-67841904D02*
X191476380Y-68318095D01*
X191952571Y-68365714D01*
X191904952Y-68318095D01*
X191857333Y-68222857D01*
X191857333Y-67984761D01*
X191904952Y-67889523D01*
X191952571Y-67841904D01*
X192047809Y-67794285D01*
X192285904Y-67794285D01*
X192381142Y-67841904D01*
X192428761Y-67889523D01*
X192476380Y-67984761D01*
X192476380Y-68222857D01*
X192428761Y-68318095D01*
X192381142Y-68365714D01*
%TO.C,C11*%
X189333142Y-96654857D02*
X189380761Y-96702476D01*
X189428380Y-96845333D01*
X189428380Y-96940571D01*
X189380761Y-97083428D01*
X189285523Y-97178666D01*
X189190285Y-97226285D01*
X188999809Y-97273904D01*
X188856952Y-97273904D01*
X188666476Y-97226285D01*
X188571238Y-97178666D01*
X188476000Y-97083428D01*
X188428380Y-96940571D01*
X188428380Y-96845333D01*
X188476000Y-96702476D01*
X188523619Y-96654857D01*
X189428380Y-95702476D02*
X189428380Y-96273904D01*
X189428380Y-95988190D02*
X188428380Y-95988190D01*
X188571238Y-96083428D01*
X188666476Y-96178666D01*
X188714095Y-96273904D01*
X189428380Y-94750095D02*
X189428380Y-95321523D01*
X189428380Y-95035809D02*
X188428380Y-95035809D01*
X188571238Y-95131047D01*
X188666476Y-95226285D01*
X188714095Y-95321523D01*
%TO.C,JP1*%
X177506380Y-61231333D02*
X178220666Y-61231333D01*
X178363523Y-61278952D01*
X178458761Y-61374190D01*
X178506380Y-61517047D01*
X178506380Y-61612285D01*
X178506380Y-60755142D02*
X177506380Y-60755142D01*
X177506380Y-60374190D01*
X177554000Y-60278952D01*
X177601619Y-60231333D01*
X177696857Y-60183714D01*
X177839714Y-60183714D01*
X177934952Y-60231333D01*
X177982571Y-60278952D01*
X178030190Y-60374190D01*
X178030190Y-60755142D01*
X178506380Y-59231333D02*
X178506380Y-59802761D01*
X178506380Y-59517047D02*
X177506380Y-59517047D01*
X177649238Y-59612285D01*
X177744476Y-59707523D01*
X177792095Y-59802761D01*
X177490380Y-58134000D02*
X177014190Y-58467333D01*
X177490380Y-58705428D02*
X176490380Y-58705428D01*
X176490380Y-58324476D01*
X176538000Y-58229238D01*
X176585619Y-58181619D01*
X176680857Y-58134000D01*
X176823714Y-58134000D01*
X176918952Y-58181619D01*
X176966571Y-58229238D01*
X177014190Y-58324476D01*
X177014190Y-58705428D01*
X176966571Y-57705428D02*
X176966571Y-57372095D01*
X177490380Y-57229238D02*
X177490380Y-57705428D01*
X176490380Y-57705428D01*
X176490380Y-57229238D01*
X176538000Y-56276857D02*
X176490380Y-56372095D01*
X176490380Y-56514952D01*
X176538000Y-56657809D01*
X176633238Y-56753047D01*
X176728476Y-56800666D01*
X176918952Y-56848285D01*
X177061809Y-56848285D01*
X177252285Y-56800666D01*
X177347523Y-56753047D01*
X177442761Y-56657809D01*
X177490380Y-56514952D01*
X177490380Y-56419714D01*
X177442761Y-56276857D01*
X177395142Y-56229238D01*
X177061809Y-56229238D01*
X177061809Y-56419714D01*
X177585619Y-56038761D02*
X177585619Y-55276857D01*
X176966571Y-55038761D02*
X176966571Y-54705428D01*
X177490380Y-54562571D02*
X177490380Y-55038761D01*
X176490380Y-55038761D01*
X176490380Y-54562571D01*
X177490380Y-54134000D02*
X176490380Y-54134000D01*
X177490380Y-53562571D01*
X176490380Y-53562571D01*
%TO.C,C7*%
X202033142Y-95162666D02*
X202080761Y-95210285D01*
X202128380Y-95353142D01*
X202128380Y-95448380D01*
X202080761Y-95591238D01*
X201985523Y-95686476D01*
X201890285Y-95734095D01*
X201699809Y-95781714D01*
X201556952Y-95781714D01*
X201366476Y-95734095D01*
X201271238Y-95686476D01*
X201176000Y-95591238D01*
X201128380Y-95448380D01*
X201128380Y-95353142D01*
X201176000Y-95210285D01*
X201223619Y-95162666D01*
X201128380Y-94829333D02*
X201128380Y-94162666D01*
X202128380Y-94591238D01*
%TO.C,C1*%
X181639142Y-52116666D02*
X181686761Y-52164285D01*
X181734380Y-52307142D01*
X181734380Y-52402380D01*
X181686761Y-52545238D01*
X181591523Y-52640476D01*
X181496285Y-52688095D01*
X181305809Y-52735714D01*
X181162952Y-52735714D01*
X180972476Y-52688095D01*
X180877238Y-52640476D01*
X180782000Y-52545238D01*
X180734380Y-52402380D01*
X180734380Y-52307142D01*
X180782000Y-52164285D01*
X180829619Y-52116666D01*
X181734380Y-51164285D02*
X181734380Y-51735714D01*
X181734380Y-51450000D02*
X180734380Y-51450000D01*
X180877238Y-51545238D01*
X180972476Y-51640476D01*
X181020095Y-51735714D01*
%TO.C,R10*%
X204160380Y-78366857D02*
X203684190Y-78700190D01*
X204160380Y-78938285D02*
X203160380Y-78938285D01*
X203160380Y-78557333D01*
X203208000Y-78462095D01*
X203255619Y-78414476D01*
X203350857Y-78366857D01*
X203493714Y-78366857D01*
X203588952Y-78414476D01*
X203636571Y-78462095D01*
X203684190Y-78557333D01*
X203684190Y-78938285D01*
X204160380Y-77414476D02*
X204160380Y-77985904D01*
X204160380Y-77700190D02*
X203160380Y-77700190D01*
X203303238Y-77795428D01*
X203398476Y-77890666D01*
X203446095Y-77985904D01*
X203160380Y-76795428D02*
X203160380Y-76700190D01*
X203208000Y-76604952D01*
X203255619Y-76557333D01*
X203350857Y-76509714D01*
X203541333Y-76462095D01*
X203779428Y-76462095D01*
X203969904Y-76509714D01*
X204065142Y-76557333D01*
X204112761Y-76604952D01*
X204160380Y-76700190D01*
X204160380Y-76795428D01*
X204112761Y-76890666D01*
X204065142Y-76938285D01*
X203969904Y-76985904D01*
X203779428Y-77033523D01*
X203541333Y-77033523D01*
X203350857Y-76985904D01*
X203255619Y-76938285D01*
X203208000Y-76890666D01*
X203160380Y-76795428D01*
%TO.C,C4*%
X194159142Y-96178666D02*
X194206761Y-96226285D01*
X194254380Y-96369142D01*
X194254380Y-96464380D01*
X194206761Y-96607238D01*
X194111523Y-96702476D01*
X194016285Y-96750095D01*
X193825809Y-96797714D01*
X193682952Y-96797714D01*
X193492476Y-96750095D01*
X193397238Y-96702476D01*
X193302000Y-96607238D01*
X193254380Y-96464380D01*
X193254380Y-96369142D01*
X193302000Y-96226285D01*
X193349619Y-96178666D01*
X193587714Y-95321523D02*
X194254380Y-95321523D01*
X193206761Y-95559619D02*
X193921047Y-95797714D01*
X193921047Y-95178666D01*
%TO.C,D1*%
X183586380Y-61698095D02*
X182586380Y-61698095D01*
X182586380Y-61460000D01*
X182634000Y-61317142D01*
X182729238Y-61221904D01*
X182824476Y-61174285D01*
X183014952Y-61126666D01*
X183157809Y-61126666D01*
X183348285Y-61174285D01*
X183443523Y-61221904D01*
X183538761Y-61317142D01*
X183586380Y-61460000D01*
X183586380Y-61698095D01*
X183586380Y-60174285D02*
X183586380Y-60745714D01*
X183586380Y-60460000D02*
X182586380Y-60460000D01*
X182729238Y-60555238D01*
X182824476Y-60650476D01*
X182872095Y-60745714D01*
X185126380Y-68890828D02*
X185126380Y-69367018D01*
X185602571Y-69414637D01*
X185554952Y-69367018D01*
X185507333Y-69271780D01*
X185507333Y-69033685D01*
X185554952Y-68938447D01*
X185602571Y-68890828D01*
X185697809Y-68843209D01*
X185935904Y-68843209D01*
X186031142Y-68890828D01*
X186078761Y-68938447D01*
X186126380Y-69033685D01*
X186126380Y-69271780D01*
X186078761Y-69367018D01*
X186031142Y-69414637D01*
X185126380Y-68557494D02*
X186126380Y-68224161D01*
X185126380Y-67890828D01*
%TO.C,C6*%
X192447142Y-78144666D02*
X192494761Y-78192285D01*
X192542380Y-78335142D01*
X192542380Y-78430380D01*
X192494761Y-78573238D01*
X192399523Y-78668476D01*
X192304285Y-78716095D01*
X192113809Y-78763714D01*
X191970952Y-78763714D01*
X191780476Y-78716095D01*
X191685238Y-78668476D01*
X191590000Y-78573238D01*
X191542380Y-78430380D01*
X191542380Y-78335142D01*
X191590000Y-78192285D01*
X191637619Y-78144666D01*
X191542380Y-77287523D02*
X191542380Y-77478000D01*
X191590000Y-77573238D01*
X191637619Y-77620857D01*
X191780476Y-77716095D01*
X191970952Y-77763714D01*
X192351904Y-77763714D01*
X192447142Y-77716095D01*
X192494761Y-77668476D01*
X192542380Y-77573238D01*
X192542380Y-77382761D01*
X192494761Y-77287523D01*
X192447142Y-77239904D01*
X192351904Y-77192285D01*
X192113809Y-77192285D01*
X192018571Y-77239904D01*
X191970952Y-77287523D01*
X191923333Y-77382761D01*
X191923333Y-77573238D01*
X191970952Y-77668476D01*
X192018571Y-77716095D01*
X192113809Y-77763714D01*
%TO.C,J9*%
X124928380Y-54943333D02*
X125642666Y-54943333D01*
X125785523Y-54990952D01*
X125880761Y-55086190D01*
X125928380Y-55229047D01*
X125928380Y-55324285D01*
X125928380Y-54419523D02*
X125928380Y-54229047D01*
X125880761Y-54133809D01*
X125833142Y-54086190D01*
X125690285Y-53990952D01*
X125499809Y-53943333D01*
X125118857Y-53943333D01*
X125023619Y-53990952D01*
X124976000Y-54038571D01*
X124928380Y-54133809D01*
X124928380Y-54324285D01*
X124976000Y-54419523D01*
X125023619Y-54467142D01*
X125118857Y-54514761D01*
X125356952Y-54514761D01*
X125452190Y-54467142D01*
X125499809Y-54419523D01*
X125547428Y-54324285D01*
X125547428Y-54133809D01*
X125499809Y-54038571D01*
X125452190Y-53990952D01*
X125356952Y-53943333D01*
%TO.C,C8*%
X195937142Y-104814666D02*
X195984761Y-104862285D01*
X196032380Y-105005142D01*
X196032380Y-105100380D01*
X195984761Y-105243238D01*
X195889523Y-105338476D01*
X195794285Y-105386095D01*
X195603809Y-105433714D01*
X195460952Y-105433714D01*
X195270476Y-105386095D01*
X195175238Y-105338476D01*
X195080000Y-105243238D01*
X195032380Y-105100380D01*
X195032380Y-105005142D01*
X195080000Y-104862285D01*
X195127619Y-104814666D01*
X195460952Y-104243238D02*
X195413333Y-104338476D01*
X195365714Y-104386095D01*
X195270476Y-104433714D01*
X195222857Y-104433714D01*
X195127619Y-104386095D01*
X195080000Y-104338476D01*
X195032380Y-104243238D01*
X195032380Y-104052761D01*
X195080000Y-103957523D01*
X195127619Y-103909904D01*
X195222857Y-103862285D01*
X195270476Y-103862285D01*
X195365714Y-103909904D01*
X195413333Y-103957523D01*
X195460952Y-104052761D01*
X195460952Y-104243238D01*
X195508571Y-104338476D01*
X195556190Y-104386095D01*
X195651428Y-104433714D01*
X195841904Y-104433714D01*
X195937142Y-104386095D01*
X195984761Y-104338476D01*
X196032380Y-104243238D01*
X196032380Y-104052761D01*
X195984761Y-103957523D01*
X195937142Y-103909904D01*
X195841904Y-103862285D01*
X195651428Y-103862285D01*
X195556190Y-103909904D01*
X195508571Y-103957523D01*
X195460952Y-104052761D01*
%TO.C,J6*%
X142454380Y-121745333D02*
X143168666Y-121745333D01*
X143311523Y-121792952D01*
X143406761Y-121888190D01*
X143454380Y-122031047D01*
X143454380Y-122126285D01*
X142454380Y-120840571D02*
X142454380Y-121031047D01*
X142502000Y-121126285D01*
X142549619Y-121173904D01*
X142692476Y-121269142D01*
X142882952Y-121316761D01*
X143263904Y-121316761D01*
X143359142Y-121269142D01*
X143406761Y-121221523D01*
X143454380Y-121126285D01*
X143454380Y-120935809D01*
X143406761Y-120840571D01*
X143359142Y-120792952D01*
X143263904Y-120745333D01*
X143025809Y-120745333D01*
X142930571Y-120792952D01*
X142882952Y-120840571D01*
X142835333Y-120935809D01*
X142835333Y-121126285D01*
X142882952Y-121221523D01*
X142930571Y-121269142D01*
X143025809Y-121316761D01*
%TO.C,C9*%
X194733142Y-78144666D02*
X194780761Y-78192285D01*
X194828380Y-78335142D01*
X194828380Y-78430380D01*
X194780761Y-78573238D01*
X194685523Y-78668476D01*
X194590285Y-78716095D01*
X194399809Y-78763714D01*
X194256952Y-78763714D01*
X194066476Y-78716095D01*
X193971238Y-78668476D01*
X193876000Y-78573238D01*
X193828380Y-78430380D01*
X193828380Y-78335142D01*
X193876000Y-78192285D01*
X193923619Y-78144666D01*
X194828380Y-77668476D02*
X194828380Y-77478000D01*
X194780761Y-77382761D01*
X194733142Y-77335142D01*
X194590285Y-77239904D01*
X194399809Y-77192285D01*
X194018857Y-77192285D01*
X193923619Y-77239904D01*
X193876000Y-77287523D01*
X193828380Y-77382761D01*
X193828380Y-77573238D01*
X193876000Y-77668476D01*
X193923619Y-77716095D01*
X194018857Y-77763714D01*
X194256952Y-77763714D01*
X194352190Y-77716095D01*
X194399809Y-77668476D01*
X194447428Y-77573238D01*
X194447428Y-77382761D01*
X194399809Y-77287523D01*
X194352190Y-77239904D01*
X194256952Y-77192285D01*
%TO.C,R4*%
X197048380Y-66206666D02*
X196572190Y-66540000D01*
X197048380Y-66778095D02*
X196048380Y-66778095D01*
X196048380Y-66397142D01*
X196096000Y-66301904D01*
X196143619Y-66254285D01*
X196238857Y-66206666D01*
X196381714Y-66206666D01*
X196476952Y-66254285D01*
X196524571Y-66301904D01*
X196572190Y-66397142D01*
X196572190Y-66778095D01*
X196381714Y-65349523D02*
X197048380Y-65349523D01*
X196000761Y-65587619D02*
X196715047Y-65825714D01*
X196715047Y-65206666D01*
%TO.C,J4*%
X92670380Y-123015333D02*
X93384666Y-123015333D01*
X93527523Y-123062952D01*
X93622761Y-123158190D01*
X93670380Y-123301047D01*
X93670380Y-123396285D01*
X93003714Y-122110571D02*
X93670380Y-122110571D01*
X92622761Y-122348666D02*
X93337047Y-122586761D01*
X93337047Y-121967714D01*
%TO.C,R1*%
X204922380Y-81954666D02*
X204446190Y-82288000D01*
X204922380Y-82526095D02*
X203922380Y-82526095D01*
X203922380Y-82145142D01*
X203970000Y-82049904D01*
X204017619Y-82002285D01*
X204112857Y-81954666D01*
X204255714Y-81954666D01*
X204350952Y-82002285D01*
X204398571Y-82049904D01*
X204446190Y-82145142D01*
X204446190Y-82526095D01*
X204922380Y-81002285D02*
X204922380Y-81573714D01*
X204922380Y-81288000D02*
X203922380Y-81288000D01*
X204065238Y-81383238D01*
X204160476Y-81478476D01*
X204208095Y-81573714D01*
%TO.C,C3*%
X191365142Y-96178666D02*
X191412761Y-96226285D01*
X191460380Y-96369142D01*
X191460380Y-96464380D01*
X191412761Y-96607238D01*
X191317523Y-96702476D01*
X191222285Y-96750095D01*
X191031809Y-96797714D01*
X190888952Y-96797714D01*
X190698476Y-96750095D01*
X190603238Y-96702476D01*
X190508000Y-96607238D01*
X190460380Y-96464380D01*
X190460380Y-96369142D01*
X190508000Y-96226285D01*
X190555619Y-96178666D01*
X190460380Y-95845333D02*
X190460380Y-95226285D01*
X190841333Y-95559619D01*
X190841333Y-95416761D01*
X190888952Y-95321523D01*
X190936571Y-95273904D01*
X191031809Y-95226285D01*
X191269904Y-95226285D01*
X191365142Y-95273904D01*
X191412761Y-95321523D01*
X191460380Y-95416761D01*
X191460380Y-95702476D01*
X191412761Y-95797714D01*
X191365142Y-95845333D01*
%TO.C,R6*%
X186126380Y-84494666D02*
X185650190Y-84828000D01*
X186126380Y-85066095D02*
X185126380Y-85066095D01*
X185126380Y-84685142D01*
X185174000Y-84589904D01*
X185221619Y-84542285D01*
X185316857Y-84494666D01*
X185459714Y-84494666D01*
X185554952Y-84542285D01*
X185602571Y-84589904D01*
X185650190Y-84685142D01*
X185650190Y-85066095D01*
X185126380Y-83637523D02*
X185126380Y-83828000D01*
X185174000Y-83923238D01*
X185221619Y-83970857D01*
X185364476Y-84066095D01*
X185554952Y-84113714D01*
X185935904Y-84113714D01*
X186031142Y-84066095D01*
X186078761Y-84018476D01*
X186126380Y-83923238D01*
X186126380Y-83732761D01*
X186078761Y-83637523D01*
X186031142Y-83589904D01*
X185935904Y-83542285D01*
X185697809Y-83542285D01*
X185602571Y-83589904D01*
X185554952Y-83637523D01*
X185507333Y-83732761D01*
X185507333Y-83923238D01*
X185554952Y-84018476D01*
X185602571Y-84066095D01*
X185697809Y-84113714D01*
%TO.C,R2*%
X178252380Y-63920666D02*
X177776190Y-64254000D01*
X178252380Y-64492095D02*
X177252380Y-64492095D01*
X177252380Y-64111142D01*
X177300000Y-64015904D01*
X177347619Y-63968285D01*
X177442857Y-63920666D01*
X177585714Y-63920666D01*
X177680952Y-63968285D01*
X177728571Y-64015904D01*
X177776190Y-64111142D01*
X177776190Y-64492095D01*
X177347619Y-63539714D02*
X177300000Y-63492095D01*
X177252380Y-63396857D01*
X177252380Y-63158761D01*
X177300000Y-63063523D01*
X177347619Y-63015904D01*
X177442857Y-62968285D01*
X177538095Y-62968285D01*
X177680952Y-63015904D01*
X178252380Y-63587333D01*
X178252380Y-62968285D01*
%TO.C,J3*%
X180554380Y-115625333D02*
X181268666Y-115625333D01*
X181411523Y-115672952D01*
X181506761Y-115768190D01*
X181554380Y-115911047D01*
X181554380Y-116006285D01*
X180554380Y-115244380D02*
X180554380Y-114625333D01*
X180935333Y-114958666D01*
X180935333Y-114815809D01*
X180982952Y-114720571D01*
X181030571Y-114672952D01*
X181125809Y-114625333D01*
X181363904Y-114625333D01*
X181459142Y-114672952D01*
X181506761Y-114720571D01*
X181554380Y-114815809D01*
X181554380Y-115101523D01*
X181506761Y-115196761D01*
X181459142Y-115244380D01*
%TO.C,IC_0*%
X89606380Y-92558142D02*
X88606380Y-92558142D01*
X89511142Y-91510523D02*
X89558761Y-91558142D01*
X89606380Y-91701000D01*
X89606380Y-91796238D01*
X89558761Y-91939095D01*
X89463523Y-92034333D01*
X89368285Y-92081952D01*
X89177809Y-92129571D01*
X89034952Y-92129571D01*
X88844476Y-92081952D01*
X88749238Y-92034333D01*
X88654000Y-91939095D01*
X88606380Y-91796238D01*
X88606380Y-91701000D01*
X88654000Y-91558142D01*
X88701619Y-91510523D01*
X89701619Y-91320047D02*
X89701619Y-90558142D01*
X88606380Y-90129571D02*
X88606380Y-90034333D01*
X88654000Y-89939095D01*
X88701619Y-89891476D01*
X88796857Y-89843857D01*
X88987333Y-89796238D01*
X89225428Y-89796238D01*
X89415904Y-89843857D01*
X89511142Y-89891476D01*
X89558761Y-89939095D01*
X89606380Y-90034333D01*
X89606380Y-90129571D01*
X89558761Y-90224809D01*
X89511142Y-90272428D01*
X89415904Y-90320047D01*
X89225428Y-90367666D01*
X88987333Y-90367666D01*
X88796857Y-90320047D01*
X88701619Y-90272428D01*
X88654000Y-90224809D01*
X88606380Y-90129571D01*
X136984000Y-94083142D02*
X137031619Y-94130761D01*
X136984000Y-94178380D01*
X136936380Y-94130761D01*
X136984000Y-94083142D01*
X136984000Y-94178380D01*
D14*
%TO.C,C12*%
X201160748Y-91667000D02*
X201683252Y-91667000D01*
X201160748Y-90197000D02*
X201683252Y-90197000D01*
%TO.C,J2*%
X202732000Y-68584000D02*
X203232000Y-68834000D01*
X203232000Y-68834000D02*
X202732000Y-69084000D01*
X202732000Y-69084000D02*
X202732000Y-68584000D01*
D15*
%TO.C,IC_4*%
X199253000Y-73613000D02*
X199253000Y-74663000D01*
X196228000Y-75013000D02*
X199128000Y-75013000D01*
X196228000Y-75863000D02*
X196228000Y-75013000D01*
X199128000Y-75013000D02*
X199128000Y-75863000D01*
X199128000Y-75863000D02*
X196228000Y-75863000D01*
D14*
%TO.C,R9*%
X187986936Y-85879000D02*
X188441064Y-85879000D01*
X187986936Y-87349000D02*
X188441064Y-87349000D01*
%TO.C,J10*%
X149424065Y-58702981D02*
X167264065Y-58702981D01*
X146824065Y-56042981D02*
X148154065Y-56042981D01*
X149424065Y-56042981D02*
X167264065Y-56042981D01*
X167264065Y-58702981D02*
X167264065Y-56042981D01*
X146824065Y-57372981D02*
X146824065Y-56042981D01*
X149424065Y-58702981D02*
X149424065Y-56042981D01*
D15*
%TO.C,IC_3*%
X197332000Y-106088000D02*
X198532000Y-106088000D01*
%TO.C,IC_5*%
X183634000Y-55646000D02*
X183634000Y-58546000D01*
X181484000Y-55596000D02*
X182684000Y-55596000D01*
X183034000Y-58546000D02*
X183034000Y-55646000D01*
X183034000Y-55646000D02*
X183634000Y-55646000D01*
X183634000Y-58546000D02*
X183034000Y-58546000D01*
D14*
%TO.C,JP2*%
X188176000Y-59146000D02*
X188176000Y-55046000D01*
X190176000Y-55046000D02*
X190176000Y-59146000D01*
X188176000Y-55046000D02*
X190176000Y-55046000D01*
X190176000Y-59146000D02*
X188176000Y-59146000D01*
%TO.C,J1*%
X202732000Y-108454000D02*
X202732000Y-107954000D01*
X203232000Y-108204000D02*
X202732000Y-108454000D01*
X202732000Y-107954000D02*
X203232000Y-108204000D01*
%TO.C,C5*%
X198889252Y-101627000D02*
X198366748Y-101627000D01*
X198889252Y-103097000D02*
X198366748Y-103097000D01*
%TO.C,J8*%
X93487000Y-54530000D02*
X98627000Y-54530000D01*
X93487000Y-57130000D02*
X93487000Y-54530000D01*
X90887000Y-57130000D02*
X93487000Y-57130000D01*
X90887000Y-59730000D02*
X98627000Y-59730000D01*
X90887000Y-59730000D02*
X90887000Y-57130000D01*
X90887000Y-54530000D02*
X92217000Y-54530000D01*
X98627000Y-59730000D02*
X98627000Y-54530000D01*
X90887000Y-55860000D02*
X90887000Y-54530000D01*
D15*
%TO.C,D3*%
X198482000Y-69713000D02*
X199282000Y-69713000D01*
D16*
X197082000Y-69088000D02*
X197082000Y-69088000D01*
D15*
X198482000Y-68463000D02*
X199282000Y-68463000D01*
D16*
X196982000Y-69088000D02*
X196982000Y-69088000D01*
D15*
X198482000Y-69713000D02*
X198482000Y-69713000D01*
D16*
X197082000Y-69088000D02*
G75*
G03*
X196982000Y-69088000I-50000J0D01*
G01*
X196982000Y-69088000D02*
G75*
G03*
X197082000Y-69088000I50000J0D01*
G01*
D14*
%TO.C,J7*%
X121487000Y-58201000D02*
X121487000Y-55541000D01*
X103647000Y-55541000D02*
X121487000Y-55541000D01*
X103647000Y-58201000D02*
X103647000Y-55541000D01*
X103647000Y-58201000D02*
X121487000Y-58201000D01*
X101047000Y-55541000D02*
X102377000Y-55541000D01*
X101047000Y-56871000D02*
X101047000Y-55541000D01*
%TO.C,C10*%
X194825252Y-70639000D02*
X194302748Y-70639000D01*
X194825252Y-72109000D02*
X194302748Y-72109000D01*
%TO.C,R3*%
X187933000Y-63526936D02*
X187933000Y-63981064D01*
X186463000Y-63526936D02*
X186463000Y-63981064D01*
%TO.C,D2*%
X183952000Y-62754000D02*
X183952000Y-65439000D01*
X183952000Y-65439000D02*
X185872000Y-65439000D01*
X185872000Y-65439000D02*
X185872000Y-62754000D01*
D15*
%TO.C,IC_1*%
X197731000Y-90663000D02*
X196256000Y-90663000D01*
X195906000Y-85638000D02*
X195906000Y-90638000D01*
X195906000Y-90638000D02*
X192206000Y-90638000D01*
X192206000Y-90638000D02*
X192206000Y-85638000D01*
X192206000Y-85638000D02*
X195906000Y-85638000D01*
D14*
%TO.C,JP3*%
X200468000Y-82820000D02*
X201868000Y-82820000D01*
X202568000Y-83520000D02*
X202568000Y-84120000D01*
X201868000Y-84820000D02*
X200468000Y-84820000D01*
X199768000Y-84120000D02*
X199768000Y-83520000D01*
X200468000Y-82820000D02*
G75*
G03*
X199768000Y-83520000I-1J-699999D01*
G01*
X201868000Y-84820000D02*
G75*
G03*
X202568000Y-84120000I0J700000D01*
G01*
X199768000Y-84120000D02*
G75*
G03*
X200468000Y-84820000I699999J-1D01*
G01*
X202568000Y-83520000D02*
G75*
G03*
X201868000Y-82820000I-700000J0D01*
G01*
%TO.C,C2*%
X185607252Y-53247000D02*
X185084748Y-53247000D01*
X185607252Y-54717000D02*
X185084748Y-54717000D01*
%TO.C,J5*%
X139327335Y-120194561D02*
X139327335Y-117534561D01*
X118887335Y-118864561D02*
X118887335Y-117534561D01*
X121487335Y-117534561D02*
X139327335Y-117534561D01*
X118887335Y-117534561D02*
X120217335Y-117534561D01*
X121487335Y-120194561D02*
X139327335Y-120194561D01*
X121487335Y-120194561D02*
X121487335Y-117534561D01*
D15*
%TO.C,IC_2*%
X202618000Y-87330000D02*
X202618000Y-87930000D01*
X199718000Y-87930000D02*
X199718000Y-87330000D01*
X202618000Y-87930000D02*
X199718000Y-87930000D01*
X199718000Y-87330000D02*
X202618000Y-87330000D01*
X202668000Y-85780000D02*
X202668000Y-86980000D01*
D14*
%TO.C,R5*%
X194791064Y-68607000D02*
X194336936Y-68607000D01*
X194791064Y-70077000D02*
X194336936Y-70077000D01*
%TO.C,C11*%
X189711000Y-92702748D02*
X189711000Y-93225252D01*
X188241000Y-92702748D02*
X188241000Y-93225252D01*
%TO.C,JP1*%
X179840000Y-59398000D02*
X181240000Y-59398000D01*
X179140000Y-60698000D02*
X179140000Y-60098000D01*
X181240000Y-61398000D02*
X179840000Y-61398000D01*
X181940000Y-60098000D02*
X181940000Y-60698000D01*
X181240000Y-61398000D02*
G75*
G03*
X181940000Y-60698000I1J699999D01*
G01*
X181940000Y-60098000D02*
G75*
G03*
X181240000Y-59398000I-699999J1D01*
G01*
X179840000Y-59398000D02*
G75*
G03*
X179140000Y-60098000I0J-700000D01*
G01*
X179140000Y-60698000D02*
G75*
G03*
X179840000Y-61398000I700000J0D01*
G01*
%TO.C,C7*%
X201160748Y-92229000D02*
X201683252Y-92229000D01*
X201160748Y-93699000D02*
X201683252Y-93699000D01*
%TO.C,C1*%
X181020748Y-54717000D02*
X181543252Y-54717000D01*
X181020748Y-53247000D02*
X181543252Y-53247000D01*
%TO.C,R10*%
X201395064Y-77951000D02*
X200940936Y-77951000D01*
X201395064Y-76481000D02*
X200940936Y-76481000D01*
%TO.C,C4*%
X193067000Y-92702748D02*
X193067000Y-93225252D01*
X194537000Y-92702748D02*
X194537000Y-93225252D01*
%TO.C,D1*%
X180904000Y-62754000D02*
X180904000Y-65439000D01*
X180904000Y-65439000D02*
X182824000Y-65439000D01*
X182824000Y-65439000D02*
X182824000Y-62754000D01*
%TO.C,C6*%
X192825000Y-75699252D02*
X192825000Y-75176748D01*
X191355000Y-75699252D02*
X191355000Y-75176748D01*
%TO.C,J9*%
X126581958Y-58702981D02*
X144421958Y-58702981D01*
X144421958Y-58702981D02*
X144421958Y-56042981D01*
X126581958Y-56042981D02*
X144421958Y-56042981D01*
X126581958Y-58702981D02*
X126581958Y-56042981D01*
X123981958Y-56042981D02*
X125311958Y-56042981D01*
X123981958Y-57372981D02*
X123981958Y-56042981D01*
%TO.C,C8*%
X198889252Y-105383000D02*
X198366748Y-105383000D01*
X198889252Y-103913000D02*
X198366748Y-103913000D01*
%TO.C,J6*%
X162127000Y-120431000D02*
X162127000Y-117771000D01*
X144287000Y-120431000D02*
X144287000Y-117771000D01*
X144287000Y-120431000D02*
X162127000Y-120431000D01*
X144287000Y-117771000D02*
X162127000Y-117771000D01*
X141687000Y-117771000D02*
X143017000Y-117771000D01*
X141687000Y-119101000D02*
X141687000Y-117771000D01*
%TO.C,C9*%
X193641000Y-75699252D02*
X193641000Y-75176748D01*
X195111000Y-75699252D02*
X195111000Y-75176748D01*
%TO.C,R4*%
X199363064Y-66775000D02*
X198908936Y-66775000D01*
X199363064Y-65305000D02*
X198908936Y-65305000D01*
%TO.C,J4*%
X117438000Y-120177000D02*
X117438000Y-117517000D01*
X94518000Y-120177000D02*
X94518000Y-117517000D01*
X94518000Y-117517000D02*
X117438000Y-117517000D01*
X91918000Y-118847000D02*
X91918000Y-117517000D01*
X94518000Y-120177000D02*
X117438000Y-120177000D01*
X91918000Y-117517000D02*
X93248000Y-117517000D01*
%TO.C,R1*%
X205205000Y-85063064D02*
X205205000Y-84608936D01*
X203735000Y-85063064D02*
X203735000Y-84608936D01*
%TO.C,C3*%
X191743000Y-92702748D02*
X191743000Y-93225252D01*
X190273000Y-92702748D02*
X190273000Y-93225252D01*
%TO.C,R6*%
X188441064Y-83593000D02*
X187986936Y-83593000D01*
X188441064Y-85063000D02*
X187986936Y-85063000D01*
%TO.C,R2*%
X178843000Y-63526936D02*
X178843000Y-63981064D01*
X180313000Y-63526936D02*
X180313000Y-63981064D01*
D10*
%TO.C,IC_0*%
X173560000Y-61722000D02*
X173560000Y-62992000D01*
X74500000Y-115062000D02*
X172036000Y-115062000D01*
X172036000Y-115062000D02*
X173560000Y-113538000D01*
X176100000Y-99822000D02*
X173560000Y-102362000D01*
X176100000Y-65532000D02*
X176100000Y-99822000D01*
X74500000Y-61722000D02*
X173560000Y-61722000D01*
X173560000Y-102362000D02*
X173560000Y-113538000D01*
X173560000Y-62992000D02*
X176100000Y-65532000D01*
X74500000Y-115062000D02*
X74500000Y-61722000D01*
%TD*%
%LPC*%
D17*
%TO.C,C12*%
X200472000Y-90932000D03*
X202372000Y-90932000D03*
%TD*%
D18*
%TO.C,J2*%
X206952000Y-68834000D03*
D19*
X206952000Y-73214000D03*
X206952000Y-64454000D03*
%TD*%
D20*
%TO.C,IC_4*%
X198628000Y-74138000D03*
X197678000Y-74138000D03*
X196728000Y-74138000D03*
X196728000Y-76738000D03*
X197678000Y-76738000D03*
X198628000Y-76738000D03*
%TD*%
D21*
%TO.C,R9*%
X187301500Y-86614000D03*
X189126500Y-86614000D03*
%TD*%
D22*
%TO.C,J10*%
X148154065Y-57372981D03*
D23*
X150694065Y-57372981D03*
X153234065Y-57372981D03*
X155774065Y-57372981D03*
X158314065Y-57372981D03*
X160854065Y-57372981D03*
X163394065Y-57372981D03*
X165934065Y-57372981D03*
%TD*%
D24*
%TO.C,IC_3*%
X197932000Y-106538000D03*
X197932000Y-107188000D03*
X197932000Y-107838000D03*
X199832000Y-107838000D03*
X199832000Y-106538000D03*
%TD*%
D25*
%TO.C,IC_5*%
X182084000Y-56146000D03*
X182084000Y-57096000D03*
X182084000Y-58046000D03*
X184584000Y-58046000D03*
X184584000Y-56146000D03*
%TD*%
D26*
%TO.C,JP2*%
X189176000Y-55796000D03*
X189176000Y-57096000D03*
X189176000Y-58396000D03*
%TD*%
D18*
%TO.C,J1*%
X206952000Y-108204000D03*
D19*
X206952000Y-112584000D03*
X206952000Y-103824000D03*
%TD*%
D27*
%TO.C,C5*%
X199578000Y-102362000D03*
X197678000Y-102362000D03*
%TD*%
D22*
%TO.C,J8*%
X92217000Y-55860000D03*
D23*
X92217000Y-58400000D03*
X94757000Y-55860000D03*
X94757000Y-58400000D03*
X97297000Y-55860000D03*
X97297000Y-58400000D03*
%TD*%
D28*
%TO.C,D3*%
X197832000Y-69088000D03*
X199932000Y-69088000D03*
%TD*%
D22*
%TO.C,J7*%
X102377000Y-56871000D03*
D23*
X104917000Y-56871000D03*
X107457000Y-56871000D03*
X109997000Y-56871000D03*
X112537000Y-56871000D03*
X115077000Y-56871000D03*
X117617000Y-56871000D03*
X120157000Y-56871000D03*
%TD*%
D27*
%TO.C,C10*%
X195514000Y-71374000D03*
X193614000Y-71374000D03*
%TD*%
D29*
%TO.C,R3*%
X187198000Y-62841500D03*
X187198000Y-64666500D03*
%TD*%
D30*
%TO.C,D2*%
X184912000Y-64691500D03*
X184912000Y-62816500D03*
%TD*%
D31*
%TO.C,IC_1*%
X196994000Y-90088000D03*
X196994000Y-89438000D03*
X196994000Y-88788000D03*
X196994000Y-88138000D03*
X196994000Y-87488000D03*
X196994000Y-86838000D03*
X196994000Y-86188000D03*
X191118000Y-86188000D03*
X191118000Y-86838000D03*
X191118000Y-87488000D03*
X191118000Y-88138000D03*
X191118000Y-88788000D03*
X191118000Y-89438000D03*
X191118000Y-90088000D03*
%TD*%
D32*
%TO.C,JP3*%
X200518000Y-83820000D03*
D33*
X201818000Y-83820000D03*
%TD*%
D27*
%TO.C,C2*%
X186296000Y-53982000D03*
X184396000Y-53982000D03*
%TD*%
D22*
%TO.C,J5*%
X120217335Y-118864561D03*
D23*
X122757335Y-118864561D03*
X125297335Y-118864561D03*
X127837335Y-118864561D03*
X130377335Y-118864561D03*
X132917335Y-118864561D03*
X135457335Y-118864561D03*
X137997335Y-118864561D03*
%TD*%
D34*
%TO.C,IC_2*%
X202118000Y-86380000D03*
X201168000Y-86380000D03*
X200218000Y-86380000D03*
X200218000Y-88880000D03*
X202118000Y-88880000D03*
%TD*%
D35*
%TO.C,R5*%
X195476500Y-69342000D03*
X193651500Y-69342000D03*
%TD*%
D36*
%TO.C,C11*%
X188976000Y-92014000D03*
X188976000Y-93914000D03*
%TD*%
D37*
%TO.C,JP1*%
X181190000Y-60398000D03*
D38*
X179890000Y-60398000D03*
%TD*%
D17*
%TO.C,C7*%
X200472000Y-92964000D03*
X202372000Y-92964000D03*
%TD*%
%TO.C,C1*%
X180332000Y-53982000D03*
X182232000Y-53982000D03*
%TD*%
D35*
%TO.C,R10*%
X202080500Y-77216000D03*
X200255500Y-77216000D03*
%TD*%
D36*
%TO.C,C4*%
X193802000Y-92014000D03*
X193802000Y-93914000D03*
%TD*%
D30*
%TO.C,D1*%
X181864000Y-64691500D03*
X181864000Y-62816500D03*
%TD*%
D39*
%TO.C,C6*%
X192090000Y-76388000D03*
X192090000Y-74488000D03*
%TD*%
D22*
%TO.C,J9*%
X125311958Y-57372981D03*
D23*
X127851958Y-57372981D03*
X130391958Y-57372981D03*
X132931958Y-57372981D03*
X135471958Y-57372981D03*
X138011958Y-57372981D03*
X140551958Y-57372981D03*
X143091958Y-57372981D03*
%TD*%
D27*
%TO.C,C8*%
X199578000Y-104648000D03*
X197678000Y-104648000D03*
%TD*%
D22*
%TO.C,J6*%
X143017000Y-119101000D03*
D23*
X145557000Y-119101000D03*
X148097000Y-119101000D03*
X150637000Y-119101000D03*
X153177000Y-119101000D03*
X155717000Y-119101000D03*
X158257000Y-119101000D03*
X160797000Y-119101000D03*
%TD*%
D39*
%TO.C,C9*%
X194376000Y-76388000D03*
X194376000Y-74488000D03*
%TD*%
D35*
%TO.C,R4*%
X200048500Y-66040000D03*
X198223500Y-66040000D03*
%TD*%
D22*
%TO.C,J4*%
X93248000Y-118847000D03*
D23*
X95788000Y-118847000D03*
X98328000Y-118847000D03*
X100868000Y-118847000D03*
X103408000Y-118847000D03*
X105948000Y-118847000D03*
X108488000Y-118847000D03*
X111028000Y-118847000D03*
X113568000Y-118847000D03*
X116108000Y-118847000D03*
%TD*%
D40*
%TO.C,R1*%
X204470000Y-85748500D03*
X204470000Y-83923500D03*
%TD*%
D36*
%TO.C,C3*%
X191008000Y-92014000D03*
X191008000Y-93914000D03*
%TD*%
D35*
%TO.C,R6*%
X189126500Y-84328000D03*
X187301500Y-84328000D03*
%TD*%
D29*
%TO.C,R2*%
X179578000Y-62841500D03*
X179578000Y-64666500D03*
%TD*%
D22*
%TO.C,J3*%
X182372000Y-112522000D03*
D23*
X179832000Y-112522000D03*
X182372000Y-109982000D03*
X179832000Y-109982000D03*
X182372000Y-107442000D03*
X179832000Y-107442000D03*
X182372000Y-104902000D03*
X179832000Y-104902000D03*
X182372000Y-102362000D03*
X179832000Y-102362000D03*
X182372000Y-99822000D03*
X179832000Y-99822000D03*
X182372000Y-97282000D03*
X179832000Y-97282000D03*
X182372000Y-94742000D03*
X179832000Y-94742000D03*
X182372000Y-92202000D03*
X179832000Y-92202000D03*
X182372000Y-89662000D03*
X179832000Y-89662000D03*
X182372000Y-87122000D03*
X179832000Y-87122000D03*
X182372000Y-84582000D03*
X179832000Y-84582000D03*
X182372000Y-82042000D03*
X179832000Y-82042000D03*
X182372000Y-79502000D03*
X179832000Y-79502000D03*
X182372000Y-76962000D03*
X179832000Y-76962000D03*
X182372000Y-74422000D03*
X179832000Y-74422000D03*
X182372000Y-71882000D03*
X179832000Y-71882000D03*
X182372000Y-69342000D03*
X179832000Y-69342000D03*
%TD*%
D41*
%TO.C,IC_0*%
X140540000Y-69342000D03*
X171020000Y-64262000D03*
X88470000Y-64262000D03*
X140540000Y-97282000D03*
X89740000Y-112522000D03*
D42*
X102440000Y-64262000D03*
D41*
X164670000Y-112522000D03*
D42*
X110060000Y-64262000D03*
X112600000Y-64262000D03*
X140667000Y-92202000D03*
X168480000Y-112522000D03*
X171020000Y-112522000D03*
X125300000Y-64262000D03*
X127840000Y-64262000D03*
X130380000Y-64262000D03*
X132920000Y-64262000D03*
X135460000Y-64262000D03*
X138000000Y-64262000D03*
X140540000Y-64262000D03*
X143080000Y-64262000D03*
X148160000Y-64262000D03*
X150700000Y-64262000D03*
X153240000Y-64262000D03*
X155780000Y-64262000D03*
X98376000Y-112522000D03*
X163400000Y-64262000D03*
X165940000Y-64262000D03*
X138000000Y-112522000D03*
X135460000Y-112522000D03*
X132920000Y-112522000D03*
X130380000Y-112522000D03*
X127840000Y-112522000D03*
X125300000Y-112522000D03*
X122760000Y-112522000D03*
X120220000Y-112522000D03*
X116156000Y-112522000D03*
X113616000Y-112522000D03*
X111076000Y-112522000D03*
X108536000Y-112522000D03*
X105996000Y-112522000D03*
X103456000Y-112522000D03*
X143080000Y-112522000D03*
X145620000Y-112522000D03*
X148160000Y-112522000D03*
X150700000Y-112522000D03*
X153240000Y-112522000D03*
X155780000Y-112522000D03*
X158320000Y-112522000D03*
X160860000Y-112522000D03*
X168480000Y-109982000D03*
X171020000Y-109982000D03*
X168480000Y-107442000D03*
X171020000Y-107442000D03*
X168480000Y-104902000D03*
X171020000Y-104902000D03*
X168480000Y-102362000D03*
X171020000Y-102362000D03*
X168480000Y-99822000D03*
X171020000Y-99822000D03*
X168480000Y-97282000D03*
X171020000Y-97282000D03*
X168480000Y-94742000D03*
X171020000Y-94742000D03*
X168480000Y-92202000D03*
X171020000Y-92202000D03*
X168480000Y-89662000D03*
X171020000Y-89662000D03*
X168480000Y-87122000D03*
X171020000Y-87122000D03*
X168480000Y-84582000D03*
X171020000Y-84582000D03*
X168480000Y-82042000D03*
X171020000Y-82042000D03*
X168480000Y-79502000D03*
X171020000Y-79502000D03*
X168480000Y-76962000D03*
X171020000Y-76962000D03*
X168480000Y-74422000D03*
X171020000Y-74422000D03*
X168480000Y-71882000D03*
X171020000Y-71882000D03*
X158320000Y-64262000D03*
X160860000Y-64262000D03*
D43*
X100916000Y-112522000D03*
X115140000Y-64262000D03*
X117680000Y-64262000D03*
X140667000Y-87122000D03*
X168480000Y-69342000D03*
X171020000Y-69342000D03*
D42*
X104980000Y-64262000D03*
X138127000Y-92202000D03*
X140667000Y-89662000D03*
X107520000Y-64262000D03*
X138127000Y-87122000D03*
X138127000Y-89662000D03*
X93296000Y-112522000D03*
X95836000Y-112522000D03*
X120220000Y-64262000D03*
%TD*%
M02*
