%TF.GenerationSoftware,KiCad,Pcbnew,(6.0.10)*%
%TF.CreationDate,2025-05-13T20:49:54+02:00*%
%TF.ProjectId,Progetto Lidar,50726f67-6574-4746-9f20-4c696461722e,rev?*%
%TF.SameCoordinates,Original*%
%TF.FileFunction,Paste,Top*%
%TF.FilePolarity,Positive*%
%FSLAX46Y46*%
G04 Gerber Fmt 4.6, Leading zero omitted, Abs format (unit mm)*
G04 Created by KiCad (PCBNEW (6.0.10)) date 2025-05-13 20:49:54*
%MOMM*%
%LPD*%
G01*
G04 APERTURE LIST*
G04 Aperture macros list*
%AMRoundRect*
0 Rectangle with rounded corners*
0 $1 Rounding radius*
0 $2 $3 $4 $5 $6 $7 $8 $9 X,Y pos of 4 corners*
0 Add a 4 corners polygon primitive as box body*
4,1,4,$2,$3,$4,$5,$6,$7,$8,$9,$2,$3,0*
0 Add four circle primitives for the rounded corners*
1,1,$1+$1,$2,$3*
1,1,$1+$1,$4,$5*
1,1,$1+$1,$6,$7*
1,1,$1+$1,$8,$9*
0 Add four rect primitives between the rounded corners*
20,1,$1+$1,$2,$3,$4,$5,0*
20,1,$1+$1,$4,$5,$6,$7,0*
20,1,$1+$1,$6,$7,$8,$9,0*
20,1,$1+$1,$8,$9,$2,$3,0*%
G04 Aperture macros list end*
%ADD10RoundRect,0.250000X-0.250000X-0.475000X0.250000X-0.475000X0.250000X0.475000X-0.250000X0.475000X0*%
%ADD11R,5.080000X2.290000*%
%ADD12R,5.080000X2.420000*%
%ADD13R,0.550000X1.050000*%
%ADD14RoundRect,0.250000X-0.262500X-0.450000X0.262500X-0.450000X0.262500X0.450000X-0.262500X0.450000X0*%
%ADD15R,1.200000X0.400000*%
%ADD16R,1.200000X0.600000*%
%ADD17RoundRect,0.250000X0.250000X0.475000X-0.250000X0.475000X-0.250000X-0.475000X0.250000X-0.475000X0*%
%ADD18R,0.900000X0.800000*%
%ADD19RoundRect,0.250000X-0.450000X0.262500X-0.450000X-0.262500X0.450000X-0.262500X0.450000X0.262500X0*%
%ADD20RoundRect,0.243750X0.456250X-0.243750X0.456250X0.243750X-0.456250X0.243750X-0.456250X-0.243750X0*%
%ADD21R,1.475000X0.450000*%
%ADD22R,0.600000X1.200000*%
%ADD23RoundRect,0.250000X0.262500X0.450000X-0.262500X0.450000X-0.262500X-0.450000X0.262500X-0.450000X0*%
%ADD24RoundRect,0.250000X-0.475000X0.250000X-0.475000X-0.250000X0.475000X-0.250000X0.475000X0.250000X0*%
%ADD25RoundRect,0.250000X0.475000X-0.250000X0.475000X0.250000X-0.475000X0.250000X-0.475000X-0.250000X0*%
%ADD26RoundRect,0.250000X0.450000X-0.262500X0.450000X0.262500X-0.450000X0.262500X-0.450000X-0.262500X0*%
G04 APERTURE END LIST*
D10*
%TO.C,C12*%
X200472000Y-90932000D03*
X202372000Y-90932000D03*
%TD*%
D11*
%TO.C,J2*%
X206952000Y-68834000D03*
D12*
X206952000Y-73214000D03*
X206952000Y-64454000D03*
%TD*%
D13*
%TO.C,IC_4*%
X198628000Y-74138000D03*
X197678000Y-74138000D03*
X196728000Y-74138000D03*
X196728000Y-76738000D03*
X197678000Y-76738000D03*
X198628000Y-76738000D03*
%TD*%
D14*
%TO.C,R9*%
X187301500Y-86614000D03*
X189126500Y-86614000D03*
%TD*%
D15*
%TO.C,IC_3*%
X197932000Y-106538000D03*
X197932000Y-107188000D03*
X197932000Y-107838000D03*
X199832000Y-107838000D03*
X199832000Y-106538000D03*
%TD*%
D16*
%TO.C,IC_5*%
X182084000Y-56146000D03*
X182084000Y-57096000D03*
X182084000Y-58046000D03*
X184584000Y-58046000D03*
X184584000Y-56146000D03*
%TD*%
D11*
%TO.C,J1*%
X206952000Y-108204000D03*
D12*
X206952000Y-112584000D03*
X206952000Y-103824000D03*
%TD*%
D17*
%TO.C,C5*%
X199578000Y-102362000D03*
X197678000Y-102362000D03*
%TD*%
D18*
%TO.C,D3*%
X197832000Y-69088000D03*
X199932000Y-69088000D03*
%TD*%
D17*
%TO.C,C10*%
X195514000Y-71374000D03*
X193614000Y-71374000D03*
%TD*%
D19*
%TO.C,R3*%
X187198000Y-62841500D03*
X187198000Y-64666500D03*
%TD*%
D20*
%TO.C,D2*%
X184912000Y-64691500D03*
X184912000Y-62816500D03*
%TD*%
D21*
%TO.C,IC_1*%
X196994000Y-90088000D03*
X196994000Y-89438000D03*
X196994000Y-88788000D03*
X196994000Y-88138000D03*
X196994000Y-87488000D03*
X196994000Y-86838000D03*
X196994000Y-86188000D03*
X191118000Y-86188000D03*
X191118000Y-86838000D03*
X191118000Y-87488000D03*
X191118000Y-88138000D03*
X191118000Y-88788000D03*
X191118000Y-89438000D03*
X191118000Y-90088000D03*
%TD*%
D17*
%TO.C,C2*%
X186296000Y-53982000D03*
X184396000Y-53982000D03*
%TD*%
D22*
%TO.C,IC_2*%
X202118000Y-86380000D03*
X201168000Y-86380000D03*
X200218000Y-86380000D03*
X200218000Y-88880000D03*
X202118000Y-88880000D03*
%TD*%
D23*
%TO.C,R5*%
X195476500Y-69342000D03*
X193651500Y-69342000D03*
%TD*%
D24*
%TO.C,C11*%
X188976000Y-92014000D03*
X188976000Y-93914000D03*
%TD*%
D10*
%TO.C,C7*%
X200472000Y-92964000D03*
X202372000Y-92964000D03*
%TD*%
%TO.C,C1*%
X180332000Y-53982000D03*
X182232000Y-53982000D03*
%TD*%
D23*
%TO.C,R10*%
X202080500Y-77216000D03*
X200255500Y-77216000D03*
%TD*%
D24*
%TO.C,C4*%
X193802000Y-92014000D03*
X193802000Y-93914000D03*
%TD*%
D20*
%TO.C,D1*%
X181864000Y-64691500D03*
X181864000Y-62816500D03*
%TD*%
D25*
%TO.C,C6*%
X192090000Y-76388000D03*
X192090000Y-74488000D03*
%TD*%
D17*
%TO.C,C8*%
X199578000Y-104648000D03*
X197678000Y-104648000D03*
%TD*%
D25*
%TO.C,C9*%
X194376000Y-76388000D03*
X194376000Y-74488000D03*
%TD*%
D23*
%TO.C,R4*%
X200048500Y-66040000D03*
X198223500Y-66040000D03*
%TD*%
D26*
%TO.C,R1*%
X204470000Y-85748500D03*
X204470000Y-83923500D03*
%TD*%
D24*
%TO.C,C3*%
X191008000Y-92014000D03*
X191008000Y-93914000D03*
%TD*%
D23*
%TO.C,R6*%
X189126500Y-84328000D03*
X187301500Y-84328000D03*
%TD*%
D19*
%TO.C,R2*%
X179578000Y-62841500D03*
X179578000Y-64666500D03*
%TD*%
M02*
