%TF.GenerationSoftware,KiCad,Pcbnew,(6.0.10)*%
%TF.CreationDate,2025-05-12T09:08:37+02:00*%
%TF.ProjectId,Progetto Lidar,50726f67-6574-4746-9f20-4c696461722e,rev?*%
%TF.SameCoordinates,Original*%
%TF.FileFunction,Soldermask,Bot*%
%TF.FilePolarity,Negative*%
%FSLAX46Y46*%
G04 Gerber Fmt 4.6, Leading zero omitted, Abs format (unit mm)*
G04 Created by KiCad (PCBNEW (6.0.10)) date 2025-05-12 09:08:37*
%MOMM*%
%LPD*%
G01*
G04 APERTURE LIST*
G04 Aperture macros list*
%AMRoundRect*
0 Rectangle with rounded corners*
0 $1 Rounding radius*
0 $2 $3 $4 $5 $6 $7 $8 $9 X,Y pos of 4 corners*
0 Add a 4 corners polygon primitive as box body*
4,1,4,$2,$3,$4,$5,$6,$7,$8,$9,$2,$3,0*
0 Add four circle primitives for the rounded corners*
1,1,$1+$1,$2,$3*
1,1,$1+$1,$4,$5*
1,1,$1+$1,$6,$7*
1,1,$1+$1,$8,$9*
0 Add four rect primitives between the rounded corners*
20,1,$1+$1,$2,$3,$4,$5,0*
20,1,$1+$1,$4,$5,$6,$7,0*
20,1,$1+$1,$6,$7,$8,$9,0*
20,1,$1+$1,$8,$9,$2,$3,0*%
G04 Aperture macros list end*
%ADD10R,5.080000X2.420000*%
%ADD11R,1.700000X1.700000*%
%ADD12O,1.700000X1.700000*%
%ADD13RoundRect,0.250000X-0.262500X-0.450000X0.262500X-0.450000X0.262500X0.450000X-0.262500X0.450000X0*%
%ADD14C,3.200000*%
%ADD15O,1.727200X1.727200*%
%ADD16R,1.727200X1.727200*%
G04 APERTURE END LIST*
D10*
%TO.C,J2*%
X206952000Y-64454000D03*
X206952000Y-73214000D03*
%TD*%
D11*
%TO.C,J10*%
X148154065Y-57372981D03*
D12*
X150694065Y-57372981D03*
X153234065Y-57372981D03*
X155774065Y-57372981D03*
X158314065Y-57372981D03*
X160854065Y-57372981D03*
X163394065Y-57372981D03*
X165934065Y-57372981D03*
%TD*%
D10*
%TO.C,J1*%
X206952000Y-103824000D03*
X206952000Y-112584000D03*
%TD*%
D11*
%TO.C,J8*%
X92217000Y-55860000D03*
D12*
X92217000Y-58400000D03*
X94757000Y-55860000D03*
X94757000Y-58400000D03*
X97297000Y-55860000D03*
X97297000Y-58400000D03*
%TD*%
D11*
%TO.C,J7*%
X102377000Y-56871000D03*
D12*
X104917000Y-56871000D03*
X107457000Y-56871000D03*
X109997000Y-56871000D03*
X112537000Y-56871000D03*
X115077000Y-56871000D03*
X117617000Y-56871000D03*
X120157000Y-56871000D03*
%TD*%
D11*
%TO.C,J5*%
X120217335Y-118864561D03*
D12*
X122757335Y-118864561D03*
X125297335Y-118864561D03*
X127837335Y-118864561D03*
X130377335Y-118864561D03*
X132917335Y-118864561D03*
X135457335Y-118864561D03*
X137997335Y-118864561D03*
%TD*%
D11*
%TO.C,J9*%
X125311958Y-57372981D03*
D12*
X127851958Y-57372981D03*
X130391958Y-57372981D03*
X132931958Y-57372981D03*
X135471958Y-57372981D03*
X138011958Y-57372981D03*
X140551958Y-57372981D03*
X143091958Y-57372981D03*
%TD*%
D11*
%TO.C,J6*%
X143017000Y-119101000D03*
D12*
X145557000Y-119101000D03*
X148097000Y-119101000D03*
X150637000Y-119101000D03*
X153177000Y-119101000D03*
X155717000Y-119101000D03*
X158257000Y-119101000D03*
X160797000Y-119101000D03*
%TD*%
D11*
%TO.C,J4*%
X93248000Y-118847000D03*
D12*
X95788000Y-118847000D03*
X98328000Y-118847000D03*
X100868000Y-118847000D03*
X103408000Y-118847000D03*
X105948000Y-118847000D03*
X108488000Y-118847000D03*
X111028000Y-118847000D03*
X113568000Y-118847000D03*
X116108000Y-118847000D03*
%TD*%
D13*
%TO.C,R8*%
X143359500Y-91694000D03*
X145184500Y-91694000D03*
%TD*%
D11*
%TO.C,J3*%
X182372000Y-112522000D03*
D12*
X179832000Y-112522000D03*
X182372000Y-109982000D03*
X179832000Y-109982000D03*
X182372000Y-107442000D03*
X179832000Y-107442000D03*
X182372000Y-104902000D03*
X179832000Y-104902000D03*
X182372000Y-102362000D03*
X179832000Y-102362000D03*
X182372000Y-99822000D03*
X179832000Y-99822000D03*
X182372000Y-97282000D03*
X179832000Y-97282000D03*
X182372000Y-94742000D03*
X179832000Y-94742000D03*
X182372000Y-92202000D03*
X179832000Y-92202000D03*
X182372000Y-89662000D03*
X179832000Y-89662000D03*
X182372000Y-87122000D03*
X179832000Y-87122000D03*
X182372000Y-84582000D03*
X179832000Y-84582000D03*
X182372000Y-82042000D03*
X179832000Y-82042000D03*
X182372000Y-79502000D03*
X179832000Y-79502000D03*
X182372000Y-76962000D03*
X179832000Y-76962000D03*
X182372000Y-74422000D03*
X179832000Y-74422000D03*
X182372000Y-71882000D03*
X179832000Y-71882000D03*
X182372000Y-69342000D03*
X179832000Y-69342000D03*
%TD*%
D13*
%TO.C,R7*%
X143359500Y-89662000D03*
X145184500Y-89662000D03*
%TD*%
D14*
%TO.C,IC_0*%
X140540000Y-69342000D03*
X171020000Y-64262000D03*
X88470000Y-64262000D03*
X140540000Y-97282000D03*
X89740000Y-112522000D03*
D15*
X102440000Y-64262000D03*
D14*
X164670000Y-112522000D03*
D15*
X110060000Y-64262000D03*
X112600000Y-64262000D03*
X140667000Y-92202000D03*
X168480000Y-112522000D03*
X171020000Y-112522000D03*
X125300000Y-64262000D03*
X127840000Y-64262000D03*
X130380000Y-64262000D03*
X132920000Y-64262000D03*
X135460000Y-64262000D03*
X138000000Y-64262000D03*
X140540000Y-64262000D03*
X143080000Y-64262000D03*
X148160000Y-64262000D03*
X150700000Y-64262000D03*
X153240000Y-64262000D03*
X155780000Y-64262000D03*
X98376000Y-112522000D03*
X163400000Y-64262000D03*
X165940000Y-64262000D03*
X138000000Y-112522000D03*
X135460000Y-112522000D03*
X132920000Y-112522000D03*
X130380000Y-112522000D03*
X127840000Y-112522000D03*
X125300000Y-112522000D03*
X122760000Y-112522000D03*
X120220000Y-112522000D03*
X116156000Y-112522000D03*
X113616000Y-112522000D03*
X111076000Y-112522000D03*
X108536000Y-112522000D03*
X105996000Y-112522000D03*
X103456000Y-112522000D03*
X143080000Y-112522000D03*
X145620000Y-112522000D03*
X148160000Y-112522000D03*
X150700000Y-112522000D03*
X153240000Y-112522000D03*
X155780000Y-112522000D03*
X158320000Y-112522000D03*
X160860000Y-112522000D03*
X168480000Y-109982000D03*
X171020000Y-109982000D03*
X168480000Y-107442000D03*
X171020000Y-107442000D03*
X168480000Y-104902000D03*
X171020000Y-104902000D03*
X168480000Y-102362000D03*
X171020000Y-102362000D03*
X168480000Y-99822000D03*
X171020000Y-99822000D03*
X168480000Y-97282000D03*
X171020000Y-97282000D03*
X168480000Y-94742000D03*
X171020000Y-94742000D03*
X168480000Y-92202000D03*
X171020000Y-92202000D03*
X168480000Y-89662000D03*
X171020000Y-89662000D03*
X168480000Y-87122000D03*
X171020000Y-87122000D03*
X168480000Y-84582000D03*
X171020000Y-84582000D03*
X168480000Y-82042000D03*
X171020000Y-82042000D03*
X168480000Y-79502000D03*
X171020000Y-79502000D03*
X168480000Y-76962000D03*
X171020000Y-76962000D03*
X168480000Y-74422000D03*
X171020000Y-74422000D03*
X168480000Y-71882000D03*
X171020000Y-71882000D03*
X158320000Y-64262000D03*
X160860000Y-64262000D03*
D16*
X100916000Y-112522000D03*
X115140000Y-64262000D03*
X117680000Y-64262000D03*
X140667000Y-87122000D03*
X168480000Y-69342000D03*
X171020000Y-69342000D03*
D15*
X104980000Y-64262000D03*
X138127000Y-92202000D03*
X140667000Y-89662000D03*
X107520000Y-64262000D03*
X138127000Y-87122000D03*
X138127000Y-89662000D03*
X93296000Y-112522000D03*
X95836000Y-112522000D03*
X120220000Y-64262000D03*
%TD*%
M02*
