%TF.GenerationSoftware,KiCad,Pcbnew,(6.0.10)*%
%TF.CreationDate,2025-05-13T20:49:54+02:00*%
%TF.ProjectId,Progetto Lidar,50726f67-6574-4746-9f20-4c696461722e,rev?*%
%TF.SameCoordinates,Original*%
%TF.FileFunction,Legend,Bot*%
%TF.FilePolarity,Positive*%
%FSLAX46Y46*%
G04 Gerber Fmt 4.6, Leading zero omitted, Abs format (unit mm)*
G04 Created by KiCad (PCBNEW (6.0.10)) date 2025-05-13 20:49:54*
%MOMM*%
%LPD*%
G01*
G04 APERTURE LIST*
G04 Aperture macros list*
%AMRoundRect*
0 Rectangle with rounded corners*
0 $1 Rounding radius*
0 $2 $3 $4 $5 $6 $7 $8 $9 X,Y pos of 4 corners*
0 Add a 4 corners polygon primitive as box body*
4,1,4,$2,$3,$4,$5,$6,$7,$8,$9,$2,$3,0*
0 Add four circle primitives for the rounded corners*
1,1,$1+$1,$2,$3*
1,1,$1+$1,$4,$5*
1,1,$1+$1,$6,$7*
1,1,$1+$1,$8,$9*
0 Add four rect primitives between the rounded corners*
20,1,$1+$1,$2,$3,$4,$5,0*
20,1,$1+$1,$4,$5,$6,$7,0*
20,1,$1+$1,$6,$7,$8,$9,0*
20,1,$1+$1,$8,$9,$2,$3,0*%
G04 Aperture macros list end*
%ADD10C,0.000000*%
%ADD11C,0.400000*%
%ADD12C,0.150000*%
%ADD13C,0.120000*%
%ADD14R,5.080000X2.420000*%
%ADD15R,1.700000X1.700000*%
%ADD16O,1.700000X1.700000*%
%ADD17RoundRect,0.250000X-0.262500X-0.450000X0.262500X-0.450000X0.262500X0.450000X-0.262500X0.450000X0*%
%ADD18C,3.200000*%
%ADD19O,1.727200X1.727200*%
%ADD20R,1.727200X1.727200*%
G04 APERTURE END LIST*
D10*
G36*
X117855774Y-92670923D02*
G01*
X117541613Y-92670923D01*
X117541613Y-92356766D01*
X117855774Y-92356766D01*
X117855774Y-92670923D01*
G37*
G36*
X125410060Y-85431089D02*
G01*
X125095867Y-85431089D01*
X125095867Y-85745187D01*
X124782320Y-85745187D01*
X124782320Y-85431067D01*
X124782353Y-85431067D01*
X125096482Y-85431067D01*
X125096482Y-85116911D01*
X124782353Y-85116911D01*
X124782353Y-85431067D01*
X124782320Y-85431067D01*
X124468160Y-85431067D01*
X124468160Y-85116911D01*
X124782320Y-85116911D01*
X124782320Y-84802754D01*
X124939385Y-84802754D01*
X125096482Y-84802749D01*
X125096901Y-84802749D01*
X125096901Y-84488617D01*
X125410060Y-84488617D01*
X125410060Y-85431089D01*
G37*
G36*
X121311441Y-92042608D02*
G01*
X120997280Y-92042608D01*
X120997280Y-92356766D01*
X120683152Y-92356766D01*
X120683152Y-91728452D01*
X121311441Y-91728452D01*
X121311441Y-92042608D01*
G37*
G36*
X123211034Y-93613394D02*
G01*
X122582746Y-93613394D01*
X122582746Y-93299237D01*
X122896939Y-93299237D01*
X122896939Y-92985079D01*
X122582746Y-92985079D01*
X122582746Y-92670923D01*
X123211034Y-92670923D01*
X123211034Y-93613394D01*
G37*
G36*
X120683088Y-92670923D02*
G01*
X120054864Y-92670923D01*
X120054864Y-92356766D01*
X120683088Y-92356766D01*
X120683088Y-92670923D01*
G37*
G36*
X125410609Y-82903534D02*
G01*
X123211519Y-82903534D01*
X123211519Y-82589378D01*
X123525679Y-82589378D01*
X125096449Y-82589378D01*
X125096449Y-81018594D01*
X123525679Y-81018594D01*
X123525679Y-82589378D01*
X123211519Y-82589378D01*
X123211519Y-80704438D01*
X125410609Y-80704438D01*
X125410609Y-82903534D01*
G37*
G36*
X123525615Y-91414324D02*
G01*
X123525615Y-91728478D01*
X123211454Y-91728478D01*
X123211454Y-91414322D01*
X123368518Y-91414322D01*
X123525615Y-91414324D01*
G37*
G36*
X124782320Y-85745223D02*
G01*
X124781707Y-85745223D01*
X124781707Y-85745187D01*
X124782320Y-85745187D01*
X124782320Y-85745223D01*
G37*
G36*
X114700734Y-82903534D02*
G01*
X112501643Y-82903534D01*
X112501643Y-82589378D01*
X112815771Y-82589378D01*
X114386573Y-82589378D01*
X114386573Y-81018594D01*
X112815771Y-81018594D01*
X112815771Y-82589378D01*
X112501643Y-82589378D01*
X112501643Y-80704438D01*
X114700734Y-80704438D01*
X114700734Y-82903534D01*
G37*
G36*
X122254762Y-81018594D02*
G01*
X121954910Y-81018594D01*
X121954910Y-80704438D01*
X122254762Y-80704438D01*
X122254762Y-81018594D01*
G37*
G36*
X115014830Y-86687692D02*
G01*
X114072348Y-86687692D01*
X114072348Y-86373536D01*
X115014830Y-86373536D01*
X115014830Y-86687692D01*
G37*
G36*
X125096029Y-91728453D02*
G01*
X125410221Y-91728453D01*
X125410221Y-92670923D01*
X125096029Y-92670923D01*
X125096029Y-92042608D01*
X124781868Y-92042608D01*
X124781868Y-91414297D01*
X125096029Y-91414297D01*
X125096029Y-91728453D01*
G37*
G36*
X115329055Y-84160161D02*
G01*
X115014862Y-84160161D01*
X115014862Y-83860284D01*
X115329055Y-83860284D01*
X115329055Y-84160161D01*
G37*
G36*
X120369767Y-86687691D02*
G01*
X120055607Y-86687691D01*
X120055607Y-86373534D01*
X120369767Y-86373534D01*
X120369767Y-86687691D01*
G37*
G36*
X124781868Y-93613394D02*
G01*
X124467675Y-93613394D01*
X124467675Y-93299237D01*
X124781868Y-93299237D01*
X124781868Y-93613394D01*
G37*
G36*
X114072413Y-92985107D02*
G01*
X113129932Y-92985107D01*
X113129932Y-92042639D01*
X113601189Y-92042639D01*
X114072413Y-92042637D01*
X114072413Y-92985107D01*
G37*
G36*
X118484611Y-81961063D02*
G01*
X118170451Y-81961063D01*
X118170451Y-81646907D01*
X118484611Y-81646907D01*
X118484611Y-81961063D01*
G37*
G36*
X118484611Y-81332751D02*
G01*
X118170451Y-81332751D01*
X118170451Y-81018594D01*
X118484611Y-81018594D01*
X118484611Y-81332751D01*
G37*
G36*
X123211616Y-83531843D02*
G01*
X124154097Y-83531843D01*
X124154097Y-83217687D01*
X124468290Y-83217687D01*
X124468290Y-83861245D01*
X124621801Y-83857195D01*
X124775312Y-83853144D01*
X124783258Y-83531848D01*
X125096934Y-83531848D01*
X125410060Y-83531868D01*
X125410060Y-84160181D01*
X125095867Y-84160181D01*
X125095867Y-84488593D01*
X124782708Y-84488593D01*
X124782708Y-84160718D01*
X124468580Y-84160760D01*
X124154420Y-84160804D01*
X124154420Y-84488593D01*
X123840260Y-84488593D01*
X123840260Y-84802749D01*
X123526067Y-84802749D01*
X123526067Y-84488591D01*
X123211874Y-84488591D01*
X123211874Y-84175402D01*
X123839904Y-84175402D01*
X123993415Y-84171352D01*
X124146830Y-84167298D01*
X124150803Y-84016623D01*
X124151467Y-83986152D01*
X124151684Y-83957331D01*
X124151478Y-83930821D01*
X124150875Y-83907279D01*
X124149900Y-83887364D01*
X124149281Y-83878973D01*
X124148577Y-83871736D01*
X124147793Y-83865735D01*
X124146932Y-83861053D01*
X124145996Y-83857772D01*
X124145501Y-83856683D01*
X124144989Y-83855974D01*
X124143207Y-83854958D01*
X124139972Y-83853970D01*
X124129469Y-83852101D01*
X124114127Y-83850407D01*
X124094592Y-83848929D01*
X124071510Y-83847709D01*
X124045526Y-83846786D01*
X124017288Y-83846203D01*
X123987440Y-83846000D01*
X123839904Y-83846000D01*
X123839904Y-84175402D01*
X123211874Y-84175402D01*
X123211874Y-84175401D01*
X123518896Y-84167301D01*
X123518896Y-83853144D01*
X123208289Y-83849610D01*
X122897714Y-83846080D01*
X122897714Y-84802754D01*
X123211874Y-84802754D01*
X123211874Y-85116911D01*
X123839872Y-85116911D01*
X123839872Y-84802753D01*
X123996936Y-84802753D01*
X124154032Y-84802754D01*
X124154032Y-85116911D01*
X123840195Y-85116911D01*
X123840195Y-85431067D01*
X124154355Y-85431067D01*
X124154355Y-85745223D01*
X123840195Y-85745223D01*
X123840195Y-86059380D01*
X124468128Y-86059380D01*
X124468128Y-85745223D01*
X124781707Y-85745223D01*
X124781707Y-86059344D01*
X125095867Y-86059344D01*
X125095867Y-86373500D01*
X125410060Y-86373500D01*
X125410060Y-87001813D01*
X124781772Y-87001813D01*
X124781772Y-86687692D01*
X124782353Y-86687692D01*
X125096513Y-86687692D01*
X125096513Y-86373536D01*
X124782353Y-86373536D01*
X124782353Y-86687692D01*
X124781772Y-86687692D01*
X124781772Y-86687656D01*
X124467579Y-86687656D01*
X124467579Y-87315965D01*
X124781772Y-87315965D01*
X124781772Y-87944279D01*
X124153451Y-87944279D01*
X124153451Y-88258436D01*
X125095932Y-88258436D01*
X125095932Y-88572592D01*
X125410125Y-88572592D01*
X125410125Y-88886751D01*
X125095932Y-88886751D01*
X125095932Y-89200907D01*
X124781804Y-89200907D01*
X124781804Y-88572594D01*
X124153903Y-88572594D01*
X124153903Y-88572649D01*
X124153483Y-88572649D01*
X124153483Y-89200907D01*
X124467675Y-89200907D01*
X124467675Y-89515065D01*
X123839387Y-89515065D01*
X123839387Y-90141646D01*
X123671601Y-90146083D01*
X123594947Y-90147496D01*
X123510257Y-90148038D01*
X123427820Y-90147702D01*
X123357925Y-90146480D01*
X123212068Y-90142425D01*
X123208095Y-89989397D01*
X123204123Y-89836365D01*
X122582907Y-89829301D01*
X122582907Y-90157662D01*
X122897100Y-90157662D01*
X122897100Y-90471816D01*
X123211260Y-90471816D01*
X123211260Y-90785537D01*
X123678932Y-90782189D01*
X123839775Y-90781038D01*
X124146604Y-90778843D01*
X124150576Y-90625334D01*
X124154549Y-90471824D01*
X125096029Y-90471824D01*
X125096029Y-90785983D01*
X125410221Y-90785983D01*
X125410221Y-91100138D01*
X124781933Y-91100138D01*
X124781933Y-90785983D01*
X124467740Y-90785983D01*
X124467740Y-91728453D01*
X124153548Y-91728453D01*
X124153548Y-92042610D01*
X124781868Y-92042610D01*
X124781868Y-92985079D01*
X124467675Y-92985079D01*
X124467675Y-92356766D01*
X124153483Y-92356766D01*
X124153483Y-92985079D01*
X123839322Y-92985079D01*
X123839322Y-93299237D01*
X124153483Y-93299237D01*
X124153483Y-93613394D01*
X123525194Y-93613394D01*
X123525194Y-92670923D01*
X123839387Y-92670923D01*
X123839387Y-92356766D01*
X122582746Y-92356766D01*
X122582746Y-92670923D01*
X121954458Y-92670923D01*
X121954458Y-92042634D01*
X122897293Y-92042634D01*
X123368518Y-92042634D01*
X123839775Y-92042637D01*
X123839775Y-91100165D01*
X122897293Y-91100165D01*
X122897293Y-92042634D01*
X121954458Y-92042634D01*
X121954458Y-91728452D01*
X121625698Y-91728452D01*
X121625698Y-91414295D01*
X120369057Y-91414295D01*
X120369057Y-92042608D01*
X120056027Y-92042608D01*
X120056027Y-92042634D01*
X120054864Y-92042634D01*
X120054864Y-92356766D01*
X119426575Y-92356766D01*
X119426575Y-92042634D01*
X119741834Y-92042634D01*
X120054864Y-92042634D01*
X120054864Y-92042608D01*
X120056027Y-92042608D01*
X120056027Y-91728478D01*
X119741834Y-91728478D01*
X119741834Y-92042634D01*
X119426575Y-92042634D01*
X119426575Y-92042608D01*
X118485225Y-92042608D01*
X118485225Y-92042634D01*
X118484094Y-92042634D01*
X118484094Y-92356766D01*
X118169902Y-92356766D01*
X118169902Y-92042634D01*
X118171065Y-92042634D01*
X118484094Y-92042634D01*
X118484094Y-92042608D01*
X118485225Y-92042608D01*
X118485225Y-91728478D01*
X118171065Y-91728478D01*
X118171065Y-92042634D01*
X118169902Y-92042634D01*
X118169902Y-92042608D01*
X117541613Y-92042608D01*
X117541613Y-92356766D01*
X117227421Y-92356766D01*
X117227421Y-93613400D01*
X116913260Y-93613400D01*
X116913260Y-93299244D01*
X116599067Y-93299244D01*
X116599067Y-93613400D01*
X116284875Y-93613400D01*
X116284875Y-93299244D01*
X115642278Y-93299244D01*
X115642278Y-93613404D01*
X115013990Y-93613404D01*
X115013990Y-92985091D01*
X115328182Y-92985091D01*
X115328182Y-92670933D01*
X115013990Y-92670933D01*
X115013990Y-91728462D01*
X115328182Y-91728462D01*
X115328182Y-90786929D01*
X115488799Y-90782886D01*
X115649448Y-90778857D01*
X115649448Y-90150554D01*
X115965127Y-90150554D01*
X116122191Y-90150554D01*
X116279384Y-90150548D01*
X116283357Y-89996778D01*
X116283872Y-89975408D01*
X116284225Y-89955900D01*
X116284409Y-89938178D01*
X116284416Y-89922166D01*
X116284239Y-89907786D01*
X116283870Y-89894963D01*
X116283303Y-89883621D01*
X116282529Y-89873683D01*
X116282062Y-89869217D01*
X116281541Y-89865074D01*
X116280965Y-89861243D01*
X116280332Y-89857716D01*
X116279642Y-89854482D01*
X116278895Y-89851533D01*
X116278088Y-89848859D01*
X116277221Y-89846450D01*
X116276293Y-89844297D01*
X116275303Y-89842389D01*
X116274251Y-89840719D01*
X116273135Y-89839276D01*
X116271954Y-89838050D01*
X116270708Y-89837032D01*
X116269395Y-89836213D01*
X116268015Y-89835583D01*
X116265312Y-89834845D01*
X116261240Y-89834170D01*
X116249324Y-89833016D01*
X116232930Y-89832135D01*
X116212717Y-89831539D01*
X116189348Y-89831241D01*
X116163484Y-89831256D01*
X116135786Y-89831597D01*
X116106914Y-89832276D01*
X115965127Y-89836398D01*
X115965127Y-90150554D01*
X115649448Y-90150554D01*
X115649448Y-90150542D01*
X115488799Y-90146513D01*
X115328182Y-90142470D01*
X115328182Y-89828281D01*
X115174671Y-89832336D01*
X115021160Y-89836392D01*
X115018253Y-90150548D01*
X115014830Y-90625354D01*
X115014830Y-90786003D01*
X114701347Y-90786003D01*
X114701347Y-90786965D01*
X114700637Y-90786946D01*
X114700637Y-91100161D01*
X114386477Y-91100161D01*
X114386477Y-90786005D01*
X114072284Y-90786005D01*
X114072284Y-90778865D01*
X114394357Y-90778865D01*
X114547868Y-90782921D01*
X114700637Y-90786946D01*
X114700637Y-90786003D01*
X114701347Y-90786003D01*
X114701347Y-90456596D01*
X114547868Y-90460651D01*
X114394357Y-90464706D01*
X114394357Y-90778865D01*
X114072284Y-90778865D01*
X114072284Y-90150553D01*
X114394357Y-90150553D01*
X114547868Y-90154608D01*
X114701347Y-90158653D01*
X114701347Y-89828283D01*
X114547868Y-89832338D01*
X114394357Y-89836394D01*
X114394357Y-90150553D01*
X114072284Y-90150553D01*
X114072284Y-89828289D01*
X113918772Y-89832345D01*
X113765261Y-89836400D01*
X113761547Y-90468283D01*
X113757833Y-91100167D01*
X113129835Y-91100167D01*
X113129835Y-90786011D01*
X113444028Y-90786011D01*
X113444028Y-90143416D01*
X112815707Y-90143416D01*
X112815707Y-89829260D01*
X112501546Y-89829260D01*
X112501546Y-89829104D01*
X112814996Y-89829104D01*
X113129189Y-89829104D01*
X113129189Y-89515104D01*
X115014313Y-89515104D01*
X115972039Y-89515104D01*
X115972039Y-89200948D01*
X116286231Y-89200948D01*
X116286231Y-89515099D01*
X116600392Y-89515099D01*
X116600392Y-89829258D01*
X116757488Y-89829258D01*
X116913099Y-89829240D01*
X116913099Y-89681681D01*
X116912906Y-89651845D01*
X116912355Y-89623635D01*
X116911481Y-89597696D01*
X116910321Y-89574671D01*
X116908913Y-89555205D01*
X116908128Y-89547008D01*
X116907294Y-89539942D01*
X116906417Y-89534088D01*
X116905501Y-89529526D01*
X116904551Y-89526337D01*
X116904064Y-89525283D01*
X116903571Y-89524602D01*
X116901838Y-89523632D01*
X116898656Y-89522689D01*
X116888266Y-89520905D01*
X116873043Y-89519289D01*
X116853630Y-89517879D01*
X116830672Y-89516714D01*
X116804812Y-89515834D01*
X116776693Y-89515277D01*
X116746959Y-89515083D01*
X116599907Y-89515083D01*
X116595935Y-89361576D01*
X116591962Y-89208067D01*
X116438451Y-89204012D01*
X116284939Y-89199957D01*
X116284939Y-89046931D01*
X116284124Y-88892716D01*
X116284051Y-88886630D01*
X116913583Y-88886630D01*
X117541904Y-88886630D01*
X117856064Y-88886630D01*
X118170257Y-88886630D01*
X118170257Y-88572473D01*
X117856064Y-88572473D01*
X117856064Y-88886630D01*
X117541904Y-88886630D01*
X117541904Y-88572473D01*
X117856064Y-88572473D01*
X117856064Y-88258315D01*
X118170257Y-88258315D01*
X118170257Y-87944158D01*
X117227776Y-87944158D01*
X117227776Y-88572473D01*
X116913583Y-88572473D01*
X116913583Y-88886630D01*
X116284051Y-88886630D01*
X116283132Y-88809893D01*
X116281516Y-88736829D01*
X116278609Y-88579750D01*
X115964416Y-88579750D01*
X115960444Y-88732781D01*
X115956471Y-88885810D01*
X115803444Y-88889853D01*
X115650417Y-88893908D01*
X115646445Y-89047417D01*
X115642472Y-89200928D01*
X115489445Y-89201589D01*
X115335236Y-89202902D01*
X115179354Y-89205160D01*
X115022258Y-89208087D01*
X115018286Y-89361597D01*
X115014313Y-89515104D01*
X113129189Y-89515104D01*
X113129189Y-89514949D01*
X113757477Y-89514949D01*
X113757477Y-89200792D01*
X114071670Y-89200792D01*
X114071670Y-88886634D01*
X114699959Y-88886634D01*
X114699959Y-89199823D01*
X114546447Y-89203878D01*
X114392936Y-89207934D01*
X114388963Y-89361443D01*
X114384991Y-89514951D01*
X114700120Y-89514951D01*
X114700120Y-89200794D01*
X115014281Y-89200794D01*
X115014281Y-88886789D01*
X115328699Y-88886789D01*
X115493418Y-88886789D01*
X115657846Y-88886785D01*
X115657846Y-88736398D01*
X115657789Y-88716320D01*
X115657613Y-88697846D01*
X115657312Y-88680924D01*
X115656880Y-88665504D01*
X115656309Y-88651533D01*
X115655594Y-88638961D01*
X115654728Y-88627734D01*
X115653704Y-88617803D01*
X115652515Y-88609115D01*
X115651857Y-88605220D01*
X115651156Y-88601618D01*
X115650410Y-88598300D01*
X115649619Y-88595261D01*
X115648783Y-88592494D01*
X115647899Y-88589993D01*
X115646968Y-88587751D01*
X115645988Y-88585762D01*
X115644960Y-88584019D01*
X115643881Y-88582516D01*
X115642751Y-88581246D01*
X115641570Y-88580204D01*
X115640336Y-88579381D01*
X115639049Y-88578773D01*
X115636393Y-88578046D01*
X115632368Y-88577383D01*
X115620542Y-88576256D01*
X115604228Y-88575404D01*
X115584086Y-88574839D01*
X115560773Y-88574569D01*
X115534949Y-88574607D01*
X115507271Y-88574964D01*
X115478400Y-88575649D01*
X115336644Y-88579770D01*
X115332672Y-88733280D01*
X115328699Y-88886789D01*
X115014281Y-88886789D01*
X115014281Y-88886637D01*
X114700120Y-88886637D01*
X114700120Y-88572633D01*
X114700669Y-88572633D01*
X114700669Y-88572479D01*
X115328408Y-88572479D01*
X115328408Y-88258323D01*
X115642569Y-88258323D01*
X115642569Y-88572477D01*
X115971037Y-88572477D01*
X115971037Y-88258321D01*
X116286134Y-88258321D01*
X116282162Y-88104811D01*
X116278189Y-87951302D01*
X116124678Y-87947247D01*
X115971199Y-87943191D01*
X115971199Y-87630160D01*
X116286231Y-87630160D01*
X116600392Y-87630160D01*
X116600392Y-88258474D01*
X116914584Y-88258474D01*
X116914584Y-87316003D01*
X116600392Y-87316003D01*
X116600392Y-87001847D01*
X116286231Y-87001847D01*
X116286231Y-87630160D01*
X115971199Y-87630160D01*
X115971199Y-87315844D01*
X115657006Y-87315844D01*
X115657006Y-87001687D01*
X115971199Y-87001687D01*
X115971199Y-86687531D01*
X116285359Y-86687531D01*
X116285359Y-86373375D01*
X116599552Y-86373375D01*
X116599552Y-86059218D01*
X117542033Y-86059218D01*
X117542033Y-86373375D01*
X118170322Y-86373375D01*
X118170322Y-87001687D01*
X118484514Y-87001687D01*
X118484514Y-87630002D01*
X119112803Y-87630002D01*
X119112803Y-88258315D01*
X118798610Y-88258315D01*
X118798610Y-88572473D01*
X118484450Y-88572473D01*
X118484450Y-88886630D01*
X118170257Y-88886630D01*
X118170257Y-89200785D01*
X117856064Y-89200785D01*
X117856064Y-89514940D01*
X117542873Y-89514940D01*
X117538900Y-89361433D01*
X117534928Y-89207924D01*
X117381416Y-89203869D01*
X117227905Y-89199813D01*
X117227905Y-89514934D01*
X117542098Y-89514934D01*
X117542098Y-89829091D01*
X117856258Y-89829091D01*
X117856258Y-90143245D01*
X117695641Y-90143774D01*
X116910257Y-90144036D01*
X116285488Y-90143774D01*
X116285488Y-90471798D01*
X116599681Y-90471798D01*
X116599681Y-90785956D01*
X116913841Y-90785956D01*
X116913841Y-91414267D01*
X117542162Y-91414267D01*
X117542162Y-91728423D01*
X116285521Y-91728423D01*
X116285521Y-91567775D01*
X116284705Y-91315891D01*
X116282097Y-90935891D01*
X116278932Y-90464656D01*
X115964739Y-90464656D01*
X115960767Y-90625305D01*
X115956794Y-90785954D01*
X115642601Y-90785954D01*
X115646574Y-90939462D01*
X115650547Y-91092971D01*
X115803573Y-91097014D01*
X115956600Y-91101069D01*
X115960573Y-91246959D01*
X115962063Y-91316844D01*
X115962559Y-91399281D01*
X115962063Y-91483976D01*
X115960573Y-91560636D01*
X115956084Y-91728426D01*
X115328958Y-91728426D01*
X115332672Y-92039013D01*
X115336386Y-92349601D01*
X115646477Y-92353448D01*
X115956600Y-92357295D01*
X115960573Y-92510525D01*
X115964545Y-92663757D01*
X116125195Y-92667785D01*
X116285844Y-92671829D01*
X116285844Y-92985055D01*
X116914132Y-92985055D01*
X116914132Y-92356740D01*
X117228325Y-92356740D01*
X117228325Y-92042584D01*
X117542485Y-92042584D01*
X117542485Y-91728426D01*
X117856678Y-91728426D01*
X117856678Y-91414269D01*
X118799159Y-91414269D01*
X118799159Y-91100113D01*
X118484967Y-91100113D01*
X118484967Y-90785954D01*
X119427448Y-90785954D01*
X119427448Y-91100113D01*
X119741640Y-91100113D01*
X119741640Y-91414261D01*
X120055833Y-91414261D01*
X120055833Y-90785947D01*
X120369025Y-90785947D01*
X120372997Y-90939456D01*
X120376970Y-91092965D01*
X120530448Y-91097020D01*
X120683960Y-91101076D01*
X120683960Y-90785954D01*
X120369799Y-90785954D01*
X120369799Y-90778848D01*
X120692422Y-90778848D01*
X121006550Y-90781907D01*
X121473737Y-90785476D01*
X121626344Y-90786003D01*
X121626344Y-90786005D01*
X121626732Y-90786005D01*
X121626344Y-90786003D01*
X121626344Y-90471848D01*
X121940504Y-90471848D01*
X121940504Y-90786005D01*
X121626732Y-90786005D01*
X121630704Y-90939512D01*
X121634677Y-91093021D01*
X121788188Y-91097076D01*
X121941699Y-91101120D01*
X121941699Y-91254146D01*
X121942515Y-91408363D01*
X121943507Y-91491185D01*
X121945123Y-91564250D01*
X121948030Y-91721328D01*
X122101025Y-91725371D01*
X122254051Y-91729426D01*
X122261997Y-92035486D01*
X122576157Y-92035486D01*
X122579581Y-91724899D01*
X122583004Y-91414311D01*
X122268909Y-91414311D01*
X122268909Y-91101120D01*
X122422420Y-91097076D01*
X122576997Y-91092985D01*
X122580421Y-90784735D01*
X122581000Y-90722621D01*
X122581156Y-90664299D01*
X122580915Y-90611074D01*
X122580300Y-90564249D01*
X122579336Y-90525127D01*
X122578050Y-90495010D01*
X122576465Y-90475203D01*
X122575569Y-90469572D01*
X122574607Y-90467007D01*
X122572881Y-90466042D01*
X122569706Y-90465104D01*
X122559330Y-90463329D01*
X122544122Y-90461719D01*
X122524723Y-90460315D01*
X122501775Y-90459156D01*
X122475921Y-90458279D01*
X122447802Y-90457724D01*
X122418060Y-90457531D01*
X122271008Y-90457531D01*
X122267035Y-90304021D01*
X122263063Y-90150513D01*
X121320582Y-90150513D01*
X121316609Y-90304021D01*
X121312636Y-90457531D01*
X121159609Y-90458193D01*
X121005396Y-90459505D01*
X120849486Y-90461763D01*
X120692422Y-90464693D01*
X120692422Y-90778848D01*
X120369799Y-90778848D01*
X120369799Y-90142395D01*
X120216288Y-90146451D01*
X120062777Y-90150506D01*
X120055349Y-90785960D01*
X119427609Y-90785960D01*
X119427609Y-90157648D01*
X119588226Y-90156854D01*
X119746784Y-90156754D01*
X119902386Y-90157648D01*
X120055897Y-90159262D01*
X120055897Y-89829276D01*
X120369121Y-89829276D01*
X120373094Y-89989925D01*
X120377066Y-90150573D01*
X120530578Y-90154628D01*
X120684089Y-90158684D01*
X120684089Y-89829258D01*
X120997054Y-89829258D01*
X121154603Y-89829258D01*
X121193958Y-89829256D01*
X121625375Y-89829256D01*
X121946835Y-89829256D01*
X122263063Y-89829252D01*
X122267940Y-89829252D01*
X122267940Y-89521668D01*
X122267742Y-89439715D01*
X122267480Y-89404300D01*
X122267096Y-89372389D01*
X122266581Y-89343828D01*
X122265925Y-89318465D01*
X122265117Y-89296146D01*
X122264149Y-89276717D01*
X122263010Y-89260026D01*
X122261690Y-89245919D01*
X122260180Y-89234243D01*
X122258470Y-89224845D01*
X122257537Y-89220952D01*
X122256550Y-89217571D01*
X122255508Y-89214682D01*
X122254410Y-89212268D01*
X122253255Y-89210308D01*
X122252041Y-89208783D01*
X122250767Y-89207674D01*
X122249433Y-89206962D01*
X122246807Y-89206256D01*
X122242811Y-89205611D01*
X122231040Y-89204514D01*
X122214777Y-89203684D01*
X122194680Y-89203132D01*
X122171407Y-89202871D01*
X122145615Y-89202914D01*
X122117962Y-89203272D01*
X122089107Y-89203957D01*
X121947319Y-89208079D01*
X121943347Y-89361108D01*
X121939374Y-89514139D01*
X121786380Y-89518183D01*
X121633320Y-89522238D01*
X121629348Y-89675747D01*
X121625375Y-89829256D01*
X121193958Y-89829256D01*
X121312022Y-89829250D01*
X121312022Y-89514128D01*
X121158511Y-89518184D01*
X121004999Y-89522239D01*
X121001027Y-89675749D01*
X120997054Y-89829258D01*
X120684089Y-89829258D01*
X120684089Y-89515124D01*
X120998249Y-89515124D01*
X120998249Y-89200578D01*
X120530610Y-89204345D01*
X120062938Y-89208112D01*
X120058966Y-89361619D01*
X120054993Y-89515128D01*
X119741802Y-89515128D01*
X119741802Y-88886813D01*
X119113513Y-88886813D01*
X119113513Y-88572657D01*
X119741802Y-88572657D01*
X119741802Y-88258500D01*
X119427641Y-88258500D01*
X119427641Y-87944342D01*
X120370123Y-87944342D01*
X120370123Y-88258500D01*
X120055930Y-88258500D01*
X120055930Y-88572659D01*
X120684219Y-88572659D01*
X120684219Y-88572629D01*
X120998153Y-88572629D01*
X121313282Y-88572629D01*
X121313282Y-89047434D01*
X121310634Y-89200944D01*
X121632707Y-89200944D01*
X121955749Y-89200935D01*
X121955749Y-89053377D01*
X121955557Y-89023541D01*
X121955005Y-88995331D01*
X121954131Y-88969392D01*
X121952971Y-88946368D01*
X121951564Y-88926902D01*
X121950778Y-88918705D01*
X121949945Y-88911639D01*
X121949068Y-88905785D01*
X121948152Y-88901223D01*
X121947201Y-88898034D01*
X121946715Y-88896979D01*
X121946222Y-88896298D01*
X121944450Y-88895328D01*
X121941153Y-88894385D01*
X121930320Y-88892601D01*
X121914397Y-88890984D01*
X121894056Y-88889575D01*
X121869972Y-88888410D01*
X121842816Y-88887531D01*
X121813264Y-88886975D01*
X121782954Y-88886787D01*
X121939535Y-88886787D01*
X122104222Y-88886787D01*
X122171407Y-88886786D01*
X122268714Y-88886783D01*
X122268714Y-88736397D01*
X122268657Y-88716318D01*
X122268481Y-88697844D01*
X122268181Y-88680922D01*
X122267748Y-88665502D01*
X122267178Y-88651531D01*
X122266463Y-88638959D01*
X122265596Y-88627732D01*
X122264572Y-88617801D01*
X122263384Y-88609112D01*
X122262726Y-88605218D01*
X122262025Y-88601616D01*
X122261279Y-88598298D01*
X122260488Y-88595259D01*
X122259651Y-88592492D01*
X122258768Y-88589991D01*
X122257837Y-88587749D01*
X122256857Y-88585760D01*
X122255828Y-88584017D01*
X122254749Y-88582514D01*
X122253620Y-88581244D01*
X122252438Y-88580202D01*
X122251204Y-88579379D01*
X122249917Y-88578771D01*
X122247261Y-88578044D01*
X122243236Y-88577381D01*
X122231406Y-88576254D01*
X122215088Y-88575402D01*
X122194942Y-88574836D01*
X122171628Y-88574567D01*
X122145804Y-88574605D01*
X122118131Y-88574961D01*
X122089268Y-88575646D01*
X121947481Y-88579768D01*
X121943508Y-88733278D01*
X121939535Y-88886787D01*
X121782954Y-88886787D01*
X121781987Y-88886781D01*
X121627280Y-88886781D01*
X121627280Y-88572623D01*
X121313120Y-88572623D01*
X121313120Y-88257501D01*
X121159609Y-88261557D01*
X121006098Y-88265612D01*
X121002125Y-88419122D01*
X120998153Y-88572629D01*
X120684219Y-88572629D01*
X120684219Y-87944344D01*
X120998411Y-87944344D01*
X120998411Y-87630188D01*
X121626700Y-87630188D01*
X121626700Y-87316031D01*
X121940892Y-87316031D01*
X121940892Y-88104991D01*
X121938244Y-88258500D01*
X122268262Y-88258500D01*
X122268262Y-87944342D01*
X122582455Y-87944342D01*
X122582455Y-88258500D01*
X122896615Y-88258500D01*
X122896615Y-88572655D01*
X122582455Y-88572655D01*
X122582455Y-88886811D01*
X122896615Y-88886811D01*
X122896615Y-89200969D01*
X122583424Y-89200969D01*
X122579452Y-89047460D01*
X122575479Y-88893951D01*
X122261318Y-88893951D01*
X122257345Y-89047460D01*
X122253373Y-89200969D01*
X122582778Y-89200969D01*
X122582778Y-89515120D01*
X123526228Y-89515120D01*
X123522255Y-89361610D01*
X123518283Y-89208103D01*
X123365257Y-89204048D01*
X123212261Y-89199993D01*
X123208289Y-89046963D01*
X123204316Y-88893933D01*
X123050805Y-88889877D01*
X122897293Y-88885822D01*
X122897293Y-88572631D01*
X123525615Y-88572631D01*
X124153483Y-88572649D01*
X124153483Y-88572594D01*
X124153903Y-88572594D01*
X124153903Y-88258492D01*
X123211422Y-88258492D01*
X123211422Y-87944336D01*
X123839710Y-87944336D01*
X123839710Y-87630180D01*
X123211486Y-87630180D01*
X123211486Y-87944318D01*
X122897293Y-87944318D01*
X122897293Y-87630180D01*
X123211422Y-87630180D01*
X123211486Y-87630180D01*
X123211486Y-87630162D01*
X123211422Y-87630162D01*
X123211422Y-87630180D01*
X122897293Y-87630180D01*
X122897293Y-87630162D01*
X123211422Y-87630162D01*
X123211422Y-87316023D01*
X123525583Y-87316023D01*
X123525583Y-87316005D01*
X123839775Y-87316005D01*
X124153936Y-87316005D01*
X124153936Y-87001849D01*
X123839775Y-87001849D01*
X123839775Y-87316005D01*
X123525583Y-87316005D01*
X123525583Y-87001867D01*
X122897293Y-87001867D01*
X122897293Y-86687711D01*
X122253761Y-86687711D01*
X122257734Y-86841220D01*
X122261706Y-86994727D01*
X122579452Y-86998571D01*
X122897165Y-87002414D01*
X122897165Y-87316026D01*
X122582972Y-87316026D01*
X122582972Y-87630182D01*
X122268811Y-87630182D01*
X122268811Y-87001869D01*
X121954619Y-87001869D01*
X121954619Y-86687712D01*
X121626344Y-86687712D01*
X121626344Y-87316003D01*
X121312151Y-87316003D01*
X121312151Y-87001847D01*
X120683863Y-87001847D01*
X120683863Y-86687712D01*
X121626183Y-86687712D01*
X121626344Y-86687712D01*
X121626344Y-86687691D01*
X121626183Y-86687691D01*
X121626183Y-86687712D01*
X120683863Y-86687712D01*
X120683863Y-86687692D01*
X121312216Y-86687692D01*
X121469313Y-86687692D01*
X121626183Y-86687691D01*
X121626183Y-85431087D01*
X121312216Y-85431087D01*
X121312216Y-86687692D01*
X120683863Y-86687692D01*
X120683863Y-86059378D01*
X120998023Y-86059378D01*
X120998023Y-85431087D01*
X121311990Y-85431087D01*
X121312216Y-85431087D01*
X121312216Y-85431065D01*
X121311990Y-85431065D01*
X121311990Y-85431087D01*
X120998023Y-85431087D01*
X120998023Y-85431065D01*
X121311990Y-85431065D01*
X121311990Y-85431063D01*
X121941377Y-85431063D01*
X121944542Y-85898729D01*
X121947707Y-86366394D01*
X122579581Y-86370115D01*
X123211454Y-86373835D01*
X123211454Y-86687692D01*
X123525646Y-86687692D01*
X123525646Y-86373536D01*
X123839839Y-86373536D01*
X123839839Y-86059380D01*
X123526002Y-86059380D01*
X123526002Y-86373532D01*
X123211809Y-86373532D01*
X123211809Y-86059376D01*
X122583521Y-86059376D01*
X122583521Y-85746186D01*
X122897293Y-85746186D01*
X123050805Y-85742135D01*
X123204445Y-85738084D01*
X123208418Y-85584574D01*
X123212391Y-85431065D01*
X122897293Y-85431065D01*
X122897293Y-85746186D01*
X122583521Y-85746186D01*
X122583521Y-85745220D01*
X122269328Y-85745220D01*
X122269328Y-85431065D01*
X122583102Y-85431065D01*
X122897293Y-85431065D01*
X122897293Y-85116909D01*
X122583102Y-85116909D01*
X122583102Y-85431065D01*
X122269328Y-85431065D01*
X122269328Y-85431063D01*
X121941377Y-85431063D01*
X121311990Y-85431063D01*
X121311990Y-85116931D01*
X121312216Y-85116930D01*
X121472639Y-85116402D01*
X121626183Y-85115247D01*
X121626344Y-85115246D01*
X121941377Y-85112877D01*
X121947449Y-85112831D01*
X122261609Y-85109769D01*
X122265581Y-84956738D01*
X122269554Y-84803707D01*
X122422549Y-84799662D01*
X122575608Y-84795612D01*
X122578514Y-84481454D01*
X122581938Y-84014273D01*
X122581938Y-83861247D01*
X122735418Y-83857197D01*
X122888929Y-83853146D01*
X122888929Y-83538990D01*
X122735902Y-83534945D01*
X122582907Y-83530895D01*
X122578935Y-83377865D01*
X122574962Y-83224835D01*
X122260769Y-83224835D01*
X122256797Y-83377865D01*
X122252824Y-83530895D01*
X122099797Y-83534945D01*
X121946770Y-83538990D01*
X121943606Y-84010225D01*
X121940182Y-84642108D01*
X121940182Y-84802757D01*
X121311893Y-84802757D01*
X121311893Y-84488600D01*
X120682603Y-84488600D01*
X120690549Y-84795616D01*
X120844060Y-84799667D01*
X120997571Y-84803717D01*
X120997571Y-85116909D01*
X120683378Y-85116909D01*
X120683378Y-84802752D01*
X120369186Y-84802752D01*
X120369186Y-85116909D01*
X120055607Y-85116909D01*
X120055607Y-85745221D01*
X120212671Y-85745221D01*
X120369638Y-85745223D01*
X120369638Y-86059378D01*
X119741575Y-86059378D01*
X119741575Y-86059380D01*
X119741349Y-86059380D01*
X119741349Y-87001847D01*
X119113061Y-87001847D01*
X119113061Y-86687691D01*
X119427222Y-86687691D01*
X119427222Y-86059378D01*
X118798965Y-86059378D01*
X118798965Y-86059380D01*
X118798933Y-86059380D01*
X118798933Y-86687691D01*
X118484741Y-86687691D01*
X118484741Y-86373534D01*
X118170580Y-86373534D01*
X118170580Y-86059380D01*
X118170677Y-86059380D01*
X118798933Y-86059380D01*
X118798933Y-86059378D01*
X118798965Y-86059378D01*
X118798965Y-85745223D01*
X119427254Y-85745223D01*
X119427254Y-86059378D01*
X119584350Y-86059378D01*
X119741349Y-86059380D01*
X119741349Y-86059378D01*
X119741575Y-86059378D01*
X119741575Y-85745223D01*
X119427383Y-85745223D01*
X119427383Y-85431067D01*
X119113222Y-85431067D01*
X119113222Y-85116911D01*
X118799030Y-85116911D01*
X118799030Y-85431067D01*
X118484837Y-85431067D01*
X118484837Y-85745223D01*
X118170677Y-85745223D01*
X118170677Y-86059380D01*
X118170580Y-86059380D01*
X118170580Y-86059378D01*
X117542259Y-86059378D01*
X117542259Y-85745221D01*
X118170580Y-85745221D01*
X118170580Y-85116909D01*
X118798868Y-85116909D01*
X118798868Y-84802752D01*
X119113061Y-84802752D01*
X119113061Y-85116909D01*
X119427222Y-85116909D01*
X119427222Y-85431065D01*
X119741414Y-85431065D01*
X119741414Y-85116909D01*
X120055025Y-85116909D01*
X120055025Y-84802751D01*
X119740833Y-84802751D01*
X119740833Y-84488595D01*
X119112544Y-84488595D01*
X119112544Y-84481457D01*
X121319322Y-84481457D01*
X121472833Y-84485508D01*
X121626344Y-84489568D01*
X121626344Y-84159200D01*
X121472833Y-84163250D01*
X121319322Y-84167301D01*
X121319322Y-84481457D01*
X119112544Y-84481457D01*
X119112544Y-83846002D01*
X118484256Y-83846002D01*
X118484256Y-83531845D01*
X119111608Y-83531845D01*
X119115580Y-83692493D01*
X119119553Y-83853141D01*
X119272580Y-83857187D01*
X119425606Y-83861232D01*
X119433552Y-84167292D01*
X120058320Y-84170541D01*
X120683055Y-84173795D01*
X120683055Y-83853150D01*
X120691065Y-83853150D01*
X120844125Y-83857196D01*
X120997119Y-83861241D01*
X121001092Y-84014271D01*
X121005064Y-84167301D01*
X121158575Y-84171351D01*
X121312281Y-84175409D01*
X121312281Y-83531925D01*
X121001673Y-83535460D01*
X120691065Y-83538994D01*
X120691065Y-83853150D01*
X120683055Y-83853150D01*
X120683055Y-83844444D01*
X120529544Y-83846058D01*
X120373946Y-83846947D01*
X120215416Y-83846825D01*
X120054767Y-83846005D01*
X120054767Y-83531848D01*
X119740575Y-83531848D01*
X119740575Y-83531846D01*
X120369218Y-83531846D01*
X120684154Y-83531846D01*
X120684154Y-83217687D01*
X121626765Y-83217687D01*
X122268069Y-83217687D01*
X122268069Y-83070128D01*
X122267876Y-83040293D01*
X122267325Y-83012083D01*
X122266451Y-82986144D01*
X122265291Y-82963119D01*
X122263883Y-82943653D01*
X122263098Y-82935456D01*
X122262264Y-82928390D01*
X122261387Y-82922536D01*
X122260471Y-82917974D01*
X122259520Y-82914786D01*
X122259034Y-82913731D01*
X122258540Y-82913050D01*
X122256800Y-82912080D01*
X122253606Y-82911138D01*
X122243182Y-82909354D01*
X122227913Y-82907737D01*
X122208443Y-82906327D01*
X122185416Y-82905162D01*
X122159478Y-82904282D01*
X122131273Y-82903725D01*
X122101444Y-82903530D01*
X121953876Y-82903530D01*
X121953876Y-82750022D01*
X121953060Y-82595466D01*
X121952068Y-82512539D01*
X121950452Y-82439436D01*
X121947545Y-82282358D01*
X121633353Y-82282358D01*
X121630187Y-82750022D01*
X121626765Y-83217687D01*
X120684154Y-83217687D01*
X120684154Y-83216723D01*
X120530643Y-83220776D01*
X120377164Y-83224830D01*
X120369218Y-83531846D01*
X119740575Y-83531846D01*
X119740575Y-83217692D01*
X119426414Y-83217692D01*
X119426414Y-82589379D01*
X119112221Y-82589379D01*
X119112221Y-83217692D01*
X118483933Y-83217692D01*
X118483933Y-83531848D01*
X117856581Y-83531848D01*
X117852608Y-83378340D01*
X117848636Y-83224832D01*
X117695124Y-83220778D01*
X117541613Y-83216725D01*
X117541613Y-83860290D01*
X117855774Y-83860290D01*
X117855774Y-84175996D01*
X118009285Y-84174382D01*
X118211037Y-84173493D01*
X118480541Y-84173615D01*
X118798255Y-84174436D01*
X118798255Y-84802748D01*
X118484094Y-84802748D01*
X118484094Y-84488592D01*
X118169902Y-84488592D01*
X118169902Y-84802748D01*
X117856290Y-84802748D01*
X117848862Y-84167296D01*
X117695350Y-84163245D01*
X117541839Y-84159195D01*
X117541839Y-84802754D01*
X117227679Y-84802754D01*
X117227679Y-85116911D01*
X117541839Y-85116911D01*
X117541839Y-85745223D01*
X117227679Y-85745223D01*
X117227679Y-85431067D01*
X116913486Y-85431067D01*
X116913486Y-85745223D01*
X116285198Y-85745223D01*
X116285198Y-86373536D01*
X115328441Y-86373536D01*
X115328441Y-86059380D01*
X114385960Y-86059380D01*
X114385960Y-85745223D01*
X114700152Y-85745223D01*
X114700152Y-85431067D01*
X114071864Y-85431067D01*
X114071864Y-84802758D01*
X114386412Y-84802758D01*
X114390385Y-84956266D01*
X114394357Y-85109775D01*
X114704932Y-85113618D01*
X115015702Y-85117470D01*
X115015702Y-84802758D01*
X114386412Y-84802758D01*
X114071864Y-84802758D01*
X114071864Y-84488597D01*
X113757671Y-84488597D01*
X113757671Y-84802753D01*
X113443479Y-84802753D01*
X113443479Y-85430908D01*
X114071799Y-85430908D01*
X114071799Y-86373379D01*
X113757607Y-86373379D01*
X113757607Y-87315848D01*
X114071799Y-87315848D01*
X114071799Y-87001692D01*
X115014248Y-87001692D01*
X115014248Y-87630004D01*
X115328441Y-87630004D01*
X115328441Y-87944160D01*
X115014248Y-87944160D01*
X115014248Y-88258317D01*
X114700088Y-88258317D01*
X114700088Y-87944160D01*
X113757607Y-87944160D01*
X113757607Y-87630004D01*
X114071799Y-87630004D01*
X114700088Y-87630004D01*
X114700088Y-87315848D01*
X114071799Y-87315848D01*
X114071799Y-87630004D01*
X113757607Y-87630004D01*
X113443414Y-87630004D01*
X113443414Y-87315848D01*
X113129254Y-87315848D01*
X113129254Y-87001692D01*
X113443414Y-87001692D01*
X113443414Y-86373379D01*
X113129964Y-86373379D01*
X113129964Y-86373530D01*
X113129254Y-86373530D01*
X113129254Y-86687535D01*
X112815061Y-86687535D01*
X112815061Y-87630004D01*
X113443349Y-87630004D01*
X113443349Y-87944160D01*
X113757542Y-87944160D01*
X113757542Y-88886630D01*
X113444092Y-88886630D01*
X113444092Y-88886785D01*
X113443349Y-88886785D01*
X113443349Y-89200788D01*
X113129900Y-89200788D01*
X113129900Y-89200941D01*
X113129189Y-89200941D01*
X113129189Y-89514949D01*
X112814996Y-89514949D01*
X112814996Y-89829104D01*
X112501546Y-89829104D01*
X112501546Y-88886789D01*
X112815707Y-88886789D01*
X112815707Y-89200941D01*
X113129189Y-89200941D01*
X113129189Y-89200788D01*
X113129900Y-89200788D01*
X113129900Y-88886785D01*
X113443349Y-88886785D01*
X113443349Y-88886630D01*
X113444092Y-88886630D01*
X113444092Y-88258472D01*
X113130578Y-88258472D01*
X113130578Y-88258474D01*
X113129900Y-88258474D01*
X113129900Y-88572629D01*
X112501611Y-88572629D01*
X112501611Y-88258474D01*
X112816385Y-88258474D01*
X113129900Y-88258474D01*
X113129900Y-88258472D01*
X113130578Y-88258472D01*
X113130578Y-87944316D01*
X112816385Y-87944316D01*
X112816385Y-88258474D01*
X112501611Y-88258474D01*
X112501611Y-87944314D01*
X112815771Y-87944314D01*
X112815771Y-87630158D01*
X112501611Y-87630158D01*
X112501611Y-86059374D01*
X112815771Y-86059374D01*
X112815771Y-86373530D01*
X113129254Y-86373530D01*
X113129254Y-86373379D01*
X113129964Y-86373379D01*
X113129964Y-86059374D01*
X113444157Y-86059374D01*
X113444157Y-85745217D01*
X113129964Y-85745217D01*
X113129964Y-85431061D01*
X112815771Y-85431061D01*
X112815771Y-85116905D01*
X113129964Y-85116905D01*
X113129964Y-84488592D01*
X112815771Y-84488592D01*
X112815771Y-84174436D01*
X113444092Y-84174436D01*
X113444092Y-84488592D01*
X113758253Y-84488592D01*
X113758253Y-84174436D01*
X114071444Y-84174436D01*
X114075417Y-84327944D01*
X114079389Y-84481452D01*
X114386412Y-84483055D01*
X114699054Y-84484688D01*
X114940107Y-84486372D01*
X115138324Y-84488566D01*
X115273179Y-84490987D01*
X115310431Y-84492194D01*
X115324145Y-84493351D01*
X115326471Y-84544353D01*
X115328699Y-84679207D01*
X115332866Y-85118428D01*
X115336031Y-85738077D01*
X115489025Y-85742129D01*
X115642052Y-85746174D01*
X115646025Y-85899205D01*
X115649997Y-86052236D01*
X115964190Y-86052236D01*
X115967097Y-85895158D01*
X115969099Y-85739271D01*
X115970095Y-85656866D01*
X115970520Y-85585055D01*
X115970520Y-85432030D01*
X116124000Y-85427979D01*
X116277511Y-85423927D01*
X116279751Y-85117868D01*
X116601231Y-85117868D01*
X116754743Y-85113816D01*
X116908254Y-85109765D01*
X116911161Y-84952687D01*
X116913163Y-84796798D01*
X116914158Y-84714394D01*
X116914584Y-84642583D01*
X116914584Y-84489558D01*
X117068095Y-84485508D01*
X117222350Y-84481449D01*
X117226322Y-84330775D01*
X117226987Y-84300304D01*
X117227203Y-84271484D01*
X117226998Y-84244973D01*
X117226395Y-84221431D01*
X117225420Y-84201517D01*
X117224800Y-84193125D01*
X117224097Y-84185888D01*
X117223313Y-84179887D01*
X117222452Y-84175205D01*
X117221516Y-84171924D01*
X117221021Y-84170835D01*
X117220509Y-84170127D01*
X117218721Y-84169111D01*
X117215481Y-84168123D01*
X117204971Y-84166253D01*
X117189625Y-84164559D01*
X117170088Y-84163082D01*
X117147007Y-84161861D01*
X117121028Y-84160939D01*
X117092797Y-84160356D01*
X117062960Y-84160152D01*
X116915392Y-84160152D01*
X116915392Y-84488588D01*
X116601231Y-84488588D01*
X116601231Y-85117868D01*
X116279751Y-85117868D01*
X116280934Y-84956261D01*
X116284093Y-84489558D01*
X116286425Y-84489558D01*
X116439936Y-84485508D01*
X116593383Y-84481452D01*
X116597356Y-84330779D01*
X116598020Y-84300308D01*
X116598237Y-84271488D01*
X116598031Y-84244977D01*
X116597428Y-84221434D01*
X116596453Y-84201520D01*
X116595833Y-84193128D01*
X116595130Y-84185891D01*
X116594346Y-84179890D01*
X116593485Y-84175208D01*
X116592549Y-84171927D01*
X116592054Y-84170838D01*
X116591542Y-84170130D01*
X116589759Y-84169113D01*
X116586524Y-84168126D01*
X116576018Y-84166256D01*
X116560672Y-84164562D01*
X116541133Y-84163085D01*
X116518049Y-84161864D01*
X116492066Y-84160942D01*
X116463832Y-84160358D01*
X116433994Y-84160155D01*
X116286425Y-84160155D01*
X116286425Y-84489558D01*
X116284093Y-84489558D01*
X116284100Y-84488597D01*
X115971360Y-84488597D01*
X115967388Y-84327949D01*
X115963415Y-84167301D01*
X115963339Y-84167299D01*
X115965127Y-84167299D01*
X116122191Y-84167299D01*
X116279384Y-84167297D01*
X116283357Y-84013526D01*
X116283872Y-83992156D01*
X116284225Y-83972648D01*
X116284409Y-83954926D01*
X116284416Y-83938913D01*
X116284239Y-83924534D01*
X116283870Y-83911711D01*
X116283303Y-83900369D01*
X116282529Y-83890431D01*
X116282062Y-83885965D01*
X116281541Y-83881821D01*
X116280965Y-83877991D01*
X116280332Y-83874463D01*
X116279642Y-83871230D01*
X116278895Y-83868281D01*
X116278088Y-83865607D01*
X116277221Y-83863197D01*
X116276293Y-83861044D01*
X116275303Y-83859137D01*
X116274251Y-83857466D01*
X116273135Y-83856023D01*
X116271954Y-83854797D01*
X116270708Y-83853780D01*
X116269395Y-83852960D01*
X116268015Y-83852330D01*
X116265312Y-83851596D01*
X116261240Y-83850925D01*
X116249324Y-83849774D01*
X116232930Y-83848893D01*
X116212717Y-83848295D01*
X116189348Y-83847995D01*
X116163484Y-83848006D01*
X116135786Y-83848344D01*
X116106914Y-83849022D01*
X115965127Y-83853142D01*
X115965127Y-84167299D01*
X115963339Y-84167299D01*
X115809904Y-84163250D01*
X115656392Y-84159200D01*
X115656392Y-84006174D01*
X115655577Y-83851958D01*
X115654585Y-83769136D01*
X115652969Y-83696070D01*
X115650062Y-83538992D01*
X115365626Y-83531839D01*
X115642504Y-83531839D01*
X116286070Y-83531839D01*
X116286070Y-83860200D01*
X116433994Y-83858520D01*
X116596678Y-83856671D01*
X116907253Y-83853136D01*
X116907253Y-83538980D01*
X116753742Y-83534930D01*
X116600230Y-83530879D01*
X116600230Y-83217689D01*
X116914423Y-83217689D01*
X116914423Y-83531845D01*
X117071519Y-83531845D01*
X117227162Y-83531840D01*
X117227162Y-83384282D01*
X117226970Y-83354446D01*
X117226418Y-83326236D01*
X117225544Y-83300297D01*
X117224385Y-83277272D01*
X117222977Y-83257806D01*
X117222191Y-83249609D01*
X117221358Y-83242543D01*
X117220481Y-83236689D01*
X117219565Y-83232128D01*
X117218614Y-83228939D01*
X117218128Y-83227885D01*
X117217634Y-83227204D01*
X117215896Y-83226234D01*
X117212708Y-83225291D01*
X117202303Y-83223507D01*
X117187065Y-83221890D01*
X117167633Y-83220480D01*
X117144652Y-83219315D01*
X117118762Y-83218435D01*
X117090607Y-83217878D01*
X117060828Y-83217684D01*
X116913551Y-83217684D01*
X116909837Y-82907097D01*
X116906122Y-82596511D01*
X116752611Y-82592458D01*
X116599100Y-82588404D01*
X116599100Y-82903528D01*
X116285908Y-82903528D01*
X116281936Y-82750019D01*
X116277963Y-82596511D01*
X115963803Y-82596511D01*
X115960896Y-82753589D01*
X115958893Y-82909477D01*
X115957898Y-82991882D01*
X115957472Y-83063693D01*
X115957472Y-83216715D01*
X115803961Y-83220768D01*
X115650450Y-83224822D01*
X115646477Y-83378330D01*
X115642504Y-83531839D01*
X115365626Y-83531839D01*
X115328764Y-83530912D01*
X115328764Y-82903533D01*
X115657846Y-82903533D01*
X115657846Y-82753147D01*
X115657789Y-82733068D01*
X115657613Y-82714593D01*
X115657312Y-82697672D01*
X115656880Y-82682251D01*
X115656309Y-82668280D01*
X115655594Y-82655707D01*
X115654728Y-82644481D01*
X115653704Y-82634549D01*
X115652515Y-82625861D01*
X115651857Y-82621967D01*
X115651156Y-82618364D01*
X115650410Y-82615047D01*
X115649619Y-82612008D01*
X115648783Y-82609241D01*
X115647899Y-82606740D01*
X115646968Y-82604498D01*
X115645988Y-82602509D01*
X115644960Y-82600766D01*
X115643881Y-82599263D01*
X115642751Y-82597993D01*
X115641570Y-82596951D01*
X115640336Y-82596129D01*
X115639049Y-82595521D01*
X115636393Y-82594807D01*
X115632368Y-82594154D01*
X115620542Y-82593039D01*
X115604228Y-82592189D01*
X115584086Y-82591619D01*
X115560773Y-82591341D01*
X115534949Y-82591369D01*
X115507271Y-82591717D01*
X115478400Y-82592399D01*
X115336644Y-82596516D01*
X115332672Y-82750024D01*
X115328699Y-82903533D01*
X115014603Y-82903533D01*
X115014603Y-82589377D01*
X115328764Y-82589377D01*
X115328764Y-82589376D01*
X115642827Y-82589376D01*
X115807546Y-82589376D01*
X115972006Y-82589374D01*
X115972006Y-82438988D01*
X115971949Y-82418909D01*
X115971774Y-82400434D01*
X115971473Y-82383512D01*
X115971040Y-82368092D01*
X115970470Y-82354121D01*
X115969755Y-82341548D01*
X115968888Y-82330322D01*
X115967864Y-82320390D01*
X115966676Y-82311702D01*
X115966018Y-82307808D01*
X115965317Y-82304205D01*
X115964571Y-82300887D01*
X115963780Y-82297848D01*
X115962943Y-82295082D01*
X115962060Y-82292580D01*
X115961128Y-82290338D01*
X115960149Y-82288349D01*
X115959120Y-82286606D01*
X115958041Y-82285103D01*
X115956911Y-82283834D01*
X115955730Y-82282791D01*
X115954496Y-82281969D01*
X115953209Y-82281361D01*
X115950553Y-82280647D01*
X115946527Y-82279995D01*
X115934698Y-82278879D01*
X115918380Y-82278030D01*
X115898234Y-82277459D01*
X115874919Y-82277181D01*
X115849096Y-82277210D01*
X115821422Y-82277558D01*
X115792560Y-82278240D01*
X115650773Y-82282360D01*
X115642827Y-82589376D01*
X115328764Y-82589376D01*
X115328764Y-81961064D01*
X115014603Y-81961064D01*
X115014603Y-81961062D01*
X115642698Y-81961062D01*
X115957828Y-81961062D01*
X115957828Y-82275219D01*
X116286263Y-82275219D01*
X116286263Y-81332749D01*
X116443360Y-81332749D01*
X116599100Y-81332751D01*
X116600295Y-81332751D01*
X116600295Y-81018594D01*
X116286102Y-81018594D01*
X116286102Y-81332751D01*
X115971942Y-81332751D01*
X115971942Y-81018594D01*
X115643506Y-81018594D01*
X115643506Y-81332751D01*
X115957666Y-81332751D01*
X115957666Y-81645939D01*
X115804155Y-81649992D01*
X115650643Y-81654046D01*
X115646671Y-81807554D01*
X115642698Y-81961062D01*
X115014603Y-81961062D01*
X115014603Y-81646908D01*
X115328764Y-81646908D01*
X115328764Y-80704438D01*
X117542130Y-80704438D01*
X117542130Y-81332751D01*
X117227969Y-81332751D01*
X117227969Y-81646906D01*
X116600262Y-81646906D01*
X116600262Y-81961062D01*
X117228583Y-81961062D01*
X117228583Y-81646907D01*
X117856258Y-81646907D01*
X117856258Y-81961063D01*
X117542065Y-81961063D01*
X117542065Y-82275220D01*
X117228583Y-82275220D01*
X117228583Y-82903533D01*
X117542776Y-82903533D01*
X117542776Y-82275220D01*
X117856258Y-82275220D01*
X117856258Y-82903533D01*
X118170451Y-82903533D01*
X118485193Y-82903533D01*
X118799385Y-82903533D01*
X118799385Y-82589376D01*
X118485193Y-82589376D01*
X118485193Y-82903533D01*
X118170451Y-82903533D01*
X118170451Y-82275220D01*
X118798739Y-82275220D01*
X118798739Y-81961063D01*
X119112900Y-81961063D01*
X119112900Y-81646907D01*
X118484611Y-81646907D01*
X118484611Y-81646906D01*
X119113546Y-81646906D01*
X119427706Y-81646906D01*
X119427706Y-81332750D01*
X119113546Y-81332750D01*
X119113546Y-81646906D01*
X118484611Y-81646906D01*
X118484611Y-81332751D01*
X119112900Y-81332751D01*
X119112900Y-81018594D01*
X119427092Y-81018594D01*
X119427092Y-80704438D01*
X120055381Y-80704438D01*
X120055381Y-81018594D01*
X120369573Y-81018594D01*
X120369573Y-80704438D01*
X120997862Y-80704438D01*
X120997862Y-81018594D01*
X120683702Y-81018594D01*
X120683702Y-81332751D01*
X120369509Y-81332751D01*
X120369509Y-81646907D01*
X120055316Y-81646907D01*
X120055316Y-81332751D01*
X119741156Y-81332751D01*
X119741156Y-81961063D01*
X119426963Y-81961063D01*
X119426963Y-82589377D01*
X119741156Y-82589377D01*
X119741156Y-82275221D01*
X120055316Y-82275221D01*
X120055316Y-81961064D01*
X120369509Y-81961064D01*
X120369509Y-82275221D01*
X120055478Y-82275221D01*
X120055478Y-82589376D01*
X119741318Y-82589376D01*
X119741318Y-82903533D01*
X120055478Y-82903533D01*
X120369670Y-82903533D01*
X120683863Y-82903533D01*
X120683863Y-82903532D01*
X120997054Y-82903532D01*
X121312022Y-82903532D01*
X121312022Y-82588408D01*
X121158511Y-82592462D01*
X121004999Y-82596515D01*
X121001027Y-82750023D01*
X120997054Y-82903532D01*
X120683863Y-82903532D01*
X120683863Y-82589377D01*
X120369670Y-82589377D01*
X120369670Y-82903533D01*
X120055478Y-82903533D01*
X120055478Y-82589376D01*
X120369670Y-82589376D01*
X120369670Y-82275221D01*
X120683702Y-82275221D01*
X120683702Y-81646908D01*
X120997862Y-81646908D01*
X120997862Y-81961063D01*
X121955588Y-81961063D01*
X121955588Y-81961062D01*
X122253728Y-81961062D01*
X122418447Y-81961062D01*
X122582972Y-81961063D01*
X122582972Y-81645971D01*
X122422323Y-81650009D01*
X122261673Y-81654046D01*
X122257701Y-81807554D01*
X122253728Y-81961062D01*
X121955588Y-81961062D01*
X121951615Y-81807555D01*
X121947643Y-81654047D01*
X121786993Y-81650010D01*
X121626376Y-81645972D01*
X121626376Y-81018594D01*
X121312184Y-81018594D01*
X121312184Y-80704438D01*
X121626376Y-80704438D01*
X121626376Y-81018589D01*
X121940537Y-81018589D01*
X121940537Y-81646902D01*
X122268973Y-81646902D01*
X122268973Y-81332746D01*
X122897293Y-81332746D01*
X122897293Y-82274669D01*
X122579548Y-82278513D01*
X122261835Y-82282358D01*
X122258412Y-82592944D01*
X122254988Y-82903530D01*
X122583328Y-82903530D01*
X122583328Y-83217687D01*
X123211616Y-83217687D01*
X123211616Y-83531843D01*
G37*
G36*
X125411255Y-87630160D02*
G01*
X125097062Y-87630160D01*
X125097062Y-87316003D01*
X125411255Y-87316003D01*
X125411255Y-87630160D01*
G37*
G36*
X122897519Y-82903530D02*
G01*
X122583328Y-82903530D01*
X122583328Y-82589374D01*
X122897519Y-82589374D01*
X122897519Y-82903530D01*
G37*
G36*
X116599875Y-92670947D02*
G01*
X116285714Y-92670947D01*
X116285714Y-92042634D01*
X116599875Y-92042634D01*
X116599875Y-92670947D01*
G37*
G36*
X124782353Y-84802753D02*
G01*
X124468160Y-84802753D01*
X124468160Y-84488597D01*
X124782353Y-84488597D01*
X124782353Y-84802753D01*
G37*
G36*
X122254794Y-93613420D02*
G01*
X121312313Y-93613420D01*
X121312313Y-92985105D01*
X122254794Y-92985105D01*
X122254794Y-93613420D01*
G37*
G36*
X119427125Y-89515108D02*
G01*
X119427125Y-89829266D01*
X119112932Y-89829266D01*
X119112932Y-90457578D01*
X118798739Y-90457578D01*
X118798739Y-90143423D01*
X118484579Y-90143423D01*
X118484579Y-90457578D01*
X118170967Y-90457578D01*
X118163539Y-89836406D01*
X117856517Y-89828296D01*
X117856517Y-89515104D01*
X118484805Y-89515104D01*
X118484805Y-89829258D01*
X118798998Y-89829258D01*
X118798998Y-89515099D01*
X119113158Y-89515099D01*
X119427125Y-89515108D01*
G37*
G36*
X124782320Y-82275222D02*
G01*
X123839839Y-82275222D01*
X123839839Y-81332752D01*
X124782320Y-81332752D01*
X124782320Y-82275222D01*
G37*
G36*
X118798998Y-89515099D02*
G01*
X118484805Y-89515099D01*
X118484805Y-89200948D01*
X118798998Y-89200948D01*
X118798998Y-89515099D01*
G37*
G36*
X117228583Y-81646907D02*
G01*
X117227969Y-81646907D01*
X117227969Y-81646906D01*
X117228583Y-81646906D01*
X117228583Y-81646907D01*
G37*
G36*
X115643150Y-87630162D02*
G01*
X115328958Y-87630162D01*
X115328958Y-87316005D01*
X115643150Y-87316005D01*
X115643150Y-87630162D01*
G37*
G36*
X125410125Y-89515065D02*
G01*
X125095965Y-89515065D01*
X125095965Y-89200907D01*
X125410125Y-89200907D01*
X125410125Y-89515065D01*
G37*
G36*
X114072413Y-82275222D02*
G01*
X113129932Y-82275222D01*
X113129932Y-81332752D01*
X114072413Y-81332752D01*
X114072413Y-82275222D01*
G37*
G36*
X119112383Y-92985079D02*
G01*
X119426575Y-92985079D01*
X119426575Y-92670923D01*
X120054799Y-92670923D01*
X120054799Y-92985079D01*
X120368992Y-92985079D01*
X120368992Y-93613394D01*
X119740671Y-93613394D01*
X119740671Y-93299237D01*
X119426511Y-93299237D01*
X119426511Y-93613394D01*
X119112318Y-93613394D01*
X119112318Y-93299237D01*
X118484030Y-93299237D01*
X118484030Y-93613394D01*
X117541548Y-93613394D01*
X117541548Y-93299237D01*
X117855709Y-93299237D01*
X117855709Y-92985079D01*
X118798190Y-92985079D01*
X118798190Y-92670923D01*
X119112383Y-92670923D01*
X119112383Y-92985079D01*
G37*
G36*
X114700734Y-93613420D02*
G01*
X112501643Y-93613420D01*
X112501643Y-93299266D01*
X112815771Y-93299266D01*
X114386573Y-93299266D01*
X114386573Y-91728484D01*
X112815771Y-91728484D01*
X112815771Y-93299266D01*
X112501643Y-93299266D01*
X112501643Y-91414326D01*
X113601189Y-91414326D01*
X114386573Y-91414324D01*
X114700734Y-91414324D01*
X114700734Y-93613420D01*
G37*
G36*
X122897391Y-81018594D02*
G01*
X122583198Y-81018594D01*
X122583198Y-80704438D01*
X122897391Y-80704438D01*
X122897391Y-81018594D01*
G37*
G36*
X125096901Y-84488617D02*
G01*
X125095867Y-84488617D01*
X125095867Y-84488593D01*
X125096901Y-84488593D01*
X125096901Y-84488617D01*
G37*
G36*
X117612005Y-90467744D02*
G01*
X117688697Y-90469146D01*
X117856549Y-90473569D01*
X117856549Y-90785994D01*
X117542356Y-90785994D01*
X117542356Y-91100151D01*
X117228195Y-91100151D01*
X117228195Y-90472803D01*
X117374569Y-90468748D01*
X117444630Y-90467530D01*
X117527212Y-90467200D01*
X117612005Y-90467744D01*
G37*
G36*
X112815771Y-90786012D02*
G01*
X112501611Y-90786012D01*
X112501611Y-90471857D01*
X112815771Y-90471857D01*
X112815771Y-90786012D01*
G37*
G36*
X113129996Y-83217695D02*
G01*
X113129996Y-83531851D01*
X112815804Y-83531851D01*
X112815804Y-83846008D01*
X112501643Y-83846008D01*
X112501643Y-83217694D01*
X112815771Y-83217694D01*
X113129996Y-83217695D01*
G37*
G36*
X120683863Y-87944316D02*
G01*
X120369670Y-87944316D01*
X120369670Y-87630160D01*
X120683863Y-87630160D01*
X120683863Y-87944316D01*
G37*
G36*
X120683863Y-87316003D02*
G01*
X120369670Y-87316003D01*
X120369670Y-87630160D01*
X119741382Y-87630160D01*
X119741382Y-87316003D01*
X120055575Y-87316003D01*
X120055575Y-87001847D01*
X120683863Y-87001847D01*
X120683863Y-87316003D01*
G37*
G36*
X114700669Y-88572479D02*
G01*
X114700120Y-88572479D01*
X114700120Y-88572633D01*
X114386477Y-88572633D01*
X114386477Y-88258476D01*
X114700669Y-88258476D01*
X114700669Y-88572479D01*
G37*
G36*
X118798804Y-81018594D02*
G01*
X118484611Y-81018594D01*
X118484611Y-80704438D01*
X118798804Y-80704438D01*
X118798804Y-81018594D01*
G37*
G36*
X125095932Y-89829222D02*
G01*
X125410125Y-89829222D01*
X125410125Y-90143378D01*
X124153483Y-90143378D01*
X124153483Y-89829222D01*
X124781804Y-89829222D01*
X124781804Y-89515065D01*
X125095932Y-89515065D01*
X125095932Y-89829222D01*
G37*
G36*
X113758253Y-83846008D02*
G01*
X113444092Y-83846008D01*
X113444092Y-83217694D01*
X113758253Y-83217694D01*
X113758253Y-83846008D01*
G37*
G36*
X125410157Y-93299237D02*
G01*
X124781868Y-93299237D01*
X124781868Y-92985079D01*
X125410157Y-92985079D01*
X125410157Y-93299237D01*
G37*
G36*
X120998153Y-93613420D02*
G01*
X120683960Y-93613420D01*
X120683960Y-92985105D01*
X120998153Y-92985105D01*
X120998153Y-93613420D01*
G37*
G36*
X114700766Y-83217701D02*
G01*
X114700766Y-83530892D01*
X114547255Y-83534943D01*
X114393744Y-83538993D01*
X114393744Y-83853149D01*
X114547255Y-83857200D01*
X114700766Y-83861250D01*
X114700766Y-84160161D01*
X114386573Y-84160161D01*
X114386573Y-83846005D01*
X114072381Y-83846005D01*
X114072381Y-83531848D01*
X114386573Y-83531848D01*
X114386573Y-83217692D01*
X114543670Y-83217692D01*
X114700766Y-83217701D01*
G37*
D11*
X101662137Y-71058571D02*
X101757375Y-71344285D01*
X101757375Y-71820476D01*
X101662137Y-72010952D01*
X101566899Y-72106190D01*
X101376423Y-72201428D01*
X101185947Y-72201428D01*
X100995471Y-72106190D01*
X100900233Y-72010952D01*
X100804994Y-71820476D01*
X100709756Y-71439523D01*
X100614518Y-71249047D01*
X100519280Y-71153809D01*
X100328804Y-71058571D01*
X100138328Y-71058571D01*
X99947852Y-71153809D01*
X99852614Y-71249047D01*
X99757375Y-71439523D01*
X99757375Y-71915714D01*
X99852614Y-72201428D01*
X101662137Y-73915714D02*
X101757375Y-73725238D01*
X101757375Y-73344285D01*
X101662137Y-73153809D01*
X101566899Y-73058571D01*
X101376423Y-72963333D01*
X100804994Y-72963333D01*
X100614518Y-73058571D01*
X100519280Y-73153809D01*
X100424042Y-73344285D01*
X100424042Y-73725238D01*
X100519280Y-73915714D01*
X101757375Y-74772857D02*
X99757375Y-74772857D01*
X101757375Y-75630000D02*
X100709756Y-75630000D01*
X100519280Y-75534761D01*
X100424042Y-75344285D01*
X100424042Y-75058571D01*
X100519280Y-74868095D01*
X100614518Y-74772857D01*
X101662137Y-77344285D02*
X101757375Y-77153809D01*
X101757375Y-76772857D01*
X101662137Y-76582380D01*
X101471661Y-76487142D01*
X100709756Y-76487142D01*
X100519280Y-76582380D01*
X100424042Y-76772857D01*
X100424042Y-77153809D01*
X100519280Y-77344285D01*
X100709756Y-77439523D01*
X100900233Y-77439523D01*
X101090709Y-76487142D01*
X101757375Y-79153809D02*
X99757375Y-79153809D01*
X101662137Y-79153809D02*
X101757375Y-78963333D01*
X101757375Y-78582380D01*
X101662137Y-78391904D01*
X101566899Y-78296666D01*
X101376423Y-78201428D01*
X100804994Y-78201428D01*
X100614518Y-78296666D01*
X100519280Y-78391904D01*
X100424042Y-78582380D01*
X100424042Y-78963333D01*
X100519280Y-79153809D01*
X101757375Y-80963333D02*
X100709756Y-80963333D01*
X100519280Y-80868095D01*
X100424042Y-80677619D01*
X100424042Y-80296666D01*
X100519280Y-80106190D01*
X101662137Y-80963333D02*
X101757375Y-80772857D01*
X101757375Y-80296666D01*
X101662137Y-80106190D01*
X101471661Y-80010952D01*
X101281185Y-80010952D01*
X101090709Y-80106190D01*
X100995471Y-80296666D01*
X100995471Y-80772857D01*
X100900233Y-80963333D01*
X101662137Y-83344285D02*
X101757375Y-83630000D01*
X101757375Y-84106190D01*
X101662137Y-84296666D01*
X101566899Y-84391904D01*
X101376423Y-84487142D01*
X101185947Y-84487142D01*
X100995471Y-84391904D01*
X100900233Y-84296666D01*
X100804994Y-84106190D01*
X100709756Y-83725238D01*
X100614518Y-83534761D01*
X100519280Y-83439523D01*
X100328804Y-83344285D01*
X100138328Y-83344285D01*
X99947852Y-83439523D01*
X99852614Y-83534761D01*
X99757375Y-83725238D01*
X99757375Y-84201428D01*
X99852614Y-84487142D01*
X101662137Y-86106190D02*
X101757375Y-85915714D01*
X101757375Y-85534761D01*
X101662137Y-85344285D01*
X101471661Y-85249047D01*
X100709756Y-85249047D01*
X100519280Y-85344285D01*
X100424042Y-85534761D01*
X100424042Y-85915714D01*
X100519280Y-86106190D01*
X100709756Y-86201428D01*
X100900233Y-86201428D01*
X101090709Y-85249047D01*
X100424042Y-87058571D02*
X101757375Y-87058571D01*
X100614518Y-87058571D02*
X100519280Y-87153809D01*
X100424042Y-87344285D01*
X100424042Y-87630000D01*
X100519280Y-87820476D01*
X100709756Y-87915714D01*
X101757375Y-87915714D01*
X101662137Y-88772857D02*
X101757375Y-88963333D01*
X101757375Y-89344285D01*
X101662137Y-89534761D01*
X101471661Y-89630000D01*
X101376423Y-89630000D01*
X101185947Y-89534761D01*
X101090709Y-89344285D01*
X101090709Y-89058571D01*
X100995471Y-88868095D01*
X100804994Y-88772857D01*
X100709756Y-88772857D01*
X100519280Y-88868095D01*
X100424042Y-89058571D01*
X100424042Y-89344285D01*
X100519280Y-89534761D01*
X101757375Y-90772857D02*
X101662137Y-90582380D01*
X101566899Y-90487142D01*
X101376423Y-90391904D01*
X100804994Y-90391904D01*
X100614518Y-90487142D01*
X100519280Y-90582380D01*
X100424042Y-90772857D01*
X100424042Y-91058571D01*
X100519280Y-91249047D01*
X100614518Y-91344285D01*
X100804994Y-91439523D01*
X101376423Y-91439523D01*
X101566899Y-91344285D01*
X101662137Y-91249047D01*
X101757375Y-91058571D01*
X101757375Y-90772857D01*
X101757375Y-92296666D02*
X100424042Y-92296666D01*
X100804994Y-92296666D02*
X100614518Y-92391904D01*
X100519280Y-92487142D01*
X100424042Y-92677619D01*
X100424042Y-92868095D01*
X101662137Y-94296666D02*
X101757375Y-94106190D01*
X101757375Y-93725238D01*
X101662137Y-93534761D01*
X101471661Y-93439523D01*
X100709756Y-93439523D01*
X100519280Y-93534761D01*
X100424042Y-93725238D01*
X100424042Y-94106190D01*
X100519280Y-94296666D01*
X100709756Y-94391904D01*
X100900233Y-94391904D01*
X101090709Y-93439523D01*
X101757375Y-97725238D02*
X101757375Y-96772857D01*
X99757375Y-96772857D01*
X101757375Y-98391904D02*
X100424042Y-98391904D01*
X99757375Y-98391904D02*
X99852614Y-98296666D01*
X99947852Y-98391904D01*
X99852614Y-98487142D01*
X99757375Y-98391904D01*
X99947852Y-98391904D01*
X101757375Y-99344285D02*
X99757375Y-99344285D01*
X99757375Y-99820476D01*
X99852614Y-100106190D01*
X100043090Y-100296666D01*
X100233566Y-100391904D01*
X100614518Y-100487142D01*
X100900233Y-100487142D01*
X101281185Y-100391904D01*
X101471661Y-100296666D01*
X101662137Y-100106190D01*
X101757375Y-99820476D01*
X101757375Y-99344285D01*
X101185947Y-101249047D02*
X101185947Y-102201428D01*
X101757375Y-101058571D02*
X99757375Y-101725238D01*
X101757375Y-102391904D01*
X101757375Y-104201428D02*
X100804994Y-103534761D01*
X101757375Y-103058571D02*
X99757375Y-103058571D01*
X99757375Y-103820476D01*
X99852614Y-104010952D01*
X99947852Y-104106190D01*
X100138328Y-104201428D01*
X100424042Y-104201428D01*
X100614518Y-104106190D01*
X100709756Y-104010952D01*
X100804994Y-103820476D01*
X100804994Y-103058571D01*
D12*
X105892994Y-81249142D02*
X106892994Y-81582476D01*
X105892994Y-81915809D01*
X106892994Y-82772952D02*
X106892994Y-82201523D01*
X106892994Y-82487238D02*
X105892994Y-82487238D01*
X106035852Y-82392000D01*
X106131090Y-82296761D01*
X106178709Y-82201523D01*
X106797756Y-83201523D02*
X106845375Y-83249142D01*
X106892994Y-83201523D01*
X106845375Y-83153904D01*
X106797756Y-83201523D01*
X106892994Y-83201523D01*
X105892994Y-84153904D02*
X105892994Y-83677714D01*
X106369185Y-83630095D01*
X106321566Y-83677714D01*
X106273947Y-83772952D01*
X106273947Y-84011047D01*
X106321566Y-84106285D01*
X106369185Y-84153904D01*
X106464423Y-84201523D01*
X106702518Y-84201523D01*
X106797756Y-84153904D01*
X106845375Y-84106285D01*
X106892994Y-84011047D01*
X106892994Y-83772952D01*
X106845375Y-83677714D01*
X106797756Y-83630095D01*
X106892994Y-86677714D02*
X106892994Y-86106285D01*
X106892994Y-86392000D02*
X105892994Y-86392000D01*
X106035852Y-86296761D01*
X106131090Y-86201523D01*
X106178709Y-86106285D01*
X105892994Y-87011047D02*
X105892994Y-87630095D01*
X106273947Y-87296761D01*
X106273947Y-87439619D01*
X106321566Y-87534857D01*
X106369185Y-87582476D01*
X106464423Y-87630095D01*
X106702518Y-87630095D01*
X106797756Y-87582476D01*
X106845375Y-87534857D01*
X106892994Y-87439619D01*
X106892994Y-87153904D01*
X106845375Y-87058666D01*
X106797756Y-87011047D01*
X105845375Y-88772952D02*
X107131090Y-87915809D01*
X105892994Y-89296761D02*
X105892994Y-89392000D01*
X105940614Y-89487238D01*
X105988233Y-89534857D01*
X106083471Y-89582476D01*
X106273947Y-89630095D01*
X106512042Y-89630095D01*
X106702518Y-89582476D01*
X106797756Y-89534857D01*
X106845375Y-89487238D01*
X106892994Y-89392000D01*
X106892994Y-89296761D01*
X106845375Y-89201523D01*
X106797756Y-89153904D01*
X106702518Y-89106285D01*
X106512042Y-89058666D01*
X106273947Y-89058666D01*
X106083471Y-89106285D01*
X105988233Y-89153904D01*
X105940614Y-89201523D01*
X105892994Y-89296761D01*
X105892994Y-90534857D02*
X105892994Y-90058666D01*
X106369185Y-90011047D01*
X106321566Y-90058666D01*
X106273947Y-90153904D01*
X106273947Y-90392000D01*
X106321566Y-90487238D01*
X106369185Y-90534857D01*
X106464423Y-90582476D01*
X106702518Y-90582476D01*
X106797756Y-90534857D01*
X106845375Y-90487238D01*
X106892994Y-90392000D01*
X106892994Y-90153904D01*
X106845375Y-90058666D01*
X106797756Y-90011047D01*
X105845375Y-91725333D02*
X107131090Y-90868190D01*
X105988233Y-92011047D02*
X105940614Y-92058666D01*
X105892994Y-92153904D01*
X105892994Y-92392000D01*
X105940614Y-92487238D01*
X105988233Y-92534857D01*
X106083471Y-92582476D01*
X106178709Y-92582476D01*
X106321566Y-92534857D01*
X106892994Y-91963428D01*
X106892994Y-92582476D01*
X105892994Y-93201523D02*
X105892994Y-93296761D01*
X105940614Y-93392000D01*
X105988233Y-93439619D01*
X106083471Y-93487238D01*
X106273947Y-93534857D01*
X106512042Y-93534857D01*
X106702518Y-93487238D01*
X106797756Y-93439619D01*
X106845375Y-93392000D01*
X106892994Y-93296761D01*
X106892994Y-93201523D01*
X106845375Y-93106285D01*
X106797756Y-93058666D01*
X106702518Y-93011047D01*
X106512042Y-92963428D01*
X106273947Y-92963428D01*
X106083471Y-93011047D01*
X105988233Y-93058666D01*
X105940614Y-93106285D01*
X105892994Y-93201523D01*
X105988233Y-93915809D02*
X105940614Y-93963428D01*
X105892994Y-94058666D01*
X105892994Y-94296761D01*
X105940614Y-94392000D01*
X105988233Y-94439619D01*
X106083471Y-94487238D01*
X106178709Y-94487238D01*
X106321566Y-94439619D01*
X106892994Y-93868190D01*
X106892994Y-94487238D01*
X105892994Y-95392000D02*
X105892994Y-94915809D01*
X106369185Y-94868190D01*
X106321566Y-94915809D01*
X106273947Y-95011047D01*
X106273947Y-95249142D01*
X106321566Y-95344380D01*
X106369185Y-95392000D01*
X106464423Y-95439619D01*
X106702518Y-95439619D01*
X106797756Y-95392000D01*
X106845375Y-95344380D01*
X106892994Y-95249142D01*
X106892994Y-95011047D01*
X106845375Y-94915809D01*
X106797756Y-94868190D01*
X104352994Y-76153904D02*
X103352994Y-76153904D01*
X103352994Y-76534857D01*
X103400614Y-76630095D01*
X103448233Y-76677714D01*
X103543471Y-76725333D01*
X103686328Y-76725333D01*
X103781566Y-76677714D01*
X103829185Y-76630095D01*
X103876804Y-76534857D01*
X103876804Y-76153904D01*
X104352994Y-77153904D02*
X103686328Y-77153904D01*
X103876804Y-77153904D02*
X103781566Y-77201523D01*
X103733947Y-77249142D01*
X103686328Y-77344380D01*
X103686328Y-77439619D01*
X104352994Y-77915809D02*
X104305375Y-77820571D01*
X104257756Y-77772952D01*
X104162518Y-77725333D01*
X103876804Y-77725333D01*
X103781566Y-77772952D01*
X103733947Y-77820571D01*
X103686328Y-77915809D01*
X103686328Y-78058666D01*
X103733947Y-78153904D01*
X103781566Y-78201523D01*
X103876804Y-78249142D01*
X104162518Y-78249142D01*
X104257756Y-78201523D01*
X104305375Y-78153904D01*
X104352994Y-78058666D01*
X104352994Y-77915809D01*
X103686328Y-79106285D02*
X104495852Y-79106285D01*
X104591090Y-79058666D01*
X104638709Y-79011047D01*
X104686328Y-78915809D01*
X104686328Y-78772952D01*
X104638709Y-78677714D01*
X104305375Y-79106285D02*
X104352994Y-79011047D01*
X104352994Y-78820571D01*
X104305375Y-78725333D01*
X104257756Y-78677714D01*
X104162518Y-78630095D01*
X103876804Y-78630095D01*
X103781566Y-78677714D01*
X103733947Y-78725333D01*
X103686328Y-78820571D01*
X103686328Y-79011047D01*
X103733947Y-79106285D01*
X104305375Y-79963428D02*
X104352994Y-79868190D01*
X104352994Y-79677714D01*
X104305375Y-79582476D01*
X104210137Y-79534857D01*
X103829185Y-79534857D01*
X103733947Y-79582476D01*
X103686328Y-79677714D01*
X103686328Y-79868190D01*
X103733947Y-79963428D01*
X103829185Y-80011047D01*
X103924423Y-80011047D01*
X104019661Y-79534857D01*
X103686328Y-80296761D02*
X103686328Y-80677714D01*
X103352994Y-80439619D02*
X104210137Y-80439619D01*
X104305375Y-80487238D01*
X104352994Y-80582476D01*
X104352994Y-80677714D01*
X103686328Y-80868190D02*
X103686328Y-81249142D01*
X103352994Y-81011047D02*
X104210137Y-81011047D01*
X104305375Y-81058666D01*
X104352994Y-81153904D01*
X104352994Y-81249142D01*
X104352994Y-81725333D02*
X104305375Y-81630095D01*
X104257756Y-81582476D01*
X104162518Y-81534857D01*
X103876804Y-81534857D01*
X103781566Y-81582476D01*
X103733947Y-81630095D01*
X103686328Y-81725333D01*
X103686328Y-81868190D01*
X103733947Y-81963428D01*
X103781566Y-82011047D01*
X103876804Y-82058666D01*
X104162518Y-82058666D01*
X104257756Y-82011047D01*
X104305375Y-81963428D01*
X104352994Y-81868190D01*
X104352994Y-81725333D01*
X104352994Y-83677714D02*
X103352994Y-83677714D01*
X104305375Y-83677714D02*
X104352994Y-83582476D01*
X104352994Y-83392000D01*
X104305375Y-83296761D01*
X104257756Y-83249142D01*
X104162518Y-83201523D01*
X103876804Y-83201523D01*
X103781566Y-83249142D01*
X103733947Y-83296761D01*
X103686328Y-83392000D01*
X103686328Y-83582476D01*
X103733947Y-83677714D01*
X104352994Y-84153904D02*
X103686328Y-84153904D01*
X103352994Y-84153904D02*
X103400614Y-84106285D01*
X103448233Y-84153904D01*
X103400614Y-84201523D01*
X103352994Y-84153904D01*
X103448233Y-84153904D01*
X103686328Y-85249142D02*
X103686328Y-85630095D01*
X103352994Y-85392000D02*
X104210137Y-85392000D01*
X104305375Y-85439619D01*
X104352994Y-85534857D01*
X104352994Y-85630095D01*
X104305375Y-86344380D02*
X104352994Y-86249142D01*
X104352994Y-86058666D01*
X104305375Y-85963428D01*
X104210137Y-85915809D01*
X103829185Y-85915809D01*
X103733947Y-85963428D01*
X103686328Y-86058666D01*
X103686328Y-86249142D01*
X103733947Y-86344380D01*
X103829185Y-86392000D01*
X103924423Y-86392000D01*
X104019661Y-85915809D01*
X104305375Y-86772952D02*
X104352994Y-86868190D01*
X104352994Y-87058666D01*
X104305375Y-87153904D01*
X104210137Y-87201523D01*
X104162518Y-87201523D01*
X104067280Y-87153904D01*
X104019661Y-87058666D01*
X104019661Y-86915809D01*
X103972042Y-86820571D01*
X103876804Y-86772952D01*
X103829185Y-86772952D01*
X103733947Y-86820571D01*
X103686328Y-86915809D01*
X103686328Y-87058666D01*
X103733947Y-87153904D01*
X104352994Y-87630095D02*
X103686328Y-87630095D01*
X103352994Y-87630095D02*
X103400614Y-87582476D01*
X103448233Y-87630095D01*
X103400614Y-87677714D01*
X103352994Y-87630095D01*
X103448233Y-87630095D01*
X104352994Y-89296761D02*
X103352994Y-89296761D01*
X104305375Y-89296761D02*
X104352994Y-89201523D01*
X104352994Y-89011047D01*
X104305375Y-88915809D01*
X104257756Y-88868190D01*
X104162518Y-88820571D01*
X103876804Y-88820571D01*
X103781566Y-88868190D01*
X103733947Y-88915809D01*
X103686328Y-89011047D01*
X103686328Y-89201523D01*
X103733947Y-89296761D01*
X104352994Y-89772952D02*
X103686328Y-89772952D01*
X103352994Y-89772952D02*
X103400614Y-89725333D01*
X103448233Y-89772952D01*
X103400614Y-89820571D01*
X103352994Y-89772952D01*
X103448233Y-89772952D01*
X104352994Y-91011047D02*
X103352994Y-91011047D01*
X103352994Y-91391999D01*
X103400614Y-91487238D01*
X103448233Y-91534857D01*
X103543471Y-91582476D01*
X103686328Y-91582476D01*
X103781566Y-91534857D01*
X103829185Y-91487238D01*
X103876804Y-91391999D01*
X103876804Y-91011047D01*
X104352994Y-92439619D02*
X103829185Y-92439619D01*
X103733947Y-92391999D01*
X103686328Y-92296761D01*
X103686328Y-92106285D01*
X103733947Y-92011047D01*
X104305375Y-92439619D02*
X104352994Y-92344380D01*
X104352994Y-92106285D01*
X104305375Y-92011047D01*
X104210137Y-91963428D01*
X104114899Y-91963428D01*
X104019661Y-92011047D01*
X103972042Y-92106285D01*
X103972042Y-92344380D01*
X103924423Y-92439619D01*
X104305375Y-92868190D02*
X104352994Y-92963428D01*
X104352994Y-93153904D01*
X104305375Y-93249142D01*
X104210137Y-93296761D01*
X104162518Y-93296761D01*
X104067280Y-93249142D01*
X104019661Y-93153904D01*
X104019661Y-93011047D01*
X103972042Y-92915809D01*
X103876804Y-92868190D01*
X103829185Y-92868190D01*
X103733947Y-92915809D01*
X103686328Y-93011047D01*
X103686328Y-93153904D01*
X103733947Y-93249142D01*
X104352994Y-93725333D02*
X103686328Y-93725333D01*
X103352994Y-93725333D02*
X103400614Y-93677714D01*
X103448233Y-93725333D01*
X103400614Y-93772952D01*
X103352994Y-93725333D01*
X103448233Y-93725333D01*
X103686328Y-94201523D02*
X104352994Y-94201523D01*
X103781566Y-94201523D02*
X103733947Y-94249142D01*
X103686328Y-94344380D01*
X103686328Y-94487238D01*
X103733947Y-94582476D01*
X103829185Y-94630095D01*
X104352994Y-94630095D01*
X104067280Y-95820571D02*
X104067280Y-96296761D01*
X104352994Y-95725333D02*
X103352994Y-96058666D01*
X104352994Y-96391999D01*
X104352994Y-96868190D02*
X104305375Y-96772952D01*
X104210137Y-96725333D01*
X103352994Y-96725333D01*
X104305375Y-97630095D02*
X104352994Y-97534857D01*
X104352994Y-97344380D01*
X104305375Y-97249142D01*
X104210137Y-97201523D01*
X103829185Y-97201523D01*
X103733947Y-97249142D01*
X103686328Y-97344380D01*
X103686328Y-97534857D01*
X103733947Y-97630095D01*
X103829185Y-97677714D01*
X103924423Y-97677714D01*
X104019661Y-97201523D01*
X104305375Y-98058666D02*
X104352994Y-98153904D01*
X104352994Y-98344380D01*
X104305375Y-98439619D01*
X104210137Y-98487238D01*
X104162518Y-98487238D01*
X104067280Y-98439619D01*
X104019661Y-98344380D01*
X104019661Y-98201523D01*
X103972042Y-98106285D01*
X103876804Y-98058666D01*
X103829185Y-98058666D01*
X103733947Y-98106285D01*
X103686328Y-98201523D01*
X103686328Y-98344380D01*
X103733947Y-98439619D01*
X104305375Y-98868190D02*
X104352994Y-98963428D01*
X104352994Y-99153904D01*
X104305375Y-99249142D01*
X104210137Y-99296761D01*
X104162518Y-99296761D01*
X104067280Y-99249142D01*
X104019661Y-99153904D01*
X104019661Y-99011047D01*
X103972042Y-98915809D01*
X103876804Y-98868190D01*
X103829185Y-98868190D01*
X103733947Y-98915809D01*
X103686328Y-99011047D01*
X103686328Y-99153904D01*
X103733947Y-99249142D01*
X104352994Y-99725333D02*
X103686328Y-99725333D01*
X103352994Y-99725333D02*
X103400614Y-99677714D01*
X103448233Y-99725333D01*
X103400614Y-99772952D01*
X103352994Y-99725333D01*
X103448233Y-99725333D01*
X104352994Y-100344380D02*
X104305375Y-100249142D01*
X104257756Y-100201523D01*
X104162518Y-100153904D01*
X103876804Y-100153904D01*
X103781566Y-100201523D01*
X103733947Y-100249142D01*
X103686328Y-100344380D01*
X103686328Y-100487238D01*
X103733947Y-100582476D01*
X103781566Y-100630095D01*
X103876804Y-100677714D01*
X104162518Y-100677714D01*
X104257756Y-100630095D01*
X104305375Y-100582476D01*
X104352994Y-100487238D01*
X104352994Y-100344380D01*
X91948000Y-110998000D02*
X117348000Y-110998000D01*
X117348000Y-110998000D02*
X117348000Y-125222000D01*
X117348000Y-125222000D02*
X91948000Y-125222000D01*
X91948000Y-125222000D02*
X91948000Y-110998000D01*
X162052000Y-65532000D02*
X162052000Y-51308000D01*
X102108000Y-110998000D02*
X102108000Y-125222000D01*
X130556000Y-82804000D02*
X135636000Y-82804000D01*
X135636000Y-82804000D02*
X135636000Y-95758000D01*
X135636000Y-95758000D02*
X130556000Y-95758000D01*
X130556000Y-95758000D02*
X130556000Y-82804000D01*
X109728000Y-110998000D02*
X109728000Y-125222000D01*
X126492000Y-110998000D02*
X126492000Y-125222000D01*
X108712000Y-65278000D02*
X108712000Y-51054000D01*
X134112000Y-65532000D02*
X134112000Y-51308000D01*
X159512000Y-110998000D02*
X159512000Y-125222000D01*
X121412000Y-110998000D02*
X121412000Y-125222000D01*
X151892000Y-65532000D02*
X151892000Y-51308000D01*
X112268000Y-110998000D02*
X112268000Y-125222000D01*
X129032000Y-110998000D02*
X129032000Y-125222000D01*
X123952000Y-110998000D02*
X123952000Y-125222000D01*
X129032000Y-65532000D02*
X129032000Y-51308000D01*
X167132000Y-55626000D02*
X146812000Y-55626000D01*
X94488000Y-110998000D02*
X94488000Y-125222000D01*
X185420000Y-111252000D02*
X197104000Y-111252000D01*
X167132000Y-65532000D02*
X146812000Y-65532000D01*
X146812000Y-65532000D02*
X146812000Y-51308000D01*
X146812000Y-51308000D02*
X167132000Y-51308000D01*
X167132000Y-51308000D02*
X167132000Y-65532000D01*
X185420000Y-78232000D02*
X197104000Y-78232000D01*
X97028000Y-110998000D02*
X97028000Y-125222000D01*
X149352000Y-110998000D02*
X149352000Y-125222000D01*
X144272000Y-55626000D02*
X123952000Y-55626000D01*
X185420000Y-103632000D02*
X197104000Y-103632000D01*
X111252000Y-65278000D02*
X111252000Y-51054000D01*
X156972000Y-110998000D02*
X156972000Y-125222000D01*
X149352000Y-65532000D02*
X149352000Y-51308000D01*
X191262000Y-68072000D02*
X191262000Y-114046000D01*
X136652000Y-65532000D02*
X136652000Y-51308000D01*
X185420000Y-101092000D02*
X197104000Y-101092000D01*
X131572000Y-65532000D02*
X131572000Y-51308000D01*
X141732000Y-110998000D02*
X162052000Y-110998000D01*
X162052000Y-110998000D02*
X162052000Y-125222000D01*
X162052000Y-125222000D02*
X141732000Y-125222000D01*
X141732000Y-125222000D02*
X141732000Y-110998000D01*
X154432000Y-65532000D02*
X154432000Y-51308000D01*
X185420000Y-88392000D02*
X197104000Y-88392000D01*
X133096000Y-95758000D02*
X133096000Y-82804000D01*
X134112000Y-110998000D02*
X134112000Y-125222000D01*
X136652000Y-110998000D02*
X136652000Y-125222000D01*
X185420000Y-80772000D02*
X197104000Y-80772000D01*
X151892000Y-110998000D02*
X151892000Y-125222000D01*
X183702000Y-89632000D02*
X185394463Y-89632147D01*
X106172000Y-65278000D02*
X106172000Y-51054000D01*
X118872000Y-110998000D02*
X139192000Y-110998000D01*
X139192000Y-110998000D02*
X139192000Y-125222000D01*
X139192000Y-125222000D02*
X118872000Y-125222000D01*
X118872000Y-125222000D02*
X118872000Y-110998000D01*
X117348000Y-120904000D02*
X91948000Y-120904000D01*
X114808000Y-110998000D02*
X114808000Y-125222000D01*
X141732000Y-65532000D02*
X141732000Y-51308000D01*
X130556000Y-91694000D02*
X135636000Y-91694000D01*
X185420000Y-68072000D02*
X197104000Y-68072000D01*
X197104000Y-68072000D02*
X197104000Y-114046000D01*
X197104000Y-114046000D02*
X185420000Y-114046000D01*
X185420000Y-114046000D02*
X185420000Y-68072000D01*
X185420000Y-85852000D02*
X197104000Y-85852000D01*
X156972000Y-65532000D02*
X156972000Y-51308000D01*
X116332000Y-65278000D02*
X116332000Y-51054000D01*
X154432000Y-110998000D02*
X154432000Y-125222000D01*
X146812000Y-110998000D02*
X146812000Y-125222000D01*
X131572000Y-110998000D02*
X131572000Y-125222000D01*
X121412000Y-55372000D02*
X101092000Y-55372000D01*
X144272000Y-65532000D02*
X123952000Y-65532000D01*
X123952000Y-65532000D02*
X123952000Y-51308000D01*
X123952000Y-51308000D02*
X144272000Y-51308000D01*
X144272000Y-51308000D02*
X144272000Y-65532000D01*
X139192000Y-65532000D02*
X139192000Y-51308000D01*
X103632000Y-65278000D02*
X103632000Y-51054000D01*
X107188000Y-110998000D02*
X107188000Y-125222000D01*
X126492000Y-65532000D02*
X126492000Y-51308000D01*
X185420000Y-108712000D02*
X197104000Y-108712000D01*
X185420000Y-90932000D02*
X197104000Y-90932000D01*
X185420000Y-98552000D02*
X197104000Y-98552000D01*
X185420000Y-83312000D02*
X197104000Y-83312000D01*
X99568000Y-110998000D02*
X99568000Y-125222000D01*
X185420000Y-106172000D02*
X197104000Y-106172000D01*
X118872000Y-120904000D02*
X139192000Y-120904000D01*
X159512000Y-65532000D02*
X159512000Y-51308000D01*
X164592000Y-65532000D02*
X164592000Y-51308000D01*
X113792000Y-65278000D02*
X113792000Y-51054000D01*
X130556000Y-87376000D02*
X135636000Y-87376000D01*
X121412000Y-65278000D02*
X101092000Y-65278000D01*
X101092000Y-65278000D02*
X101092000Y-51054000D01*
X101092000Y-51054000D02*
X121412000Y-51054000D01*
X121412000Y-51054000D02*
X121412000Y-65278000D01*
X118872000Y-65278000D02*
X118872000Y-51054000D01*
X185420000Y-75692000D02*
X197104000Y-75692000D01*
X144272000Y-110998000D02*
X144272000Y-125222000D01*
X185420000Y-70612000D02*
X197104000Y-70612000D01*
X185420000Y-96012000D02*
X197104000Y-96012000D01*
X185420000Y-93472000D02*
X197104000Y-93472000D01*
X185420000Y-73152000D02*
X197104000Y-73152000D01*
X104648000Y-110998000D02*
X104648000Y-125222000D01*
X141732000Y-120904000D02*
X162052000Y-120904000D01*
X189682285Y-75128380D02*
X189682285Y-74128380D01*
X189444190Y-74128380D01*
X189301333Y-74176000D01*
X189206095Y-74271238D01*
X189158476Y-74366476D01*
X189110857Y-74556952D01*
X189110857Y-74699809D01*
X189158476Y-74890285D01*
X189206095Y-74985523D01*
X189301333Y-75080761D01*
X189444190Y-75128380D01*
X189682285Y-75128380D01*
X188206095Y-74128380D02*
X188682285Y-74128380D01*
X188729904Y-74604571D01*
X188682285Y-74556952D01*
X188587047Y-74509333D01*
X188348952Y-74509333D01*
X188253714Y-74556952D01*
X188206095Y-74604571D01*
X188158476Y-74699809D01*
X188158476Y-74937904D01*
X188206095Y-75033142D01*
X188253714Y-75080761D01*
X188348952Y-75128380D01*
X188587047Y-75128380D01*
X188682285Y-75080761D01*
X188729904Y-75033142D01*
X187206095Y-75128380D02*
X187777523Y-75128380D01*
X187491809Y-75128380D02*
X187491809Y-74128380D01*
X187587047Y-74271238D01*
X187682285Y-74366476D01*
X187777523Y-74414095D01*
X189682285Y-95194380D02*
X189682285Y-94194380D01*
X189444190Y-94194380D01*
X189301333Y-94242000D01*
X189206095Y-94337238D01*
X189158476Y-94432476D01*
X189110857Y-94622952D01*
X189110857Y-94765809D01*
X189158476Y-94956285D01*
X189206095Y-95051523D01*
X189301333Y-95146761D01*
X189444190Y-95194380D01*
X189682285Y-95194380D01*
X188777523Y-94194380D02*
X188158476Y-94194380D01*
X188491809Y-94575333D01*
X188348952Y-94575333D01*
X188253714Y-94622952D01*
X188206095Y-94670571D01*
X188158476Y-94765809D01*
X188158476Y-95003904D01*
X188206095Y-95099142D01*
X188253714Y-95146761D01*
X188348952Y-95194380D01*
X188634666Y-95194380D01*
X188729904Y-95146761D01*
X188777523Y-95099142D01*
X187253714Y-94194380D02*
X187729904Y-94194380D01*
X187777523Y-94670571D01*
X187729904Y-94622952D01*
X187634666Y-94575333D01*
X187396571Y-94575333D01*
X187301333Y-94622952D01*
X187253714Y-94670571D01*
X187206095Y-94765809D01*
X187206095Y-95003904D01*
X187253714Y-95099142D01*
X187301333Y-95146761D01*
X187396571Y-95194380D01*
X187634666Y-95194380D01*
X187729904Y-95146761D01*
X187777523Y-95099142D01*
X111974380Y-52895523D02*
X111974380Y-52419333D01*
X112450571Y-52371714D01*
X112402952Y-52419333D01*
X112355333Y-52514571D01*
X112355333Y-52752666D01*
X112402952Y-52847904D01*
X112450571Y-52895523D01*
X112545809Y-52943142D01*
X112783904Y-52943142D01*
X112879142Y-52895523D01*
X112926761Y-52847904D01*
X112974380Y-52752666D01*
X112974380Y-52514571D01*
X112926761Y-52419333D01*
X112879142Y-52371714D01*
X111974380Y-53228857D02*
X112974380Y-53562190D01*
X111974380Y-53895523D01*
X125388666Y-52625714D02*
X125388666Y-53101904D01*
X125674380Y-52530476D02*
X124674380Y-52863809D01*
X125674380Y-53197142D01*
X124674380Y-53720952D02*
X124674380Y-53816190D01*
X124722000Y-53911428D01*
X124769619Y-53959047D01*
X124864857Y-54006666D01*
X125055333Y-54054285D01*
X125293428Y-54054285D01*
X125483904Y-54006666D01*
X125579142Y-53959047D01*
X125626761Y-53911428D01*
X125674380Y-53816190D01*
X125674380Y-53720952D01*
X125626761Y-53625714D01*
X125579142Y-53578095D01*
X125483904Y-53530476D01*
X125293428Y-53482857D01*
X125055333Y-53482857D01*
X124864857Y-53530476D01*
X124769619Y-53578095D01*
X124722000Y-53625714D01*
X124674380Y-53720952D01*
X113990380Y-122451904D02*
X112990380Y-122451904D01*
X112990380Y-122690000D01*
X113038000Y-122832857D01*
X113133238Y-122928095D01*
X113228476Y-122975714D01*
X113418952Y-123023333D01*
X113561809Y-123023333D01*
X113752285Y-122975714D01*
X113847523Y-122928095D01*
X113942761Y-122832857D01*
X113990380Y-122690000D01*
X113990380Y-122451904D01*
X113990380Y-123499523D02*
X113990380Y-123690000D01*
X113942761Y-123785238D01*
X113895142Y-123832857D01*
X113752285Y-123928095D01*
X113561809Y-123975714D01*
X113180857Y-123975714D01*
X113085619Y-123928095D01*
X113038000Y-123880476D01*
X112990380Y-123785238D01*
X112990380Y-123594761D01*
X113038000Y-123499523D01*
X113085619Y-123451904D01*
X113180857Y-123404285D01*
X113418952Y-123404285D01*
X113514190Y-123451904D01*
X113561809Y-123499523D01*
X113609428Y-123594761D01*
X113609428Y-123785238D01*
X113561809Y-123880476D01*
X113514190Y-123928095D01*
X113418952Y-123975714D01*
X143454380Y-121975714D02*
X142454380Y-121975714D01*
X142454380Y-122213809D01*
X142502000Y-122356666D01*
X142597238Y-122451904D01*
X142692476Y-122499523D01*
X142882952Y-122547142D01*
X143025809Y-122547142D01*
X143216285Y-122499523D01*
X143311523Y-122451904D01*
X143406761Y-122356666D01*
X143454380Y-122213809D01*
X143454380Y-121975714D01*
X143454380Y-123499523D02*
X143454380Y-122928095D01*
X143454380Y-123213809D02*
X142454380Y-123213809D01*
X142597238Y-123118571D01*
X142692476Y-123023333D01*
X142740095Y-122928095D01*
X142787714Y-124356666D02*
X143454380Y-124356666D01*
X142406761Y-124118571D02*
X143121047Y-123880476D01*
X143121047Y-124499523D01*
X195524285Y-80208380D02*
X195524285Y-79208380D01*
X195286190Y-79208380D01*
X195143333Y-79256000D01*
X195048095Y-79351238D01*
X195000476Y-79446476D01*
X194952857Y-79636952D01*
X194952857Y-79779809D01*
X195000476Y-79970285D01*
X195048095Y-80065523D01*
X195143333Y-80160761D01*
X195286190Y-80208380D01*
X195524285Y-80208380D01*
X194095714Y-79541714D02*
X194095714Y-80208380D01*
X194333809Y-79160761D02*
X194571904Y-79875047D01*
X193952857Y-79875047D01*
X193143333Y-79208380D02*
X193333809Y-79208380D01*
X193429047Y-79256000D01*
X193476666Y-79303619D01*
X193571904Y-79446476D01*
X193619523Y-79636952D01*
X193619523Y-80017904D01*
X193571904Y-80113142D01*
X193524285Y-80160761D01*
X193429047Y-80208380D01*
X193238571Y-80208380D01*
X193143333Y-80160761D01*
X193095714Y-80113142D01*
X193048095Y-80017904D01*
X193048095Y-79779809D01*
X193095714Y-79684571D01*
X193143333Y-79636952D01*
X193238571Y-79589333D01*
X193429047Y-79589333D01*
X193524285Y-79636952D01*
X193571904Y-79684571D01*
X193619523Y-79779809D01*
X100338000Y-122428095D02*
X100290380Y-122332857D01*
X100290380Y-122190000D01*
X100338000Y-122047142D01*
X100433238Y-121951904D01*
X100528476Y-121904285D01*
X100718952Y-121856666D01*
X100861809Y-121856666D01*
X101052285Y-121904285D01*
X101147523Y-121951904D01*
X101242761Y-122047142D01*
X101290380Y-122190000D01*
X101290380Y-122285238D01*
X101242761Y-122428095D01*
X101195142Y-122475714D01*
X100861809Y-122475714D01*
X100861809Y-122285238D01*
X101290380Y-122904285D02*
X100290380Y-122904285D01*
X101290380Y-123475714D01*
X100290380Y-123475714D01*
X101290380Y-123951904D02*
X100290380Y-123951904D01*
X100290380Y-124190000D01*
X100338000Y-124332857D01*
X100433238Y-124428095D01*
X100528476Y-124475714D01*
X100718952Y-124523333D01*
X100861809Y-124523333D01*
X101052285Y-124475714D01*
X101147523Y-124428095D01*
X101242761Y-124332857D01*
X101290380Y-124190000D01*
X101290380Y-123951904D01*
X127928666Y-52625714D02*
X127928666Y-53101904D01*
X128214380Y-52530476D02*
X127214380Y-52863809D01*
X128214380Y-53197142D01*
X128214380Y-54054285D02*
X128214380Y-53482857D01*
X128214380Y-53768571D02*
X127214380Y-53768571D01*
X127357238Y-53673333D01*
X127452476Y-53578095D01*
X127500095Y-53482857D01*
X195524285Y-87574380D02*
X195524285Y-86574380D01*
X195286190Y-86574380D01*
X195143333Y-86622000D01*
X195048095Y-86717238D01*
X195000476Y-86812476D01*
X194952857Y-87002952D01*
X194952857Y-87145809D01*
X195000476Y-87336285D01*
X195048095Y-87431523D01*
X195143333Y-87526761D01*
X195286190Y-87574380D01*
X195524285Y-87574380D01*
X194095714Y-86907714D02*
X194095714Y-87574380D01*
X194333809Y-86526761D02*
X194571904Y-87241047D01*
X193952857Y-87241047D01*
X193381428Y-86574380D02*
X193286190Y-86574380D01*
X193190952Y-86622000D01*
X193143333Y-86669619D01*
X193095714Y-86764857D01*
X193048095Y-86955333D01*
X193048095Y-87193428D01*
X193095714Y-87383904D01*
X193143333Y-87479142D01*
X193190952Y-87526761D01*
X193286190Y-87574380D01*
X193381428Y-87574380D01*
X193476666Y-87526761D01*
X193524285Y-87479142D01*
X193571904Y-87383904D01*
X193619523Y-87193428D01*
X193619523Y-86955333D01*
X193571904Y-86764857D01*
X193524285Y-86669619D01*
X193476666Y-86622000D01*
X193381428Y-86574380D01*
X145994380Y-121975714D02*
X144994380Y-121975714D01*
X144994380Y-122213809D01*
X145042000Y-122356666D01*
X145137238Y-122451904D01*
X145232476Y-122499523D01*
X145422952Y-122547142D01*
X145565809Y-122547142D01*
X145756285Y-122499523D01*
X145851523Y-122451904D01*
X145946761Y-122356666D01*
X145994380Y-122213809D01*
X145994380Y-121975714D01*
X145994380Y-123499523D02*
X145994380Y-122928095D01*
X145994380Y-123213809D02*
X144994380Y-123213809D01*
X145137238Y-123118571D01*
X145232476Y-123023333D01*
X145280095Y-122928095D01*
X144994380Y-124404285D02*
X144994380Y-123928095D01*
X145470571Y-123880476D01*
X145422952Y-123928095D01*
X145375333Y-124023333D01*
X145375333Y-124261428D01*
X145422952Y-124356666D01*
X145470571Y-124404285D01*
X145565809Y-124451904D01*
X145803904Y-124451904D01*
X145899142Y-124404285D01*
X145946761Y-124356666D01*
X145994380Y-124261428D01*
X145994380Y-124023333D01*
X145946761Y-123928095D01*
X145899142Y-123880476D01*
X189682285Y-100274380D02*
X189682285Y-99274380D01*
X189444190Y-99274380D01*
X189301333Y-99322000D01*
X189206095Y-99417238D01*
X189158476Y-99512476D01*
X189110857Y-99702952D01*
X189110857Y-99845809D01*
X189158476Y-100036285D01*
X189206095Y-100131523D01*
X189301333Y-100226761D01*
X189444190Y-100274380D01*
X189682285Y-100274380D01*
X188777523Y-99274380D02*
X188158476Y-99274380D01*
X188491809Y-99655333D01*
X188348952Y-99655333D01*
X188253714Y-99702952D01*
X188206095Y-99750571D01*
X188158476Y-99845809D01*
X188158476Y-100083904D01*
X188206095Y-100179142D01*
X188253714Y-100226761D01*
X188348952Y-100274380D01*
X188634666Y-100274380D01*
X188729904Y-100226761D01*
X188777523Y-100179142D01*
X187206095Y-100274380D02*
X187777523Y-100274380D01*
X187491809Y-100274380D02*
X187491809Y-99274380D01*
X187587047Y-99417238D01*
X187682285Y-99512476D01*
X187777523Y-99560095D01*
X109434380Y-51847904D02*
X109434380Y-52466952D01*
X109815333Y-52133619D01*
X109815333Y-52276476D01*
X109862952Y-52371714D01*
X109910571Y-52419333D01*
X110005809Y-52466952D01*
X110243904Y-52466952D01*
X110339142Y-52419333D01*
X110386761Y-52371714D01*
X110434380Y-52276476D01*
X110434380Y-51990761D01*
X110386761Y-51895523D01*
X110339142Y-51847904D01*
X109434380Y-52752666D02*
X110434380Y-53086000D01*
X109434380Y-53419333D01*
X109434380Y-53657428D02*
X109434380Y-54276476D01*
X109815333Y-53943142D01*
X109815333Y-54086000D01*
X109862952Y-54181238D01*
X109910571Y-54228857D01*
X110005809Y-54276476D01*
X110243904Y-54276476D01*
X110339142Y-54228857D01*
X110386761Y-54181238D01*
X110434380Y-54086000D01*
X110434380Y-53800285D01*
X110386761Y-53705047D01*
X110339142Y-53657428D01*
X158694380Y-121975714D02*
X157694380Y-121975714D01*
X157694380Y-122213809D01*
X157742000Y-122356666D01*
X157837238Y-122451904D01*
X157932476Y-122499523D01*
X158122952Y-122547142D01*
X158265809Y-122547142D01*
X158456285Y-122499523D01*
X158551523Y-122451904D01*
X158646761Y-122356666D01*
X158694380Y-122213809D01*
X158694380Y-121975714D01*
X157789619Y-122928095D02*
X157742000Y-122975714D01*
X157694380Y-123070952D01*
X157694380Y-123309047D01*
X157742000Y-123404285D01*
X157789619Y-123451904D01*
X157884857Y-123499523D01*
X157980095Y-123499523D01*
X158122952Y-123451904D01*
X158694380Y-122880476D01*
X158694380Y-123499523D01*
X157694380Y-124118571D02*
X157694380Y-124213809D01*
X157742000Y-124309047D01*
X157789619Y-124356666D01*
X157884857Y-124404285D01*
X158075333Y-124451904D01*
X158313428Y-124451904D01*
X158503904Y-124404285D01*
X158599142Y-124356666D01*
X158646761Y-124309047D01*
X158694380Y-124213809D01*
X158694380Y-124118571D01*
X158646761Y-124023333D01*
X158599142Y-123975714D01*
X158503904Y-123928095D01*
X158313428Y-123880476D01*
X158075333Y-123880476D01*
X157884857Y-123928095D01*
X157789619Y-123975714D01*
X157742000Y-124023333D01*
X157694380Y-124118571D01*
X133866000Y-84074095D02*
X133818380Y-83978857D01*
X133818380Y-83836000D01*
X133866000Y-83693142D01*
X133961238Y-83597904D01*
X134056476Y-83550285D01*
X134246952Y-83502666D01*
X134389809Y-83502666D01*
X134580285Y-83550285D01*
X134675523Y-83597904D01*
X134770761Y-83693142D01*
X134818380Y-83836000D01*
X134818380Y-83931238D01*
X134770761Y-84074095D01*
X134723142Y-84121714D01*
X134389809Y-84121714D01*
X134389809Y-83931238D01*
X134818380Y-84550285D02*
X133818380Y-84550285D01*
X134818380Y-85121714D01*
X133818380Y-85121714D01*
X134818380Y-85597904D02*
X133818380Y-85597904D01*
X133818380Y-85836000D01*
X133866000Y-85978857D01*
X133961238Y-86074095D01*
X134056476Y-86121714D01*
X134246952Y-86169333D01*
X134389809Y-86169333D01*
X134580285Y-86121714D01*
X134675523Y-86074095D01*
X134770761Y-85978857D01*
X134818380Y-85836000D01*
X134818380Y-85597904D01*
X161234380Y-121975714D02*
X160234380Y-121975714D01*
X160234380Y-122213809D01*
X160282000Y-122356666D01*
X160377238Y-122451904D01*
X160472476Y-122499523D01*
X160662952Y-122547142D01*
X160805809Y-122547142D01*
X160996285Y-122499523D01*
X161091523Y-122451904D01*
X161186761Y-122356666D01*
X161234380Y-122213809D01*
X161234380Y-121975714D01*
X160329619Y-122928095D02*
X160282000Y-122975714D01*
X160234380Y-123070952D01*
X160234380Y-123309047D01*
X160282000Y-123404285D01*
X160329619Y-123451904D01*
X160424857Y-123499523D01*
X160520095Y-123499523D01*
X160662952Y-123451904D01*
X161234380Y-122880476D01*
X161234380Y-123499523D01*
X161234380Y-124451904D02*
X161234380Y-123880476D01*
X161234380Y-124166190D02*
X160234380Y-124166190D01*
X160377238Y-124070952D01*
X160472476Y-123975714D01*
X160520095Y-123880476D01*
X195524285Y-95194380D02*
X195524285Y-94194380D01*
X195286190Y-94194380D01*
X195143333Y-94242000D01*
X195048095Y-94337238D01*
X195000476Y-94432476D01*
X194952857Y-94622952D01*
X194952857Y-94765809D01*
X195000476Y-94956285D01*
X195048095Y-95051523D01*
X195143333Y-95146761D01*
X195286190Y-95194380D01*
X195524285Y-95194380D01*
X194619523Y-94194380D02*
X194000476Y-94194380D01*
X194333809Y-94575333D01*
X194190952Y-94575333D01*
X194095714Y-94622952D01*
X194048095Y-94670571D01*
X194000476Y-94765809D01*
X194000476Y-95003904D01*
X194048095Y-95099142D01*
X194095714Y-95146761D01*
X194190952Y-95194380D01*
X194476666Y-95194380D01*
X194571904Y-95146761D01*
X194619523Y-95099142D01*
X193143333Y-94527714D02*
X193143333Y-95194380D01*
X193381428Y-94146761D02*
X193619523Y-94861047D01*
X193000476Y-94861047D01*
X150788666Y-52625714D02*
X150788666Y-53101904D01*
X151074380Y-52530476D02*
X150074380Y-52863809D01*
X151074380Y-53197142D01*
X151074380Y-53578095D02*
X151074380Y-53768571D01*
X151026761Y-53863809D01*
X150979142Y-53911428D01*
X150836285Y-54006666D01*
X150645809Y-54054285D01*
X150264857Y-54054285D01*
X150169619Y-54006666D01*
X150122000Y-53959047D01*
X150074380Y-53863809D01*
X150074380Y-53673333D01*
X150122000Y-53578095D01*
X150169619Y-53530476D01*
X150264857Y-53482857D01*
X150502952Y-53482857D01*
X150598190Y-53530476D01*
X150645809Y-53578095D01*
X150693428Y-53673333D01*
X150693428Y-53863809D01*
X150645809Y-53959047D01*
X150598190Y-54006666D01*
X150502952Y-54054285D01*
X195071904Y-68842000D02*
X195167142Y-68794380D01*
X195310000Y-68794380D01*
X195452857Y-68842000D01*
X195548095Y-68937238D01*
X195595714Y-69032476D01*
X195643333Y-69222952D01*
X195643333Y-69365809D01*
X195595714Y-69556285D01*
X195548095Y-69651523D01*
X195452857Y-69746761D01*
X195310000Y-69794380D01*
X195214761Y-69794380D01*
X195071904Y-69746761D01*
X195024285Y-69699142D01*
X195024285Y-69365809D01*
X195214761Y-69365809D01*
X194595714Y-69794380D02*
X194595714Y-68794380D01*
X194024285Y-69794380D01*
X194024285Y-68794380D01*
X193548095Y-69794380D02*
X193548095Y-68794380D01*
X193310000Y-68794380D01*
X193167142Y-68842000D01*
X193071904Y-68937238D01*
X193024285Y-69032476D01*
X192976666Y-69222952D01*
X192976666Y-69365809D01*
X193024285Y-69556285D01*
X193071904Y-69651523D01*
X193167142Y-69746761D01*
X193310000Y-69794380D01*
X193548095Y-69794380D01*
X189682285Y-105354380D02*
X189682285Y-104354380D01*
X189444190Y-104354380D01*
X189301333Y-104402000D01*
X189206095Y-104497238D01*
X189158476Y-104592476D01*
X189110857Y-104782952D01*
X189110857Y-104925809D01*
X189158476Y-105116285D01*
X189206095Y-105211523D01*
X189301333Y-105306761D01*
X189444190Y-105354380D01*
X189682285Y-105354380D01*
X188729904Y-104449619D02*
X188682285Y-104402000D01*
X188587047Y-104354380D01*
X188348952Y-104354380D01*
X188253714Y-104402000D01*
X188206095Y-104449619D01*
X188158476Y-104544857D01*
X188158476Y-104640095D01*
X188206095Y-104782952D01*
X188777523Y-105354380D01*
X188158476Y-105354380D01*
X187825142Y-104354380D02*
X187158476Y-104354380D01*
X187587047Y-105354380D01*
X143168666Y-52625714D02*
X143168666Y-53101904D01*
X143454380Y-52530476D02*
X142454380Y-52863809D01*
X143454380Y-53197142D01*
X142454380Y-53435238D02*
X142454380Y-54101904D01*
X143454380Y-53673333D01*
X105354380Y-51633619D02*
X104354380Y-51633619D01*
X104354380Y-52300285D02*
X104354380Y-52490761D01*
X104402000Y-52586000D01*
X104497238Y-52681238D01*
X104687714Y-52728857D01*
X105021047Y-52728857D01*
X105211523Y-52681238D01*
X105306761Y-52586000D01*
X105354380Y-52490761D01*
X105354380Y-52300285D01*
X105306761Y-52205047D01*
X105211523Y-52109809D01*
X105021047Y-52062190D01*
X104687714Y-52062190D01*
X104497238Y-52109809D01*
X104402000Y-52205047D01*
X104354380Y-52300285D01*
X105354380Y-53728857D02*
X104878190Y-53395523D01*
X105354380Y-53157428D02*
X104354380Y-53157428D01*
X104354380Y-53538380D01*
X104402000Y-53633619D01*
X104449619Y-53681238D01*
X104544857Y-53728857D01*
X104687714Y-53728857D01*
X104782952Y-53681238D01*
X104830571Y-53633619D01*
X104878190Y-53538380D01*
X104878190Y-53157428D01*
X104830571Y-54490761D02*
X104830571Y-54157428D01*
X105354380Y-54157428D02*
X104354380Y-54157428D01*
X104354380Y-54633619D01*
X195524285Y-75128380D02*
X195524285Y-74128380D01*
X195286190Y-74128380D01*
X195143333Y-74176000D01*
X195048095Y-74271238D01*
X195000476Y-74366476D01*
X194952857Y-74556952D01*
X194952857Y-74699809D01*
X195000476Y-74890285D01*
X195048095Y-74985523D01*
X195143333Y-75080761D01*
X195286190Y-75128380D01*
X195524285Y-75128380D01*
X194048095Y-74128380D02*
X194524285Y-74128380D01*
X194571904Y-74604571D01*
X194524285Y-74556952D01*
X194429047Y-74509333D01*
X194190952Y-74509333D01*
X194095714Y-74556952D01*
X194048095Y-74604571D01*
X194000476Y-74699809D01*
X194000476Y-74937904D01*
X194048095Y-75033142D01*
X194095714Y-75080761D01*
X194190952Y-75128380D01*
X194429047Y-75128380D01*
X194524285Y-75080761D01*
X194571904Y-75033142D01*
X193381428Y-74128380D02*
X193286190Y-74128380D01*
X193190952Y-74176000D01*
X193143333Y-74223619D01*
X193095714Y-74318857D01*
X193048095Y-74509333D01*
X193048095Y-74747428D01*
X193095714Y-74937904D01*
X193143333Y-75033142D01*
X193190952Y-75080761D01*
X193286190Y-75128380D01*
X193381428Y-75128380D01*
X193476666Y-75080761D01*
X193524285Y-75033142D01*
X193571904Y-74937904D01*
X193619523Y-74747428D01*
X193619523Y-74509333D01*
X193571904Y-74318857D01*
X193524285Y-74223619D01*
X193476666Y-74176000D01*
X193381428Y-74128380D01*
X133008666Y-52625714D02*
X133008666Y-53101904D01*
X133294380Y-52530476D02*
X132294380Y-52863809D01*
X133294380Y-53197142D01*
X132294380Y-53435238D02*
X132294380Y-54054285D01*
X132675333Y-53720952D01*
X132675333Y-53863809D01*
X132722952Y-53959047D01*
X132770571Y-54006666D01*
X132865809Y-54054285D01*
X133103904Y-54054285D01*
X133199142Y-54006666D01*
X133246761Y-53959047D01*
X133294380Y-53863809D01*
X133294380Y-53578095D01*
X133246761Y-53482857D01*
X133199142Y-53435238D01*
X189229904Y-68842000D02*
X189325142Y-68794380D01*
X189468000Y-68794380D01*
X189610857Y-68842000D01*
X189706095Y-68937238D01*
X189753714Y-69032476D01*
X189801333Y-69222952D01*
X189801333Y-69365809D01*
X189753714Y-69556285D01*
X189706095Y-69651523D01*
X189610857Y-69746761D01*
X189468000Y-69794380D01*
X189372761Y-69794380D01*
X189229904Y-69746761D01*
X189182285Y-69699142D01*
X189182285Y-69365809D01*
X189372761Y-69365809D01*
X188753714Y-69794380D02*
X188753714Y-68794380D01*
X188182285Y-69794380D01*
X188182285Y-68794380D01*
X187706095Y-69794380D02*
X187706095Y-68794380D01*
X187468000Y-68794380D01*
X187325142Y-68842000D01*
X187229904Y-68937238D01*
X187182285Y-69032476D01*
X187134666Y-69222952D01*
X187134666Y-69365809D01*
X187182285Y-69556285D01*
X187229904Y-69651523D01*
X187325142Y-69746761D01*
X187468000Y-69794380D01*
X187706095Y-69794380D01*
X195524285Y-92654380D02*
X195524285Y-91654380D01*
X195286190Y-91654380D01*
X195143333Y-91702000D01*
X195048095Y-91797238D01*
X195000476Y-91892476D01*
X194952857Y-92082952D01*
X194952857Y-92225809D01*
X195000476Y-92416285D01*
X195048095Y-92511523D01*
X195143333Y-92606761D01*
X195286190Y-92654380D01*
X195524285Y-92654380D01*
X194619523Y-91654380D02*
X194000476Y-91654380D01*
X194333809Y-92035333D01*
X194190952Y-92035333D01*
X194095714Y-92082952D01*
X194048095Y-92130571D01*
X194000476Y-92225809D01*
X194000476Y-92463904D01*
X194048095Y-92559142D01*
X194095714Y-92606761D01*
X194190952Y-92654380D01*
X194476666Y-92654380D01*
X194571904Y-92606761D01*
X194619523Y-92559142D01*
X193143333Y-91654380D02*
X193333809Y-91654380D01*
X193429047Y-91702000D01*
X193476666Y-91749619D01*
X193571904Y-91892476D01*
X193619523Y-92082952D01*
X193619523Y-92463904D01*
X193571904Y-92559142D01*
X193524285Y-92606761D01*
X193429047Y-92654380D01*
X193238571Y-92654380D01*
X193143333Y-92606761D01*
X193095714Y-92559142D01*
X193048095Y-92463904D01*
X193048095Y-92225809D01*
X193095714Y-92130571D01*
X193143333Y-92082952D01*
X193238571Y-92035333D01*
X193429047Y-92035333D01*
X193524285Y-92082952D01*
X193571904Y-92130571D01*
X193619523Y-92225809D01*
X189682285Y-102814380D02*
X189682285Y-101814380D01*
X189444190Y-101814380D01*
X189301333Y-101862000D01*
X189206095Y-101957238D01*
X189158476Y-102052476D01*
X189110857Y-102242952D01*
X189110857Y-102385809D01*
X189158476Y-102576285D01*
X189206095Y-102671523D01*
X189301333Y-102766761D01*
X189444190Y-102814380D01*
X189682285Y-102814380D01*
X188729904Y-101909619D02*
X188682285Y-101862000D01*
X188587047Y-101814380D01*
X188348952Y-101814380D01*
X188253714Y-101862000D01*
X188206095Y-101909619D01*
X188158476Y-102004857D01*
X188158476Y-102100095D01*
X188206095Y-102242952D01*
X188777523Y-102814380D01*
X188158476Y-102814380D01*
X187682285Y-102814380D02*
X187491809Y-102814380D01*
X187396571Y-102766761D01*
X187348952Y-102719142D01*
X187253714Y-102576285D01*
X187206095Y-102385809D01*
X187206095Y-102004857D01*
X187253714Y-101909619D01*
X187301333Y-101862000D01*
X187396571Y-101814380D01*
X187587047Y-101814380D01*
X187682285Y-101862000D01*
X187729904Y-101909619D01*
X187777523Y-102004857D01*
X187777523Y-102242952D01*
X187729904Y-102338190D01*
X187682285Y-102385809D01*
X187587047Y-102433428D01*
X187396571Y-102433428D01*
X187301333Y-102385809D01*
X187253714Y-102338190D01*
X187206095Y-102242952D01*
X207367142Y-76946857D02*
X207414761Y-76899238D01*
X207462380Y-76756380D01*
X207462380Y-76661142D01*
X207414761Y-76518285D01*
X207319523Y-76423047D01*
X207224285Y-76375428D01*
X207033809Y-76327809D01*
X206890952Y-76327809D01*
X206700476Y-76375428D01*
X206605238Y-76423047D01*
X206510000Y-76518285D01*
X206462380Y-76661142D01*
X206462380Y-76756380D01*
X206510000Y-76899238D01*
X206557619Y-76946857D01*
X206462380Y-77565904D02*
X206462380Y-77756380D01*
X206510000Y-77851619D01*
X206605238Y-77946857D01*
X206795714Y-77994476D01*
X207129047Y-77994476D01*
X207319523Y-77946857D01*
X207414761Y-77851619D01*
X207462380Y-77756380D01*
X207462380Y-77565904D01*
X207414761Y-77470666D01*
X207319523Y-77375428D01*
X207129047Y-77327809D01*
X206795714Y-77327809D01*
X206605238Y-77375428D01*
X206510000Y-77470666D01*
X206462380Y-77565904D01*
X207462380Y-78423047D02*
X206462380Y-78423047D01*
X207462380Y-78994476D01*
X206462380Y-78994476D01*
X207462380Y-79470666D02*
X206462380Y-79470666D01*
X207462380Y-80042095D01*
X206462380Y-80042095D01*
X207557619Y-80280190D02*
X207557619Y-81042095D01*
X207462380Y-81851619D02*
X206986190Y-81518285D01*
X207462380Y-81280190D02*
X206462380Y-81280190D01*
X206462380Y-81661142D01*
X206510000Y-81756380D01*
X206557619Y-81804000D01*
X206652857Y-81851619D01*
X206795714Y-81851619D01*
X206890952Y-81804000D01*
X206938571Y-81756380D01*
X206986190Y-81661142D01*
X206986190Y-81280190D01*
X207462380Y-82280190D02*
X206462380Y-82280190D01*
X207367142Y-83327809D02*
X207414761Y-83280190D01*
X207462380Y-83137333D01*
X207462380Y-83042095D01*
X207414761Y-82899238D01*
X207319523Y-82804000D01*
X207224285Y-82756380D01*
X207033809Y-82708761D01*
X206890952Y-82708761D01*
X206700476Y-82756380D01*
X206605238Y-82804000D01*
X206510000Y-82899238D01*
X206462380Y-83042095D01*
X206462380Y-83137333D01*
X206510000Y-83280190D01*
X206557619Y-83327809D01*
X206938571Y-83756380D02*
X206938571Y-84089714D01*
X207462380Y-84232571D02*
X207462380Y-83756380D01*
X206462380Y-83756380D01*
X206462380Y-84232571D01*
X206462380Y-84518285D02*
X207462380Y-84851619D01*
X206462380Y-85184952D01*
X207462380Y-85518285D02*
X206462380Y-85518285D01*
X206462380Y-85851619D02*
X206462380Y-86423047D01*
X207462380Y-86137333D02*
X206462380Y-86137333D01*
X206462380Y-86946857D02*
X206462380Y-87137333D01*
X206510000Y-87232571D01*
X206605238Y-87327809D01*
X206795714Y-87375428D01*
X207129047Y-87375428D01*
X207319523Y-87327809D01*
X207414761Y-87232571D01*
X207462380Y-87137333D01*
X207462380Y-86946857D01*
X207414761Y-86851619D01*
X207319523Y-86756380D01*
X207129047Y-86708761D01*
X206795714Y-86708761D01*
X206605238Y-86756380D01*
X206510000Y-86851619D01*
X206462380Y-86946857D01*
X207462380Y-88375428D02*
X206986190Y-88042095D01*
X207462380Y-87804000D02*
X206462380Y-87804000D01*
X206462380Y-88184952D01*
X206510000Y-88280190D01*
X206557619Y-88327809D01*
X206652857Y-88375428D01*
X206795714Y-88375428D01*
X206890952Y-88327809D01*
X206938571Y-88280190D01*
X206986190Y-88184952D01*
X206986190Y-87804000D01*
X206938571Y-88804000D02*
X206938571Y-89137333D01*
X207462380Y-89280190D02*
X207462380Y-88804000D01*
X206462380Y-88804000D01*
X206462380Y-89280190D01*
X195524285Y-110434380D02*
X195524285Y-109434380D01*
X195286190Y-109434380D01*
X195143333Y-109482000D01*
X195048095Y-109577238D01*
X195000476Y-109672476D01*
X194952857Y-109862952D01*
X194952857Y-110005809D01*
X195000476Y-110196285D01*
X195048095Y-110291523D01*
X195143333Y-110386761D01*
X195286190Y-110434380D01*
X195524285Y-110434380D01*
X194571904Y-109529619D02*
X194524285Y-109482000D01*
X194429047Y-109434380D01*
X194190952Y-109434380D01*
X194095714Y-109482000D01*
X194048095Y-109529619D01*
X194000476Y-109624857D01*
X194000476Y-109720095D01*
X194048095Y-109862952D01*
X194619523Y-110434380D01*
X194000476Y-110434380D01*
X193619523Y-109529619D02*
X193571904Y-109482000D01*
X193476666Y-109434380D01*
X193238571Y-109434380D01*
X193143333Y-109482000D01*
X193095714Y-109529619D01*
X193048095Y-109624857D01*
X193048095Y-109720095D01*
X193095714Y-109862952D01*
X193667142Y-110434380D01*
X193048095Y-110434380D01*
X135548666Y-52625714D02*
X135548666Y-53101904D01*
X135834380Y-52530476D02*
X134834380Y-52863809D01*
X135834380Y-53197142D01*
X135167714Y-53959047D02*
X135834380Y-53959047D01*
X134786761Y-53720952D02*
X135501047Y-53482857D01*
X135501047Y-54101904D01*
X103830380Y-121975714D02*
X102830380Y-121975714D01*
X102830380Y-122213809D01*
X102878000Y-122356666D01*
X102973238Y-122451904D01*
X103068476Y-122499523D01*
X103258952Y-122547142D01*
X103401809Y-122547142D01*
X103592285Y-122499523D01*
X103687523Y-122451904D01*
X103782761Y-122356666D01*
X103830380Y-122213809D01*
X103830380Y-121975714D01*
X103830380Y-123499523D02*
X103830380Y-122928095D01*
X103830380Y-123213809D02*
X102830380Y-123213809D01*
X102973238Y-123118571D01*
X103068476Y-123023333D01*
X103116095Y-122928095D01*
X102830380Y-123832857D02*
X102830380Y-124451904D01*
X103211333Y-124118571D01*
X103211333Y-124261428D01*
X103258952Y-124356666D01*
X103306571Y-124404285D01*
X103401809Y-124451904D01*
X103639904Y-124451904D01*
X103735142Y-124404285D01*
X103782761Y-124356666D01*
X103830380Y-124261428D01*
X103830380Y-123975714D01*
X103782761Y-123880476D01*
X103735142Y-123832857D01*
X189682285Y-90114380D02*
X189682285Y-89114380D01*
X189444190Y-89114380D01*
X189301333Y-89162000D01*
X189206095Y-89257238D01*
X189158476Y-89352476D01*
X189110857Y-89542952D01*
X189110857Y-89685809D01*
X189158476Y-89876285D01*
X189206095Y-89971523D01*
X189301333Y-90066761D01*
X189444190Y-90114380D01*
X189682285Y-90114380D01*
X188777523Y-89114380D02*
X188158476Y-89114380D01*
X188491809Y-89495333D01*
X188348952Y-89495333D01*
X188253714Y-89542952D01*
X188206095Y-89590571D01*
X188158476Y-89685809D01*
X188158476Y-89923904D01*
X188206095Y-90019142D01*
X188253714Y-90066761D01*
X188348952Y-90114380D01*
X188634666Y-90114380D01*
X188729904Y-90066761D01*
X188777523Y-90019142D01*
X187682285Y-90114380D02*
X187491809Y-90114380D01*
X187396571Y-90066761D01*
X187348952Y-90019142D01*
X187253714Y-89876285D01*
X187206095Y-89685809D01*
X187206095Y-89304857D01*
X187253714Y-89209619D01*
X187301333Y-89162000D01*
X187396571Y-89114380D01*
X187587047Y-89114380D01*
X187682285Y-89162000D01*
X187729904Y-89209619D01*
X187777523Y-89304857D01*
X187777523Y-89542952D01*
X187729904Y-89638190D01*
X187682285Y-89685809D01*
X187587047Y-89733428D01*
X187396571Y-89733428D01*
X187301333Y-89685809D01*
X187253714Y-89638190D01*
X187206095Y-89542952D01*
X96162761Y-121499523D02*
X96210380Y-121642380D01*
X96210380Y-121880476D01*
X96162761Y-121975714D01*
X96115142Y-122023333D01*
X96019904Y-122070952D01*
X95924666Y-122070952D01*
X95829428Y-122023333D01*
X95781809Y-121975714D01*
X95734190Y-121880476D01*
X95686571Y-121690000D01*
X95638952Y-121594761D01*
X95591333Y-121547142D01*
X95496095Y-121499523D01*
X95400857Y-121499523D01*
X95305619Y-121547142D01*
X95258000Y-121594761D01*
X95210380Y-121690000D01*
X95210380Y-121928095D01*
X95258000Y-122070952D01*
X96210380Y-122499523D02*
X95210380Y-122499523D01*
X95210380Y-122737619D01*
X95258000Y-122880476D01*
X95353238Y-122975714D01*
X95448476Y-123023333D01*
X95638952Y-123070952D01*
X95781809Y-123070952D01*
X95972285Y-123023333D01*
X96067523Y-122975714D01*
X96162761Y-122880476D01*
X96210380Y-122737619D01*
X96210380Y-122499523D01*
X95924666Y-123451904D02*
X95924666Y-123928095D01*
X96210380Y-123356666D02*
X95210380Y-123690000D01*
X96210380Y-124023333D01*
X96210380Y-124880476D02*
X96210380Y-124309047D01*
X96210380Y-124594761D02*
X95210380Y-124594761D01*
X95353238Y-124499523D01*
X95448476Y-124404285D01*
X95496095Y-124309047D01*
X189682285Y-80208380D02*
X189682285Y-79208380D01*
X189444190Y-79208380D01*
X189301333Y-79256000D01*
X189206095Y-79351238D01*
X189158476Y-79446476D01*
X189110857Y-79636952D01*
X189110857Y-79779809D01*
X189158476Y-79970285D01*
X189206095Y-80065523D01*
X189301333Y-80160761D01*
X189444190Y-80208380D01*
X189682285Y-80208380D01*
X188253714Y-79541714D02*
X188253714Y-80208380D01*
X188491809Y-79160761D02*
X188729904Y-79875047D01*
X188110857Y-79875047D01*
X187825142Y-79208380D02*
X187158476Y-79208380D01*
X187587047Y-80208380D01*
X132230761Y-88122285D02*
X132278380Y-88265142D01*
X132278380Y-88503238D01*
X132230761Y-88598476D01*
X132183142Y-88646095D01*
X132087904Y-88693714D01*
X131992666Y-88693714D01*
X131897428Y-88646095D01*
X131849809Y-88598476D01*
X131802190Y-88503238D01*
X131754571Y-88312761D01*
X131706952Y-88217523D01*
X131659333Y-88169904D01*
X131564095Y-88122285D01*
X131468857Y-88122285D01*
X131373619Y-88169904D01*
X131326000Y-88217523D01*
X131278380Y-88312761D01*
X131278380Y-88550857D01*
X131326000Y-88693714D01*
X132183142Y-89693714D02*
X132230761Y-89646095D01*
X132278380Y-89503238D01*
X132278380Y-89408000D01*
X132230761Y-89265142D01*
X132135523Y-89169904D01*
X132040285Y-89122285D01*
X131849809Y-89074666D01*
X131706952Y-89074666D01*
X131516476Y-89122285D01*
X131421238Y-89169904D01*
X131326000Y-89265142D01*
X131278380Y-89408000D01*
X131278380Y-89503238D01*
X131326000Y-89646095D01*
X131373619Y-89693714D01*
X132278380Y-90122285D02*
X131278380Y-90122285D01*
X132278380Y-90693714D02*
X131706952Y-90265142D01*
X131278380Y-90693714D02*
X131849809Y-90122285D01*
X132278380Y-83812190D02*
X131802190Y-83478857D01*
X132278380Y-83240761D02*
X131278380Y-83240761D01*
X131278380Y-83621714D01*
X131326000Y-83716952D01*
X131373619Y-83764571D01*
X131468857Y-83812190D01*
X131611714Y-83812190D01*
X131706952Y-83764571D01*
X131754571Y-83716952D01*
X131802190Y-83621714D01*
X131802190Y-83240761D01*
X132230761Y-84193142D02*
X132278380Y-84336000D01*
X132278380Y-84574095D01*
X132230761Y-84669333D01*
X132183142Y-84716952D01*
X132087904Y-84764571D01*
X131992666Y-84764571D01*
X131897428Y-84716952D01*
X131849809Y-84669333D01*
X131802190Y-84574095D01*
X131754571Y-84383619D01*
X131706952Y-84288380D01*
X131659333Y-84240761D01*
X131564095Y-84193142D01*
X131468857Y-84193142D01*
X131373619Y-84240761D01*
X131326000Y-84288380D01*
X131278380Y-84383619D01*
X131278380Y-84621714D01*
X131326000Y-84764571D01*
X131278380Y-85050285D02*
X131278380Y-85621714D01*
X132278380Y-85336000D02*
X131278380Y-85336000D01*
X131373619Y-85907428D02*
X131326000Y-85955047D01*
X131278380Y-86050285D01*
X131278380Y-86288380D01*
X131326000Y-86383619D01*
X131373619Y-86431238D01*
X131468857Y-86478857D01*
X131564095Y-86478857D01*
X131706952Y-86431238D01*
X132278380Y-85859809D01*
X132278380Y-86478857D01*
X195524285Y-97734380D02*
X195524285Y-96734380D01*
X195286190Y-96734380D01*
X195143333Y-96782000D01*
X195048095Y-96877238D01*
X195000476Y-96972476D01*
X194952857Y-97162952D01*
X194952857Y-97305809D01*
X195000476Y-97496285D01*
X195048095Y-97591523D01*
X195143333Y-97686761D01*
X195286190Y-97734380D01*
X195524285Y-97734380D01*
X194619523Y-96734380D02*
X194000476Y-96734380D01*
X194333809Y-97115333D01*
X194190952Y-97115333D01*
X194095714Y-97162952D01*
X194048095Y-97210571D01*
X194000476Y-97305809D01*
X194000476Y-97543904D01*
X194048095Y-97639142D01*
X194095714Y-97686761D01*
X194190952Y-97734380D01*
X194476666Y-97734380D01*
X194571904Y-97686761D01*
X194619523Y-97639142D01*
X193619523Y-96829619D02*
X193571904Y-96782000D01*
X193476666Y-96734380D01*
X193238571Y-96734380D01*
X193143333Y-96782000D01*
X193095714Y-96829619D01*
X193048095Y-96924857D01*
X193048095Y-97020095D01*
X193095714Y-97162952D01*
X193667142Y-97734380D01*
X193048095Y-97734380D01*
X189753714Y-112593428D02*
X188991809Y-112593428D01*
X189372761Y-112974380D02*
X189372761Y-112212476D01*
X188039428Y-111974380D02*
X188515619Y-111974380D01*
X188563238Y-112450571D01*
X188515619Y-112402952D01*
X188420380Y-112355333D01*
X188182285Y-112355333D01*
X188087047Y-112402952D01*
X188039428Y-112450571D01*
X187991809Y-112545809D01*
X187991809Y-112783904D01*
X188039428Y-112879142D01*
X188087047Y-112926761D01*
X188182285Y-112974380D01*
X188420380Y-112974380D01*
X188515619Y-112926761D01*
X188563238Y-112879142D01*
X187706095Y-111974380D02*
X187372761Y-112974380D01*
X187039428Y-111974380D01*
X189682285Y-107894380D02*
X189682285Y-106894380D01*
X189444190Y-106894380D01*
X189301333Y-106942000D01*
X189206095Y-107037238D01*
X189158476Y-107132476D01*
X189110857Y-107322952D01*
X189110857Y-107465809D01*
X189158476Y-107656285D01*
X189206095Y-107751523D01*
X189301333Y-107846761D01*
X189444190Y-107894380D01*
X189682285Y-107894380D01*
X188729904Y-106989619D02*
X188682285Y-106942000D01*
X188587047Y-106894380D01*
X188348952Y-106894380D01*
X188253714Y-106942000D01*
X188206095Y-106989619D01*
X188158476Y-107084857D01*
X188158476Y-107180095D01*
X188206095Y-107322952D01*
X188777523Y-107894380D01*
X188158476Y-107894380D01*
X187253714Y-106894380D02*
X187729904Y-106894380D01*
X187777523Y-107370571D01*
X187729904Y-107322952D01*
X187634666Y-107275333D01*
X187396571Y-107275333D01*
X187301333Y-107322952D01*
X187253714Y-107370571D01*
X187206095Y-107465809D01*
X187206095Y-107703904D01*
X187253714Y-107799142D01*
X187301333Y-107846761D01*
X187396571Y-107894380D01*
X187634666Y-107894380D01*
X187729904Y-107846761D01*
X187777523Y-107799142D01*
X195524285Y-102814380D02*
X195524285Y-101814380D01*
X195286190Y-101814380D01*
X195143333Y-101862000D01*
X195048095Y-101957238D01*
X195000476Y-102052476D01*
X194952857Y-102242952D01*
X194952857Y-102385809D01*
X195000476Y-102576285D01*
X195048095Y-102671523D01*
X195143333Y-102766761D01*
X195286190Y-102814380D01*
X195524285Y-102814380D01*
X194571904Y-101909619D02*
X194524285Y-101862000D01*
X194429047Y-101814380D01*
X194190952Y-101814380D01*
X194095714Y-101862000D01*
X194048095Y-101909619D01*
X194000476Y-102004857D01*
X194000476Y-102100095D01*
X194048095Y-102242952D01*
X194619523Y-102814380D01*
X194000476Y-102814380D01*
X193429047Y-102242952D02*
X193524285Y-102195333D01*
X193571904Y-102147714D01*
X193619523Y-102052476D01*
X193619523Y-102004857D01*
X193571904Y-101909619D01*
X193524285Y-101862000D01*
X193429047Y-101814380D01*
X193238571Y-101814380D01*
X193143333Y-101862000D01*
X193095714Y-101909619D01*
X193048095Y-102004857D01*
X193048095Y-102052476D01*
X193095714Y-102147714D01*
X193143333Y-102195333D01*
X193238571Y-102242952D01*
X193429047Y-102242952D01*
X193524285Y-102290571D01*
X193571904Y-102338190D01*
X193619523Y-102433428D01*
X193619523Y-102623904D01*
X193571904Y-102719142D01*
X193524285Y-102766761D01*
X193429047Y-102814380D01*
X193238571Y-102814380D01*
X193143333Y-102766761D01*
X193095714Y-102719142D01*
X193048095Y-102623904D01*
X193048095Y-102433428D01*
X193095714Y-102338190D01*
X193143333Y-102290571D01*
X193238571Y-102242952D01*
X189682285Y-85288380D02*
X189682285Y-84288380D01*
X189444190Y-84288380D01*
X189301333Y-84336000D01*
X189206095Y-84431238D01*
X189158476Y-84526476D01*
X189110857Y-84716952D01*
X189110857Y-84859809D01*
X189158476Y-85050285D01*
X189206095Y-85145523D01*
X189301333Y-85240761D01*
X189444190Y-85288380D01*
X189682285Y-85288380D01*
X188253714Y-84621714D02*
X188253714Y-85288380D01*
X188491809Y-84240761D02*
X188729904Y-84955047D01*
X188110857Y-84955047D01*
X187825142Y-84288380D02*
X187206095Y-84288380D01*
X187539428Y-84669333D01*
X187396571Y-84669333D01*
X187301333Y-84716952D01*
X187253714Y-84764571D01*
X187206095Y-84859809D01*
X187206095Y-85097904D01*
X187253714Y-85193142D01*
X187301333Y-85240761D01*
X187396571Y-85288380D01*
X187682285Y-85288380D01*
X187777523Y-85240761D01*
X187825142Y-85193142D01*
X107894380Y-52062190D02*
X107418190Y-51728857D01*
X107894380Y-51490761D02*
X106894380Y-51490761D01*
X106894380Y-51871714D01*
X106942000Y-51966952D01*
X106989619Y-52014571D01*
X107084857Y-52062190D01*
X107227714Y-52062190D01*
X107322952Y-52014571D01*
X107370571Y-51966952D01*
X107418190Y-51871714D01*
X107418190Y-51490761D01*
X107846761Y-52443142D02*
X107894380Y-52586000D01*
X107894380Y-52824095D01*
X107846761Y-52919333D01*
X107799142Y-52966952D01*
X107703904Y-53014571D01*
X107608666Y-53014571D01*
X107513428Y-52966952D01*
X107465809Y-52919333D01*
X107418190Y-52824095D01*
X107370571Y-52633619D01*
X107322952Y-52538380D01*
X107275333Y-52490761D01*
X107180095Y-52443142D01*
X107084857Y-52443142D01*
X106989619Y-52490761D01*
X106942000Y-52538380D01*
X106894380Y-52633619D01*
X106894380Y-52871714D01*
X106942000Y-53014571D01*
X106894380Y-53300285D02*
X106894380Y-53871714D01*
X107894380Y-53586000D02*
X106894380Y-53586000D01*
X107894380Y-54728857D02*
X107894380Y-54157428D01*
X107894380Y-54443142D02*
X106894380Y-54443142D01*
X107037238Y-54347904D01*
X107132476Y-54252666D01*
X107180095Y-54157428D01*
X130754380Y-122451904D02*
X129754380Y-122451904D01*
X129754380Y-122690000D01*
X129802000Y-122832857D01*
X129897238Y-122928095D01*
X129992476Y-122975714D01*
X130182952Y-123023333D01*
X130325809Y-123023333D01*
X130516285Y-122975714D01*
X130611523Y-122928095D01*
X130706761Y-122832857D01*
X130754380Y-122690000D01*
X130754380Y-122451904D01*
X129754380Y-123356666D02*
X129754380Y-123975714D01*
X130135333Y-123642380D01*
X130135333Y-123785238D01*
X130182952Y-123880476D01*
X130230571Y-123928095D01*
X130325809Y-123975714D01*
X130563904Y-123975714D01*
X130659142Y-123928095D01*
X130706761Y-123880476D01*
X130754380Y-123785238D01*
X130754380Y-123499523D01*
X130706761Y-123404285D01*
X130659142Y-123356666D01*
X195524285Y-107894380D02*
X195524285Y-106894380D01*
X195286190Y-106894380D01*
X195143333Y-106942000D01*
X195048095Y-107037238D01*
X195000476Y-107132476D01*
X194952857Y-107322952D01*
X194952857Y-107465809D01*
X195000476Y-107656285D01*
X195048095Y-107751523D01*
X195143333Y-107846761D01*
X195286190Y-107894380D01*
X195524285Y-107894380D01*
X194571904Y-106989619D02*
X194524285Y-106942000D01*
X194429047Y-106894380D01*
X194190952Y-106894380D01*
X194095714Y-106942000D01*
X194048095Y-106989619D01*
X194000476Y-107084857D01*
X194000476Y-107180095D01*
X194048095Y-107322952D01*
X194619523Y-107894380D01*
X194000476Y-107894380D01*
X193143333Y-107227714D02*
X193143333Y-107894380D01*
X193381428Y-106846761D02*
X193619523Y-107561047D01*
X193000476Y-107561047D01*
X120594380Y-122451904D02*
X119594380Y-122451904D01*
X119594380Y-122690000D01*
X119642000Y-122832857D01*
X119737238Y-122928095D01*
X119832476Y-122975714D01*
X120022952Y-123023333D01*
X120165809Y-123023333D01*
X120356285Y-122975714D01*
X120451523Y-122928095D01*
X120546761Y-122832857D01*
X120594380Y-122690000D01*
X120594380Y-122451904D01*
X119594380Y-123356666D02*
X119594380Y-124023333D01*
X120594380Y-123594761D01*
X132278380Y-92154571D02*
X131278380Y-92154571D01*
X131992666Y-92487904D01*
X131278380Y-92821238D01*
X132278380Y-92821238D01*
X132278380Y-93297428D02*
X131278380Y-93297428D01*
X132230761Y-93726000D02*
X132278380Y-93868857D01*
X132278380Y-94106952D01*
X132230761Y-94202190D01*
X132183142Y-94249809D01*
X132087904Y-94297428D01*
X131992666Y-94297428D01*
X131897428Y-94249809D01*
X131849809Y-94202190D01*
X131802190Y-94106952D01*
X131754571Y-93916476D01*
X131706952Y-93821238D01*
X131659333Y-93773619D01*
X131564095Y-93726000D01*
X131468857Y-93726000D01*
X131373619Y-93773619D01*
X131326000Y-93821238D01*
X131278380Y-93916476D01*
X131278380Y-94154571D01*
X131326000Y-94297428D01*
X131278380Y-94916476D02*
X131278380Y-95106952D01*
X131326000Y-95202190D01*
X131421238Y-95297428D01*
X131611714Y-95345047D01*
X131945047Y-95345047D01*
X132135523Y-95297428D01*
X132230761Y-95202190D01*
X132278380Y-95106952D01*
X132278380Y-94916476D01*
X132230761Y-94821238D01*
X132135523Y-94726000D01*
X131945047Y-94678380D01*
X131611714Y-94678380D01*
X131421238Y-94726000D01*
X131326000Y-94821238D01*
X131278380Y-94916476D01*
X161234380Y-51673333D02*
X160234380Y-51673333D01*
X160234380Y-51911428D01*
X160282000Y-52054285D01*
X160377238Y-52149523D01*
X160472476Y-52197142D01*
X160662952Y-52244761D01*
X160805809Y-52244761D01*
X160996285Y-52197142D01*
X161091523Y-52149523D01*
X161186761Y-52054285D01*
X161234380Y-51911428D01*
X161234380Y-51673333D01*
X160948666Y-52625714D02*
X160948666Y-53101904D01*
X161234380Y-52530476D02*
X160234380Y-52863809D01*
X161234380Y-53197142D01*
X161139142Y-54101904D02*
X161186761Y-54054285D01*
X161234380Y-53911428D01*
X161234380Y-53816190D01*
X161186761Y-53673333D01*
X161091523Y-53578095D01*
X160996285Y-53530476D01*
X160805809Y-53482857D01*
X160662952Y-53482857D01*
X160472476Y-53530476D01*
X160377238Y-53578095D01*
X160282000Y-53673333D01*
X160234380Y-53816190D01*
X160234380Y-53911428D01*
X160282000Y-54054285D01*
X160329619Y-54101904D01*
X161234380Y-55054285D02*
X161234380Y-54482857D01*
X161234380Y-54768571D02*
X160234380Y-54768571D01*
X160377238Y-54673333D01*
X160472476Y-54578095D01*
X160520095Y-54482857D01*
X189682285Y-92654380D02*
X189682285Y-91654380D01*
X189444190Y-91654380D01*
X189301333Y-91702000D01*
X189206095Y-91797238D01*
X189158476Y-91892476D01*
X189110857Y-92082952D01*
X189110857Y-92225809D01*
X189158476Y-92416285D01*
X189206095Y-92511523D01*
X189301333Y-92606761D01*
X189444190Y-92654380D01*
X189682285Y-92654380D01*
X188777523Y-91654380D02*
X188158476Y-91654380D01*
X188491809Y-92035333D01*
X188348952Y-92035333D01*
X188253714Y-92082952D01*
X188206095Y-92130571D01*
X188158476Y-92225809D01*
X188158476Y-92463904D01*
X188206095Y-92559142D01*
X188253714Y-92606761D01*
X188348952Y-92654380D01*
X188634666Y-92654380D01*
X188729904Y-92606761D01*
X188777523Y-92559142D01*
X187825142Y-91654380D02*
X187158476Y-91654380D01*
X187587047Y-92654380D01*
X166219142Y-52316190D02*
X166266761Y-52268571D01*
X166314380Y-52125714D01*
X166314380Y-52030476D01*
X166266761Y-51887619D01*
X166171523Y-51792380D01*
X166076285Y-51744761D01*
X165885809Y-51697142D01*
X165742952Y-51697142D01*
X165552476Y-51744761D01*
X165457238Y-51792380D01*
X165362000Y-51887619D01*
X165314380Y-52030476D01*
X165314380Y-52125714D01*
X165362000Y-52268571D01*
X165409619Y-52316190D01*
X166028666Y-52697142D02*
X166028666Y-53173333D01*
X166314380Y-52601904D02*
X165314380Y-52935238D01*
X166314380Y-53268571D01*
X166314380Y-53601904D02*
X165314380Y-53601904D01*
X166314380Y-54173333D01*
X165314380Y-54173333D01*
X165314380Y-54506666D02*
X165314380Y-55078095D01*
X166314380Y-54792380D02*
X165314380Y-54792380D01*
X155868666Y-52149523D02*
X155868666Y-52625714D01*
X156154380Y-52054285D02*
X155154380Y-52387619D01*
X156154380Y-52720952D01*
X156154380Y-53578095D02*
X156154380Y-53006666D01*
X156154380Y-53292380D02*
X155154380Y-53292380D01*
X155297238Y-53197142D01*
X155392476Y-53101904D01*
X155440095Y-53006666D01*
X156154380Y-54530476D02*
X156154380Y-53959047D01*
X156154380Y-54244761D02*
X155154380Y-54244761D01*
X155297238Y-54149523D01*
X155392476Y-54054285D01*
X155440095Y-53959047D01*
X98464666Y-121570952D02*
X98464666Y-122047142D01*
X98750380Y-121475714D02*
X97750380Y-121809047D01*
X98750380Y-122142380D01*
X98750380Y-123047142D02*
X98274190Y-122713809D01*
X98750380Y-122475714D02*
X97750380Y-122475714D01*
X97750380Y-122856666D01*
X97798000Y-122951904D01*
X97845619Y-122999523D01*
X97940857Y-123047142D01*
X98083714Y-123047142D01*
X98178952Y-122999523D01*
X98226571Y-122951904D01*
X98274190Y-122856666D01*
X98274190Y-122475714D01*
X98226571Y-123475714D02*
X98226571Y-123809047D01*
X98750380Y-123951904D02*
X98750380Y-123475714D01*
X97750380Y-123475714D01*
X97750380Y-123951904D01*
X98226571Y-124713809D02*
X98226571Y-124380476D01*
X98750380Y-124380476D02*
X97750380Y-124380476D01*
X97750380Y-124856666D01*
X111450380Y-121975714D02*
X110450380Y-121975714D01*
X110450380Y-122213809D01*
X110498000Y-122356666D01*
X110593238Y-122451904D01*
X110688476Y-122499523D01*
X110878952Y-122547142D01*
X111021809Y-122547142D01*
X111212285Y-122499523D01*
X111307523Y-122451904D01*
X111402761Y-122356666D01*
X111450380Y-122213809D01*
X111450380Y-121975714D01*
X111450380Y-123499523D02*
X111450380Y-122928095D01*
X111450380Y-123213809D02*
X110450380Y-123213809D01*
X110593238Y-123118571D01*
X110688476Y-123023333D01*
X110736095Y-122928095D01*
X110450380Y-124118571D02*
X110450380Y-124213809D01*
X110498000Y-124309047D01*
X110545619Y-124356666D01*
X110640857Y-124404285D01*
X110831333Y-124451904D01*
X111069428Y-124451904D01*
X111259904Y-124404285D01*
X111355142Y-124356666D01*
X111402761Y-124309047D01*
X111450380Y-124213809D01*
X111450380Y-124118571D01*
X111402761Y-124023333D01*
X111355142Y-123975714D01*
X111259904Y-123928095D01*
X111069428Y-123880476D01*
X110831333Y-123880476D01*
X110640857Y-123928095D01*
X110545619Y-123975714D01*
X110498000Y-124023333D01*
X110450380Y-124118571D01*
X108910380Y-121975714D02*
X107910380Y-121975714D01*
X107910380Y-122213809D01*
X107958000Y-122356666D01*
X108053238Y-122451904D01*
X108148476Y-122499523D01*
X108338952Y-122547142D01*
X108481809Y-122547142D01*
X108672285Y-122499523D01*
X108767523Y-122451904D01*
X108862761Y-122356666D01*
X108910380Y-122213809D01*
X108910380Y-121975714D01*
X108910380Y-123499523D02*
X108910380Y-122928095D01*
X108910380Y-123213809D02*
X107910380Y-123213809D01*
X108053238Y-123118571D01*
X108148476Y-123023333D01*
X108196095Y-122928095D01*
X108910380Y-124451904D02*
X108910380Y-123880476D01*
X108910380Y-124166190D02*
X107910380Y-124166190D01*
X108053238Y-124070952D01*
X108148476Y-123975714D01*
X108196095Y-123880476D01*
X189682285Y-87574380D02*
X189682285Y-86574380D01*
X189444190Y-86574380D01*
X189301333Y-86622000D01*
X189206095Y-86717238D01*
X189158476Y-86812476D01*
X189110857Y-87002952D01*
X189110857Y-87145809D01*
X189158476Y-87336285D01*
X189206095Y-87431523D01*
X189301333Y-87526761D01*
X189444190Y-87574380D01*
X189682285Y-87574380D01*
X188253714Y-86907714D02*
X188253714Y-87574380D01*
X188491809Y-86526761D02*
X188729904Y-87241047D01*
X188110857Y-87241047D01*
X187206095Y-87574380D02*
X187777523Y-87574380D01*
X187491809Y-87574380D02*
X187491809Y-86574380D01*
X187587047Y-86717238D01*
X187682285Y-86812476D01*
X187777523Y-86860095D01*
X117102000Y-52324095D02*
X117054380Y-52228857D01*
X117054380Y-52086000D01*
X117102000Y-51943142D01*
X117197238Y-51847904D01*
X117292476Y-51800285D01*
X117482952Y-51752666D01*
X117625809Y-51752666D01*
X117816285Y-51800285D01*
X117911523Y-51847904D01*
X118006761Y-51943142D01*
X118054380Y-52086000D01*
X118054380Y-52181238D01*
X118006761Y-52324095D01*
X117959142Y-52371714D01*
X117625809Y-52371714D01*
X117625809Y-52181238D01*
X118054380Y-52800285D02*
X117054380Y-52800285D01*
X118054380Y-53371714D01*
X117054380Y-53371714D01*
X118054380Y-53847904D02*
X117054380Y-53847904D01*
X117054380Y-54086000D01*
X117102000Y-54228857D01*
X117197238Y-54324095D01*
X117292476Y-54371714D01*
X117482952Y-54419333D01*
X117625809Y-54419333D01*
X117816285Y-54371714D01*
X117911523Y-54324095D01*
X118006761Y-54228857D01*
X118054380Y-54086000D01*
X118054380Y-53847904D01*
X148248666Y-52625714D02*
X148248666Y-53101904D01*
X148534380Y-52530476D02*
X147534380Y-52863809D01*
X148534380Y-53197142D01*
X147962952Y-53673333D02*
X147915333Y-53578095D01*
X147867714Y-53530476D01*
X147772476Y-53482857D01*
X147724857Y-53482857D01*
X147629619Y-53530476D01*
X147582000Y-53578095D01*
X147534380Y-53673333D01*
X147534380Y-53863809D01*
X147582000Y-53959047D01*
X147629619Y-54006666D01*
X147724857Y-54054285D01*
X147772476Y-54054285D01*
X147867714Y-54006666D01*
X147915333Y-53959047D01*
X147962952Y-53863809D01*
X147962952Y-53673333D01*
X148010571Y-53578095D01*
X148058190Y-53530476D01*
X148153428Y-53482857D01*
X148343904Y-53482857D01*
X148439142Y-53530476D01*
X148486761Y-53578095D01*
X148534380Y-53673333D01*
X148534380Y-53863809D01*
X148486761Y-53959047D01*
X148439142Y-54006666D01*
X148343904Y-54054285D01*
X148153428Y-54054285D01*
X148058190Y-54006666D01*
X148010571Y-53959047D01*
X147962952Y-53863809D01*
X153614380Y-121975714D02*
X152614380Y-121975714D01*
X152614380Y-122213809D01*
X152662000Y-122356666D01*
X152757238Y-122451904D01*
X152852476Y-122499523D01*
X153042952Y-122547142D01*
X153185809Y-122547142D01*
X153376285Y-122499523D01*
X153471523Y-122451904D01*
X153566761Y-122356666D01*
X153614380Y-122213809D01*
X153614380Y-121975714D01*
X153614380Y-123499523D02*
X153614380Y-122928095D01*
X153614380Y-123213809D02*
X152614380Y-123213809D01*
X152757238Y-123118571D01*
X152852476Y-123023333D01*
X152900095Y-122928095D01*
X153042952Y-124070952D02*
X152995333Y-123975714D01*
X152947714Y-123928095D01*
X152852476Y-123880476D01*
X152804857Y-123880476D01*
X152709619Y-123928095D01*
X152662000Y-123975714D01*
X152614380Y-124070952D01*
X152614380Y-124261428D01*
X152662000Y-124356666D01*
X152709619Y-124404285D01*
X152804857Y-124451904D01*
X152852476Y-124451904D01*
X152947714Y-124404285D01*
X152995333Y-124356666D01*
X153042952Y-124261428D01*
X153042952Y-124070952D01*
X153090571Y-123975714D01*
X153138190Y-123928095D01*
X153233428Y-123880476D01*
X153423904Y-123880476D01*
X153519142Y-123928095D01*
X153566761Y-123975714D01*
X153614380Y-124070952D01*
X153614380Y-124261428D01*
X153566761Y-124356666D01*
X153519142Y-124404285D01*
X153423904Y-124451904D01*
X153233428Y-124451904D01*
X153138190Y-124404285D01*
X153090571Y-124356666D01*
X153042952Y-124261428D01*
X140628666Y-52625714D02*
X140628666Y-53101904D01*
X140914380Y-52530476D02*
X139914380Y-52863809D01*
X140914380Y-53197142D01*
X139914380Y-53959047D02*
X139914380Y-53768571D01*
X139962000Y-53673333D01*
X140009619Y-53625714D01*
X140152476Y-53530476D01*
X140342952Y-53482857D01*
X140723904Y-53482857D01*
X140819142Y-53530476D01*
X140866761Y-53578095D01*
X140914380Y-53673333D01*
X140914380Y-53863809D01*
X140866761Y-53959047D01*
X140819142Y-54006666D01*
X140723904Y-54054285D01*
X140485809Y-54054285D01*
X140390571Y-54006666D01*
X140342952Y-53959047D01*
X140295333Y-53863809D01*
X140295333Y-53673333D01*
X140342952Y-53578095D01*
X140390571Y-53530476D01*
X140485809Y-53482857D01*
X133818380Y-93535523D02*
X133818380Y-93059333D01*
X134294571Y-93011714D01*
X134246952Y-93059333D01*
X134199333Y-93154571D01*
X134199333Y-93392666D01*
X134246952Y-93487904D01*
X134294571Y-93535523D01*
X134389809Y-93583142D01*
X134627904Y-93583142D01*
X134723142Y-93535523D01*
X134770761Y-93487904D01*
X134818380Y-93392666D01*
X134818380Y-93154571D01*
X134770761Y-93059333D01*
X134723142Y-93011714D01*
X133818380Y-93868857D02*
X134818380Y-94202190D01*
X133818380Y-94535523D01*
X207113142Y-93123238D02*
X207160761Y-93075619D01*
X207208380Y-92932761D01*
X207208380Y-92837523D01*
X207160761Y-92694666D01*
X207065523Y-92599428D01*
X206970285Y-92551809D01*
X206779809Y-92504190D01*
X206636952Y-92504190D01*
X206446476Y-92551809D01*
X206351238Y-92599428D01*
X206256000Y-92694666D01*
X206208380Y-92837523D01*
X206208380Y-92932761D01*
X206256000Y-93075619D01*
X206303619Y-93123238D01*
X206208380Y-93742285D02*
X206208380Y-93932761D01*
X206256000Y-94028000D01*
X206351238Y-94123238D01*
X206541714Y-94170857D01*
X206875047Y-94170857D01*
X207065523Y-94123238D01*
X207160761Y-94028000D01*
X207208380Y-93932761D01*
X207208380Y-93742285D01*
X207160761Y-93647047D01*
X207065523Y-93551809D01*
X206875047Y-93504190D01*
X206541714Y-93504190D01*
X206351238Y-93551809D01*
X206256000Y-93647047D01*
X206208380Y-93742285D01*
X207208380Y-94599428D02*
X206208380Y-94599428D01*
X207208380Y-95170857D01*
X206208380Y-95170857D01*
X207208380Y-95647047D02*
X206208380Y-95647047D01*
X207208380Y-96218476D01*
X206208380Y-96218476D01*
X207303619Y-96456571D02*
X207303619Y-97218476D01*
X207208380Y-97932761D02*
X207208380Y-97456571D01*
X206208380Y-97456571D01*
X206922666Y-98218476D02*
X206922666Y-98694666D01*
X207208380Y-98123238D02*
X206208380Y-98456571D01*
X207208380Y-98789904D01*
X207160761Y-99075619D02*
X207208380Y-99218476D01*
X207208380Y-99456571D01*
X207160761Y-99551809D01*
X207113142Y-99599428D01*
X207017904Y-99647047D01*
X206922666Y-99647047D01*
X206827428Y-99599428D01*
X206779809Y-99551809D01*
X206732190Y-99456571D01*
X206684571Y-99266095D01*
X206636952Y-99170857D01*
X206589333Y-99123238D01*
X206494095Y-99075619D01*
X206398857Y-99075619D01*
X206303619Y-99123238D01*
X206256000Y-99170857D01*
X206208380Y-99266095D01*
X206208380Y-99504190D01*
X206256000Y-99647047D01*
X206684571Y-100075619D02*
X206684571Y-100408952D01*
X207208380Y-100551809D02*
X207208380Y-100075619D01*
X206208380Y-100075619D01*
X206208380Y-100551809D01*
X207208380Y-101551809D02*
X206732190Y-101218476D01*
X207208380Y-100980380D02*
X206208380Y-100980380D01*
X206208380Y-101361333D01*
X206256000Y-101456571D01*
X206303619Y-101504190D01*
X206398857Y-101551809D01*
X206541714Y-101551809D01*
X206636952Y-101504190D01*
X206684571Y-101456571D01*
X206732190Y-101361333D01*
X206732190Y-100980380D01*
X123134380Y-122451904D02*
X122134380Y-122451904D01*
X122134380Y-122690000D01*
X122182000Y-122832857D01*
X122277238Y-122928095D01*
X122372476Y-122975714D01*
X122562952Y-123023333D01*
X122705809Y-123023333D01*
X122896285Y-122975714D01*
X122991523Y-122928095D01*
X123086761Y-122832857D01*
X123134380Y-122690000D01*
X123134380Y-122451904D01*
X122134380Y-123880476D02*
X122134380Y-123690000D01*
X122182000Y-123594761D01*
X122229619Y-123547142D01*
X122372476Y-123451904D01*
X122562952Y-123404285D01*
X122943904Y-123404285D01*
X123039142Y-123451904D01*
X123086761Y-123499523D01*
X123134380Y-123594761D01*
X123134380Y-123785238D01*
X123086761Y-123880476D01*
X123039142Y-123928095D01*
X122943904Y-123975714D01*
X122705809Y-123975714D01*
X122610571Y-123928095D01*
X122562952Y-123880476D01*
X122515333Y-123785238D01*
X122515333Y-123594761D01*
X122562952Y-123499523D01*
X122610571Y-123451904D01*
X122705809Y-123404285D01*
X134818380Y-87836571D02*
X133818380Y-87836571D01*
X134532666Y-88169904D01*
X133818380Y-88503238D01*
X134818380Y-88503238D01*
X133818380Y-89169904D02*
X133818380Y-89360380D01*
X133866000Y-89455619D01*
X133961238Y-89550857D01*
X134151714Y-89598476D01*
X134485047Y-89598476D01*
X134675523Y-89550857D01*
X134770761Y-89455619D01*
X134818380Y-89360380D01*
X134818380Y-89169904D01*
X134770761Y-89074666D01*
X134675523Y-88979428D01*
X134485047Y-88931809D01*
X134151714Y-88931809D01*
X133961238Y-88979428D01*
X133866000Y-89074666D01*
X133818380Y-89169904D01*
X134770761Y-89979428D02*
X134818380Y-90122285D01*
X134818380Y-90360380D01*
X134770761Y-90455619D01*
X134723142Y-90503238D01*
X134627904Y-90550857D01*
X134532666Y-90550857D01*
X134437428Y-90503238D01*
X134389809Y-90455619D01*
X134342190Y-90360380D01*
X134294571Y-90169904D01*
X134246952Y-90074666D01*
X134199333Y-90027047D01*
X134104095Y-89979428D01*
X134008857Y-89979428D01*
X133913619Y-90027047D01*
X133866000Y-90074666D01*
X133818380Y-90169904D01*
X133818380Y-90408000D01*
X133866000Y-90550857D01*
X134818380Y-90979428D02*
X133818380Y-90979428D01*
X195595714Y-112593428D02*
X194833809Y-112593428D01*
X195214761Y-112974380D02*
X195214761Y-112212476D01*
X193881428Y-111974380D02*
X194357619Y-111974380D01*
X194405238Y-112450571D01*
X194357619Y-112402952D01*
X194262380Y-112355333D01*
X194024285Y-112355333D01*
X193929047Y-112402952D01*
X193881428Y-112450571D01*
X193833809Y-112545809D01*
X193833809Y-112783904D01*
X193881428Y-112879142D01*
X193929047Y-112926761D01*
X194024285Y-112974380D01*
X194262380Y-112974380D01*
X194357619Y-112926761D01*
X194405238Y-112879142D01*
X193548095Y-111974380D02*
X193214761Y-112974380D01*
X192881428Y-111974380D01*
X195524285Y-90114380D02*
X195524285Y-89114380D01*
X195286190Y-89114380D01*
X195143333Y-89162000D01*
X195048095Y-89257238D01*
X195000476Y-89352476D01*
X194952857Y-89542952D01*
X194952857Y-89685809D01*
X195000476Y-89876285D01*
X195048095Y-89971523D01*
X195143333Y-90066761D01*
X195286190Y-90114380D01*
X195524285Y-90114380D01*
X194619523Y-89114380D02*
X194000476Y-89114380D01*
X194333809Y-89495333D01*
X194190952Y-89495333D01*
X194095714Y-89542952D01*
X194048095Y-89590571D01*
X194000476Y-89685809D01*
X194000476Y-89923904D01*
X194048095Y-90019142D01*
X194095714Y-90066761D01*
X194190952Y-90114380D01*
X194476666Y-90114380D01*
X194571904Y-90066761D01*
X194619523Y-90019142D01*
X193429047Y-89542952D02*
X193524285Y-89495333D01*
X193571904Y-89447714D01*
X193619523Y-89352476D01*
X193619523Y-89304857D01*
X193571904Y-89209619D01*
X193524285Y-89162000D01*
X193429047Y-89114380D01*
X193238571Y-89114380D01*
X193143333Y-89162000D01*
X193095714Y-89209619D01*
X193048095Y-89304857D01*
X193048095Y-89352476D01*
X193095714Y-89447714D01*
X193143333Y-89495333D01*
X193238571Y-89542952D01*
X193429047Y-89542952D01*
X193524285Y-89590571D01*
X193571904Y-89638190D01*
X193619523Y-89733428D01*
X193619523Y-89923904D01*
X193571904Y-90019142D01*
X193524285Y-90066761D01*
X193429047Y-90114380D01*
X193238571Y-90114380D01*
X193143333Y-90066761D01*
X193095714Y-90019142D01*
X193048095Y-89923904D01*
X193048095Y-89733428D01*
X193095714Y-89638190D01*
X193143333Y-89590571D01*
X193238571Y-89542952D01*
X148534380Y-121975714D02*
X147534380Y-121975714D01*
X147534380Y-122213809D01*
X147582000Y-122356666D01*
X147677238Y-122451904D01*
X147772476Y-122499523D01*
X147962952Y-122547142D01*
X148105809Y-122547142D01*
X148296285Y-122499523D01*
X148391523Y-122451904D01*
X148486761Y-122356666D01*
X148534380Y-122213809D01*
X148534380Y-121975714D01*
X148534380Y-123499523D02*
X148534380Y-122928095D01*
X148534380Y-123213809D02*
X147534380Y-123213809D01*
X147677238Y-123118571D01*
X147772476Y-123023333D01*
X147820095Y-122928095D01*
X147534380Y-124356666D02*
X147534380Y-124166190D01*
X147582000Y-124070952D01*
X147629619Y-124023333D01*
X147772476Y-123928095D01*
X147962952Y-123880476D01*
X148343904Y-123880476D01*
X148439142Y-123928095D01*
X148486761Y-123975714D01*
X148534380Y-124070952D01*
X148534380Y-124261428D01*
X148486761Y-124356666D01*
X148439142Y-124404285D01*
X148343904Y-124451904D01*
X148105809Y-124451904D01*
X148010571Y-124404285D01*
X147962952Y-124356666D01*
X147915333Y-124261428D01*
X147915333Y-124070952D01*
X147962952Y-123975714D01*
X148010571Y-123928095D01*
X148105809Y-123880476D01*
X153328666Y-52149523D02*
X153328666Y-52625714D01*
X153614380Y-52054285D02*
X152614380Y-52387619D01*
X153614380Y-52720952D01*
X153614380Y-53578095D02*
X153614380Y-53006666D01*
X153614380Y-53292380D02*
X152614380Y-53292380D01*
X152757238Y-53197142D01*
X152852476Y-53101904D01*
X152900095Y-53006666D01*
X152614380Y-54197142D02*
X152614380Y-54292380D01*
X152662000Y-54387619D01*
X152709619Y-54435238D01*
X152804857Y-54482857D01*
X152995333Y-54530476D01*
X153233428Y-54530476D01*
X153423904Y-54482857D01*
X153519142Y-54435238D01*
X153566761Y-54387619D01*
X153614380Y-54292380D01*
X153614380Y-54197142D01*
X153566761Y-54101904D01*
X153519142Y-54054285D01*
X153423904Y-54006666D01*
X153233428Y-53959047D01*
X152995333Y-53959047D01*
X152804857Y-54006666D01*
X152709619Y-54054285D01*
X152662000Y-54101904D01*
X152614380Y-54197142D01*
X101814380Y-52752666D02*
X102814380Y-53419333D01*
X101814380Y-53419333D02*
X102814380Y-52752666D01*
X189682285Y-77414380D02*
X189682285Y-76414380D01*
X189444190Y-76414380D01*
X189301333Y-76462000D01*
X189206095Y-76557238D01*
X189158476Y-76652476D01*
X189110857Y-76842952D01*
X189110857Y-76985809D01*
X189158476Y-77176285D01*
X189206095Y-77271523D01*
X189301333Y-77366761D01*
X189444190Y-77414380D01*
X189682285Y-77414380D01*
X188253714Y-76747714D02*
X188253714Y-77414380D01*
X188491809Y-76366761D02*
X188729904Y-77081047D01*
X188110857Y-77081047D01*
X187682285Y-77414380D02*
X187491809Y-77414380D01*
X187396571Y-77366761D01*
X187348952Y-77319142D01*
X187253714Y-77176285D01*
X187206095Y-76985809D01*
X187206095Y-76604857D01*
X187253714Y-76509619D01*
X187301333Y-76462000D01*
X187396571Y-76414380D01*
X187587047Y-76414380D01*
X187682285Y-76462000D01*
X187729904Y-76509619D01*
X187777523Y-76604857D01*
X187777523Y-76842952D01*
X187729904Y-76938190D01*
X187682285Y-76985809D01*
X187587047Y-77033428D01*
X187396571Y-77033428D01*
X187301333Y-76985809D01*
X187253714Y-76938190D01*
X187206095Y-76842952D01*
X133294380Y-122451904D02*
X132294380Y-122451904D01*
X132294380Y-122690000D01*
X132342000Y-122832857D01*
X132437238Y-122928095D01*
X132532476Y-122975714D01*
X132722952Y-123023333D01*
X132865809Y-123023333D01*
X133056285Y-122975714D01*
X133151523Y-122928095D01*
X133246761Y-122832857D01*
X133294380Y-122690000D01*
X133294380Y-122451904D01*
X132389619Y-123404285D02*
X132342000Y-123451904D01*
X132294380Y-123547142D01*
X132294380Y-123785238D01*
X132342000Y-123880476D01*
X132389619Y-123928095D01*
X132484857Y-123975714D01*
X132580095Y-123975714D01*
X132722952Y-123928095D01*
X133294380Y-123356666D01*
X133294380Y-123975714D01*
X195524285Y-100274380D02*
X195524285Y-99274380D01*
X195286190Y-99274380D01*
X195143333Y-99322000D01*
X195048095Y-99417238D01*
X195000476Y-99512476D01*
X194952857Y-99702952D01*
X194952857Y-99845809D01*
X195000476Y-100036285D01*
X195048095Y-100131523D01*
X195143333Y-100226761D01*
X195286190Y-100274380D01*
X195524285Y-100274380D01*
X194619523Y-99274380D02*
X194000476Y-99274380D01*
X194333809Y-99655333D01*
X194190952Y-99655333D01*
X194095714Y-99702952D01*
X194048095Y-99750571D01*
X194000476Y-99845809D01*
X194000476Y-100083904D01*
X194048095Y-100179142D01*
X194095714Y-100226761D01*
X194190952Y-100274380D01*
X194476666Y-100274380D01*
X194571904Y-100226761D01*
X194619523Y-100179142D01*
X193381428Y-99274380D02*
X193286190Y-99274380D01*
X193190952Y-99322000D01*
X193143333Y-99369619D01*
X193095714Y-99464857D01*
X193048095Y-99655333D01*
X193048095Y-99893428D01*
X193095714Y-100083904D01*
X193143333Y-100179142D01*
X193190952Y-100226761D01*
X193286190Y-100274380D01*
X193381428Y-100274380D01*
X193476666Y-100226761D01*
X193524285Y-100179142D01*
X193571904Y-100083904D01*
X193619523Y-99893428D01*
X193619523Y-99655333D01*
X193571904Y-99464857D01*
X193524285Y-99369619D01*
X193476666Y-99322000D01*
X193381428Y-99274380D01*
X195524285Y-72334380D02*
X195524285Y-71334380D01*
X195286190Y-71334380D01*
X195143333Y-71382000D01*
X195048095Y-71477238D01*
X195000476Y-71572476D01*
X194952857Y-71762952D01*
X194952857Y-71905809D01*
X195000476Y-72096285D01*
X195048095Y-72191523D01*
X195143333Y-72286761D01*
X195286190Y-72334380D01*
X195524285Y-72334380D01*
X194048095Y-71334380D02*
X194524285Y-71334380D01*
X194571904Y-71810571D01*
X194524285Y-71762952D01*
X194429047Y-71715333D01*
X194190952Y-71715333D01*
X194095714Y-71762952D01*
X194048095Y-71810571D01*
X194000476Y-71905809D01*
X194000476Y-72143904D01*
X194048095Y-72239142D01*
X194095714Y-72286761D01*
X194190952Y-72334380D01*
X194429047Y-72334380D01*
X194524285Y-72286761D01*
X194571904Y-72239142D01*
X193619523Y-71429619D02*
X193571904Y-71382000D01*
X193476666Y-71334380D01*
X193238571Y-71334380D01*
X193143333Y-71382000D01*
X193095714Y-71429619D01*
X193048095Y-71524857D01*
X193048095Y-71620095D01*
X193095714Y-71762952D01*
X193667142Y-72334380D01*
X193048095Y-72334380D01*
X106370380Y-121975714D02*
X105370380Y-121975714D01*
X105370380Y-122213809D01*
X105418000Y-122356666D01*
X105513238Y-122451904D01*
X105608476Y-122499523D01*
X105798952Y-122547142D01*
X105941809Y-122547142D01*
X106132285Y-122499523D01*
X106227523Y-122451904D01*
X106322761Y-122356666D01*
X106370380Y-122213809D01*
X106370380Y-121975714D01*
X106370380Y-123499523D02*
X106370380Y-122928095D01*
X106370380Y-123213809D02*
X105370380Y-123213809D01*
X105513238Y-123118571D01*
X105608476Y-123023333D01*
X105656095Y-122928095D01*
X105465619Y-123880476D02*
X105418000Y-123928095D01*
X105370380Y-124023333D01*
X105370380Y-124261428D01*
X105418000Y-124356666D01*
X105465619Y-124404285D01*
X105560857Y-124451904D01*
X105656095Y-124451904D01*
X105798952Y-124404285D01*
X106370380Y-123832857D01*
X106370380Y-124451904D01*
X189682285Y-72334380D02*
X189682285Y-71334380D01*
X189444190Y-71334380D01*
X189301333Y-71382000D01*
X189206095Y-71477238D01*
X189158476Y-71572476D01*
X189110857Y-71762952D01*
X189110857Y-71905809D01*
X189158476Y-72096285D01*
X189206095Y-72191523D01*
X189301333Y-72286761D01*
X189444190Y-72334380D01*
X189682285Y-72334380D01*
X188206095Y-71334380D02*
X188682285Y-71334380D01*
X188729904Y-71810571D01*
X188682285Y-71762952D01*
X188587047Y-71715333D01*
X188348952Y-71715333D01*
X188253714Y-71762952D01*
X188206095Y-71810571D01*
X188158476Y-71905809D01*
X188158476Y-72143904D01*
X188206095Y-72239142D01*
X188253714Y-72286761D01*
X188348952Y-72334380D01*
X188587047Y-72334380D01*
X188682285Y-72286761D01*
X188729904Y-72239142D01*
X187825142Y-71334380D02*
X187206095Y-71334380D01*
X187539428Y-71715333D01*
X187396571Y-71715333D01*
X187301333Y-71762952D01*
X187253714Y-71810571D01*
X187206095Y-71905809D01*
X187206095Y-72143904D01*
X187253714Y-72239142D01*
X187301333Y-72286761D01*
X187396571Y-72334380D01*
X187682285Y-72334380D01*
X187777523Y-72286761D01*
X187825142Y-72239142D01*
X195524285Y-82494380D02*
X195524285Y-81494380D01*
X195286190Y-81494380D01*
X195143333Y-81542000D01*
X195048095Y-81637238D01*
X195000476Y-81732476D01*
X194952857Y-81922952D01*
X194952857Y-82065809D01*
X195000476Y-82256285D01*
X195048095Y-82351523D01*
X195143333Y-82446761D01*
X195286190Y-82494380D01*
X195524285Y-82494380D01*
X194095714Y-81827714D02*
X194095714Y-82494380D01*
X194333809Y-81446761D02*
X194571904Y-82161047D01*
X193952857Y-82161047D01*
X193143333Y-81827714D02*
X193143333Y-82494380D01*
X193381428Y-81446761D02*
X193619523Y-82161047D01*
X193000476Y-82161047D01*
X128214380Y-122451904D02*
X127214380Y-122451904D01*
X127214380Y-122690000D01*
X127262000Y-122832857D01*
X127357238Y-122928095D01*
X127452476Y-122975714D01*
X127642952Y-123023333D01*
X127785809Y-123023333D01*
X127976285Y-122975714D01*
X128071523Y-122928095D01*
X128166761Y-122832857D01*
X128214380Y-122690000D01*
X128214380Y-122451904D01*
X127547714Y-123880476D02*
X128214380Y-123880476D01*
X127166761Y-123642380D02*
X127881047Y-123404285D01*
X127881047Y-124023333D01*
X114562000Y-52324095D02*
X114514380Y-52228857D01*
X114514380Y-52086000D01*
X114562000Y-51943142D01*
X114657238Y-51847904D01*
X114752476Y-51800285D01*
X114942952Y-51752666D01*
X115085809Y-51752666D01*
X115276285Y-51800285D01*
X115371523Y-51847904D01*
X115466761Y-51943142D01*
X115514380Y-52086000D01*
X115514380Y-52181238D01*
X115466761Y-52324095D01*
X115419142Y-52371714D01*
X115085809Y-52371714D01*
X115085809Y-52181238D01*
X115514380Y-52800285D02*
X114514380Y-52800285D01*
X115514380Y-53371714D01*
X114514380Y-53371714D01*
X115514380Y-53847904D02*
X114514380Y-53847904D01*
X114514380Y-54086000D01*
X114562000Y-54228857D01*
X114657238Y-54324095D01*
X114752476Y-54371714D01*
X114942952Y-54419333D01*
X115085809Y-54419333D01*
X115276285Y-54371714D01*
X115371523Y-54324095D01*
X115466761Y-54228857D01*
X115514380Y-54086000D01*
X115514380Y-53847904D01*
X195524285Y-105354380D02*
X195524285Y-104354380D01*
X195286190Y-104354380D01*
X195143333Y-104402000D01*
X195048095Y-104497238D01*
X195000476Y-104592476D01*
X194952857Y-104782952D01*
X194952857Y-104925809D01*
X195000476Y-105116285D01*
X195048095Y-105211523D01*
X195143333Y-105306761D01*
X195286190Y-105354380D01*
X195524285Y-105354380D01*
X194571904Y-104449619D02*
X194524285Y-104402000D01*
X194429047Y-104354380D01*
X194190952Y-104354380D01*
X194095714Y-104402000D01*
X194048095Y-104449619D01*
X194000476Y-104544857D01*
X194000476Y-104640095D01*
X194048095Y-104782952D01*
X194619523Y-105354380D01*
X194000476Y-105354380D01*
X193143333Y-104354380D02*
X193333809Y-104354380D01*
X193429047Y-104402000D01*
X193476666Y-104449619D01*
X193571904Y-104592476D01*
X193619523Y-104782952D01*
X193619523Y-105163904D01*
X193571904Y-105259142D01*
X193524285Y-105306761D01*
X193429047Y-105354380D01*
X193238571Y-105354380D01*
X193143333Y-105306761D01*
X193095714Y-105259142D01*
X193048095Y-105163904D01*
X193048095Y-104925809D01*
X193095714Y-104830571D01*
X193143333Y-104782952D01*
X193238571Y-104735333D01*
X193429047Y-104735333D01*
X193524285Y-104782952D01*
X193571904Y-104830571D01*
X193619523Y-104925809D01*
X125674380Y-122451904D02*
X124674380Y-122451904D01*
X124674380Y-122690000D01*
X124722000Y-122832857D01*
X124817238Y-122928095D01*
X124912476Y-122975714D01*
X125102952Y-123023333D01*
X125245809Y-123023333D01*
X125436285Y-122975714D01*
X125531523Y-122928095D01*
X125626761Y-122832857D01*
X125674380Y-122690000D01*
X125674380Y-122451904D01*
X124674380Y-123928095D02*
X124674380Y-123451904D01*
X125150571Y-123404285D01*
X125102952Y-123451904D01*
X125055333Y-123547142D01*
X125055333Y-123785238D01*
X125102952Y-123880476D01*
X125150571Y-123928095D01*
X125245809Y-123975714D01*
X125483904Y-123975714D01*
X125579142Y-123928095D01*
X125626761Y-123880476D01*
X125674380Y-123785238D01*
X125674380Y-123547142D01*
X125626761Y-123451904D01*
X125579142Y-123404285D01*
X138088666Y-52625714D02*
X138088666Y-53101904D01*
X138374380Y-52530476D02*
X137374380Y-52863809D01*
X138374380Y-53197142D01*
X137374380Y-54006666D02*
X137374380Y-53530476D01*
X137850571Y-53482857D01*
X137802952Y-53530476D01*
X137755333Y-53625714D01*
X137755333Y-53863809D01*
X137802952Y-53959047D01*
X137850571Y-54006666D01*
X137945809Y-54054285D01*
X138183904Y-54054285D01*
X138279142Y-54006666D01*
X138326761Y-53959047D01*
X138374380Y-53863809D01*
X138374380Y-53625714D01*
X138326761Y-53530476D01*
X138279142Y-53482857D01*
X189682285Y-97734380D02*
X189682285Y-96734380D01*
X189444190Y-96734380D01*
X189301333Y-96782000D01*
X189206095Y-96877238D01*
X189158476Y-96972476D01*
X189110857Y-97162952D01*
X189110857Y-97305809D01*
X189158476Y-97496285D01*
X189206095Y-97591523D01*
X189301333Y-97686761D01*
X189444190Y-97734380D01*
X189682285Y-97734380D01*
X188777523Y-96734380D02*
X188158476Y-96734380D01*
X188491809Y-97115333D01*
X188348952Y-97115333D01*
X188253714Y-97162952D01*
X188206095Y-97210571D01*
X188158476Y-97305809D01*
X188158476Y-97543904D01*
X188206095Y-97639142D01*
X188253714Y-97686761D01*
X188348952Y-97734380D01*
X188634666Y-97734380D01*
X188729904Y-97686761D01*
X188777523Y-97639142D01*
X187825142Y-96734380D02*
X187206095Y-96734380D01*
X187539428Y-97115333D01*
X187396571Y-97115333D01*
X187301333Y-97162952D01*
X187253714Y-97210571D01*
X187206095Y-97305809D01*
X187206095Y-97543904D01*
X187253714Y-97639142D01*
X187301333Y-97686761D01*
X187396571Y-97734380D01*
X187682285Y-97734380D01*
X187777523Y-97686761D01*
X187825142Y-97639142D01*
X130468666Y-52625714D02*
X130468666Y-53101904D01*
X130754380Y-52530476D02*
X129754380Y-52863809D01*
X130754380Y-53197142D01*
X129849619Y-53482857D02*
X129802000Y-53530476D01*
X129754380Y-53625714D01*
X129754380Y-53863809D01*
X129802000Y-53959047D01*
X129849619Y-54006666D01*
X129944857Y-54054285D01*
X130040095Y-54054285D01*
X130182952Y-54006666D01*
X130754380Y-53435238D01*
X130754380Y-54054285D01*
X195524285Y-77414380D02*
X195524285Y-76414380D01*
X195286190Y-76414380D01*
X195143333Y-76462000D01*
X195048095Y-76557238D01*
X195000476Y-76652476D01*
X194952857Y-76842952D01*
X194952857Y-76985809D01*
X195000476Y-77176285D01*
X195048095Y-77271523D01*
X195143333Y-77366761D01*
X195286190Y-77414380D01*
X195524285Y-77414380D01*
X194095714Y-76747714D02*
X194095714Y-77414380D01*
X194333809Y-76366761D02*
X194571904Y-77081047D01*
X193952857Y-77081047D01*
X193429047Y-76842952D02*
X193524285Y-76795333D01*
X193571904Y-76747714D01*
X193619523Y-76652476D01*
X193619523Y-76604857D01*
X193571904Y-76509619D01*
X193524285Y-76462000D01*
X193429047Y-76414380D01*
X193238571Y-76414380D01*
X193143333Y-76462000D01*
X193095714Y-76509619D01*
X193048095Y-76604857D01*
X193048095Y-76652476D01*
X193095714Y-76747714D01*
X193143333Y-76795333D01*
X193238571Y-76842952D01*
X193429047Y-76842952D01*
X193524285Y-76890571D01*
X193571904Y-76938190D01*
X193619523Y-77033428D01*
X193619523Y-77223904D01*
X193571904Y-77319142D01*
X193524285Y-77366761D01*
X193429047Y-77414380D01*
X193238571Y-77414380D01*
X193143333Y-77366761D01*
X193095714Y-77319142D01*
X193048095Y-77223904D01*
X193048095Y-77033428D01*
X193095714Y-76938190D01*
X193143333Y-76890571D01*
X193238571Y-76842952D01*
X158694380Y-51673333D02*
X157694380Y-51673333D01*
X157694380Y-51911428D01*
X157742000Y-52054285D01*
X157837238Y-52149523D01*
X157932476Y-52197142D01*
X158122952Y-52244761D01*
X158265809Y-52244761D01*
X158456285Y-52197142D01*
X158551523Y-52149523D01*
X158646761Y-52054285D01*
X158694380Y-51911428D01*
X158694380Y-51673333D01*
X158408666Y-52625714D02*
X158408666Y-53101904D01*
X158694380Y-52530476D02*
X157694380Y-52863809D01*
X158694380Y-53197142D01*
X158599142Y-54101904D02*
X158646761Y-54054285D01*
X158694380Y-53911428D01*
X158694380Y-53816190D01*
X158646761Y-53673333D01*
X158551523Y-53578095D01*
X158456285Y-53530476D01*
X158265809Y-53482857D01*
X158122952Y-53482857D01*
X157932476Y-53530476D01*
X157837238Y-53578095D01*
X157742000Y-53673333D01*
X157694380Y-53816190D01*
X157694380Y-53911428D01*
X157742000Y-54054285D01*
X157789619Y-54101904D01*
X157694380Y-54720952D02*
X157694380Y-54816190D01*
X157742000Y-54911428D01*
X157789619Y-54959047D01*
X157884857Y-55006666D01*
X158075333Y-55054285D01*
X158313428Y-55054285D01*
X158503904Y-55006666D01*
X158599142Y-54959047D01*
X158646761Y-54911428D01*
X158694380Y-54816190D01*
X158694380Y-54720952D01*
X158646761Y-54625714D01*
X158599142Y-54578095D01*
X158503904Y-54530476D01*
X158313428Y-54482857D01*
X158075333Y-54482857D01*
X157884857Y-54530476D01*
X157789619Y-54578095D01*
X157742000Y-54625714D01*
X157694380Y-54720952D01*
X135834380Y-122451904D02*
X134834380Y-122451904D01*
X134834380Y-122690000D01*
X134882000Y-122832857D01*
X134977238Y-122928095D01*
X135072476Y-122975714D01*
X135262952Y-123023333D01*
X135405809Y-123023333D01*
X135596285Y-122975714D01*
X135691523Y-122928095D01*
X135786761Y-122832857D01*
X135834380Y-122690000D01*
X135834380Y-122451904D01*
X135834380Y-123975714D02*
X135834380Y-123404285D01*
X135834380Y-123690000D02*
X134834380Y-123690000D01*
X134977238Y-123594761D01*
X135072476Y-123499523D01*
X135120095Y-123404285D01*
X93622761Y-121523333D02*
X93670380Y-121666190D01*
X93670380Y-121904285D01*
X93622761Y-121999523D01*
X93575142Y-122047142D01*
X93479904Y-122094761D01*
X93384666Y-122094761D01*
X93289428Y-122047142D01*
X93241809Y-121999523D01*
X93194190Y-121904285D01*
X93146571Y-121713809D01*
X93098952Y-121618571D01*
X93051333Y-121570952D01*
X92956095Y-121523333D01*
X92860857Y-121523333D01*
X92765619Y-121570952D01*
X92718000Y-121618571D01*
X92670380Y-121713809D01*
X92670380Y-121951904D01*
X92718000Y-122094761D01*
X93575142Y-123094761D02*
X93622761Y-123047142D01*
X93670380Y-122904285D01*
X93670380Y-122809047D01*
X93622761Y-122666190D01*
X93527523Y-122570952D01*
X93432285Y-122523333D01*
X93241809Y-122475714D01*
X93098952Y-122475714D01*
X92908476Y-122523333D01*
X92813238Y-122570952D01*
X92718000Y-122666190D01*
X92670380Y-122809047D01*
X92670380Y-122904285D01*
X92718000Y-123047142D01*
X92765619Y-123094761D01*
X93670380Y-123999523D02*
X93670380Y-123523333D01*
X92670380Y-123523333D01*
X93670380Y-124856666D02*
X93670380Y-124285238D01*
X93670380Y-124570952D02*
X92670380Y-124570952D01*
X92813238Y-124475714D01*
X92908476Y-124380476D01*
X92956095Y-124285238D01*
X163679142Y-52197142D02*
X163726761Y-52149523D01*
X163774380Y-52006666D01*
X163774380Y-51911428D01*
X163726761Y-51768571D01*
X163631523Y-51673333D01*
X163536285Y-51625714D01*
X163345809Y-51578095D01*
X163202952Y-51578095D01*
X163012476Y-51625714D01*
X162917238Y-51673333D01*
X162822000Y-51768571D01*
X162774380Y-51911428D01*
X162774380Y-52006666D01*
X162822000Y-52149523D01*
X162869619Y-52197142D01*
X163488666Y-52578095D02*
X163488666Y-53054285D01*
X163774380Y-52482857D02*
X162774380Y-52816190D01*
X163774380Y-53149523D01*
X163774380Y-53482857D02*
X162774380Y-53482857D01*
X163774380Y-54054285D01*
X162774380Y-54054285D01*
X163774380Y-55101904D02*
X163298190Y-54768571D01*
X163774380Y-54530476D02*
X162774380Y-54530476D01*
X162774380Y-54911428D01*
X162822000Y-55006666D01*
X162869619Y-55054285D01*
X162964857Y-55101904D01*
X163107714Y-55101904D01*
X163202952Y-55054285D01*
X163250571Y-55006666D01*
X163298190Y-54911428D01*
X163298190Y-54530476D01*
X119594380Y-51990761D02*
X120594380Y-52324095D01*
X119594380Y-52657428D01*
X120594380Y-52990761D02*
X119594380Y-52990761D01*
X120594380Y-53466952D02*
X119594380Y-53466952D01*
X120594380Y-54038380D01*
X119594380Y-54038380D01*
X189682285Y-82494380D02*
X189682285Y-81494380D01*
X189444190Y-81494380D01*
X189301333Y-81542000D01*
X189206095Y-81637238D01*
X189158476Y-81732476D01*
X189110857Y-81922952D01*
X189110857Y-82065809D01*
X189158476Y-82256285D01*
X189206095Y-82351523D01*
X189301333Y-82446761D01*
X189444190Y-82494380D01*
X189682285Y-82494380D01*
X188253714Y-81827714D02*
X188253714Y-82494380D01*
X188491809Y-81446761D02*
X188729904Y-82161047D01*
X188110857Y-82161047D01*
X187253714Y-81494380D02*
X187729904Y-81494380D01*
X187777523Y-81970571D01*
X187729904Y-81922952D01*
X187634666Y-81875333D01*
X187396571Y-81875333D01*
X187301333Y-81922952D01*
X187253714Y-81970571D01*
X187206095Y-82065809D01*
X187206095Y-82303904D01*
X187253714Y-82399142D01*
X187301333Y-82446761D01*
X187396571Y-82494380D01*
X187634666Y-82494380D01*
X187729904Y-82446761D01*
X187777523Y-82399142D01*
X151074380Y-121975714D02*
X150074380Y-121975714D01*
X150074380Y-122213809D01*
X150122000Y-122356666D01*
X150217238Y-122451904D01*
X150312476Y-122499523D01*
X150502952Y-122547142D01*
X150645809Y-122547142D01*
X150836285Y-122499523D01*
X150931523Y-122451904D01*
X151026761Y-122356666D01*
X151074380Y-122213809D01*
X151074380Y-121975714D01*
X151074380Y-123499523D02*
X151074380Y-122928095D01*
X151074380Y-123213809D02*
X150074380Y-123213809D01*
X150217238Y-123118571D01*
X150312476Y-123023333D01*
X150360095Y-122928095D01*
X150074380Y-123832857D02*
X150074380Y-124499523D01*
X151074380Y-124070952D01*
X195524285Y-85288380D02*
X195524285Y-84288380D01*
X195286190Y-84288380D01*
X195143333Y-84336000D01*
X195048095Y-84431238D01*
X195000476Y-84526476D01*
X194952857Y-84716952D01*
X194952857Y-84859809D01*
X195000476Y-85050285D01*
X195048095Y-85145523D01*
X195143333Y-85240761D01*
X195286190Y-85288380D01*
X195524285Y-85288380D01*
X194095714Y-84621714D02*
X194095714Y-85288380D01*
X194333809Y-84240761D02*
X194571904Y-84955047D01*
X193952857Y-84955047D01*
X193619523Y-84383619D02*
X193571904Y-84336000D01*
X193476666Y-84288380D01*
X193238571Y-84288380D01*
X193143333Y-84336000D01*
X193095714Y-84383619D01*
X193048095Y-84478857D01*
X193048095Y-84574095D01*
X193095714Y-84716952D01*
X193667142Y-85288380D01*
X193048095Y-85288380D01*
X116530380Y-122451904D02*
X115530380Y-122451904D01*
X115530380Y-122690000D01*
X115578000Y-122832857D01*
X115673238Y-122928095D01*
X115768476Y-122975714D01*
X115958952Y-123023333D01*
X116101809Y-123023333D01*
X116292285Y-122975714D01*
X116387523Y-122928095D01*
X116482761Y-122832857D01*
X116530380Y-122690000D01*
X116530380Y-122451904D01*
X115958952Y-123594761D02*
X115911333Y-123499523D01*
X115863714Y-123451904D01*
X115768476Y-123404285D01*
X115720857Y-123404285D01*
X115625619Y-123451904D01*
X115578000Y-123499523D01*
X115530380Y-123594761D01*
X115530380Y-123785238D01*
X115578000Y-123880476D01*
X115625619Y-123928095D01*
X115720857Y-123975714D01*
X115768476Y-123975714D01*
X115863714Y-123928095D01*
X115911333Y-123880476D01*
X115958952Y-123785238D01*
X115958952Y-123594761D01*
X116006571Y-123499523D01*
X116054190Y-123451904D01*
X116149428Y-123404285D01*
X116339904Y-123404285D01*
X116435142Y-123451904D01*
X116482761Y-123499523D01*
X116530380Y-123594761D01*
X116530380Y-123785238D01*
X116482761Y-123880476D01*
X116435142Y-123928095D01*
X116339904Y-123975714D01*
X116149428Y-123975714D01*
X116054190Y-123928095D01*
X116006571Y-123880476D01*
X115958952Y-123785238D01*
X138374380Y-122451904D02*
X137374380Y-122451904D01*
X137374380Y-122690000D01*
X137422000Y-122832857D01*
X137517238Y-122928095D01*
X137612476Y-122975714D01*
X137802952Y-123023333D01*
X137945809Y-123023333D01*
X138136285Y-122975714D01*
X138231523Y-122928095D01*
X138326761Y-122832857D01*
X138374380Y-122690000D01*
X138374380Y-122451904D01*
X137374380Y-123642380D02*
X137374380Y-123737619D01*
X137422000Y-123832857D01*
X137469619Y-123880476D01*
X137564857Y-123928095D01*
X137755333Y-123975714D01*
X137993428Y-123975714D01*
X138183904Y-123928095D01*
X138279142Y-123880476D01*
X138326761Y-123832857D01*
X138374380Y-123737619D01*
X138374380Y-123642380D01*
X138326761Y-123547142D01*
X138279142Y-123499523D01*
X138183904Y-123451904D01*
X137993428Y-123404285D01*
X137755333Y-123404285D01*
X137564857Y-123451904D01*
X137469619Y-123499523D01*
X137422000Y-123547142D01*
X137374380Y-123642380D01*
X189682285Y-110434380D02*
X189682285Y-109434380D01*
X189444190Y-109434380D01*
X189301333Y-109482000D01*
X189206095Y-109577238D01*
X189158476Y-109672476D01*
X189110857Y-109862952D01*
X189110857Y-110005809D01*
X189158476Y-110196285D01*
X189206095Y-110291523D01*
X189301333Y-110386761D01*
X189444190Y-110434380D01*
X189682285Y-110434380D01*
X188729904Y-109529619D02*
X188682285Y-109482000D01*
X188587047Y-109434380D01*
X188348952Y-109434380D01*
X188253714Y-109482000D01*
X188206095Y-109529619D01*
X188158476Y-109624857D01*
X188158476Y-109720095D01*
X188206095Y-109862952D01*
X188777523Y-110434380D01*
X188158476Y-110434380D01*
X187825142Y-109434380D02*
X187206095Y-109434380D01*
X187539428Y-109815333D01*
X187396571Y-109815333D01*
X187301333Y-109862952D01*
X187253714Y-109910571D01*
X187206095Y-110005809D01*
X187206095Y-110243904D01*
X187253714Y-110339142D01*
X187301333Y-110386761D01*
X187396571Y-110434380D01*
X187682285Y-110434380D01*
X187777523Y-110386761D01*
X187825142Y-110339142D01*
X156154380Y-121975714D02*
X155154380Y-121975714D01*
X155154380Y-122213809D01*
X155202000Y-122356666D01*
X155297238Y-122451904D01*
X155392476Y-122499523D01*
X155582952Y-122547142D01*
X155725809Y-122547142D01*
X155916285Y-122499523D01*
X156011523Y-122451904D01*
X156106761Y-122356666D01*
X156154380Y-122213809D01*
X156154380Y-121975714D01*
X156154380Y-123499523D02*
X156154380Y-122928095D01*
X156154380Y-123213809D02*
X155154380Y-123213809D01*
X155297238Y-123118571D01*
X155392476Y-123023333D01*
X155440095Y-122928095D01*
X156154380Y-123975714D02*
X156154380Y-124166190D01*
X156106761Y-124261428D01*
X156059142Y-124309047D01*
X155916285Y-124404285D01*
X155725809Y-124451904D01*
X155344857Y-124451904D01*
X155249619Y-124404285D01*
X155202000Y-124356666D01*
X155154380Y-124261428D01*
X155154380Y-124070952D01*
X155202000Y-123975714D01*
X155249619Y-123928095D01*
X155344857Y-123880476D01*
X155582952Y-123880476D01*
X155678190Y-123928095D01*
X155725809Y-123975714D01*
X155773428Y-124070952D01*
X155773428Y-124261428D01*
X155725809Y-124356666D01*
X155678190Y-124404285D01*
X155582952Y-124451904D01*
%TO.C,R8*%
X144724380Y-93813333D02*
X144248190Y-93480000D01*
X144724380Y-93241904D02*
X143724380Y-93241904D01*
X143724380Y-93622857D01*
X143772000Y-93718095D01*
X143819619Y-93765714D01*
X143914857Y-93813333D01*
X144057714Y-93813333D01*
X144152952Y-93765714D01*
X144200571Y-93718095D01*
X144248190Y-93622857D01*
X144248190Y-93241904D01*
X144152952Y-94384761D02*
X144105333Y-94289523D01*
X144057714Y-94241904D01*
X143962476Y-94194285D01*
X143914857Y-94194285D01*
X143819619Y-94241904D01*
X143772000Y-94289523D01*
X143724380Y-94384761D01*
X143724380Y-94575238D01*
X143772000Y-94670476D01*
X143819619Y-94718095D01*
X143914857Y-94765714D01*
X143962476Y-94765714D01*
X144057714Y-94718095D01*
X144105333Y-94670476D01*
X144152952Y-94575238D01*
X144152952Y-94384761D01*
X144200571Y-94289523D01*
X144248190Y-94241904D01*
X144343428Y-94194285D01*
X144533904Y-94194285D01*
X144629142Y-94241904D01*
X144676761Y-94289523D01*
X144724380Y-94384761D01*
X144724380Y-94575238D01*
X144676761Y-94670476D01*
X144629142Y-94718095D01*
X144533904Y-94765714D01*
X144343428Y-94765714D01*
X144248190Y-94718095D01*
X144200571Y-94670476D01*
X144152952Y-94575238D01*
%TO.C,R7*%
X144978380Y-87209333D02*
X144502190Y-86876000D01*
X144978380Y-86637904D02*
X143978380Y-86637904D01*
X143978380Y-87018857D01*
X144026000Y-87114095D01*
X144073619Y-87161714D01*
X144168857Y-87209333D01*
X144311714Y-87209333D01*
X144406952Y-87161714D01*
X144454571Y-87114095D01*
X144502190Y-87018857D01*
X144502190Y-86637904D01*
X143978380Y-87542666D02*
X143978380Y-88209333D01*
X144978380Y-87780761D01*
%TO.C,IC_0*%
X136984000Y-94083142D02*
X136936380Y-94130761D01*
X136984000Y-94178380D01*
X137031619Y-94130761D01*
X136984000Y-94083142D01*
X136984000Y-94178380D01*
X165070666Y-83756238D02*
X165070666Y-84232428D01*
X165356380Y-83661000D02*
X164356380Y-83994333D01*
X165356380Y-84327666D01*
X165356380Y-85232428D02*
X164880190Y-84899095D01*
X165356380Y-84661000D02*
X164356380Y-84661000D01*
X164356380Y-85041952D01*
X164404000Y-85137190D01*
X164451619Y-85184809D01*
X164546857Y-85232428D01*
X164689714Y-85232428D01*
X164784952Y-85184809D01*
X164832571Y-85137190D01*
X164880190Y-85041952D01*
X164880190Y-84661000D01*
X165356380Y-85661000D02*
X164356380Y-85661000D01*
X164356380Y-85899095D01*
X164404000Y-86041952D01*
X164499238Y-86137190D01*
X164594476Y-86184809D01*
X164784952Y-86232428D01*
X164927809Y-86232428D01*
X165118285Y-86184809D01*
X165213523Y-86137190D01*
X165308761Y-86041952D01*
X165356380Y-85899095D01*
X165356380Y-85661000D01*
X164356380Y-86661000D02*
X165165904Y-86661000D01*
X165261142Y-86708619D01*
X165308761Y-86756238D01*
X165356380Y-86851476D01*
X165356380Y-87041952D01*
X165308761Y-87137190D01*
X165261142Y-87184809D01*
X165165904Y-87232428D01*
X164356380Y-87232428D01*
X165356380Y-87708619D02*
X164356380Y-87708619D01*
X165356380Y-88184809D02*
X164356380Y-88184809D01*
X165356380Y-88756238D01*
X164356380Y-88756238D01*
X164356380Y-89422904D02*
X164356380Y-89613380D01*
X164404000Y-89708619D01*
X164499238Y-89803857D01*
X164689714Y-89851476D01*
X165023047Y-89851476D01*
X165213523Y-89803857D01*
X165308761Y-89708619D01*
X165356380Y-89613380D01*
X165356380Y-89422904D01*
X165308761Y-89327666D01*
X165213523Y-89232428D01*
X165023047Y-89184809D01*
X164689714Y-89184809D01*
X164499238Y-89232428D01*
X164404000Y-89327666D01*
X164356380Y-89422904D01*
X165356380Y-91041952D02*
X164356380Y-91041952D01*
X164356380Y-91280047D01*
X164404000Y-91422904D01*
X164499238Y-91518142D01*
X164594476Y-91565761D01*
X164784952Y-91613380D01*
X164927809Y-91613380D01*
X165118285Y-91565761D01*
X165213523Y-91518142D01*
X165308761Y-91422904D01*
X165356380Y-91280047D01*
X165356380Y-91041952D01*
X164356380Y-92041952D02*
X165165904Y-92041952D01*
X165261142Y-92089571D01*
X165308761Y-92137190D01*
X165356380Y-92232428D01*
X165356380Y-92422904D01*
X165308761Y-92518142D01*
X165261142Y-92565761D01*
X165165904Y-92613380D01*
X164356380Y-92613380D01*
X164832571Y-93089571D02*
X164832571Y-93422904D01*
X165356380Y-93565761D02*
X165356380Y-93089571D01*
X164356380Y-93089571D01*
X164356380Y-93565761D01*
D13*
%TO.C,R8*%
X144044936Y-90959000D02*
X144499064Y-90959000D01*
X144044936Y-92429000D02*
X144499064Y-92429000D01*
%TO.C,J3*%
X181102000Y-111252000D02*
X183702000Y-111252000D01*
X181102000Y-113852000D02*
X181102000Y-111252000D01*
X182372000Y-113852000D02*
X183702000Y-113852000D01*
X183702000Y-113852000D02*
X183702000Y-112522000D01*
X178502000Y-113852000D02*
X178502000Y-68012000D01*
X178502000Y-68012000D02*
X183702000Y-68012000D01*
X178502000Y-113852000D02*
X181102000Y-113852000D01*
X183702000Y-111252000D02*
X183702000Y-68012000D01*
%TO.C,R7*%
X144044936Y-90397000D02*
X144499064Y-90397000D01*
X144044936Y-88927000D02*
X144499064Y-88927000D01*
%TD*%
%LPC*%
D14*
%TO.C,J2*%
X206952000Y-64454000D03*
X206952000Y-73214000D03*
%TD*%
D15*
%TO.C,J10*%
X148154065Y-57372981D03*
D16*
X150694065Y-57372981D03*
X153234065Y-57372981D03*
X155774065Y-57372981D03*
X158314065Y-57372981D03*
X160854065Y-57372981D03*
X163394065Y-57372981D03*
X165934065Y-57372981D03*
%TD*%
D14*
%TO.C,J1*%
X206952000Y-103824000D03*
X206952000Y-112584000D03*
%TD*%
D15*
%TO.C,J8*%
X92217000Y-55860000D03*
D16*
X92217000Y-58400000D03*
X94757000Y-55860000D03*
X94757000Y-58400000D03*
X97297000Y-55860000D03*
X97297000Y-58400000D03*
%TD*%
D15*
%TO.C,J7*%
X102377000Y-56871000D03*
D16*
X104917000Y-56871000D03*
X107457000Y-56871000D03*
X109997000Y-56871000D03*
X112537000Y-56871000D03*
X115077000Y-56871000D03*
X117617000Y-56871000D03*
X120157000Y-56871000D03*
%TD*%
D15*
%TO.C,J5*%
X120217335Y-118864561D03*
D16*
X122757335Y-118864561D03*
X125297335Y-118864561D03*
X127837335Y-118864561D03*
X130377335Y-118864561D03*
X132917335Y-118864561D03*
X135457335Y-118864561D03*
X137997335Y-118864561D03*
%TD*%
D15*
%TO.C,J9*%
X125311958Y-57372981D03*
D16*
X127851958Y-57372981D03*
X130391958Y-57372981D03*
X132931958Y-57372981D03*
X135471958Y-57372981D03*
X138011958Y-57372981D03*
X140551958Y-57372981D03*
X143091958Y-57372981D03*
%TD*%
D15*
%TO.C,J6*%
X143017000Y-119101000D03*
D16*
X145557000Y-119101000D03*
X148097000Y-119101000D03*
X150637000Y-119101000D03*
X153177000Y-119101000D03*
X155717000Y-119101000D03*
X158257000Y-119101000D03*
X160797000Y-119101000D03*
%TD*%
D15*
%TO.C,J4*%
X93248000Y-118847000D03*
D16*
X95788000Y-118847000D03*
X98328000Y-118847000D03*
X100868000Y-118847000D03*
X103408000Y-118847000D03*
X105948000Y-118847000D03*
X108488000Y-118847000D03*
X111028000Y-118847000D03*
X113568000Y-118847000D03*
X116108000Y-118847000D03*
%TD*%
D17*
%TO.C,R8*%
X143359500Y-91694000D03*
X145184500Y-91694000D03*
%TD*%
D15*
%TO.C,J3*%
X182372000Y-112522000D03*
D16*
X179832000Y-112522000D03*
X182372000Y-109982000D03*
X179832000Y-109982000D03*
X182372000Y-107442000D03*
X179832000Y-107442000D03*
X182372000Y-104902000D03*
X179832000Y-104902000D03*
X182372000Y-102362000D03*
X179832000Y-102362000D03*
X182372000Y-99822000D03*
X179832000Y-99822000D03*
X182372000Y-97282000D03*
X179832000Y-97282000D03*
X182372000Y-94742000D03*
X179832000Y-94742000D03*
X182372000Y-92202000D03*
X179832000Y-92202000D03*
X182372000Y-89662000D03*
X179832000Y-89662000D03*
X182372000Y-87122000D03*
X179832000Y-87122000D03*
X182372000Y-84582000D03*
X179832000Y-84582000D03*
X182372000Y-82042000D03*
X179832000Y-82042000D03*
X182372000Y-79502000D03*
X179832000Y-79502000D03*
X182372000Y-76962000D03*
X179832000Y-76962000D03*
X182372000Y-74422000D03*
X179832000Y-74422000D03*
X182372000Y-71882000D03*
X179832000Y-71882000D03*
X182372000Y-69342000D03*
X179832000Y-69342000D03*
%TD*%
D17*
%TO.C,R7*%
X143359500Y-89662000D03*
X145184500Y-89662000D03*
%TD*%
D18*
%TO.C,IC_0*%
X140540000Y-69342000D03*
X171020000Y-64262000D03*
X88470000Y-64262000D03*
X140540000Y-97282000D03*
X89740000Y-112522000D03*
D19*
X102440000Y-64262000D03*
D18*
X164670000Y-112522000D03*
D19*
X110060000Y-64262000D03*
X112600000Y-64262000D03*
X140667000Y-92202000D03*
X168480000Y-112522000D03*
X171020000Y-112522000D03*
X125300000Y-64262000D03*
X127840000Y-64262000D03*
X130380000Y-64262000D03*
X132920000Y-64262000D03*
X135460000Y-64262000D03*
X138000000Y-64262000D03*
X140540000Y-64262000D03*
X143080000Y-64262000D03*
X148160000Y-64262000D03*
X150700000Y-64262000D03*
X153240000Y-64262000D03*
X155780000Y-64262000D03*
X98376000Y-112522000D03*
X163400000Y-64262000D03*
X165940000Y-64262000D03*
X138000000Y-112522000D03*
X135460000Y-112522000D03*
X132920000Y-112522000D03*
X130380000Y-112522000D03*
X127840000Y-112522000D03*
X125300000Y-112522000D03*
X122760000Y-112522000D03*
X120220000Y-112522000D03*
X116156000Y-112522000D03*
X113616000Y-112522000D03*
X111076000Y-112522000D03*
X108536000Y-112522000D03*
X105996000Y-112522000D03*
X103456000Y-112522000D03*
X143080000Y-112522000D03*
X145620000Y-112522000D03*
X148160000Y-112522000D03*
X150700000Y-112522000D03*
X153240000Y-112522000D03*
X155780000Y-112522000D03*
X158320000Y-112522000D03*
X160860000Y-112522000D03*
X168480000Y-109982000D03*
X171020000Y-109982000D03*
X168480000Y-107442000D03*
X171020000Y-107442000D03*
X168480000Y-104902000D03*
X171020000Y-104902000D03*
X168480000Y-102362000D03*
X171020000Y-102362000D03*
X168480000Y-99822000D03*
X171020000Y-99822000D03*
X168480000Y-97282000D03*
X171020000Y-97282000D03*
X168480000Y-94742000D03*
X171020000Y-94742000D03*
X168480000Y-92202000D03*
X171020000Y-92202000D03*
X168480000Y-89662000D03*
X171020000Y-89662000D03*
X168480000Y-87122000D03*
X171020000Y-87122000D03*
X168480000Y-84582000D03*
X171020000Y-84582000D03*
X168480000Y-82042000D03*
X171020000Y-82042000D03*
X168480000Y-79502000D03*
X171020000Y-79502000D03*
X168480000Y-76962000D03*
X171020000Y-76962000D03*
X168480000Y-74422000D03*
X171020000Y-74422000D03*
X168480000Y-71882000D03*
X171020000Y-71882000D03*
X158320000Y-64262000D03*
X160860000Y-64262000D03*
D20*
X100916000Y-112522000D03*
X115140000Y-64262000D03*
X117680000Y-64262000D03*
X140667000Y-87122000D03*
X168480000Y-69342000D03*
X171020000Y-69342000D03*
D19*
X104980000Y-64262000D03*
X138127000Y-92202000D03*
X140667000Y-89662000D03*
X107520000Y-64262000D03*
X138127000Y-87122000D03*
X138127000Y-89662000D03*
X93296000Y-112522000D03*
X95836000Y-112522000D03*
X120220000Y-64262000D03*
%TD*%
M02*
