%TF.GenerationSoftware,KiCad,Pcbnew,(6.0.10)*%
%TF.CreationDate,2025-05-12T09:08:36+02:00*%
%TF.ProjectId,Progetto Lidar,50726f67-6574-4746-9f20-4c696461722e,rev?*%
%TF.SameCoordinates,Original*%
%TF.FileFunction,Legend,Top*%
%TF.FilePolarity,Positive*%
%FSLAX46Y46*%
G04 Gerber Fmt 4.6, Leading zero omitted, Abs format (unit mm)*
G04 Created by KiCad (PCBNEW (6.0.10)) date 2025-05-12 09:08:36*
%MOMM*%
%LPD*%
G01*
G04 APERTURE LIST*
G04 Aperture macros list*
%AMRoundRect*
0 Rectangle with rounded corners*
0 $1 Rounding radius*
0 $2 $3 $4 $5 $6 $7 $8 $9 X,Y pos of 4 corners*
0 Add a 4 corners polygon primitive as box body*
4,1,4,$2,$3,$4,$5,$6,$7,$8,$9,$2,$3,0*
0 Add four circle primitives for the rounded corners*
1,1,$1+$1,$2,$3*
1,1,$1+$1,$4,$5*
1,1,$1+$1,$6,$7*
1,1,$1+$1,$8,$9*
0 Add four rect primitives between the rounded corners*
20,1,$1+$1,$2,$3,$4,$5,0*
20,1,$1+$1,$4,$5,$6,$7,0*
20,1,$1+$1,$6,$7,$8,$9,0*
20,1,$1+$1,$8,$9,$2,$3,0*%
%AMFreePoly0*
4,1,22,0.500000,-0.750000,0.000000,-0.750000,0.000000,-0.745033,-0.079941,-0.743568,-0.215256,-0.701293,-0.333266,-0.622738,-0.424486,-0.514219,-0.481581,-0.384460,-0.499164,-0.250000,-0.500000,-0.250000,-0.500000,0.250000,-0.499164,0.250000,-0.499963,0.256109,-0.478152,0.396186,-0.417904,0.524511,-0.324060,0.630769,-0.204165,0.706417,-0.067858,0.745374,0.000000,0.744959,0.000000,0.750000,
0.500000,0.750000,0.500000,-0.750000,0.500000,-0.750000,$1*%
%AMFreePoly1*
4,1,20,0.000000,0.744959,0.073905,0.744508,0.209726,0.703889,0.328688,0.626782,0.421226,0.519385,0.479903,0.390333,0.500000,0.250000,0.500000,-0.250000,0.499851,-0.262216,0.476331,-0.402017,0.414519,-0.529596,0.319384,-0.634700,0.198574,-0.708877,0.061801,-0.746166,0.000000,-0.745033,0.000000,-0.750000,-0.500000,-0.750000,-0.500000,0.750000,0.000000,0.750000,0.000000,0.744959,
0.000000,0.744959,$1*%
G04 Aperture macros list end*
%ADD10C,0.150000*%
%ADD11C,0.000000*%
%ADD12C,0.400000*%
%ADD13C,0.254000*%
%ADD14C,0.120000*%
%ADD15C,0.200000*%
%ADD16C,0.100000*%
%ADD17RoundRect,0.250000X-0.250000X-0.475000X0.250000X-0.475000X0.250000X0.475000X-0.250000X0.475000X0*%
%ADD18R,5.080000X2.290000*%
%ADD19R,5.080000X2.420000*%
%ADD20R,0.550000X1.050000*%
%ADD21RoundRect,0.250000X-0.262500X-0.450000X0.262500X-0.450000X0.262500X0.450000X-0.262500X0.450000X0*%
%ADD22R,1.700000X1.700000*%
%ADD23O,1.700000X1.700000*%
%ADD24R,1.200000X0.400000*%
%ADD25R,1.200000X0.600000*%
%ADD26R,1.500000X1.000000*%
%ADD27RoundRect,0.250000X0.250000X0.475000X-0.250000X0.475000X-0.250000X-0.475000X0.250000X-0.475000X0*%
%ADD28R,0.900000X0.800000*%
%ADD29RoundRect,0.250000X-0.450000X0.262500X-0.450000X-0.262500X0.450000X-0.262500X0.450000X0.262500X0*%
%ADD30RoundRect,0.243750X0.456250X-0.243750X0.456250X0.243750X-0.456250X0.243750X-0.456250X-0.243750X0*%
%ADD31R,1.475000X0.450000*%
%ADD32FreePoly0,0.000000*%
%ADD33FreePoly1,0.000000*%
%ADD34R,0.600000X1.200000*%
%ADD35RoundRect,0.250000X0.262500X0.450000X-0.262500X0.450000X-0.262500X-0.450000X0.262500X-0.450000X0*%
%ADD36RoundRect,0.250000X-0.475000X0.250000X-0.475000X-0.250000X0.475000X-0.250000X0.475000X0.250000X0*%
%ADD37FreePoly0,180.000000*%
%ADD38FreePoly1,180.000000*%
%ADD39RoundRect,0.250000X0.475000X-0.250000X0.475000X0.250000X-0.475000X0.250000X-0.475000X-0.250000X0*%
%ADD40RoundRect,0.250000X0.450000X-0.262500X0.450000X0.262500X-0.450000X0.262500X-0.450000X-0.262500X0*%
%ADD41C,3.200000*%
%ADD42O,1.727200X1.727200*%
%ADD43R,1.727200X1.727200*%
G04 APERTURE END LIST*
D10*
X209804000Y-60198000D02*
X200914000Y-60198000D01*
X186679025Y-68389002D02*
G75*
G03*
X184584491Y-68389002I-1047267J31268D01*
G01*
D11*
G36*
X129914289Y-81146315D02*
G01*
X129286000Y-81146315D01*
X129286000Y-80832157D01*
X129914289Y-80832157D01*
X129914289Y-81146315D01*
G37*
G36*
X119204252Y-85558915D02*
G01*
X119204801Y-85558915D01*
X119204801Y-85872918D01*
X118890609Y-85872918D01*
X118890609Y-85558761D01*
X119204252Y-85558761D01*
X119204252Y-85558915D01*
G37*
G36*
X125187995Y-86501234D02*
G01*
X124873802Y-86501234D01*
X124873802Y-86187078D01*
X125187995Y-86187078D01*
X125187995Y-86501234D01*
G37*
G36*
X117319903Y-83659537D02*
G01*
X117005743Y-83659537D01*
X117005743Y-83345382D01*
X117319903Y-83345382D01*
X117319903Y-83659537D01*
G37*
G36*
X129601033Y-89642801D02*
G01*
X129599999Y-89642801D01*
X129599999Y-89642777D01*
X129601033Y-89642777D01*
X129601033Y-89642801D01*
G37*
D10*
X177800000Y-53594000D02*
X177800000Y-58674000D01*
D11*
G36*
X127401523Y-93426956D02*
G01*
X127087330Y-93426956D01*
X127087330Y-93112800D01*
X127401523Y-93112800D01*
X127401523Y-93426956D01*
G37*
G36*
X122988162Y-80832157D02*
G01*
X123616450Y-80832157D01*
X123616450Y-80518000D01*
X123930643Y-80518000D01*
X123930643Y-80832157D01*
X124244803Y-80832157D01*
X124244803Y-80518000D01*
X124873124Y-80518000D01*
X124873124Y-81146315D01*
X124558931Y-81146315D01*
X124558931Y-81460471D01*
X123930707Y-81460471D01*
X123930707Y-81146315D01*
X123616515Y-81146315D01*
X123616515Y-81460471D01*
X123302322Y-81460471D01*
X123302322Y-81146315D01*
X122359841Y-81146315D01*
X122359841Y-80832157D01*
X122045680Y-80832157D01*
X122045680Y-80518000D01*
X122988162Y-80518000D01*
X122988162Y-80832157D01*
G37*
G36*
X117005775Y-82717068D02*
G01*
X117005775Y-82402910D01*
X117319903Y-82402910D01*
X118890705Y-82402910D01*
X118890705Y-80832128D01*
X117319903Y-80832128D01*
X117319903Y-82402910D01*
X117005775Y-82402910D01*
X117005775Y-80517974D01*
X119204866Y-80517974D01*
X119204866Y-82717070D01*
X118890705Y-82717070D01*
X118105321Y-82717068D01*
X117005775Y-82717068D01*
G37*
D10*
X181864000Y-65439000D02*
X184912000Y-67564000D01*
D11*
G36*
X120147282Y-86815389D02*
G01*
X119833090Y-86815389D01*
X119833090Y-86501232D01*
X120147282Y-86501232D01*
X120147282Y-86815389D01*
G37*
D10*
X187420732Y-70104000D02*
G75*
G03*
X189515268Y-70104000I1047268J0D01*
G01*
D11*
G36*
X121732715Y-92484488D02*
G01*
X121732101Y-92484488D01*
X121732101Y-92484487D01*
X121732715Y-92484487D01*
X121732715Y-92484488D01*
G37*
D10*
X184584490Y-69088000D02*
G75*
G03*
X186679026Y-69088000I1047268J0D01*
G01*
D11*
G36*
X129286452Y-92798642D02*
G01*
X128343971Y-92798642D01*
X128343971Y-91856172D01*
X129286452Y-91856172D01*
X129286452Y-92798642D01*
G37*
G36*
X125502285Y-81146289D02*
G01*
X125188092Y-81146289D01*
X125188092Y-80517974D01*
X125502285Y-80517974D01*
X125502285Y-81146289D01*
G37*
G36*
X118576545Y-92798642D02*
G01*
X117634064Y-92798642D01*
X117634064Y-91856172D01*
X118576545Y-91856172D01*
X118576545Y-92798642D01*
G37*
G36*
X129286485Y-89642797D02*
G01*
X128972292Y-89642797D01*
X128972292Y-89328641D01*
X129286485Y-89328641D01*
X129286485Y-89642797D01*
G37*
D10*
X209804000Y-99314000D02*
X200914000Y-99314000D01*
X184912000Y-65439000D02*
X187706000Y-67310000D01*
D11*
G36*
X127401651Y-91542020D02*
G01*
X127087460Y-91542020D01*
X127087460Y-91227864D01*
X127401651Y-91227864D01*
X127401651Y-91542020D01*
G37*
G36*
X128344327Y-88386171D02*
G01*
X128658487Y-88386171D01*
X128658487Y-88700327D01*
X128344327Y-88700327D01*
X128344327Y-89014483D01*
X128658164Y-89014483D01*
X128658164Y-89328640D01*
X128501068Y-89328641D01*
X128344004Y-89328641D01*
X128344004Y-89014483D01*
X127716006Y-89014483D01*
X127716006Y-89328640D01*
X127401846Y-89328640D01*
X127401846Y-90285314D01*
X127712421Y-90281784D01*
X128023028Y-90278250D01*
X128023028Y-89964093D01*
X127716006Y-89955993D01*
X127716006Y-89642803D01*
X128030199Y-89642803D01*
X128030199Y-89328645D01*
X128344392Y-89328645D01*
X128344392Y-89642801D01*
X128658552Y-89642801D01*
X128658552Y-89970590D01*
X128972712Y-89970634D01*
X129286840Y-89970676D01*
X129286840Y-89642801D01*
X129599999Y-89642801D01*
X129599999Y-89971213D01*
X129914192Y-89971213D01*
X129914192Y-90599526D01*
X129601066Y-90599546D01*
X129287390Y-90599546D01*
X129279444Y-90278250D01*
X129125933Y-90274199D01*
X128972422Y-90270149D01*
X128972422Y-90913707D01*
X128658229Y-90913707D01*
X128658229Y-90599551D01*
X127715748Y-90599551D01*
X127715748Y-90913707D01*
X127087460Y-90913707D01*
X127087460Y-91227864D01*
X126759120Y-91227864D01*
X126762544Y-91538450D01*
X126765967Y-91849036D01*
X127083680Y-91852881D01*
X127401425Y-91856725D01*
X127401425Y-92798648D01*
X126773105Y-92798648D01*
X126773105Y-92484492D01*
X126444669Y-92484492D01*
X126444669Y-93112805D01*
X126130508Y-93112805D01*
X126130508Y-93426956D01*
X125816316Y-93426956D01*
X125816316Y-93112800D01*
X126130508Y-93112800D01*
X126130508Y-92485422D01*
X126291125Y-92481384D01*
X126451775Y-92477347D01*
X126455747Y-92323839D01*
X126459720Y-92170332D01*
X126757860Y-92170332D01*
X126761833Y-92323840D01*
X126765805Y-92477348D01*
X126926455Y-92481385D01*
X127087104Y-92485423D01*
X127087104Y-92170331D01*
X126922579Y-92170332D01*
X126757860Y-92170332D01*
X126459720Y-92170332D01*
X126459720Y-92170331D01*
X125501994Y-92170331D01*
X125501994Y-92484486D01*
X125187834Y-92484486D01*
X125187834Y-91856173D01*
X124873802Y-91856173D01*
X124873802Y-91542018D01*
X124559610Y-91542018D01*
X124559610Y-91542017D01*
X124873802Y-91542017D01*
X125187995Y-91542017D01*
X125187995Y-91227862D01*
X125501186Y-91227862D01*
X125505159Y-91381371D01*
X125509131Y-91534879D01*
X125662643Y-91538932D01*
X125816154Y-91542986D01*
X125816154Y-91227862D01*
X125501186Y-91227862D01*
X125187995Y-91227862D01*
X125187995Y-91227861D01*
X124873802Y-91227861D01*
X124873802Y-91542017D01*
X124559610Y-91542017D01*
X124559610Y-91227861D01*
X124245450Y-91227861D01*
X124245450Y-91542018D01*
X124559610Y-91542018D01*
X124559610Y-91856173D01*
X124873641Y-91856173D01*
X124873641Y-92170330D01*
X124559448Y-92170330D01*
X124559448Y-91856173D01*
X124245288Y-91856173D01*
X124245288Y-91542017D01*
X123931095Y-91542017D01*
X123931095Y-92170331D01*
X124245288Y-92170331D01*
X124245288Y-92798643D01*
X124559448Y-92798643D01*
X124559448Y-92484487D01*
X124873641Y-92484487D01*
X124873641Y-92798643D01*
X125187834Y-92798643D01*
X125187834Y-93112800D01*
X125501994Y-93112800D01*
X125501994Y-93426956D01*
X124873705Y-93426956D01*
X124873705Y-93112800D01*
X124559513Y-93112800D01*
X124559513Y-93426956D01*
X123931224Y-93426956D01*
X123931224Y-93112800D01*
X123617032Y-93112800D01*
X123617032Y-92798643D01*
X122988743Y-92798643D01*
X122988743Y-92484488D01*
X123617678Y-92484488D01*
X123617678Y-92798644D01*
X123931838Y-92798644D01*
X123931838Y-92484488D01*
X123617678Y-92484488D01*
X122988743Y-92484488D01*
X122988743Y-92484487D01*
X123617032Y-92484487D01*
X123617032Y-92170331D01*
X123302871Y-92170331D01*
X123302871Y-91856174D01*
X122674583Y-91856174D01*
X122674583Y-91542018D01*
X122989325Y-91542018D01*
X123303517Y-91542018D01*
X123303517Y-91227861D01*
X122989325Y-91227861D01*
X122989325Y-91542018D01*
X122674583Y-91542018D01*
X122674583Y-91227861D01*
X122360390Y-91227861D01*
X122360390Y-91856174D01*
X122046908Y-91856174D01*
X122046908Y-91227861D01*
X121732715Y-91227861D01*
X121732715Y-91856174D01*
X122046197Y-91856174D01*
X122046197Y-92170331D01*
X122360390Y-92170331D01*
X122360390Y-92484487D01*
X121732715Y-92484487D01*
X121732715Y-92170332D01*
X121104394Y-92170332D01*
X121104394Y-92484488D01*
X121732101Y-92484488D01*
X121732101Y-92798643D01*
X122046262Y-92798643D01*
X122046262Y-93426956D01*
X119832896Y-93426956D01*
X119832896Y-92484486D01*
X119518735Y-92484486D01*
X119518735Y-92170332D01*
X120146830Y-92170332D01*
X120150803Y-92323840D01*
X120154775Y-92477348D01*
X120308287Y-92481402D01*
X120461798Y-92485455D01*
X120461798Y-92798643D01*
X120147638Y-92798643D01*
X120147638Y-93112800D01*
X120476074Y-93112800D01*
X120476074Y-92798643D01*
X120790234Y-92798643D01*
X120790234Y-93112800D01*
X121104427Y-93112800D01*
X121104427Y-92798643D01*
X121103232Y-92798643D01*
X120947492Y-92798645D01*
X120790395Y-92798645D01*
X120790395Y-91856175D01*
X120461960Y-91856175D01*
X120461960Y-92170332D01*
X120146830Y-92170332D01*
X119518735Y-92170332D01*
X119518735Y-92170330D01*
X119832896Y-92170330D01*
X119832896Y-91542018D01*
X120146959Y-91542018D01*
X120154905Y-91849034D01*
X120296692Y-91853154D01*
X120325554Y-91853836D01*
X120353228Y-91854184D01*
X120379051Y-91854213D01*
X120402366Y-91853935D01*
X120422512Y-91853364D01*
X120438830Y-91852515D01*
X120450659Y-91851399D01*
X120454685Y-91850747D01*
X120457341Y-91850033D01*
X120458628Y-91849425D01*
X120459862Y-91848603D01*
X120461043Y-91847560D01*
X120462173Y-91846291D01*
X120463252Y-91844788D01*
X120464281Y-91843045D01*
X120465260Y-91841056D01*
X120466192Y-91838814D01*
X120467075Y-91836312D01*
X120467912Y-91833546D01*
X120468703Y-91830507D01*
X120469449Y-91827189D01*
X120470150Y-91823586D01*
X120470808Y-91819692D01*
X120471996Y-91811004D01*
X120473020Y-91801072D01*
X120473887Y-91789846D01*
X120474602Y-91777273D01*
X120475172Y-91763302D01*
X120475605Y-91747882D01*
X120475906Y-91730960D01*
X120476081Y-91712485D01*
X120476138Y-91692406D01*
X120476138Y-91542020D01*
X120311678Y-91542018D01*
X120146959Y-91542018D01*
X119832896Y-91542018D01*
X119832896Y-91542017D01*
X119518735Y-91542017D01*
X119518735Y-91227861D01*
X119832831Y-91227861D01*
X119836804Y-91381370D01*
X119840776Y-91534878D01*
X119982532Y-91538995D01*
X120011403Y-91539677D01*
X120039081Y-91540025D01*
X120064905Y-91540053D01*
X120088218Y-91539775D01*
X120108360Y-91539205D01*
X120124674Y-91538355D01*
X120136500Y-91537240D01*
X120140525Y-91536587D01*
X120143181Y-91535873D01*
X120144468Y-91535265D01*
X120145702Y-91534443D01*
X120146883Y-91533401D01*
X120148013Y-91532131D01*
X120149092Y-91530628D01*
X120150120Y-91528885D01*
X120151100Y-91526896D01*
X120152031Y-91524654D01*
X120152915Y-91522153D01*
X120153751Y-91519386D01*
X120154542Y-91516347D01*
X120155288Y-91513030D01*
X120155989Y-91509427D01*
X120156647Y-91505533D01*
X120157836Y-91496845D01*
X120158860Y-91486913D01*
X120159726Y-91475687D01*
X120160441Y-91463114D01*
X120161012Y-91449143D01*
X120161444Y-91433722D01*
X120161745Y-91416801D01*
X120161921Y-91398326D01*
X120161978Y-91378247D01*
X120161978Y-91227861D01*
X119832896Y-91227861D01*
X119832896Y-90600482D01*
X119869758Y-90599555D01*
X120146636Y-90599555D01*
X120150609Y-90753064D01*
X120154582Y-90906572D01*
X120308093Y-90910626D01*
X120461604Y-90914679D01*
X120461604Y-91067701D01*
X120462030Y-91139512D01*
X120463025Y-91221917D01*
X120465028Y-91377805D01*
X120467935Y-91534883D01*
X120782095Y-91534883D01*
X120786068Y-91381375D01*
X120790040Y-91227866D01*
X121103232Y-91227866D01*
X121103232Y-91542990D01*
X121256743Y-91538936D01*
X121410254Y-91534883D01*
X121413969Y-91224297D01*
X121417683Y-90913710D01*
X121564960Y-90913710D01*
X121594739Y-90913516D01*
X121622894Y-90912959D01*
X121648784Y-90912079D01*
X121671765Y-90910914D01*
X121691197Y-90909504D01*
X121706435Y-90907887D01*
X121716840Y-90906103D01*
X121720028Y-90905160D01*
X121721766Y-90904190D01*
X121722260Y-90903509D01*
X121722746Y-90902455D01*
X121723697Y-90899266D01*
X121724613Y-90894705D01*
X121725490Y-90888851D01*
X121726323Y-90881785D01*
X121727109Y-90873588D01*
X121728517Y-90854122D01*
X121729676Y-90831097D01*
X121730550Y-90805158D01*
X121731102Y-90776948D01*
X121731294Y-90747112D01*
X121731294Y-90599554D01*
X121575651Y-90599549D01*
X121418555Y-90599549D01*
X121418555Y-90913705D01*
X121104362Y-90913705D01*
X121104362Y-90600515D01*
X121257874Y-90596464D01*
X121411385Y-90592414D01*
X121411385Y-90278258D01*
X121100810Y-90274723D01*
X120938126Y-90272874D01*
X120790202Y-90271194D01*
X120790202Y-90599555D01*
X120146636Y-90599555D01*
X119869758Y-90599555D01*
X120154194Y-90592402D01*
X120157101Y-90435324D01*
X120158717Y-90362258D01*
X120159709Y-90279436D01*
X120159715Y-90278252D01*
X120469259Y-90278252D01*
X120611046Y-90282372D01*
X120639918Y-90283050D01*
X120667616Y-90283388D01*
X120693480Y-90283399D01*
X120716849Y-90283099D01*
X120737062Y-90282501D01*
X120753456Y-90281620D01*
X120765372Y-90280469D01*
X120769444Y-90279798D01*
X120772147Y-90279064D01*
X120773527Y-90278434D01*
X120774840Y-90277614D01*
X120776086Y-90276597D01*
X120777267Y-90275371D01*
X120778383Y-90273928D01*
X120779435Y-90272257D01*
X120780425Y-90270350D01*
X120781353Y-90268197D01*
X120782220Y-90265787D01*
X120783027Y-90263113D01*
X120783774Y-90260164D01*
X120784464Y-90256931D01*
X120785097Y-90253403D01*
X120785673Y-90249573D01*
X120786194Y-90245429D01*
X120786661Y-90240963D01*
X120787435Y-90231025D01*
X120788002Y-90219683D01*
X120788371Y-90206860D01*
X120788548Y-90192481D01*
X120788541Y-90176468D01*
X120788357Y-90158746D01*
X120788004Y-90139238D01*
X120787489Y-90117868D01*
X120783701Y-89971239D01*
X120790557Y-89971239D01*
X120938126Y-89971239D01*
X120967964Y-89971036D01*
X120996198Y-89970452D01*
X121022181Y-89969530D01*
X121045265Y-89968309D01*
X121064804Y-89966832D01*
X121080150Y-89965138D01*
X121090656Y-89963268D01*
X121093891Y-89962281D01*
X121095674Y-89961264D01*
X121096186Y-89960556D01*
X121096681Y-89959467D01*
X121097617Y-89956186D01*
X121098478Y-89951504D01*
X121099262Y-89945503D01*
X121099965Y-89938266D01*
X121100585Y-89929874D01*
X121101560Y-89909960D01*
X121102163Y-89886417D01*
X121102369Y-89859906D01*
X121102152Y-89831086D01*
X121101488Y-89800615D01*
X121097515Y-89649942D01*
X120944068Y-89645886D01*
X120827324Y-89642806D01*
X121105363Y-89642806D01*
X121419524Y-89642806D01*
X121419524Y-89971242D01*
X121567092Y-89971242D01*
X121596929Y-89971038D01*
X121625160Y-89970455D01*
X121651139Y-89969533D01*
X121674220Y-89968312D01*
X121693757Y-89966835D01*
X121709103Y-89965141D01*
X121719613Y-89963271D01*
X121722853Y-89962283D01*
X121724641Y-89961267D01*
X121725153Y-89960559D01*
X121725648Y-89959470D01*
X121726584Y-89956189D01*
X121727445Y-89951507D01*
X121728229Y-89945506D01*
X121728932Y-89938269D01*
X121729552Y-89929877D01*
X121730527Y-89909963D01*
X121731130Y-89886421D01*
X121731335Y-89859910D01*
X121731119Y-89831090D01*
X121730454Y-89800619D01*
X121726482Y-89649945D01*
X121572227Y-89645886D01*
X121418716Y-89641836D01*
X121418716Y-89488811D01*
X121418290Y-89417000D01*
X121417295Y-89334596D01*
X121415293Y-89178707D01*
X121412386Y-89021629D01*
X121258875Y-89017578D01*
X121105363Y-89013526D01*
X121105363Y-89642806D01*
X120827324Y-89642806D01*
X120790557Y-89641836D01*
X120790557Y-89971239D01*
X120783701Y-89971239D01*
X120783516Y-89964097D01*
X120626323Y-89964095D01*
X120469259Y-89964095D01*
X120469259Y-90278252D01*
X120159715Y-90278252D01*
X120160524Y-90125220D01*
X120160524Y-89972194D01*
X120314036Y-89968144D01*
X120467547Y-89964093D01*
X120471520Y-89803445D01*
X120475492Y-89642797D01*
X120788232Y-89642797D01*
X120785066Y-89175133D01*
X120781643Y-88707467D01*
X120628132Y-88703415D01*
X120474652Y-88699364D01*
X120474652Y-88546339D01*
X120474227Y-88474528D01*
X120473231Y-88392123D01*
X120471229Y-88236236D01*
X120468322Y-88079158D01*
X120154129Y-88079158D01*
X120150157Y-88232189D01*
X120146184Y-88385220D01*
X119993157Y-88389265D01*
X119840163Y-88393317D01*
X119836998Y-89012966D01*
X119832831Y-89452187D01*
X119830603Y-89587041D01*
X119828277Y-89638043D01*
X119814563Y-89639200D01*
X119777311Y-89640407D01*
X119642456Y-89642828D01*
X119444239Y-89645022D01*
X119203186Y-89646706D01*
X118890544Y-89648339D01*
X118583521Y-89649942D01*
X118579549Y-89803450D01*
X118575576Y-89956958D01*
X118262385Y-89956958D01*
X118262385Y-89642802D01*
X117948224Y-89642802D01*
X117948224Y-89956958D01*
X117319903Y-89956958D01*
X117319903Y-89642802D01*
X117634096Y-89642802D01*
X117634096Y-89014489D01*
X117319903Y-89014489D01*
X117319903Y-88700333D01*
X117634096Y-88700333D01*
X117634096Y-88386177D01*
X117948289Y-88386177D01*
X117948289Y-88072020D01*
X117634096Y-88072020D01*
X117634096Y-87758015D01*
X117633386Y-87758015D01*
X117633386Y-87757864D01*
X117634096Y-87757864D01*
X117634096Y-87758015D01*
X117947546Y-87758015D01*
X117947546Y-87129702D01*
X117633386Y-87129702D01*
X117633386Y-86815546D01*
X117947546Y-86815546D01*
X117947546Y-86501390D01*
X118261739Y-86501390D01*
X118261739Y-86187234D01*
X119204220Y-86187234D01*
X119204220Y-85873077D01*
X119518380Y-85873077D01*
X119518380Y-86187234D01*
X119832573Y-86187234D01*
X119832573Y-86501390D01*
X119518380Y-86501390D01*
X119518380Y-87129702D01*
X118575931Y-87129702D01*
X118575931Y-86815546D01*
X119204220Y-86815546D01*
X119204220Y-86501390D01*
X118575931Y-86501390D01*
X118575931Y-86815546D01*
X118261739Y-86815546D01*
X118261739Y-87758015D01*
X118575931Y-87758015D01*
X118575931Y-88700486D01*
X117947611Y-88700486D01*
X117947611Y-89328641D01*
X118261803Y-89328641D01*
X118261803Y-89642797D01*
X118575996Y-89642797D01*
X118575996Y-89328636D01*
X118890544Y-89328636D01*
X119519834Y-89328636D01*
X119519834Y-89013924D01*
X119209064Y-89017776D01*
X118898489Y-89021619D01*
X118894517Y-89175128D01*
X118890544Y-89328636D01*
X118575996Y-89328636D01*
X118575996Y-88700327D01*
X119204284Y-88700327D01*
X119204284Y-88386171D01*
X118890092Y-88386171D01*
X118890092Y-88072014D01*
X119832573Y-88072014D01*
X119832573Y-87757858D01*
X120789330Y-87757858D01*
X120789330Y-88386171D01*
X121417618Y-88386171D01*
X121417618Y-88700327D01*
X121731811Y-88700327D01*
X121731811Y-88386171D01*
X122045971Y-88386171D01*
X122045971Y-89014483D01*
X121731811Y-89014483D01*
X121731811Y-89328640D01*
X122045971Y-89328640D01*
X122045971Y-89972199D01*
X122199482Y-89968149D01*
X122352994Y-89964098D01*
X122360422Y-89328646D01*
X122674034Y-89328646D01*
X122674034Y-89642802D01*
X122988226Y-89642802D01*
X122988226Y-89328646D01*
X123302387Y-89328646D01*
X123302387Y-89956958D01*
X122984673Y-89957779D01*
X122715169Y-89957901D01*
X122513417Y-89957012D01*
X122359906Y-89955398D01*
X122359906Y-90271104D01*
X122045745Y-90271104D01*
X122045745Y-90914669D01*
X122199256Y-90910616D01*
X122352768Y-90906562D01*
X122356740Y-90753054D01*
X122360713Y-90599546D01*
X122988065Y-90599546D01*
X122988065Y-90913702D01*
X123616353Y-90913702D01*
X123616353Y-91542015D01*
X123930546Y-91542015D01*
X123930546Y-90913702D01*
X124244707Y-90913702D01*
X124244707Y-90599548D01*
X124873350Y-90599548D01*
X124881296Y-90906564D01*
X125034775Y-90910618D01*
X125188286Y-90914671D01*
X125188286Y-90913707D01*
X126130897Y-90913707D01*
X126134319Y-91381372D01*
X126137485Y-91849036D01*
X126451677Y-91849036D01*
X126454584Y-91691958D01*
X126456200Y-91618855D01*
X126457192Y-91535928D01*
X126458008Y-91381372D01*
X126458008Y-91227864D01*
X126605576Y-91227864D01*
X126635405Y-91227669D01*
X126663610Y-91227112D01*
X126689548Y-91226232D01*
X126712575Y-91225067D01*
X126732045Y-91223657D01*
X126747314Y-91222040D01*
X126757738Y-91220256D01*
X126760932Y-91219314D01*
X126762672Y-91218344D01*
X126763166Y-91217663D01*
X126763652Y-91216608D01*
X126764603Y-91213420D01*
X126765519Y-91208858D01*
X126766396Y-91203004D01*
X126767230Y-91195938D01*
X126768015Y-91187741D01*
X126769423Y-91168275D01*
X126770583Y-91145250D01*
X126771457Y-91119311D01*
X126772008Y-91091101D01*
X126772201Y-91061266D01*
X126772201Y-90913707D01*
X126130897Y-90913707D01*
X125188286Y-90913707D01*
X125188286Y-90599548D01*
X124873350Y-90599548D01*
X124244707Y-90599548D01*
X124244707Y-90599546D01*
X124558899Y-90599546D01*
X124558899Y-90592400D01*
X125195197Y-90592400D01*
X125505805Y-90595934D01*
X125816413Y-90599469D01*
X125816413Y-89964093D01*
X125823454Y-89964093D01*
X125976965Y-89968144D01*
X126130476Y-89972194D01*
X126130476Y-89641826D01*
X125976965Y-89645886D01*
X125823454Y-89649937D01*
X125823454Y-89964093D01*
X125816413Y-89964093D01*
X125816413Y-89955985D01*
X125662707Y-89960043D01*
X125509196Y-89964093D01*
X125505224Y-90117123D01*
X125501251Y-90270153D01*
X125348257Y-90274198D01*
X125195197Y-90278244D01*
X125195197Y-90592400D01*
X124558899Y-90592400D01*
X124558899Y-90285389D01*
X124719548Y-90284569D01*
X124878078Y-90284447D01*
X125033676Y-90285336D01*
X125187187Y-90286950D01*
X125187187Y-89957599D01*
X124562452Y-89960853D01*
X123937684Y-89964102D01*
X123929738Y-90270162D01*
X123776712Y-90274207D01*
X123623685Y-90278253D01*
X123619712Y-90438901D01*
X123615740Y-90599549D01*
X122988388Y-90599549D01*
X122988388Y-90285392D01*
X123616676Y-90285392D01*
X123616676Y-89642799D01*
X124244965Y-89642799D01*
X124244965Y-89328643D01*
X124559157Y-89328643D01*
X124559157Y-89014485D01*
X124245546Y-89014485D01*
X124245546Y-88700329D01*
X123931354Y-88700329D01*
X123931354Y-89014485D01*
X123617193Y-89014485D01*
X123617193Y-89328642D01*
X123303000Y-89328642D01*
X123303000Y-89014485D01*
X122674712Y-89014485D01*
X122674712Y-88386173D01*
X122046391Y-88386173D01*
X122046391Y-88072016D01*
X122674712Y-88072016D01*
X122674712Y-87757860D01*
X122988873Y-87757860D01*
X122988873Y-87443703D01*
X123303065Y-87443703D01*
X123303065Y-88072014D01*
X122674809Y-88072014D01*
X122674809Y-88386171D01*
X122988969Y-88386171D01*
X122988969Y-88700327D01*
X123303162Y-88700327D01*
X123303162Y-89014483D01*
X123617354Y-89014483D01*
X123617354Y-88700327D01*
X123931515Y-88700327D01*
X123931515Y-88386171D01*
X124245707Y-88386171D01*
X124245707Y-88072016D01*
X124245481Y-88072016D01*
X124245481Y-88072014D01*
X124088482Y-88072016D01*
X123931386Y-88072016D01*
X123931386Y-88386171D01*
X123303097Y-88386171D01*
X123303097Y-88072016D01*
X123303065Y-88072016D01*
X123303065Y-88072014D01*
X123303097Y-88072014D01*
X123303097Y-88072016D01*
X123931354Y-88072016D01*
X123931354Y-87443703D01*
X123617193Y-87443703D01*
X123617193Y-87129547D01*
X124245481Y-87129547D01*
X124245481Y-88072014D01*
X124245707Y-88072014D01*
X124245707Y-88072016D01*
X124873770Y-88072016D01*
X124873770Y-88386171D01*
X124716803Y-88386173D01*
X124559739Y-88386173D01*
X124559739Y-89014485D01*
X124873318Y-89014485D01*
X124873318Y-89328642D01*
X125187510Y-89328642D01*
X125187510Y-89014485D01*
X125501703Y-89014485D01*
X125501703Y-89327677D01*
X125348192Y-89331727D01*
X125194681Y-89335778D01*
X125186735Y-89642794D01*
X125816025Y-89642794D01*
X125816025Y-89328637D01*
X126444314Y-89328637D01*
X126444314Y-89489286D01*
X126447738Y-90121169D01*
X126450902Y-90592404D01*
X126603929Y-90596449D01*
X126756956Y-90600499D01*
X126760929Y-90753529D01*
X126764901Y-90906559D01*
X127079094Y-90906559D01*
X127083067Y-90753529D01*
X127087039Y-90600499D01*
X127240034Y-90596449D01*
X127393061Y-90592404D01*
X127393061Y-90285394D01*
X128344036Y-90285394D01*
X128491572Y-90285394D01*
X128521420Y-90285191D01*
X128549658Y-90284608D01*
X128575642Y-90283685D01*
X128598724Y-90282465D01*
X128618259Y-90280987D01*
X128633601Y-90279293D01*
X128644104Y-90277424D01*
X128647339Y-90276436D01*
X128649121Y-90275420D01*
X128649633Y-90274711D01*
X128650128Y-90273622D01*
X128651064Y-90270341D01*
X128651925Y-90265659D01*
X128652709Y-90259658D01*
X128653413Y-90252421D01*
X128654032Y-90244030D01*
X128655007Y-90224115D01*
X128655610Y-90200573D01*
X128655816Y-90174063D01*
X128655599Y-90145242D01*
X128654935Y-90114771D01*
X128650962Y-89964096D01*
X128497547Y-89960042D01*
X128344036Y-89955992D01*
X128344036Y-90285394D01*
X127393061Y-90285394D01*
X127393061Y-90278248D01*
X127239550Y-90274197D01*
X127086070Y-90270147D01*
X127086070Y-90117121D01*
X127082646Y-89649940D01*
X127079740Y-89335782D01*
X126926681Y-89331732D01*
X126773686Y-89327687D01*
X126769713Y-89174656D01*
X126765741Y-89021625D01*
X126451581Y-89018563D01*
X126445509Y-89018517D01*
X126130476Y-89016148D01*
X126130315Y-89016147D01*
X125976771Y-89014992D01*
X125822728Y-89014485D01*
X127087234Y-89014485D01*
X127401425Y-89014485D01*
X127401425Y-88700329D01*
X127716523Y-88700329D01*
X127712550Y-88546820D01*
X127708577Y-88393310D01*
X127554937Y-88389259D01*
X127401425Y-88385208D01*
X127401425Y-88700329D01*
X127087234Y-88700329D01*
X127087234Y-89014485D01*
X125822728Y-89014485D01*
X125816348Y-89014464D01*
X125816122Y-89014463D01*
X125816122Y-88700331D01*
X126445509Y-88700331D01*
X126773460Y-88700331D01*
X126773460Y-88386174D01*
X127087653Y-88386174D01*
X127087653Y-88072018D01*
X127715941Y-88072018D01*
X127715941Y-87757862D01*
X128030134Y-87757862D01*
X128030134Y-88072014D01*
X128343971Y-88072014D01*
X128343971Y-87757858D01*
X129286485Y-87757858D01*
X129600645Y-87757858D01*
X129600645Y-87443702D01*
X129286485Y-87443702D01*
X129286485Y-87757858D01*
X128343971Y-87757858D01*
X128029778Y-87757858D01*
X128029778Y-87443702D01*
X127715586Y-87443702D01*
X127715586Y-87757559D01*
X127083713Y-87761279D01*
X126451839Y-87765000D01*
X126448674Y-88232665D01*
X126445509Y-88700331D01*
X125816122Y-88700331D01*
X125816122Y-88700329D01*
X125816348Y-88700329D01*
X125816348Y-88700307D01*
X126130315Y-88700307D01*
X126130315Y-87443703D01*
X126130476Y-87443703D01*
X126130476Y-87443682D01*
X126130315Y-87443682D01*
X126130315Y-87443703D01*
X125973445Y-87443702D01*
X125816348Y-87443702D01*
X125816348Y-88700307D01*
X125816122Y-88700307D01*
X125816122Y-88700329D01*
X125502155Y-88700329D01*
X125502155Y-88072016D01*
X125187995Y-88072016D01*
X125187995Y-87129547D01*
X125816283Y-87129547D01*
X125816283Y-86815391D01*
X126130476Y-86815391D01*
X126130476Y-87443682D01*
X126458751Y-87443682D01*
X126458751Y-87129525D01*
X126772943Y-87129525D01*
X126772943Y-86501212D01*
X127087104Y-86501212D01*
X127087104Y-86815368D01*
X127401297Y-86815368D01*
X127401297Y-87128980D01*
X127083584Y-87132823D01*
X126765838Y-87136667D01*
X126761866Y-87290174D01*
X126757893Y-87443683D01*
X127401425Y-87443683D01*
X127401425Y-87129545D01*
X128343907Y-87129545D01*
X128658068Y-87129545D01*
X128658068Y-86815389D01*
X128343907Y-86815389D01*
X128343907Y-87129545D01*
X127401425Y-87129545D01*
X127401425Y-87129527D01*
X128029715Y-87129527D01*
X128029715Y-86815371D01*
X127715554Y-86815371D01*
X127715554Y-86501232D01*
X127715618Y-86501232D01*
X127715618Y-86501214D01*
X127715554Y-86501214D01*
X127715554Y-86501232D01*
X127401425Y-86501232D01*
X127401425Y-86187076D01*
X127715618Y-86187076D01*
X127715618Y-86501214D01*
X128343842Y-86501214D01*
X128343842Y-86187058D01*
X127715554Y-86187058D01*
X127715554Y-85872902D01*
X128658035Y-85872902D01*
X128658035Y-85558800D01*
X128657615Y-85558800D01*
X128657615Y-85558745D01*
X128029747Y-85558763D01*
X127401425Y-85558763D01*
X127401425Y-85245572D01*
X127554937Y-85241517D01*
X127708448Y-85237461D01*
X127712421Y-85084431D01*
X127716393Y-84931401D01*
X127869389Y-84927346D01*
X128022415Y-84923291D01*
X128026387Y-84769784D01*
X128030360Y-84616274D01*
X127086910Y-84616274D01*
X127086910Y-84930425D01*
X126757505Y-84930425D01*
X126761477Y-85083934D01*
X126765450Y-85237443D01*
X127079611Y-85237443D01*
X127083584Y-85083934D01*
X127087556Y-84930425D01*
X127400747Y-84930425D01*
X127400747Y-85244583D01*
X127086587Y-85244583D01*
X127086587Y-85558739D01*
X127400747Y-85558739D01*
X127400747Y-85872894D01*
X127086587Y-85872894D01*
X127086587Y-86187052D01*
X126772394Y-86187052D01*
X126772394Y-85872894D01*
X126442376Y-85872894D01*
X126445024Y-86026403D01*
X126445024Y-86815363D01*
X126130832Y-86815363D01*
X126130832Y-86501206D01*
X125502543Y-86501206D01*
X125502543Y-86187050D01*
X125188351Y-86187050D01*
X125188351Y-85558765D01*
X125502285Y-85558765D01*
X125506257Y-85712272D01*
X125510230Y-85865782D01*
X125663741Y-85869837D01*
X125817252Y-85873893D01*
X125817252Y-85558771D01*
X126131412Y-85558771D01*
X126131412Y-85244613D01*
X126286119Y-85244613D01*
X126287086Y-85244607D01*
X126443667Y-85244607D01*
X126447640Y-85398116D01*
X126451613Y-85551626D01*
X126593400Y-85555748D01*
X126622263Y-85556433D01*
X126649936Y-85556789D01*
X126675760Y-85556827D01*
X126699074Y-85556558D01*
X126719220Y-85555992D01*
X126735538Y-85555140D01*
X126747368Y-85554013D01*
X126751393Y-85553350D01*
X126754049Y-85552623D01*
X126755336Y-85552015D01*
X126756570Y-85551192D01*
X126757752Y-85550150D01*
X126758881Y-85548880D01*
X126759960Y-85547377D01*
X126760989Y-85545634D01*
X126761969Y-85543645D01*
X126762900Y-85541403D01*
X126763783Y-85538902D01*
X126764620Y-85536135D01*
X126765411Y-85533096D01*
X126766157Y-85529778D01*
X126766858Y-85526176D01*
X126767516Y-85522282D01*
X126768704Y-85513593D01*
X126769728Y-85503662D01*
X126770595Y-85492435D01*
X126771310Y-85479863D01*
X126771880Y-85465892D01*
X126772313Y-85450472D01*
X126772613Y-85433550D01*
X126772789Y-85415076D01*
X126772846Y-85394997D01*
X126772846Y-85244611D01*
X126675539Y-85244608D01*
X126608354Y-85244607D01*
X126443667Y-85244607D01*
X126287086Y-85244607D01*
X126317396Y-85244419D01*
X126346948Y-85243863D01*
X126374104Y-85242984D01*
X126398188Y-85241819D01*
X126418529Y-85240410D01*
X126434452Y-85238793D01*
X126445285Y-85237009D01*
X126448582Y-85236066D01*
X126450354Y-85235096D01*
X126450847Y-85234415D01*
X126451333Y-85233360D01*
X126452284Y-85230171D01*
X126453200Y-85225609D01*
X126454077Y-85219755D01*
X126454910Y-85212689D01*
X126455696Y-85204492D01*
X126457103Y-85185026D01*
X126458263Y-85162002D01*
X126459137Y-85136063D01*
X126459689Y-85107853D01*
X126459881Y-85078017D01*
X126459881Y-84930459D01*
X126136839Y-84930450D01*
X125814766Y-84930450D01*
X125817414Y-85083960D01*
X125817414Y-85558765D01*
X125502285Y-85558765D01*
X125188351Y-85558765D01*
X125188351Y-85558735D01*
X124560062Y-85558735D01*
X124560062Y-85872894D01*
X124874255Y-85872894D01*
X124874255Y-86187052D01*
X123931773Y-86187052D01*
X123931773Y-85872894D01*
X124245934Y-85872894D01*
X124245934Y-85558737D01*
X123617645Y-85558737D01*
X123617645Y-85244581D01*
X124245934Y-85244581D01*
X124245934Y-84616266D01*
X124559125Y-84616266D01*
X124563098Y-84769775D01*
X124567070Y-84923282D01*
X125034742Y-84927049D01*
X125502381Y-84930816D01*
X125502381Y-84616270D01*
X125188221Y-84616270D01*
X125188221Y-84302136D01*
X125501186Y-84302136D01*
X125505159Y-84455645D01*
X125509131Y-84609155D01*
X125662643Y-84613210D01*
X125816154Y-84617266D01*
X125816154Y-84302144D01*
X125698090Y-84302138D01*
X126129507Y-84302138D01*
X126133480Y-84455647D01*
X126137452Y-84609156D01*
X126290512Y-84613211D01*
X126443506Y-84617255D01*
X126447479Y-84770286D01*
X126451451Y-84923315D01*
X126593239Y-84927437D01*
X126622094Y-84928122D01*
X126649747Y-84928480D01*
X126675539Y-84928523D01*
X126698812Y-84928262D01*
X126718909Y-84927710D01*
X126735172Y-84926880D01*
X126746943Y-84925783D01*
X126750939Y-84925138D01*
X126753565Y-84924432D01*
X126754899Y-84923720D01*
X126756173Y-84922611D01*
X126757387Y-84921086D01*
X126758542Y-84919126D01*
X126759640Y-84916712D01*
X126760682Y-84913823D01*
X126761669Y-84910442D01*
X126762602Y-84906549D01*
X126764312Y-84897151D01*
X126765822Y-84885475D01*
X126767142Y-84871368D01*
X126768281Y-84854677D01*
X126769249Y-84835248D01*
X126770057Y-84812929D01*
X126770713Y-84787566D01*
X126771228Y-84759005D01*
X126771612Y-84727094D01*
X126771874Y-84691679D01*
X126772072Y-84609726D01*
X126772072Y-84302142D01*
X126767195Y-84302142D01*
X126450967Y-84302138D01*
X126129507Y-84302138D01*
X125698090Y-84302138D01*
X125658735Y-84302136D01*
X125501186Y-84302136D01*
X125188221Y-84302136D01*
X125188221Y-83972710D01*
X125034710Y-83976766D01*
X124881198Y-83980821D01*
X124877226Y-84141469D01*
X124873253Y-84302118D01*
X124560029Y-84302118D01*
X124560029Y-83972132D01*
X124406518Y-83973746D01*
X124250916Y-83974640D01*
X124092358Y-83974540D01*
X123931741Y-83973746D01*
X123931741Y-83345434D01*
X124559481Y-83345434D01*
X124566909Y-83980888D01*
X124720420Y-83984943D01*
X124873931Y-83988999D01*
X124873931Y-83666701D01*
X125196554Y-83666701D01*
X125353618Y-83669631D01*
X125509528Y-83671889D01*
X125663741Y-83673201D01*
X125816768Y-83673863D01*
X125820741Y-83827373D01*
X125824714Y-83980881D01*
X126767195Y-83980881D01*
X126771167Y-83827373D01*
X126775140Y-83673863D01*
X126922192Y-83673863D01*
X126951934Y-83673670D01*
X126980053Y-83673115D01*
X127005907Y-83672238D01*
X127028855Y-83671079D01*
X127048254Y-83669675D01*
X127063462Y-83668065D01*
X127073838Y-83666290D01*
X127077013Y-83665352D01*
X127078739Y-83664387D01*
X127079701Y-83661822D01*
X127080597Y-83656191D01*
X127082182Y-83636384D01*
X127083468Y-83606267D01*
X127084432Y-83567145D01*
X127085047Y-83520320D01*
X127085288Y-83467095D01*
X127085132Y-83408773D01*
X127084553Y-83346659D01*
X127081129Y-83038409D01*
X126926552Y-83034318D01*
X126809293Y-83031229D01*
X127401425Y-83031229D01*
X128343907Y-83031229D01*
X128343907Y-82088757D01*
X127872650Y-82088760D01*
X127401425Y-82088760D01*
X127401425Y-83031229D01*
X126809293Y-83031229D01*
X126773041Y-83030274D01*
X126773041Y-82717083D01*
X127087136Y-82717083D01*
X127083713Y-82406495D01*
X127080289Y-82095908D01*
X126766129Y-82095908D01*
X126758183Y-82401968D01*
X126605157Y-82406023D01*
X126452162Y-82410066D01*
X126449255Y-82567144D01*
X126447639Y-82640209D01*
X126446647Y-82723031D01*
X126445831Y-82877248D01*
X126445831Y-83030274D01*
X126292320Y-83034318D01*
X126138809Y-83038373D01*
X126134836Y-83191882D01*
X126130864Y-83345389D01*
X126444636Y-83345389D01*
X126444636Y-83659546D01*
X126130476Y-83659546D01*
X126130476Y-83345391D01*
X126130864Y-83345389D01*
X126130476Y-83345389D01*
X126130476Y-83345391D01*
X125977869Y-83345918D01*
X125510682Y-83349487D01*
X125196554Y-83352546D01*
X125196554Y-83666701D01*
X124873931Y-83666701D01*
X124873931Y-83345440D01*
X125188092Y-83345440D01*
X125188092Y-83030318D01*
X125034580Y-83034374D01*
X124881102Y-83038429D01*
X124877129Y-83191938D01*
X124873157Y-83345447D01*
X124559965Y-83345447D01*
X124559965Y-82717133D01*
X124245772Y-82717133D01*
X124245772Y-83031281D01*
X123931580Y-83031281D01*
X123931580Y-83345440D01*
X122989099Y-83345440D01*
X122989099Y-83031281D01*
X123303291Y-83031281D01*
X123303291Y-82717125D01*
X122360810Y-82717125D01*
X122360810Y-82402968D01*
X122046617Y-82402968D01*
X122046617Y-82088810D01*
X121732457Y-82088810D01*
X121732457Y-81774654D01*
X121418264Y-81774654D01*
X121418264Y-81146339D01*
X120789976Y-81146339D01*
X120789976Y-81459565D01*
X120629327Y-81463609D01*
X120468677Y-81467637D01*
X120464705Y-81620869D01*
X120460732Y-81774099D01*
X120150609Y-81777946D01*
X119840518Y-81781793D01*
X119836804Y-82092381D01*
X119833090Y-82402968D01*
X120460216Y-82402968D01*
X120464705Y-82570758D01*
X120466195Y-82647418D01*
X120466691Y-82732113D01*
X120466195Y-82814550D01*
X120464705Y-82884435D01*
X120460732Y-83030325D01*
X120307705Y-83034380D01*
X120154679Y-83038423D01*
X120150706Y-83191932D01*
X120146733Y-83345440D01*
X120460926Y-83345440D01*
X120464899Y-83506089D01*
X120468871Y-83666738D01*
X120783064Y-83666738D01*
X120786229Y-83195503D01*
X120788837Y-82815503D01*
X120789653Y-82563619D01*
X120789653Y-82402971D01*
X122046294Y-82402971D01*
X122046294Y-82717127D01*
X121417973Y-82717127D01*
X121417973Y-83345438D01*
X121103813Y-83345438D01*
X121103813Y-83659596D01*
X120789620Y-83659596D01*
X120789620Y-83987620D01*
X121414389Y-83987358D01*
X122199773Y-83987620D01*
X122360390Y-83988149D01*
X122360390Y-84302303D01*
X122046230Y-84302303D01*
X122046230Y-84616460D01*
X121732037Y-84616460D01*
X121732037Y-84931581D01*
X121885548Y-84927525D01*
X122039060Y-84923470D01*
X122043032Y-84769961D01*
X122047005Y-84616454D01*
X122360196Y-84616454D01*
X122360196Y-84930609D01*
X122674389Y-84930609D01*
X122674389Y-85244764D01*
X122360196Y-85244764D01*
X122360196Y-85558921D01*
X122674389Y-85558921D01*
X122674389Y-85244764D01*
X122988582Y-85244764D01*
X122988582Y-85558921D01*
X123302742Y-85558921D01*
X123302742Y-85873079D01*
X123616935Y-85873079D01*
X123616935Y-86501392D01*
X122988646Y-86501392D01*
X122988646Y-87129707D01*
X122674454Y-87129707D01*
X122674454Y-87758019D01*
X122046165Y-87758019D01*
X122046165Y-88072176D01*
X121103684Y-88072176D01*
X121103684Y-87758019D01*
X120789491Y-87758019D01*
X120789491Y-87443863D01*
X120475331Y-87443863D01*
X120475331Y-87129707D01*
X120161138Y-87129707D01*
X120161138Y-87129547D01*
X120790363Y-87129547D01*
X121104524Y-87129547D01*
X121104524Y-86815391D01*
X121418716Y-86815391D01*
X121418716Y-85872920D01*
X121104524Y-85872920D01*
X121104524Y-86501234D01*
X120790363Y-86501234D01*
X120790363Y-87129547D01*
X120161138Y-87129547D01*
X120161138Y-86815550D01*
X120475331Y-86815550D01*
X120475331Y-86188203D01*
X120628810Y-86184147D01*
X120782321Y-86180092D01*
X120786294Y-86026583D01*
X120790266Y-85873073D01*
X120475169Y-85873073D01*
X120475169Y-85558921D01*
X121417715Y-85558921D01*
X121731908Y-85558921D01*
X121731908Y-86187236D01*
X122674389Y-86187236D01*
X122674389Y-85873079D01*
X122360196Y-85873079D01*
X122360196Y-85558921D01*
X122046036Y-85558921D01*
X122046036Y-85244764D01*
X121417715Y-85244764D01*
X121417715Y-85558921D01*
X120475169Y-85558921D01*
X120475169Y-85558917D01*
X120146701Y-85558917D01*
X120146701Y-85873071D01*
X119832540Y-85873071D01*
X119832540Y-85558915D01*
X119204801Y-85558915D01*
X119204801Y-85558761D01*
X119204252Y-85558761D01*
X119204252Y-85244757D01*
X119518413Y-85244757D01*
X119518413Y-85244605D01*
X119832831Y-85244605D01*
X119836804Y-85398114D01*
X119840776Y-85551624D01*
X119982532Y-85555745D01*
X120011403Y-85556430D01*
X120039081Y-85556787D01*
X120064905Y-85556825D01*
X120088218Y-85556555D01*
X120108360Y-85555990D01*
X120124674Y-85555138D01*
X120136500Y-85554011D01*
X120140525Y-85553348D01*
X120143181Y-85552621D01*
X120144468Y-85552013D01*
X120145702Y-85551190D01*
X120146883Y-85550148D01*
X120148013Y-85548878D01*
X120149092Y-85547375D01*
X120150120Y-85545632D01*
X120151100Y-85543643D01*
X120152031Y-85541401D01*
X120152915Y-85538900D01*
X120153751Y-85536133D01*
X120154542Y-85533094D01*
X120155288Y-85529776D01*
X120155989Y-85526174D01*
X120156647Y-85522279D01*
X120157836Y-85513591D01*
X120158860Y-85503660D01*
X120159726Y-85492433D01*
X120160441Y-85479861D01*
X120161012Y-85465890D01*
X120161444Y-85450470D01*
X120161745Y-85433548D01*
X120161921Y-85415074D01*
X120161978Y-85394996D01*
X120161978Y-85244609D01*
X119997550Y-85244605D01*
X119832831Y-85244605D01*
X119518413Y-85244605D01*
X119518413Y-84930600D01*
X119204252Y-84930600D01*
X119204252Y-84616443D01*
X118889123Y-84616443D01*
X118893095Y-84769951D01*
X118897068Y-84923460D01*
X119050579Y-84927516D01*
X119204091Y-84931571D01*
X119204091Y-85244760D01*
X118575802Y-85244760D01*
X118575802Y-84930602D01*
X118261609Y-84930602D01*
X118261609Y-84616445D01*
X117633321Y-84616445D01*
X117633321Y-84616290D01*
X119518445Y-84616290D01*
X119522418Y-84769797D01*
X119526390Y-84923307D01*
X119683486Y-84926234D01*
X119839368Y-84928492D01*
X119993577Y-84929805D01*
X120146604Y-84930466D01*
X120150577Y-85083977D01*
X120154549Y-85237486D01*
X120307576Y-85241541D01*
X120460603Y-85245584D01*
X120464576Y-85398613D01*
X120468548Y-85551644D01*
X120782741Y-85551644D01*
X120785648Y-85394565D01*
X120787264Y-85321501D01*
X120788256Y-85238678D01*
X120789071Y-85084463D01*
X120789071Y-84931437D01*
X120942583Y-84927382D01*
X121096094Y-84923327D01*
X121100067Y-84769818D01*
X121104039Y-84616311D01*
X121251091Y-84616311D01*
X121280825Y-84616117D01*
X121308944Y-84615560D01*
X121334804Y-84614680D01*
X121357762Y-84613515D01*
X121377175Y-84612105D01*
X121392398Y-84610489D01*
X121402788Y-84608705D01*
X121405970Y-84607762D01*
X121407703Y-84606792D01*
X121408196Y-84606111D01*
X121408683Y-84605057D01*
X121409633Y-84601868D01*
X121410549Y-84597306D01*
X121411426Y-84591452D01*
X121412260Y-84584386D01*
X121413045Y-84576189D01*
X121414453Y-84556723D01*
X121415613Y-84533698D01*
X121416487Y-84507759D01*
X121417038Y-84479549D01*
X121417231Y-84449713D01*
X121417231Y-84302154D01*
X121261620Y-84302136D01*
X121104524Y-84302136D01*
X121104524Y-84616295D01*
X120790363Y-84616295D01*
X120790363Y-84930446D01*
X120476171Y-84930446D01*
X120476171Y-84616290D01*
X119518445Y-84616290D01*
X117633321Y-84616290D01*
X117633321Y-84302290D01*
X117319128Y-84302290D01*
X117319128Y-84616445D01*
X117633321Y-84616445D01*
X117633321Y-84930453D01*
X117319839Y-84930453D01*
X117319839Y-85244605D01*
X117005678Y-85244605D01*
X117005678Y-84302134D01*
X117319839Y-84302134D01*
X117319839Y-83987978D01*
X117948160Y-83987978D01*
X117948160Y-83345383D01*
X117633967Y-83345383D01*
X117633967Y-83031227D01*
X118261965Y-83031227D01*
X118265679Y-83663111D01*
X118269393Y-84294994D01*
X118422904Y-84299049D01*
X118576416Y-84303105D01*
X118576416Y-84295000D01*
X118898489Y-84295000D01*
X119052000Y-84299056D01*
X119205479Y-84303111D01*
X119205479Y-83972741D01*
X119052000Y-83976786D01*
X118898489Y-83980841D01*
X118898489Y-84295000D01*
X118576416Y-84295000D01*
X118576416Y-83666688D01*
X118898489Y-83666688D01*
X119052000Y-83670743D01*
X119205479Y-83674798D01*
X119205479Y-83345391D01*
X119204769Y-83345391D01*
X119204769Y-83344448D01*
X119052000Y-83348473D01*
X118898489Y-83352529D01*
X118898489Y-83666688D01*
X118576416Y-83666688D01*
X118576416Y-83345389D01*
X118890609Y-83345389D01*
X118890609Y-83031233D01*
X119204769Y-83031233D01*
X119204769Y-83344448D01*
X119205479Y-83344429D01*
X119205479Y-83345391D01*
X119518962Y-83345391D01*
X119518962Y-83506040D01*
X119522385Y-83980846D01*
X119525292Y-84295002D01*
X119678803Y-84299058D01*
X119832314Y-84303113D01*
X119832314Y-84294996D01*
X120469259Y-84294996D01*
X120611046Y-84299118D01*
X120639918Y-84299797D01*
X120667616Y-84300138D01*
X120693480Y-84300153D01*
X120716849Y-84299855D01*
X120737062Y-84299259D01*
X120753456Y-84298378D01*
X120765372Y-84297224D01*
X120769444Y-84296549D01*
X120772147Y-84295811D01*
X120773527Y-84295181D01*
X120774840Y-84294362D01*
X120776086Y-84293344D01*
X120777267Y-84292118D01*
X120778383Y-84290675D01*
X120779435Y-84289005D01*
X120780425Y-84287097D01*
X120781353Y-84284944D01*
X120782220Y-84282535D01*
X120783027Y-84279861D01*
X120783774Y-84276912D01*
X120784464Y-84273678D01*
X120785097Y-84270151D01*
X120785673Y-84266320D01*
X120786194Y-84262177D01*
X120786661Y-84257711D01*
X120787435Y-84247773D01*
X120788002Y-84236431D01*
X120788371Y-84223608D01*
X120788548Y-84209228D01*
X120788541Y-84193216D01*
X120788357Y-84175494D01*
X120788004Y-84155986D01*
X120787489Y-84134616D01*
X120783516Y-83980846D01*
X120626323Y-83980840D01*
X120469259Y-83980840D01*
X120469259Y-84294996D01*
X119832314Y-84294996D01*
X119832314Y-83988924D01*
X119992931Y-83984881D01*
X120153580Y-83980852D01*
X120153580Y-83352537D01*
X119992931Y-83348508D01*
X119832314Y-83344465D01*
X119832314Y-82402932D01*
X119518122Y-82402932D01*
X119518122Y-81460461D01*
X119832314Y-81460461D01*
X119832314Y-81146303D01*
X119518122Y-81146303D01*
X119518122Y-80517990D01*
X120146410Y-80517990D01*
X120146410Y-80832150D01*
X120789007Y-80832150D01*
X120789007Y-80517994D01*
X121103199Y-80517994D01*
X121103199Y-80832150D01*
X121417392Y-80832150D01*
X121417392Y-80517994D01*
X121731553Y-80517994D01*
X121731553Y-81774628D01*
X122045745Y-81774628D01*
X122045745Y-82088786D01*
X122674034Y-82088786D01*
X122674034Y-81774628D01*
X122988226Y-81774628D01*
X122988226Y-82088760D01*
X122675197Y-82088760D01*
X122675197Y-82402916D01*
X122989357Y-82402916D01*
X122989357Y-82088786D01*
X122988226Y-82088786D01*
X122988226Y-82088760D01*
X122989357Y-82088760D01*
X122989357Y-82088786D01*
X123930707Y-82088786D01*
X123930707Y-81774628D01*
X124558996Y-81774628D01*
X124558996Y-82088760D01*
X124245966Y-82088760D01*
X124245966Y-82402916D01*
X124560159Y-82402916D01*
X124560159Y-82088786D01*
X124558996Y-82088786D01*
X124558996Y-82088760D01*
X124560159Y-82088760D01*
X124560159Y-82088786D01*
X124873189Y-82088786D01*
X124873189Y-82717099D01*
X126129830Y-82717099D01*
X126129830Y-82402942D01*
X126458590Y-82402942D01*
X126458590Y-81460471D01*
X127086878Y-81460471D01*
X127086878Y-81774628D01*
X128343519Y-81774628D01*
X128343519Y-81460471D01*
X128029326Y-81460471D01*
X128029326Y-80518000D01*
X128657615Y-80518000D01*
X128657615Y-80832157D01*
X128343454Y-80832157D01*
X128343454Y-81146315D01*
X128657615Y-81146315D01*
X128657615Y-81774628D01*
X128971807Y-81774628D01*
X128971807Y-81146315D01*
X129286000Y-81146315D01*
X129286000Y-82088784D01*
X128657680Y-82088784D01*
X128657680Y-82402941D01*
X128971872Y-82402941D01*
X128971872Y-83345411D01*
X129286065Y-83345411D01*
X129286065Y-83031256D01*
X129914353Y-83031256D01*
X129914353Y-83345411D01*
X129600161Y-83345411D01*
X129600161Y-83659570D01*
X128658681Y-83659570D01*
X128654708Y-83506060D01*
X128650736Y-83352551D01*
X128343907Y-83350356D01*
X128183064Y-83349205D01*
X127715392Y-83345857D01*
X127715392Y-83659578D01*
X127401232Y-83659578D01*
X127401232Y-83973732D01*
X127087039Y-83973732D01*
X127087039Y-84302093D01*
X127708255Y-84295029D01*
X127712227Y-84141997D01*
X127716200Y-83988969D01*
X127862057Y-83984914D01*
X127931952Y-83983692D01*
X128014389Y-83983356D01*
X128099079Y-83983898D01*
X128175733Y-83985311D01*
X128343519Y-83989748D01*
X128343519Y-84616329D01*
X128971807Y-84616329D01*
X128971807Y-84930487D01*
X128657615Y-84930487D01*
X128657615Y-85558745D01*
X128658035Y-85558745D01*
X128658035Y-85558800D01*
X129285936Y-85558800D01*
X129285936Y-84930487D01*
X129600064Y-84930487D01*
X129600064Y-85244643D01*
X129914257Y-85244643D01*
X129914257Y-85558802D01*
X129600064Y-85558802D01*
X129600064Y-85872958D01*
X128657583Y-85872958D01*
X128657583Y-86187115D01*
X129285904Y-86187115D01*
X129285904Y-86815429D01*
X128971711Y-86815429D01*
X128971711Y-87443738D01*
X129285904Y-87443738D01*
X129285904Y-87129581D01*
X129914192Y-87129581D01*
X129914192Y-87757894D01*
X129599999Y-87757894D01*
X129599999Y-88072050D01*
X129285839Y-88072050D01*
X129285839Y-88386171D01*
X128972260Y-88386171D01*
X128972260Y-88072014D01*
X128344327Y-88072014D01*
X128344327Y-88386171D01*
G37*
G36*
X117319193Y-87443859D02*
G01*
X117633386Y-87443859D01*
X117633386Y-87757864D01*
X117319903Y-87757864D01*
X117319903Y-88072020D01*
X117005743Y-88072020D01*
X117005743Y-86501236D01*
X117319903Y-86501236D01*
X117319903Y-86187080D01*
X117005743Y-86187080D01*
X117005743Y-85558765D01*
X117634032Y-85558765D01*
X117634032Y-85872920D01*
X117320517Y-85872920D01*
X117320517Y-86187078D01*
X117634710Y-86187078D01*
X117634710Y-85872922D01*
X117634032Y-85872922D01*
X117634032Y-85872920D01*
X117634710Y-85872920D01*
X117634710Y-85872922D01*
X117948224Y-85872922D01*
X117948224Y-85244764D01*
X117947481Y-85244764D01*
X117947481Y-85244609D01*
X117634032Y-85244609D01*
X117634032Y-84930606D01*
X117633321Y-84930606D01*
X117633321Y-84930453D01*
X117634032Y-84930453D01*
X117634032Y-84930606D01*
X117947481Y-84930606D01*
X117947481Y-85244609D01*
X117948224Y-85244609D01*
X117948224Y-85244764D01*
X118261674Y-85244764D01*
X118261674Y-86187234D01*
X117947481Y-86187234D01*
X117947481Y-86501390D01*
X117319193Y-86501390D01*
X117319193Y-87443859D01*
G37*
G36*
X122988743Y-93112800D02*
G01*
X122674583Y-93112800D01*
X122674583Y-92798643D01*
X122988743Y-92798643D01*
X122988743Y-93112800D01*
G37*
G36*
X122046488Y-83345400D02*
G01*
X122360681Y-83345400D01*
X122360681Y-83657825D01*
X122192829Y-83662248D01*
X122116137Y-83663650D01*
X122031344Y-83664194D01*
X121948762Y-83663864D01*
X121878701Y-83662646D01*
X121732327Y-83658591D01*
X121732327Y-83031243D01*
X122046488Y-83031243D01*
X122046488Y-83345400D01*
G37*
D10*
X187420732Y-68103268D02*
X187420732Y-70104000D01*
D11*
G36*
X123303130Y-84930446D02*
G01*
X122988937Y-84930446D01*
X122988937Y-84616295D01*
X123303130Y-84616295D01*
X123303130Y-84930446D01*
G37*
G36*
X122988743Y-92484487D02*
G01*
X122674583Y-92484487D01*
X122674583Y-92170331D01*
X122988743Y-92170331D01*
X122988743Y-92484487D01*
G37*
G36*
X118576545Y-82088757D02*
G01*
X118105321Y-82088755D01*
X117634064Y-82088755D01*
X117634064Y-81146287D01*
X118576545Y-81146287D01*
X118576545Y-82088757D01*
G37*
G36*
X129914257Y-84930487D02*
G01*
X129600097Y-84930487D01*
X129600097Y-84616329D01*
X129914257Y-84616329D01*
X129914257Y-84930487D01*
G37*
G36*
X123302936Y-93426956D02*
G01*
X122988743Y-93426956D01*
X122988743Y-93112800D01*
X123302936Y-93112800D01*
X123302936Y-93426956D01*
G37*
G36*
X129286000Y-80832157D02*
G01*
X128971807Y-80832157D01*
X128971807Y-80518000D01*
X129286000Y-80518000D01*
X129286000Y-80832157D01*
G37*
D10*
X200914000Y-115062000D02*
X209804000Y-115062000D01*
D11*
G36*
X124873899Y-87757860D02*
G01*
X124559739Y-87757860D01*
X124559739Y-87443703D01*
X124873899Y-87443703D01*
X124873899Y-87757860D01*
G37*
G36*
X118262385Y-90913700D02*
G01*
X117948224Y-90913700D01*
X117948224Y-90285386D01*
X118262385Y-90285386D01*
X118262385Y-90913700D01*
G37*
D10*
X186679025Y-68389002D02*
X186679026Y-69088000D01*
D11*
G36*
X119833187Y-90271110D02*
G01*
X119518994Y-90271110D01*
X119518994Y-89971233D01*
X119833187Y-89971233D01*
X119833187Y-90271110D01*
G37*
G36*
X129915387Y-86815391D02*
G01*
X129601194Y-86815391D01*
X129601194Y-86501234D01*
X129915387Y-86501234D01*
X129915387Y-86815391D01*
G37*
G36*
X129914353Y-82402941D02*
G01*
X129600161Y-82402941D01*
X129600161Y-82717097D01*
X129286000Y-82717097D01*
X129286000Y-82088786D01*
X129600161Y-82088786D01*
X129600161Y-81460471D01*
X129914353Y-81460471D01*
X129914353Y-82402941D01*
G37*
G36*
X119518962Y-87757858D02*
G01*
X118576480Y-87757858D01*
X118576480Y-87443702D01*
X119518962Y-87443702D01*
X119518962Y-87757858D01*
G37*
D10*
X184584491Y-68389002D02*
X184584490Y-69088000D01*
D11*
G36*
X122988711Y-83987971D02*
G01*
X123302871Y-83987971D01*
X123302871Y-83673816D01*
X123617064Y-83673816D01*
X123617064Y-84302128D01*
X123931257Y-84302128D01*
X123931257Y-84616286D01*
X123617290Y-84616295D01*
X123303130Y-84616295D01*
X123303130Y-84302136D01*
X122988937Y-84302136D01*
X122988937Y-84616290D01*
X122360649Y-84616290D01*
X122360649Y-84303098D01*
X122667671Y-84294988D01*
X122675099Y-83673816D01*
X122988711Y-83673816D01*
X122988711Y-83987971D01*
G37*
D10*
X189515267Y-68103268D02*
G75*
G03*
X187420733Y-68103268I-1047267J31268D01*
G01*
D11*
G36*
X126758894Y-93426956D02*
G01*
X126459042Y-93426956D01*
X126459042Y-93112800D01*
X126758894Y-93112800D01*
X126758894Y-93426956D01*
G37*
D10*
X200914000Y-75946000D02*
X209804000Y-75946000D01*
X200914000Y-99314000D02*
X200914000Y-115062000D01*
D11*
G36*
X119204898Y-90270144D02*
G01*
X119051387Y-90274194D01*
X118897876Y-90278245D01*
X118897876Y-90592401D01*
X119051387Y-90596451D01*
X119204898Y-90600502D01*
X119204898Y-90913693D01*
X119047802Y-90913702D01*
X118890705Y-90913702D01*
X118890705Y-90599546D01*
X118576513Y-90599546D01*
X118576513Y-90285389D01*
X118890705Y-90285389D01*
X118890705Y-89971233D01*
X119204898Y-89971233D01*
X119204898Y-90270144D01*
G37*
G36*
X121104007Y-82088760D02*
G01*
X120789846Y-82088760D01*
X120789846Y-81460447D01*
X121104007Y-81460447D01*
X121104007Y-82088760D01*
G37*
G36*
X117319936Y-90599543D02*
G01*
X117634128Y-90599543D01*
X117634128Y-90913699D01*
X117319903Y-90913700D01*
X117005775Y-90913700D01*
X117005775Y-90285386D01*
X117319936Y-90285386D01*
X117319936Y-90599543D01*
G37*
G36*
X117005775Y-91227860D02*
G01*
X119204866Y-91227860D01*
X119204866Y-93426956D01*
X117005775Y-93426956D01*
X117005775Y-93112800D01*
X117319903Y-93112800D01*
X118890705Y-93112800D01*
X118890705Y-91542016D01*
X117319903Y-91542016D01*
X117319903Y-93112800D01*
X117005775Y-93112800D01*
X117005775Y-91227860D01*
G37*
G36*
X129286452Y-88386207D02*
G01*
X129285839Y-88386207D01*
X129285839Y-88386171D01*
X129286452Y-88386171D01*
X129286452Y-88386207D01*
G37*
G36*
X124873802Y-86815391D02*
G01*
X125187995Y-86815391D01*
X125187995Y-87129547D01*
X124559707Y-87129547D01*
X124559707Y-86815391D01*
X124245514Y-86815391D01*
X124245514Y-86501234D01*
X124873802Y-86501234D01*
X124873802Y-86815391D01*
G37*
D10*
X200914000Y-60198000D02*
X200914000Y-75946000D01*
D11*
G36*
X128029747Y-82717070D02*
G01*
X127872650Y-82717072D01*
X127715586Y-82717072D01*
X127715586Y-82402916D01*
X128029747Y-82402916D01*
X128029747Y-82717070D01*
G37*
G36*
X127715651Y-91227860D02*
G01*
X129914741Y-91227860D01*
X129914741Y-93426956D01*
X127715651Y-93426956D01*
X127715651Y-93112800D01*
X128029811Y-93112800D01*
X129600581Y-93112800D01*
X129600581Y-91542016D01*
X128029811Y-91542016D01*
X128029811Y-93112800D01*
X127715651Y-93112800D01*
X127715651Y-91227860D01*
G37*
G36*
X125187220Y-81774628D02*
G01*
X124558996Y-81774628D01*
X124558996Y-81460471D01*
X125187220Y-81460471D01*
X125187220Y-81774628D01*
G37*
G36*
X129914257Y-84302172D02*
G01*
X129600064Y-84302172D01*
X129600064Y-84616329D01*
X129285936Y-84616329D01*
X129285936Y-84302172D01*
X128657615Y-84302172D01*
X128657615Y-83988016D01*
X129914257Y-83988016D01*
X129914257Y-84302172D01*
G37*
D10*
X189515268Y-68103268D02*
X189515268Y-70104000D01*
D11*
G36*
X126758926Y-81146289D02*
G01*
X125816445Y-81146289D01*
X125816445Y-80517974D01*
X126758926Y-80517974D01*
X126758926Y-81146289D01*
G37*
G36*
X127715166Y-81460471D02*
G01*
X127086878Y-81460471D01*
X127086878Y-81146315D01*
X127401071Y-81146315D01*
X127401071Y-80832157D01*
X127086878Y-80832157D01*
X127086878Y-80518000D01*
X127715166Y-80518000D01*
X127715166Y-81460471D01*
G37*
G36*
X125501412Y-82088786D02*
G01*
X125815573Y-82088786D01*
X125815573Y-82402942D01*
X125187284Y-82402942D01*
X125187284Y-81774628D01*
X125501412Y-81774628D01*
X125501412Y-82088786D01*
G37*
G36*
X129286452Y-89328640D02*
G01*
X129286452Y-89014483D01*
X129286485Y-89014483D01*
X129600614Y-89014483D01*
X129600614Y-88700327D01*
X129286485Y-88700327D01*
X129286485Y-89014483D01*
X129286452Y-89014483D01*
X128972292Y-89014483D01*
X128972292Y-88700327D01*
X129286452Y-88700327D01*
X129286452Y-88386207D01*
X129599999Y-88386207D01*
X129599999Y-88700305D01*
X129914192Y-88700305D01*
X129914192Y-89642777D01*
X129601033Y-89642777D01*
X129601033Y-89328645D01*
X129600614Y-89328645D01*
X129443517Y-89328640D01*
X129286452Y-89328640D01*
G37*
D10*
X177800000Y-58166000D02*
X179345025Y-59603025D01*
D11*
G36*
X122359906Y-81774628D02*
G01*
X122045745Y-81774628D01*
X122045745Y-81460471D01*
X122359906Y-81460471D01*
X122359906Y-81774628D01*
G37*
D10*
X104338380Y-98852095D02*
X103338380Y-98852095D01*
X103338380Y-98471142D01*
X103386000Y-98375904D01*
X103433619Y-98328285D01*
X103528857Y-98280666D01*
X103671714Y-98280666D01*
X103766952Y-98328285D01*
X103814571Y-98375904D01*
X103862190Y-98471142D01*
X103862190Y-98852095D01*
X104338380Y-97852095D02*
X103671714Y-97852095D01*
X103862190Y-97852095D02*
X103766952Y-97804476D01*
X103719333Y-97756857D01*
X103671714Y-97661619D01*
X103671714Y-97566380D01*
X104338380Y-97090190D02*
X104290761Y-97185428D01*
X104243142Y-97233047D01*
X104147904Y-97280666D01*
X103862190Y-97280666D01*
X103766952Y-97233047D01*
X103719333Y-97185428D01*
X103671714Y-97090190D01*
X103671714Y-96947333D01*
X103719333Y-96852095D01*
X103766952Y-96804476D01*
X103862190Y-96756857D01*
X104147904Y-96756857D01*
X104243142Y-96804476D01*
X104290761Y-96852095D01*
X104338380Y-96947333D01*
X104338380Y-97090190D01*
X103671714Y-95899714D02*
X104481238Y-95899714D01*
X104576476Y-95947333D01*
X104624095Y-95994952D01*
X104671714Y-96090190D01*
X104671714Y-96233047D01*
X104624095Y-96328285D01*
X104290761Y-95899714D02*
X104338380Y-95994952D01*
X104338380Y-96185428D01*
X104290761Y-96280666D01*
X104243142Y-96328285D01*
X104147904Y-96375904D01*
X103862190Y-96375904D01*
X103766952Y-96328285D01*
X103719333Y-96280666D01*
X103671714Y-96185428D01*
X103671714Y-95994952D01*
X103719333Y-95899714D01*
X104290761Y-95042571D02*
X104338380Y-95137809D01*
X104338380Y-95328285D01*
X104290761Y-95423523D01*
X104195523Y-95471142D01*
X103814571Y-95471142D01*
X103719333Y-95423523D01*
X103671714Y-95328285D01*
X103671714Y-95137809D01*
X103719333Y-95042571D01*
X103814571Y-94994952D01*
X103909809Y-94994952D01*
X104005047Y-95471142D01*
X103671714Y-94709238D02*
X103671714Y-94328285D01*
X103338380Y-94566380D02*
X104195523Y-94566380D01*
X104290761Y-94518761D01*
X104338380Y-94423523D01*
X104338380Y-94328285D01*
X103671714Y-94137809D02*
X103671714Y-93756857D01*
X103338380Y-93994952D02*
X104195523Y-93994952D01*
X104290761Y-93947333D01*
X104338380Y-93852095D01*
X104338380Y-93756857D01*
X104338380Y-93280666D02*
X104290761Y-93375904D01*
X104243142Y-93423523D01*
X104147904Y-93471142D01*
X103862190Y-93471142D01*
X103766952Y-93423523D01*
X103719333Y-93375904D01*
X103671714Y-93280666D01*
X103671714Y-93137809D01*
X103719333Y-93042571D01*
X103766952Y-92994952D01*
X103862190Y-92947333D01*
X104147904Y-92947333D01*
X104243142Y-92994952D01*
X104290761Y-93042571D01*
X104338380Y-93137809D01*
X104338380Y-93280666D01*
X104338380Y-91328285D02*
X103338380Y-91328285D01*
X104290761Y-91328285D02*
X104338380Y-91423523D01*
X104338380Y-91614000D01*
X104290761Y-91709238D01*
X104243142Y-91756857D01*
X104147904Y-91804476D01*
X103862190Y-91804476D01*
X103766952Y-91756857D01*
X103719333Y-91709238D01*
X103671714Y-91614000D01*
X103671714Y-91423523D01*
X103719333Y-91328285D01*
X104338380Y-90852095D02*
X103671714Y-90852095D01*
X103338380Y-90852095D02*
X103386000Y-90899714D01*
X103433619Y-90852095D01*
X103386000Y-90804476D01*
X103338380Y-90852095D01*
X103433619Y-90852095D01*
X103671714Y-89756857D02*
X103671714Y-89375904D01*
X103338380Y-89614000D02*
X104195523Y-89614000D01*
X104290761Y-89566380D01*
X104338380Y-89471142D01*
X104338380Y-89375904D01*
X104290761Y-88661619D02*
X104338380Y-88756857D01*
X104338380Y-88947333D01*
X104290761Y-89042571D01*
X104195523Y-89090190D01*
X103814571Y-89090190D01*
X103719333Y-89042571D01*
X103671714Y-88947333D01*
X103671714Y-88756857D01*
X103719333Y-88661619D01*
X103814571Y-88614000D01*
X103909809Y-88614000D01*
X104005047Y-89090190D01*
X104290761Y-88233047D02*
X104338380Y-88137809D01*
X104338380Y-87947333D01*
X104290761Y-87852095D01*
X104195523Y-87804476D01*
X104147904Y-87804476D01*
X104052666Y-87852095D01*
X104005047Y-87947333D01*
X104005047Y-88090190D01*
X103957428Y-88185428D01*
X103862190Y-88233047D01*
X103814571Y-88233047D01*
X103719333Y-88185428D01*
X103671714Y-88090190D01*
X103671714Y-87947333D01*
X103719333Y-87852095D01*
X104338380Y-87375904D02*
X103671714Y-87375904D01*
X103338380Y-87375904D02*
X103386000Y-87423523D01*
X103433619Y-87375904D01*
X103386000Y-87328285D01*
X103338380Y-87375904D01*
X103433619Y-87375904D01*
X104338380Y-85709238D02*
X103338380Y-85709238D01*
X104290761Y-85709238D02*
X104338380Y-85804476D01*
X104338380Y-85994952D01*
X104290761Y-86090190D01*
X104243142Y-86137809D01*
X104147904Y-86185428D01*
X103862190Y-86185428D01*
X103766952Y-86137809D01*
X103719333Y-86090190D01*
X103671714Y-85994952D01*
X103671714Y-85804476D01*
X103719333Y-85709238D01*
X104338380Y-85233047D02*
X103671714Y-85233047D01*
X103338380Y-85233047D02*
X103386000Y-85280666D01*
X103433619Y-85233047D01*
X103386000Y-85185428D01*
X103338380Y-85233047D01*
X103433619Y-85233047D01*
X104338380Y-83994952D02*
X103338380Y-83994952D01*
X103338380Y-83614000D01*
X103386000Y-83518761D01*
X103433619Y-83471142D01*
X103528857Y-83423523D01*
X103671714Y-83423523D01*
X103766952Y-83471142D01*
X103814571Y-83518761D01*
X103862190Y-83614000D01*
X103862190Y-83994952D01*
X104338380Y-82566380D02*
X103814571Y-82566380D01*
X103719333Y-82614000D01*
X103671714Y-82709238D01*
X103671714Y-82899714D01*
X103719333Y-82994952D01*
X104290761Y-82566380D02*
X104338380Y-82661619D01*
X104338380Y-82899714D01*
X104290761Y-82994952D01*
X104195523Y-83042571D01*
X104100285Y-83042571D01*
X104005047Y-82994952D01*
X103957428Y-82899714D01*
X103957428Y-82661619D01*
X103909809Y-82566380D01*
X104290761Y-82137809D02*
X104338380Y-82042571D01*
X104338380Y-81852095D01*
X104290761Y-81756857D01*
X104195523Y-81709238D01*
X104147904Y-81709238D01*
X104052666Y-81756857D01*
X104005047Y-81852095D01*
X104005047Y-81994952D01*
X103957428Y-82090190D01*
X103862190Y-82137809D01*
X103814571Y-82137809D01*
X103719333Y-82090190D01*
X103671714Y-81994952D01*
X103671714Y-81852095D01*
X103719333Y-81756857D01*
X104338380Y-81280666D02*
X103671714Y-81280666D01*
X103338380Y-81280666D02*
X103386000Y-81328285D01*
X103433619Y-81280666D01*
X103386000Y-81233047D01*
X103338380Y-81280666D01*
X103433619Y-81280666D01*
X103671714Y-80804476D02*
X104338380Y-80804476D01*
X103766952Y-80804476D02*
X103719333Y-80756857D01*
X103671714Y-80661619D01*
X103671714Y-80518761D01*
X103719333Y-80423523D01*
X103814571Y-80375904D01*
X104338380Y-80375904D01*
X104052666Y-79185428D02*
X104052666Y-78709238D01*
X104338380Y-79280666D02*
X103338380Y-78947333D01*
X104338380Y-78614000D01*
X104338380Y-78137809D02*
X104290761Y-78233047D01*
X104195523Y-78280666D01*
X103338380Y-78280666D01*
X104290761Y-77375904D02*
X104338380Y-77471142D01*
X104338380Y-77661619D01*
X104290761Y-77756857D01*
X104195523Y-77804476D01*
X103814571Y-77804476D01*
X103719333Y-77756857D01*
X103671714Y-77661619D01*
X103671714Y-77471142D01*
X103719333Y-77375904D01*
X103814571Y-77328285D01*
X103909809Y-77328285D01*
X104005047Y-77804476D01*
X104290761Y-76947333D02*
X104338380Y-76852095D01*
X104338380Y-76661619D01*
X104290761Y-76566380D01*
X104195523Y-76518761D01*
X104147904Y-76518761D01*
X104052666Y-76566380D01*
X104005047Y-76661619D01*
X104005047Y-76804476D01*
X103957428Y-76899714D01*
X103862190Y-76947333D01*
X103814571Y-76947333D01*
X103719333Y-76899714D01*
X103671714Y-76804476D01*
X103671714Y-76661619D01*
X103719333Y-76566380D01*
X104290761Y-76137809D02*
X104338380Y-76042571D01*
X104338380Y-75852095D01*
X104290761Y-75756857D01*
X104195523Y-75709238D01*
X104147904Y-75709238D01*
X104052666Y-75756857D01*
X104005047Y-75852095D01*
X104005047Y-75994952D01*
X103957428Y-76090190D01*
X103862190Y-76137809D01*
X103814571Y-76137809D01*
X103719333Y-76090190D01*
X103671714Y-75994952D01*
X103671714Y-75852095D01*
X103719333Y-75756857D01*
X104338380Y-75280666D02*
X103671714Y-75280666D01*
X103338380Y-75280666D02*
X103386000Y-75328285D01*
X103433619Y-75280666D01*
X103386000Y-75233047D01*
X103338380Y-75280666D01*
X103433619Y-75280666D01*
X104338380Y-74661619D02*
X104290761Y-74756857D01*
X104243142Y-74804476D01*
X104147904Y-74852095D01*
X103862190Y-74852095D01*
X103766952Y-74804476D01*
X103719333Y-74756857D01*
X103671714Y-74661619D01*
X103671714Y-74518761D01*
X103719333Y-74423523D01*
X103766952Y-74375904D01*
X103862190Y-74328285D01*
X104147904Y-74328285D01*
X104243142Y-74375904D01*
X104290761Y-74423523D01*
X104338380Y-74518761D01*
X104338380Y-74661619D01*
X105878380Y-93756857D02*
X106878380Y-93423523D01*
X105878380Y-93090190D01*
X106878380Y-92233047D02*
X106878380Y-92804476D01*
X106878380Y-92518761D02*
X105878380Y-92518761D01*
X106021238Y-92614000D01*
X106116476Y-92709238D01*
X106164095Y-92804476D01*
X106783142Y-91804476D02*
X106830761Y-91756857D01*
X106878380Y-91804476D01*
X106830761Y-91852095D01*
X106783142Y-91804476D01*
X106878380Y-91804476D01*
X106211714Y-90899714D02*
X106878380Y-90899714D01*
X105830761Y-91137809D02*
X106545047Y-91375904D01*
X106545047Y-90756857D01*
X105973619Y-88899714D02*
X105926000Y-88852095D01*
X105878380Y-88756857D01*
X105878380Y-88518761D01*
X105926000Y-88423523D01*
X105973619Y-88375904D01*
X106068857Y-88328285D01*
X106164095Y-88328285D01*
X106306952Y-88375904D01*
X106878380Y-88947333D01*
X106878380Y-88328285D01*
X105878380Y-87994952D02*
X105878380Y-87328285D01*
X106878380Y-87756857D01*
X105830761Y-86233047D02*
X107116476Y-87090190D01*
X105878380Y-85709238D02*
X105878380Y-85614000D01*
X105926000Y-85518761D01*
X105973619Y-85471142D01*
X106068857Y-85423523D01*
X106259333Y-85375904D01*
X106497428Y-85375904D01*
X106687904Y-85423523D01*
X106783142Y-85471142D01*
X106830761Y-85518761D01*
X106878380Y-85614000D01*
X106878380Y-85709238D01*
X106830761Y-85804476D01*
X106783142Y-85852095D01*
X106687904Y-85899714D01*
X106497428Y-85947333D01*
X106259333Y-85947333D01*
X106068857Y-85899714D01*
X105973619Y-85852095D01*
X105926000Y-85804476D01*
X105878380Y-85709238D01*
X106211714Y-84518761D02*
X106878380Y-84518761D01*
X105830761Y-84756857D02*
X106545047Y-84994952D01*
X106545047Y-84375904D01*
X105830761Y-83280666D02*
X107116476Y-84137809D01*
X105973619Y-82994952D02*
X105926000Y-82947333D01*
X105878380Y-82852095D01*
X105878380Y-82614000D01*
X105926000Y-82518761D01*
X105973619Y-82471142D01*
X106068857Y-82423523D01*
X106164095Y-82423523D01*
X106306952Y-82471142D01*
X106878380Y-83042571D01*
X106878380Y-82423523D01*
X105878380Y-81804476D02*
X105878380Y-81709238D01*
X105926000Y-81614000D01*
X105973619Y-81566380D01*
X106068857Y-81518761D01*
X106259333Y-81471142D01*
X106497428Y-81471142D01*
X106687904Y-81518761D01*
X106783142Y-81566380D01*
X106830761Y-81614000D01*
X106878380Y-81709238D01*
X106878380Y-81804476D01*
X106830761Y-81899714D01*
X106783142Y-81947333D01*
X106687904Y-81994952D01*
X106497428Y-82042571D01*
X106259333Y-82042571D01*
X106068857Y-81994952D01*
X105973619Y-81947333D01*
X105926000Y-81899714D01*
X105878380Y-81804476D01*
X105973619Y-81090190D02*
X105926000Y-81042571D01*
X105878380Y-80947333D01*
X105878380Y-80709238D01*
X105926000Y-80614000D01*
X105973619Y-80566380D01*
X106068857Y-80518761D01*
X106164095Y-80518761D01*
X106306952Y-80566380D01*
X106878380Y-81137809D01*
X106878380Y-80518761D01*
X105878380Y-79614000D02*
X105878380Y-80090190D01*
X106354571Y-80137809D01*
X106306952Y-80090190D01*
X106259333Y-79994952D01*
X106259333Y-79756857D01*
X106306952Y-79661619D01*
X106354571Y-79614000D01*
X106449809Y-79566380D01*
X106687904Y-79566380D01*
X106783142Y-79614000D01*
X106830761Y-79661619D01*
X106878380Y-79756857D01*
X106878380Y-79994952D01*
X106830761Y-80090190D01*
X106783142Y-80137809D01*
D12*
X101647523Y-103947428D02*
X101742761Y-103661714D01*
X101742761Y-103185523D01*
X101647523Y-102995047D01*
X101552285Y-102899809D01*
X101361809Y-102804571D01*
X101171333Y-102804571D01*
X100980857Y-102899809D01*
X100885619Y-102995047D01*
X100790380Y-103185523D01*
X100695142Y-103566476D01*
X100599904Y-103756952D01*
X100504666Y-103852190D01*
X100314190Y-103947428D01*
X100123714Y-103947428D01*
X99933238Y-103852190D01*
X99838000Y-103756952D01*
X99742761Y-103566476D01*
X99742761Y-103090285D01*
X99838000Y-102804571D01*
X101647523Y-101090285D02*
X101742761Y-101280761D01*
X101742761Y-101661714D01*
X101647523Y-101852190D01*
X101552285Y-101947428D01*
X101361809Y-102042666D01*
X100790380Y-102042666D01*
X100599904Y-101947428D01*
X100504666Y-101852190D01*
X100409428Y-101661714D01*
X100409428Y-101280761D01*
X100504666Y-101090285D01*
X101742761Y-100233142D02*
X99742761Y-100233142D01*
X101742761Y-99376000D02*
X100695142Y-99376000D01*
X100504666Y-99471238D01*
X100409428Y-99661714D01*
X100409428Y-99947428D01*
X100504666Y-100137904D01*
X100599904Y-100233142D01*
X101647523Y-97661714D02*
X101742761Y-97852190D01*
X101742761Y-98233142D01*
X101647523Y-98423619D01*
X101457047Y-98518857D01*
X100695142Y-98518857D01*
X100504666Y-98423619D01*
X100409428Y-98233142D01*
X100409428Y-97852190D01*
X100504666Y-97661714D01*
X100695142Y-97566476D01*
X100885619Y-97566476D01*
X101076095Y-98518857D01*
X101742761Y-95852190D02*
X99742761Y-95852190D01*
X101647523Y-95852190D02*
X101742761Y-96042666D01*
X101742761Y-96423619D01*
X101647523Y-96614095D01*
X101552285Y-96709333D01*
X101361809Y-96804571D01*
X100790380Y-96804571D01*
X100599904Y-96709333D01*
X100504666Y-96614095D01*
X100409428Y-96423619D01*
X100409428Y-96042666D01*
X100504666Y-95852190D01*
X101742761Y-94042666D02*
X100695142Y-94042666D01*
X100504666Y-94137904D01*
X100409428Y-94328380D01*
X100409428Y-94709333D01*
X100504666Y-94899809D01*
X101647523Y-94042666D02*
X101742761Y-94233142D01*
X101742761Y-94709333D01*
X101647523Y-94899809D01*
X101457047Y-94995047D01*
X101266571Y-94995047D01*
X101076095Y-94899809D01*
X100980857Y-94709333D01*
X100980857Y-94233142D01*
X100885619Y-94042666D01*
X101647523Y-91661714D02*
X101742761Y-91376000D01*
X101742761Y-90899809D01*
X101647523Y-90709333D01*
X101552285Y-90614095D01*
X101361809Y-90518857D01*
X101171333Y-90518857D01*
X100980857Y-90614095D01*
X100885619Y-90709333D01*
X100790380Y-90899809D01*
X100695142Y-91280761D01*
X100599904Y-91471238D01*
X100504666Y-91566476D01*
X100314190Y-91661714D01*
X100123714Y-91661714D01*
X99933238Y-91566476D01*
X99838000Y-91471238D01*
X99742761Y-91280761D01*
X99742761Y-90804571D01*
X99838000Y-90518857D01*
X101647523Y-88899809D02*
X101742761Y-89090285D01*
X101742761Y-89471238D01*
X101647523Y-89661714D01*
X101457047Y-89756952D01*
X100695142Y-89756952D01*
X100504666Y-89661714D01*
X100409428Y-89471238D01*
X100409428Y-89090285D01*
X100504666Y-88899809D01*
X100695142Y-88804571D01*
X100885619Y-88804571D01*
X101076095Y-89756952D01*
X100409428Y-87947428D02*
X101742761Y-87947428D01*
X100599904Y-87947428D02*
X100504666Y-87852190D01*
X100409428Y-87661714D01*
X100409428Y-87376000D01*
X100504666Y-87185523D01*
X100695142Y-87090285D01*
X101742761Y-87090285D01*
X101647523Y-86233142D02*
X101742761Y-86042666D01*
X101742761Y-85661714D01*
X101647523Y-85471238D01*
X101457047Y-85376000D01*
X101361809Y-85376000D01*
X101171333Y-85471238D01*
X101076095Y-85661714D01*
X101076095Y-85947428D01*
X100980857Y-86137904D01*
X100790380Y-86233142D01*
X100695142Y-86233142D01*
X100504666Y-86137904D01*
X100409428Y-85947428D01*
X100409428Y-85661714D01*
X100504666Y-85471238D01*
X101742761Y-84233142D02*
X101647523Y-84423619D01*
X101552285Y-84518857D01*
X101361809Y-84614095D01*
X100790380Y-84614095D01*
X100599904Y-84518857D01*
X100504666Y-84423619D01*
X100409428Y-84233142D01*
X100409428Y-83947428D01*
X100504666Y-83756952D01*
X100599904Y-83661714D01*
X100790380Y-83566476D01*
X101361809Y-83566476D01*
X101552285Y-83661714D01*
X101647523Y-83756952D01*
X101742761Y-83947428D01*
X101742761Y-84233142D01*
X101742761Y-82709333D02*
X100409428Y-82709333D01*
X100790380Y-82709333D02*
X100599904Y-82614095D01*
X100504666Y-82518857D01*
X100409428Y-82328380D01*
X100409428Y-82137904D01*
X101647523Y-80709333D02*
X101742761Y-80899809D01*
X101742761Y-81280761D01*
X101647523Y-81471238D01*
X101457047Y-81566476D01*
X100695142Y-81566476D01*
X100504666Y-81471238D01*
X100409428Y-81280761D01*
X100409428Y-80899809D01*
X100504666Y-80709333D01*
X100695142Y-80614095D01*
X100885619Y-80614095D01*
X101076095Y-81566476D01*
X101742761Y-77280761D02*
X101742761Y-78233142D01*
X99742761Y-78233142D01*
X101742761Y-76614095D02*
X100409428Y-76614095D01*
X99742761Y-76614095D02*
X99838000Y-76709333D01*
X99933238Y-76614095D01*
X99838000Y-76518857D01*
X99742761Y-76614095D01*
X99933238Y-76614095D01*
X101742761Y-75661714D02*
X99742761Y-75661714D01*
X99742761Y-75185523D01*
X99838000Y-74899809D01*
X100028476Y-74709333D01*
X100218952Y-74614095D01*
X100599904Y-74518857D01*
X100885619Y-74518857D01*
X101266571Y-74614095D01*
X101457047Y-74709333D01*
X101647523Y-74899809D01*
X101742761Y-75185523D01*
X101742761Y-75661714D01*
X101171333Y-73756952D02*
X101171333Y-72804571D01*
X101742761Y-73947428D02*
X99742761Y-73280761D01*
X101742761Y-72614095D01*
X101742761Y-70804571D02*
X100790380Y-71471238D01*
X101742761Y-71947428D02*
X99742761Y-71947428D01*
X99742761Y-71185523D01*
X99838000Y-70995047D01*
X99933238Y-70899809D01*
X100123714Y-70804571D01*
X100409428Y-70804571D01*
X100599904Y-70899809D01*
X100695142Y-70995047D01*
X100790380Y-71185523D01*
X100790380Y-71947428D01*
D10*
%TO.C,C12*%
X199239142Y-91574857D02*
X199286761Y-91622476D01*
X199334380Y-91765333D01*
X199334380Y-91860571D01*
X199286761Y-92003428D01*
X199191523Y-92098666D01*
X199096285Y-92146285D01*
X198905809Y-92193904D01*
X198762952Y-92193904D01*
X198572476Y-92146285D01*
X198477238Y-92098666D01*
X198382000Y-92003428D01*
X198334380Y-91860571D01*
X198334380Y-91765333D01*
X198382000Y-91622476D01*
X198429619Y-91574857D01*
X199334380Y-90622476D02*
X199334380Y-91193904D01*
X199334380Y-90908190D02*
X198334380Y-90908190D01*
X198477238Y-91003428D01*
X198572476Y-91098666D01*
X198620095Y-91193904D01*
X198429619Y-90241523D02*
X198382000Y-90193904D01*
X198334380Y-90098666D01*
X198334380Y-89860571D01*
X198382000Y-89765333D01*
X198429619Y-89717714D01*
X198524857Y-89670095D01*
X198620095Y-89670095D01*
X198762952Y-89717714D01*
X199334380Y-90289142D01*
X199334380Y-89670095D01*
%TO.C,J2*%
X206184380Y-62167333D02*
X206898666Y-62167333D01*
X207041523Y-62214952D01*
X207136761Y-62310190D01*
X207184380Y-62453047D01*
X207184380Y-62548285D01*
X206279619Y-61738761D02*
X206232000Y-61691142D01*
X206184380Y-61595904D01*
X206184380Y-61357809D01*
X206232000Y-61262571D01*
X206279619Y-61214952D01*
X206374857Y-61167333D01*
X206470095Y-61167333D01*
X206612952Y-61214952D01*
X207184380Y-61786380D01*
X207184380Y-61167333D01*
X202287142Y-74183142D02*
X202334761Y-74230761D01*
X202382380Y-74373619D01*
X202382380Y-74468857D01*
X202334761Y-74611714D01*
X202239523Y-74706952D01*
X202144285Y-74754571D01*
X201953809Y-74802190D01*
X201810952Y-74802190D01*
X201620476Y-74754571D01*
X201525238Y-74706952D01*
X201430000Y-74611714D01*
X201382380Y-74468857D01*
X201382380Y-74373619D01*
X201430000Y-74230761D01*
X201477619Y-74183142D01*
X201382380Y-73564095D02*
X201382380Y-73373619D01*
X201430000Y-73278380D01*
X201525238Y-73183142D01*
X201715714Y-73135523D01*
X202049047Y-73135523D01*
X202239523Y-73183142D01*
X202334761Y-73278380D01*
X202382380Y-73373619D01*
X202382380Y-73564095D01*
X202334761Y-73659333D01*
X202239523Y-73754571D01*
X202049047Y-73802190D01*
X201715714Y-73802190D01*
X201525238Y-73754571D01*
X201430000Y-73659333D01*
X201382380Y-73564095D01*
X202382380Y-72706952D02*
X201382380Y-72706952D01*
X202382380Y-72135523D01*
X201382380Y-72135523D01*
X202382380Y-71659333D02*
X201382380Y-71659333D01*
X202382380Y-71087904D01*
X201382380Y-71087904D01*
X202477619Y-70849809D02*
X202477619Y-70087904D01*
X202382380Y-69278380D02*
X201906190Y-69611714D01*
X202382380Y-69849809D02*
X201382380Y-69849809D01*
X201382380Y-69468857D01*
X201430000Y-69373619D01*
X201477619Y-69326000D01*
X201572857Y-69278380D01*
X201715714Y-69278380D01*
X201810952Y-69326000D01*
X201858571Y-69373619D01*
X201906190Y-69468857D01*
X201906190Y-69849809D01*
X202382380Y-68849809D02*
X201382380Y-68849809D01*
X202287142Y-67802190D02*
X202334761Y-67849809D01*
X202382380Y-67992666D01*
X202382380Y-68087904D01*
X202334761Y-68230761D01*
X202239523Y-68326000D01*
X202144285Y-68373619D01*
X201953809Y-68421238D01*
X201810952Y-68421238D01*
X201620476Y-68373619D01*
X201525238Y-68326000D01*
X201430000Y-68230761D01*
X201382380Y-68087904D01*
X201382380Y-67992666D01*
X201430000Y-67849809D01*
X201477619Y-67802190D01*
X201858571Y-67373619D02*
X201858571Y-67040285D01*
X202382380Y-66897428D02*
X202382380Y-67373619D01*
X201382380Y-67373619D01*
X201382380Y-66897428D01*
X201382380Y-66611714D02*
X202382380Y-66278380D01*
X201382380Y-65945047D01*
X202382380Y-65611714D02*
X201382380Y-65611714D01*
X201382380Y-65278380D02*
X201382380Y-64706952D01*
X202382380Y-64992666D02*
X201382380Y-64992666D01*
X201382380Y-64183142D02*
X201382380Y-63992666D01*
X201430000Y-63897428D01*
X201525238Y-63802190D01*
X201715714Y-63754571D01*
X202049047Y-63754571D01*
X202239523Y-63802190D01*
X202334761Y-63897428D01*
X202382380Y-63992666D01*
X202382380Y-64183142D01*
X202334761Y-64278380D01*
X202239523Y-64373619D01*
X202049047Y-64421238D01*
X201715714Y-64421238D01*
X201525238Y-64373619D01*
X201430000Y-64278380D01*
X201382380Y-64183142D01*
X202382380Y-62754571D02*
X201906190Y-63087904D01*
X202382380Y-63326000D02*
X201382380Y-63326000D01*
X201382380Y-62945047D01*
X201430000Y-62849809D01*
X201477619Y-62802190D01*
X201572857Y-62754571D01*
X201715714Y-62754571D01*
X201810952Y-62802190D01*
X201858571Y-62849809D01*
X201906190Y-62945047D01*
X201906190Y-63326000D01*
X201858571Y-62326000D02*
X201858571Y-61992666D01*
X202382380Y-61849809D02*
X202382380Y-62326000D01*
X201382380Y-62326000D01*
X201382380Y-61849809D01*
D13*
%TO.C,IC_4*%
X197678523Y-81225571D02*
X196408523Y-81225571D01*
X197557571Y-79895095D02*
X197618047Y-79955571D01*
X197678523Y-80137000D01*
X197678523Y-80257952D01*
X197618047Y-80439380D01*
X197497095Y-80560333D01*
X197376142Y-80620809D01*
X197134238Y-80681285D01*
X196952809Y-80681285D01*
X196710904Y-80620809D01*
X196589952Y-80560333D01*
X196469000Y-80439380D01*
X196408523Y-80257952D01*
X196408523Y-80137000D01*
X196469000Y-79955571D01*
X196529476Y-79895095D01*
X197799476Y-79653190D02*
X197799476Y-78685571D01*
X196831857Y-77838904D02*
X197678523Y-77838904D01*
X196348047Y-78141285D02*
X197255190Y-78443666D01*
X197255190Y-77657476D01*
D10*
%TO.C,R9*%
X186126380Y-86780666D02*
X185650190Y-87114000D01*
X186126380Y-87352095D02*
X185126380Y-87352095D01*
X185126380Y-86971142D01*
X185174000Y-86875904D01*
X185221619Y-86828285D01*
X185316857Y-86780666D01*
X185459714Y-86780666D01*
X185554952Y-86828285D01*
X185602571Y-86875904D01*
X185650190Y-86971142D01*
X185650190Y-87352095D01*
X186126380Y-86304476D02*
X186126380Y-86114000D01*
X186078761Y-86018761D01*
X186031142Y-85971142D01*
X185888285Y-85875904D01*
X185697809Y-85828285D01*
X185316857Y-85828285D01*
X185221619Y-85875904D01*
X185174000Y-85923523D01*
X185126380Y-86018761D01*
X185126380Y-86209238D01*
X185174000Y-86304476D01*
X185221619Y-86352095D01*
X185316857Y-86399714D01*
X185554952Y-86399714D01*
X185650190Y-86352095D01*
X185697809Y-86304476D01*
X185745428Y-86209238D01*
X185745428Y-86018761D01*
X185697809Y-85923523D01*
X185650190Y-85875904D01*
X185554952Y-85828285D01*
%TO.C,J10*%
X147534380Y-55165523D02*
X148248666Y-55165523D01*
X148391523Y-55213142D01*
X148486761Y-55308380D01*
X148534380Y-55451238D01*
X148534380Y-55546476D01*
X148534380Y-54165523D02*
X148534380Y-54736952D01*
X148534380Y-54451238D02*
X147534380Y-54451238D01*
X147677238Y-54546476D01*
X147772476Y-54641714D01*
X147820095Y-54736952D01*
X147534380Y-53546476D02*
X147534380Y-53451238D01*
X147582000Y-53356000D01*
X147629619Y-53308380D01*
X147724857Y-53260761D01*
X147915333Y-53213142D01*
X148153428Y-53213142D01*
X148343904Y-53260761D01*
X148439142Y-53308380D01*
X148486761Y-53356000D01*
X148534380Y-53451238D01*
X148534380Y-53546476D01*
X148486761Y-53641714D01*
X148439142Y-53689333D01*
X148343904Y-53736952D01*
X148153428Y-53784571D01*
X147915333Y-53784571D01*
X147724857Y-53736952D01*
X147629619Y-53689333D01*
X147582000Y-53641714D01*
X147534380Y-53546476D01*
D13*
%TO.C,IC_3*%
X199456523Y-113991571D02*
X198186523Y-113991571D01*
X199335571Y-112661095D02*
X199396047Y-112721571D01*
X199456523Y-112903000D01*
X199456523Y-113023952D01*
X199396047Y-113205380D01*
X199275095Y-113326333D01*
X199154142Y-113386809D01*
X198912238Y-113447285D01*
X198730809Y-113447285D01*
X198488904Y-113386809D01*
X198367952Y-113326333D01*
X198247000Y-113205380D01*
X198186523Y-113023952D01*
X198186523Y-112903000D01*
X198247000Y-112721571D01*
X198307476Y-112661095D01*
X199577476Y-112419190D02*
X199577476Y-111451571D01*
X198186523Y-111270142D02*
X198186523Y-110483952D01*
X198670333Y-110907285D01*
X198670333Y-110725857D01*
X198730809Y-110604904D01*
X198791285Y-110544428D01*
X198912238Y-110483952D01*
X199214619Y-110483952D01*
X199335571Y-110544428D01*
X199396047Y-110604904D01*
X199456523Y-110725857D01*
X199456523Y-111088714D01*
X199396047Y-111209666D01*
X199335571Y-111270142D01*
%TO.C,IC_5*%
X180660523Y-58819571D02*
X179390523Y-58819571D01*
X180539571Y-57489095D02*
X180600047Y-57549571D01*
X180660523Y-57731000D01*
X180660523Y-57851952D01*
X180600047Y-58033380D01*
X180479095Y-58154333D01*
X180358142Y-58214809D01*
X180116238Y-58275285D01*
X179934809Y-58275285D01*
X179692904Y-58214809D01*
X179571952Y-58154333D01*
X179451000Y-58033380D01*
X179390523Y-57851952D01*
X179390523Y-57731000D01*
X179451000Y-57549571D01*
X179511476Y-57489095D01*
X180781476Y-57247190D02*
X180781476Y-56279571D01*
X179390523Y-55372428D02*
X179390523Y-55977190D01*
X179995285Y-56037666D01*
X179934809Y-55977190D01*
X179874333Y-55856238D01*
X179874333Y-55553857D01*
X179934809Y-55432904D01*
X179995285Y-55372428D01*
X180116238Y-55311952D01*
X180418619Y-55311952D01*
X180539571Y-55372428D01*
X180600047Y-55432904D01*
X180660523Y-55553857D01*
X180660523Y-55856238D01*
X180600047Y-55977190D01*
X180539571Y-56037666D01*
D10*
%TO.C,JP2*%
X186904380Y-57983333D02*
X187618666Y-57983333D01*
X187761523Y-58030952D01*
X187856761Y-58126190D01*
X187904380Y-58269047D01*
X187904380Y-58364285D01*
X187904380Y-57507142D02*
X186904380Y-57507142D01*
X186904380Y-57126190D01*
X186952000Y-57030952D01*
X186999619Y-56983333D01*
X187094857Y-56935714D01*
X187237714Y-56935714D01*
X187332952Y-56983333D01*
X187380571Y-57030952D01*
X187428190Y-57126190D01*
X187428190Y-57507142D01*
X186999619Y-56554761D02*
X186952000Y-56507142D01*
X186904380Y-56411904D01*
X186904380Y-56173809D01*
X186952000Y-56078571D01*
X186999619Y-56030952D01*
X187094857Y-55983333D01*
X187190095Y-55983333D01*
X187332952Y-56030952D01*
X187904380Y-56602380D01*
X187904380Y-55983333D01*
X191714380Y-59221428D02*
X191714380Y-59697619D01*
X190714380Y-59697619D01*
X191714380Y-58888095D02*
X190714380Y-58888095D01*
X190714380Y-58650000D01*
X190762000Y-58507142D01*
X190857238Y-58411904D01*
X190952476Y-58364285D01*
X191142952Y-58316666D01*
X191285809Y-58316666D01*
X191476285Y-58364285D01*
X191571523Y-58411904D01*
X191666761Y-58507142D01*
X191714380Y-58650000D01*
X191714380Y-58888095D01*
X190714380Y-57697619D02*
X190714380Y-57507142D01*
X190762000Y-57411904D01*
X190857238Y-57316666D01*
X191047714Y-57269047D01*
X191381047Y-57269047D01*
X191571523Y-57316666D01*
X191666761Y-57411904D01*
X191714380Y-57507142D01*
X191714380Y-57697619D01*
X191666761Y-57792857D01*
X191571523Y-57888095D01*
X191381047Y-57935714D01*
X191047714Y-57935714D01*
X190857238Y-57888095D01*
X190762000Y-57792857D01*
X190714380Y-57697619D01*
X191809619Y-57078571D02*
X191809619Y-56316666D01*
X191190571Y-56078571D02*
X191190571Y-55745238D01*
X191714380Y-55602380D02*
X191714380Y-56078571D01*
X190714380Y-56078571D01*
X190714380Y-55602380D01*
X191714380Y-55173809D02*
X190714380Y-55173809D01*
X191714380Y-54602380D01*
X190714380Y-54602380D01*
X188628380Y-60029333D02*
X188628380Y-59410285D01*
X189009333Y-59743619D01*
X189009333Y-59600761D01*
X189056952Y-59505523D01*
X189104571Y-59457904D01*
X189199809Y-59410285D01*
X189437904Y-59410285D01*
X189533142Y-59457904D01*
X189580761Y-59505523D01*
X189628380Y-59600761D01*
X189628380Y-59886476D01*
X189580761Y-59981714D01*
X189533142Y-60029333D01*
X189628380Y-54210285D02*
X189628380Y-54781714D01*
X189628380Y-54496000D02*
X188628380Y-54496000D01*
X188771238Y-54591238D01*
X188866476Y-54686476D01*
X188914095Y-54781714D01*
%TO.C,J1*%
X206184380Y-101425333D02*
X206898666Y-101425333D01*
X207041523Y-101472952D01*
X207136761Y-101568190D01*
X207184380Y-101711047D01*
X207184380Y-101806285D01*
X207184380Y-100425333D02*
X207184380Y-100996761D01*
X207184380Y-100711047D02*
X206184380Y-100711047D01*
X206327238Y-100806285D01*
X206422476Y-100901523D01*
X206470095Y-100996761D01*
X202287142Y-111600761D02*
X202334761Y-111648380D01*
X202382380Y-111791238D01*
X202382380Y-111886476D01*
X202334761Y-112029333D01*
X202239523Y-112124571D01*
X202144285Y-112172190D01*
X201953809Y-112219809D01*
X201810952Y-112219809D01*
X201620476Y-112172190D01*
X201525238Y-112124571D01*
X201430000Y-112029333D01*
X201382380Y-111886476D01*
X201382380Y-111791238D01*
X201430000Y-111648380D01*
X201477619Y-111600761D01*
X201382380Y-110981714D02*
X201382380Y-110791238D01*
X201430000Y-110696000D01*
X201525238Y-110600761D01*
X201715714Y-110553142D01*
X202049047Y-110553142D01*
X202239523Y-110600761D01*
X202334761Y-110696000D01*
X202382380Y-110791238D01*
X202382380Y-110981714D01*
X202334761Y-111076952D01*
X202239523Y-111172190D01*
X202049047Y-111219809D01*
X201715714Y-111219809D01*
X201525238Y-111172190D01*
X201430000Y-111076952D01*
X201382380Y-110981714D01*
X202382380Y-110124571D02*
X201382380Y-110124571D01*
X202382380Y-109553142D01*
X201382380Y-109553142D01*
X202382380Y-109076952D02*
X201382380Y-109076952D01*
X202382380Y-108505523D01*
X201382380Y-108505523D01*
X202477619Y-108267428D02*
X202477619Y-107505523D01*
X202382380Y-106791238D02*
X202382380Y-107267428D01*
X201382380Y-107267428D01*
X202096666Y-106505523D02*
X202096666Y-106029333D01*
X202382380Y-106600761D02*
X201382380Y-106267428D01*
X202382380Y-105934095D01*
X202334761Y-105648380D02*
X202382380Y-105505523D01*
X202382380Y-105267428D01*
X202334761Y-105172190D01*
X202287142Y-105124571D01*
X202191904Y-105076952D01*
X202096666Y-105076952D01*
X202001428Y-105124571D01*
X201953809Y-105172190D01*
X201906190Y-105267428D01*
X201858571Y-105457904D01*
X201810952Y-105553142D01*
X201763333Y-105600761D01*
X201668095Y-105648380D01*
X201572857Y-105648380D01*
X201477619Y-105600761D01*
X201430000Y-105553142D01*
X201382380Y-105457904D01*
X201382380Y-105219809D01*
X201430000Y-105076952D01*
X201858571Y-104648380D02*
X201858571Y-104315047D01*
X202382380Y-104172190D02*
X202382380Y-104648380D01*
X201382380Y-104648380D01*
X201382380Y-104172190D01*
X202382380Y-103172190D02*
X201906190Y-103505523D01*
X202382380Y-103743619D02*
X201382380Y-103743619D01*
X201382380Y-103362666D01*
X201430000Y-103267428D01*
X201477619Y-103219809D01*
X201572857Y-103172190D01*
X201715714Y-103172190D01*
X201810952Y-103219809D01*
X201858571Y-103267428D01*
X201906190Y-103362666D01*
X201906190Y-103743619D01*
%TO.C,C5*%
X195937142Y-102528666D02*
X195984761Y-102576285D01*
X196032380Y-102719142D01*
X196032380Y-102814380D01*
X195984761Y-102957238D01*
X195889523Y-103052476D01*
X195794285Y-103100095D01*
X195603809Y-103147714D01*
X195460952Y-103147714D01*
X195270476Y-103100095D01*
X195175238Y-103052476D01*
X195080000Y-102957238D01*
X195032380Y-102814380D01*
X195032380Y-102719142D01*
X195080000Y-102576285D01*
X195127619Y-102528666D01*
X195032380Y-101623904D02*
X195032380Y-102100095D01*
X195508571Y-102147714D01*
X195460952Y-102100095D01*
X195413333Y-102004857D01*
X195413333Y-101766761D01*
X195460952Y-101671523D01*
X195508571Y-101623904D01*
X195603809Y-101576285D01*
X195841904Y-101576285D01*
X195937142Y-101623904D01*
X195984761Y-101671523D01*
X196032380Y-101766761D01*
X196032380Y-102004857D01*
X195984761Y-102100095D01*
X195937142Y-102147714D01*
%TO.C,J8*%
X91654380Y-53419333D02*
X92368666Y-53419333D01*
X92511523Y-53466952D01*
X92606761Y-53562190D01*
X92654380Y-53705047D01*
X92654380Y-53800285D01*
X92082952Y-52800285D02*
X92035333Y-52895523D01*
X91987714Y-52943142D01*
X91892476Y-52990761D01*
X91844857Y-52990761D01*
X91749619Y-52943142D01*
X91702000Y-52895523D01*
X91654380Y-52800285D01*
X91654380Y-52609809D01*
X91702000Y-52514571D01*
X91749619Y-52466952D01*
X91844857Y-52419333D01*
X91892476Y-52419333D01*
X91987714Y-52466952D01*
X92035333Y-52514571D01*
X92082952Y-52609809D01*
X92082952Y-52800285D01*
X92130571Y-52895523D01*
X92178190Y-52943142D01*
X92273428Y-52990761D01*
X92463904Y-52990761D01*
X92559142Y-52943142D01*
X92606761Y-52895523D01*
X92654380Y-52800285D01*
X92654380Y-52609809D01*
X92606761Y-52514571D01*
X92559142Y-52466952D01*
X92463904Y-52419333D01*
X92273428Y-52419333D01*
X92178190Y-52466952D01*
X92130571Y-52514571D01*
X92082952Y-52609809D01*
D13*
%TO.C,D3*%
X198440523Y-72057380D02*
X197170523Y-72057380D01*
X197170523Y-71755000D01*
X197231000Y-71573571D01*
X197351952Y-71452619D01*
X197472904Y-71392142D01*
X197714809Y-71331666D01*
X197896238Y-71331666D01*
X198138142Y-71392142D01*
X198259095Y-71452619D01*
X198380047Y-71573571D01*
X198440523Y-71755000D01*
X198440523Y-72057380D01*
X197170523Y-70908333D02*
X197170523Y-70122142D01*
X197654333Y-70545476D01*
X197654333Y-70364047D01*
X197714809Y-70243095D01*
X197775285Y-70182619D01*
X197896238Y-70122142D01*
X198198619Y-70122142D01*
X198319571Y-70182619D01*
X198380047Y-70243095D01*
X198440523Y-70364047D01*
X198440523Y-70726904D01*
X198380047Y-70847857D01*
X198319571Y-70908333D01*
D10*
%TO.C,J7*%
X101814380Y-54435333D02*
X102528666Y-54435333D01*
X102671523Y-54482952D01*
X102766761Y-54578190D01*
X102814380Y-54721047D01*
X102814380Y-54816285D01*
X101814380Y-54054380D02*
X101814380Y-53387714D01*
X102814380Y-53816285D01*
%TO.C,C10*%
X192381142Y-72524857D02*
X192428761Y-72572476D01*
X192476380Y-72715333D01*
X192476380Y-72810571D01*
X192428761Y-72953428D01*
X192333523Y-73048666D01*
X192238285Y-73096285D01*
X192047809Y-73143904D01*
X191904952Y-73143904D01*
X191714476Y-73096285D01*
X191619238Y-73048666D01*
X191524000Y-72953428D01*
X191476380Y-72810571D01*
X191476380Y-72715333D01*
X191524000Y-72572476D01*
X191571619Y-72524857D01*
X192476380Y-71572476D02*
X192476380Y-72143904D01*
X192476380Y-71858190D02*
X191476380Y-71858190D01*
X191619238Y-71953428D01*
X191714476Y-72048666D01*
X191762095Y-72143904D01*
X191476380Y-70953428D02*
X191476380Y-70858190D01*
X191524000Y-70762952D01*
X191571619Y-70715333D01*
X191666857Y-70667714D01*
X191857333Y-70620095D01*
X192095428Y-70620095D01*
X192285904Y-70667714D01*
X192381142Y-70715333D01*
X192428761Y-70762952D01*
X192476380Y-70858190D01*
X192476380Y-70953428D01*
X192428761Y-71048666D01*
X192381142Y-71096285D01*
X192285904Y-71143904D01*
X192095428Y-71191523D01*
X191857333Y-71191523D01*
X191666857Y-71143904D01*
X191571619Y-71096285D01*
X191524000Y-71048666D01*
X191476380Y-70953428D01*
%TO.C,R3*%
X189682380Y-63920666D02*
X189206190Y-64254000D01*
X189682380Y-64492095D02*
X188682380Y-64492095D01*
X188682380Y-64111142D01*
X188730000Y-64015904D01*
X188777619Y-63968285D01*
X188872857Y-63920666D01*
X189015714Y-63920666D01*
X189110952Y-63968285D01*
X189158571Y-64015904D01*
X189206190Y-64111142D01*
X189206190Y-64492095D01*
X188682380Y-63587333D02*
X188682380Y-62968285D01*
X189063333Y-63301619D01*
X189063333Y-63158761D01*
X189110952Y-63063523D01*
X189158571Y-63015904D01*
X189253809Y-62968285D01*
X189491904Y-62968285D01*
X189587142Y-63015904D01*
X189634761Y-63063523D01*
X189682380Y-63158761D01*
X189682380Y-63444476D01*
X189634761Y-63539714D01*
X189587142Y-63587333D01*
%TO.C,D2*%
X186324380Y-61698095D02*
X185324380Y-61698095D01*
X185324380Y-61460000D01*
X185372000Y-61317142D01*
X185467238Y-61221904D01*
X185562476Y-61174285D01*
X185752952Y-61126666D01*
X185895809Y-61126666D01*
X186086285Y-61174285D01*
X186181523Y-61221904D01*
X186276761Y-61317142D01*
X186324380Y-61460000D01*
X186324380Y-61698095D01*
X185419619Y-60745714D02*
X185372000Y-60698095D01*
X185324380Y-60602857D01*
X185324380Y-60364761D01*
X185372000Y-60269523D01*
X185419619Y-60221904D01*
X185514857Y-60174285D01*
X185610095Y-60174285D01*
X185752952Y-60221904D01*
X186324380Y-60793333D01*
X186324380Y-60174285D01*
X187920380Y-70326095D02*
X187920380Y-69707047D01*
X188301333Y-70040380D01*
X188301333Y-69897523D01*
X188348952Y-69802285D01*
X188396571Y-69754666D01*
X188491809Y-69707047D01*
X188729904Y-69707047D01*
X188825142Y-69754666D01*
X188872761Y-69802285D01*
X188920380Y-69897523D01*
X188920380Y-70183238D01*
X188872761Y-70278476D01*
X188825142Y-70326095D01*
X187920380Y-69421333D02*
X188920380Y-69088000D01*
X187920380Y-68754666D01*
X187920380Y-68516571D02*
X187920380Y-67897523D01*
X188301333Y-68230857D01*
X188301333Y-68088000D01*
X188348952Y-67992761D01*
X188396571Y-67945142D01*
X188491809Y-67897523D01*
X188729904Y-67897523D01*
X188825142Y-67945142D01*
X188872761Y-67992761D01*
X188920380Y-68088000D01*
X188920380Y-68373714D01*
X188872761Y-68468952D01*
X188825142Y-68516571D01*
D13*
%TO.C,IC_1*%
X194630523Y-84781571D02*
X193360523Y-84781571D01*
X194509571Y-83451095D02*
X194570047Y-83511571D01*
X194630523Y-83693000D01*
X194630523Y-83813952D01*
X194570047Y-83995380D01*
X194449095Y-84116333D01*
X194328142Y-84176809D01*
X194086238Y-84237285D01*
X193904809Y-84237285D01*
X193662904Y-84176809D01*
X193541952Y-84116333D01*
X193421000Y-83995380D01*
X193360523Y-83813952D01*
X193360523Y-83693000D01*
X193421000Y-83511571D01*
X193481476Y-83451095D01*
X194751476Y-83209190D02*
X194751476Y-82241571D01*
X194630523Y-81273952D02*
X194630523Y-81999666D01*
X194630523Y-81636809D02*
X193360523Y-81636809D01*
X193541952Y-81757761D01*
X193662904Y-81878714D01*
X193723380Y-81999666D01*
D10*
%TO.C,JP3*%
X200620380Y-81859333D02*
X201334666Y-81859333D01*
X201477523Y-81906952D01*
X201572761Y-82002190D01*
X201620380Y-82145047D01*
X201620380Y-82240285D01*
X201620380Y-81383142D02*
X200620380Y-81383142D01*
X200620380Y-81002190D01*
X200668000Y-80906952D01*
X200715619Y-80859333D01*
X200810857Y-80811714D01*
X200953714Y-80811714D01*
X201048952Y-80859333D01*
X201096571Y-80906952D01*
X201144190Y-81002190D01*
X201144190Y-81383142D01*
X200620380Y-80478380D02*
X200620380Y-79859333D01*
X201001333Y-80192666D01*
X201001333Y-80049809D01*
X201048952Y-79954571D01*
X201096571Y-79906952D01*
X201191809Y-79859333D01*
X201429904Y-79859333D01*
X201525142Y-79906952D01*
X201572761Y-79954571D01*
X201620380Y-80049809D01*
X201620380Y-80335523D01*
X201572761Y-80430761D01*
X201525142Y-80478380D01*
X198080380Y-86756571D02*
X198080380Y-86566095D01*
X198128000Y-86470857D01*
X198223238Y-86375619D01*
X198413714Y-86328000D01*
X198747047Y-86328000D01*
X198937523Y-86375619D01*
X199032761Y-86470857D01*
X199080380Y-86566095D01*
X199080380Y-86756571D01*
X199032761Y-86851809D01*
X198937523Y-86947047D01*
X198747047Y-86994666D01*
X198413714Y-86994666D01*
X198223238Y-86947047D01*
X198128000Y-86851809D01*
X198080380Y-86756571D01*
X199032761Y-85947047D02*
X199080380Y-85804190D01*
X199080380Y-85566095D01*
X199032761Y-85470857D01*
X198985142Y-85423238D01*
X198889904Y-85375619D01*
X198794666Y-85375619D01*
X198699428Y-85423238D01*
X198651809Y-85470857D01*
X198604190Y-85566095D01*
X198556571Y-85756571D01*
X198508952Y-85851809D01*
X198461333Y-85899428D01*
X198366095Y-85947047D01*
X198270857Y-85947047D01*
X198175619Y-85899428D01*
X198128000Y-85851809D01*
X198080380Y-85756571D01*
X198080380Y-85518476D01*
X198128000Y-85375619D01*
X198985142Y-84375619D02*
X199032761Y-84423238D01*
X199080380Y-84566095D01*
X199080380Y-84661333D01*
X199032761Y-84804190D01*
X198937523Y-84899428D01*
X198842285Y-84947047D01*
X198651809Y-84994666D01*
X198508952Y-84994666D01*
X198318476Y-84947047D01*
X198223238Y-84899428D01*
X198128000Y-84804190D01*
X198080380Y-84661333D01*
X198080380Y-84566095D01*
X198128000Y-84423238D01*
X198175619Y-84375619D01*
X199175619Y-84185142D02*
X199175619Y-83423238D01*
X198556571Y-83185142D02*
X198556571Y-82851809D01*
X199080380Y-82708952D02*
X199080380Y-83185142D01*
X198080380Y-83185142D01*
X198080380Y-82708952D01*
X199080380Y-82280380D02*
X198080380Y-82280380D01*
X199080380Y-81708952D01*
X198080380Y-81708952D01*
%TO.C,C2*%
X185703142Y-52116666D02*
X185750761Y-52164285D01*
X185798380Y-52307142D01*
X185798380Y-52402380D01*
X185750761Y-52545238D01*
X185655523Y-52640476D01*
X185560285Y-52688095D01*
X185369809Y-52735714D01*
X185226952Y-52735714D01*
X185036476Y-52688095D01*
X184941238Y-52640476D01*
X184846000Y-52545238D01*
X184798380Y-52402380D01*
X184798380Y-52307142D01*
X184846000Y-52164285D01*
X184893619Y-52116666D01*
X184893619Y-51735714D02*
X184846000Y-51688095D01*
X184798380Y-51592857D01*
X184798380Y-51354761D01*
X184846000Y-51259523D01*
X184893619Y-51211904D01*
X184988857Y-51164285D01*
X185084095Y-51164285D01*
X185226952Y-51211904D01*
X185798380Y-51783333D01*
X185798380Y-51164285D01*
%TO.C,J5*%
X119594380Y-121745333D02*
X120308666Y-121745333D01*
X120451523Y-121792952D01*
X120546761Y-121888190D01*
X120594380Y-122031047D01*
X120594380Y-122126285D01*
X119594380Y-120792952D02*
X119594380Y-121269142D01*
X120070571Y-121316761D01*
X120022952Y-121269142D01*
X119975333Y-121173904D01*
X119975333Y-120935809D01*
X120022952Y-120840571D01*
X120070571Y-120792952D01*
X120165809Y-120745333D01*
X120403904Y-120745333D01*
X120499142Y-120792952D01*
X120546761Y-120840571D01*
X120594380Y-120935809D01*
X120594380Y-121173904D01*
X120546761Y-121269142D01*
X120499142Y-121316761D01*
D13*
%TO.C,IC_2*%
X204536523Y-90877571D02*
X203266523Y-90877571D01*
X204415571Y-89547095D02*
X204476047Y-89607571D01*
X204536523Y-89789000D01*
X204536523Y-89909952D01*
X204476047Y-90091380D01*
X204355095Y-90212333D01*
X204234142Y-90272809D01*
X203992238Y-90333285D01*
X203810809Y-90333285D01*
X203568904Y-90272809D01*
X203447952Y-90212333D01*
X203327000Y-90091380D01*
X203266523Y-89909952D01*
X203266523Y-89789000D01*
X203327000Y-89607571D01*
X203387476Y-89547095D01*
X204657476Y-89305190D02*
X204657476Y-88337571D01*
X203387476Y-88095666D02*
X203327000Y-88035190D01*
X203266523Y-87914238D01*
X203266523Y-87611857D01*
X203327000Y-87490904D01*
X203387476Y-87430428D01*
X203508428Y-87369952D01*
X203629380Y-87369952D01*
X203810809Y-87430428D01*
X204536523Y-88156142D01*
X204536523Y-87369952D01*
D10*
%TO.C,R5*%
X192476380Y-68746666D02*
X192000190Y-69080000D01*
X192476380Y-69318095D02*
X191476380Y-69318095D01*
X191476380Y-68937142D01*
X191524000Y-68841904D01*
X191571619Y-68794285D01*
X191666857Y-68746666D01*
X191809714Y-68746666D01*
X191904952Y-68794285D01*
X191952571Y-68841904D01*
X192000190Y-68937142D01*
X192000190Y-69318095D01*
X191476380Y-67841904D02*
X191476380Y-68318095D01*
X191952571Y-68365714D01*
X191904952Y-68318095D01*
X191857333Y-68222857D01*
X191857333Y-67984761D01*
X191904952Y-67889523D01*
X191952571Y-67841904D01*
X192047809Y-67794285D01*
X192285904Y-67794285D01*
X192381142Y-67841904D01*
X192428761Y-67889523D01*
X192476380Y-67984761D01*
X192476380Y-68222857D01*
X192428761Y-68318095D01*
X192381142Y-68365714D01*
%TO.C,C11*%
X189333142Y-96654857D02*
X189380761Y-96702476D01*
X189428380Y-96845333D01*
X189428380Y-96940571D01*
X189380761Y-97083428D01*
X189285523Y-97178666D01*
X189190285Y-97226285D01*
X188999809Y-97273904D01*
X188856952Y-97273904D01*
X188666476Y-97226285D01*
X188571238Y-97178666D01*
X188476000Y-97083428D01*
X188428380Y-96940571D01*
X188428380Y-96845333D01*
X188476000Y-96702476D01*
X188523619Y-96654857D01*
X189428380Y-95702476D02*
X189428380Y-96273904D01*
X189428380Y-95988190D02*
X188428380Y-95988190D01*
X188571238Y-96083428D01*
X188666476Y-96178666D01*
X188714095Y-96273904D01*
X189428380Y-94750095D02*
X189428380Y-95321523D01*
X189428380Y-95035809D02*
X188428380Y-95035809D01*
X188571238Y-95131047D01*
X188666476Y-95226285D01*
X188714095Y-95321523D01*
%TO.C,JP1*%
X177506380Y-61231333D02*
X178220666Y-61231333D01*
X178363523Y-61278952D01*
X178458761Y-61374190D01*
X178506380Y-61517047D01*
X178506380Y-61612285D01*
X178506380Y-60755142D02*
X177506380Y-60755142D01*
X177506380Y-60374190D01*
X177554000Y-60278952D01*
X177601619Y-60231333D01*
X177696857Y-60183714D01*
X177839714Y-60183714D01*
X177934952Y-60231333D01*
X177982571Y-60278952D01*
X178030190Y-60374190D01*
X178030190Y-60755142D01*
X178506380Y-59231333D02*
X178506380Y-59802761D01*
X178506380Y-59517047D02*
X177506380Y-59517047D01*
X177649238Y-59612285D01*
X177744476Y-59707523D01*
X177792095Y-59802761D01*
X177490380Y-58134000D02*
X177014190Y-58467333D01*
X177490380Y-58705428D02*
X176490380Y-58705428D01*
X176490380Y-58324476D01*
X176538000Y-58229238D01*
X176585619Y-58181619D01*
X176680857Y-58134000D01*
X176823714Y-58134000D01*
X176918952Y-58181619D01*
X176966571Y-58229238D01*
X177014190Y-58324476D01*
X177014190Y-58705428D01*
X176966571Y-57705428D02*
X176966571Y-57372095D01*
X177490380Y-57229238D02*
X177490380Y-57705428D01*
X176490380Y-57705428D01*
X176490380Y-57229238D01*
X176538000Y-56276857D02*
X176490380Y-56372095D01*
X176490380Y-56514952D01*
X176538000Y-56657809D01*
X176633238Y-56753047D01*
X176728476Y-56800666D01*
X176918952Y-56848285D01*
X177061809Y-56848285D01*
X177252285Y-56800666D01*
X177347523Y-56753047D01*
X177442761Y-56657809D01*
X177490380Y-56514952D01*
X177490380Y-56419714D01*
X177442761Y-56276857D01*
X177395142Y-56229238D01*
X177061809Y-56229238D01*
X177061809Y-56419714D01*
X177585619Y-56038761D02*
X177585619Y-55276857D01*
X176966571Y-55038761D02*
X176966571Y-54705428D01*
X177490380Y-54562571D02*
X177490380Y-55038761D01*
X176490380Y-55038761D01*
X176490380Y-54562571D01*
X177490380Y-54134000D02*
X176490380Y-54134000D01*
X177490380Y-53562571D01*
X176490380Y-53562571D01*
%TO.C,C7*%
X202033142Y-95162666D02*
X202080761Y-95210285D01*
X202128380Y-95353142D01*
X202128380Y-95448380D01*
X202080761Y-95591238D01*
X201985523Y-95686476D01*
X201890285Y-95734095D01*
X201699809Y-95781714D01*
X201556952Y-95781714D01*
X201366476Y-95734095D01*
X201271238Y-95686476D01*
X201176000Y-95591238D01*
X201128380Y-95448380D01*
X201128380Y-95353142D01*
X201176000Y-95210285D01*
X201223619Y-95162666D01*
X201128380Y-94829333D02*
X201128380Y-94162666D01*
X202128380Y-94591238D01*
%TO.C,C1*%
X181639142Y-52116666D02*
X181686761Y-52164285D01*
X181734380Y-52307142D01*
X181734380Y-52402380D01*
X181686761Y-52545238D01*
X181591523Y-52640476D01*
X181496285Y-52688095D01*
X181305809Y-52735714D01*
X181162952Y-52735714D01*
X180972476Y-52688095D01*
X180877238Y-52640476D01*
X180782000Y-52545238D01*
X180734380Y-52402380D01*
X180734380Y-52307142D01*
X180782000Y-52164285D01*
X180829619Y-52116666D01*
X181734380Y-51164285D02*
X181734380Y-51735714D01*
X181734380Y-51450000D02*
X180734380Y-51450000D01*
X180877238Y-51545238D01*
X180972476Y-51640476D01*
X181020095Y-51735714D01*
%TO.C,R10*%
X204160380Y-78366857D02*
X203684190Y-78700190D01*
X204160380Y-78938285D02*
X203160380Y-78938285D01*
X203160380Y-78557333D01*
X203208000Y-78462095D01*
X203255619Y-78414476D01*
X203350857Y-78366857D01*
X203493714Y-78366857D01*
X203588952Y-78414476D01*
X203636571Y-78462095D01*
X203684190Y-78557333D01*
X203684190Y-78938285D01*
X204160380Y-77414476D02*
X204160380Y-77985904D01*
X204160380Y-77700190D02*
X203160380Y-77700190D01*
X203303238Y-77795428D01*
X203398476Y-77890666D01*
X203446095Y-77985904D01*
X203160380Y-76795428D02*
X203160380Y-76700190D01*
X203208000Y-76604952D01*
X203255619Y-76557333D01*
X203350857Y-76509714D01*
X203541333Y-76462095D01*
X203779428Y-76462095D01*
X203969904Y-76509714D01*
X204065142Y-76557333D01*
X204112761Y-76604952D01*
X204160380Y-76700190D01*
X204160380Y-76795428D01*
X204112761Y-76890666D01*
X204065142Y-76938285D01*
X203969904Y-76985904D01*
X203779428Y-77033523D01*
X203541333Y-77033523D01*
X203350857Y-76985904D01*
X203255619Y-76938285D01*
X203208000Y-76890666D01*
X203160380Y-76795428D01*
%TO.C,C4*%
X194159142Y-96178666D02*
X194206761Y-96226285D01*
X194254380Y-96369142D01*
X194254380Y-96464380D01*
X194206761Y-96607238D01*
X194111523Y-96702476D01*
X194016285Y-96750095D01*
X193825809Y-96797714D01*
X193682952Y-96797714D01*
X193492476Y-96750095D01*
X193397238Y-96702476D01*
X193302000Y-96607238D01*
X193254380Y-96464380D01*
X193254380Y-96369142D01*
X193302000Y-96226285D01*
X193349619Y-96178666D01*
X193587714Y-95321523D02*
X194254380Y-95321523D01*
X193206761Y-95559619D02*
X193921047Y-95797714D01*
X193921047Y-95178666D01*
%TO.C,D1*%
X183586380Y-61698095D02*
X182586380Y-61698095D01*
X182586380Y-61460000D01*
X182634000Y-61317142D01*
X182729238Y-61221904D01*
X182824476Y-61174285D01*
X183014952Y-61126666D01*
X183157809Y-61126666D01*
X183348285Y-61174285D01*
X183443523Y-61221904D01*
X183538761Y-61317142D01*
X183586380Y-61460000D01*
X183586380Y-61698095D01*
X183586380Y-60174285D02*
X183586380Y-60745714D01*
X183586380Y-60460000D02*
X182586380Y-60460000D01*
X182729238Y-60555238D01*
X182824476Y-60650476D01*
X182872095Y-60745714D01*
X185126380Y-68890828D02*
X185126380Y-69367018D01*
X185602571Y-69414637D01*
X185554952Y-69367018D01*
X185507333Y-69271780D01*
X185507333Y-69033685D01*
X185554952Y-68938447D01*
X185602571Y-68890828D01*
X185697809Y-68843209D01*
X185935904Y-68843209D01*
X186031142Y-68890828D01*
X186078761Y-68938447D01*
X186126380Y-69033685D01*
X186126380Y-69271780D01*
X186078761Y-69367018D01*
X186031142Y-69414637D01*
X185126380Y-68557494D02*
X186126380Y-68224161D01*
X185126380Y-67890828D01*
%TO.C,C6*%
X192447142Y-78144666D02*
X192494761Y-78192285D01*
X192542380Y-78335142D01*
X192542380Y-78430380D01*
X192494761Y-78573238D01*
X192399523Y-78668476D01*
X192304285Y-78716095D01*
X192113809Y-78763714D01*
X191970952Y-78763714D01*
X191780476Y-78716095D01*
X191685238Y-78668476D01*
X191590000Y-78573238D01*
X191542380Y-78430380D01*
X191542380Y-78335142D01*
X191590000Y-78192285D01*
X191637619Y-78144666D01*
X191542380Y-77287523D02*
X191542380Y-77478000D01*
X191590000Y-77573238D01*
X191637619Y-77620857D01*
X191780476Y-77716095D01*
X191970952Y-77763714D01*
X192351904Y-77763714D01*
X192447142Y-77716095D01*
X192494761Y-77668476D01*
X192542380Y-77573238D01*
X192542380Y-77382761D01*
X192494761Y-77287523D01*
X192447142Y-77239904D01*
X192351904Y-77192285D01*
X192113809Y-77192285D01*
X192018571Y-77239904D01*
X191970952Y-77287523D01*
X191923333Y-77382761D01*
X191923333Y-77573238D01*
X191970952Y-77668476D01*
X192018571Y-77716095D01*
X192113809Y-77763714D01*
%TO.C,J9*%
X124928380Y-54943333D02*
X125642666Y-54943333D01*
X125785523Y-54990952D01*
X125880761Y-55086190D01*
X125928380Y-55229047D01*
X125928380Y-55324285D01*
X125928380Y-54419523D02*
X125928380Y-54229047D01*
X125880761Y-54133809D01*
X125833142Y-54086190D01*
X125690285Y-53990952D01*
X125499809Y-53943333D01*
X125118857Y-53943333D01*
X125023619Y-53990952D01*
X124976000Y-54038571D01*
X124928380Y-54133809D01*
X124928380Y-54324285D01*
X124976000Y-54419523D01*
X125023619Y-54467142D01*
X125118857Y-54514761D01*
X125356952Y-54514761D01*
X125452190Y-54467142D01*
X125499809Y-54419523D01*
X125547428Y-54324285D01*
X125547428Y-54133809D01*
X125499809Y-54038571D01*
X125452190Y-53990952D01*
X125356952Y-53943333D01*
%TO.C,C8*%
X195937142Y-104814666D02*
X195984761Y-104862285D01*
X196032380Y-105005142D01*
X196032380Y-105100380D01*
X195984761Y-105243238D01*
X195889523Y-105338476D01*
X195794285Y-105386095D01*
X195603809Y-105433714D01*
X195460952Y-105433714D01*
X195270476Y-105386095D01*
X195175238Y-105338476D01*
X195080000Y-105243238D01*
X195032380Y-105100380D01*
X195032380Y-105005142D01*
X195080000Y-104862285D01*
X195127619Y-104814666D01*
X195460952Y-104243238D02*
X195413333Y-104338476D01*
X195365714Y-104386095D01*
X195270476Y-104433714D01*
X195222857Y-104433714D01*
X195127619Y-104386095D01*
X195080000Y-104338476D01*
X195032380Y-104243238D01*
X195032380Y-104052761D01*
X195080000Y-103957523D01*
X195127619Y-103909904D01*
X195222857Y-103862285D01*
X195270476Y-103862285D01*
X195365714Y-103909904D01*
X195413333Y-103957523D01*
X195460952Y-104052761D01*
X195460952Y-104243238D01*
X195508571Y-104338476D01*
X195556190Y-104386095D01*
X195651428Y-104433714D01*
X195841904Y-104433714D01*
X195937142Y-104386095D01*
X195984761Y-104338476D01*
X196032380Y-104243238D01*
X196032380Y-104052761D01*
X195984761Y-103957523D01*
X195937142Y-103909904D01*
X195841904Y-103862285D01*
X195651428Y-103862285D01*
X195556190Y-103909904D01*
X195508571Y-103957523D01*
X195460952Y-104052761D01*
%TO.C,J6*%
X142454380Y-121745333D02*
X143168666Y-121745333D01*
X143311523Y-121792952D01*
X143406761Y-121888190D01*
X143454380Y-122031047D01*
X143454380Y-122126285D01*
X142454380Y-120840571D02*
X142454380Y-121031047D01*
X142502000Y-121126285D01*
X142549619Y-121173904D01*
X142692476Y-121269142D01*
X142882952Y-121316761D01*
X143263904Y-121316761D01*
X143359142Y-121269142D01*
X143406761Y-121221523D01*
X143454380Y-121126285D01*
X143454380Y-120935809D01*
X143406761Y-120840571D01*
X143359142Y-120792952D01*
X143263904Y-120745333D01*
X143025809Y-120745333D01*
X142930571Y-120792952D01*
X142882952Y-120840571D01*
X142835333Y-120935809D01*
X142835333Y-121126285D01*
X142882952Y-121221523D01*
X142930571Y-121269142D01*
X143025809Y-121316761D01*
%TO.C,C9*%
X194733142Y-78144666D02*
X194780761Y-78192285D01*
X194828380Y-78335142D01*
X194828380Y-78430380D01*
X194780761Y-78573238D01*
X194685523Y-78668476D01*
X194590285Y-78716095D01*
X194399809Y-78763714D01*
X194256952Y-78763714D01*
X194066476Y-78716095D01*
X193971238Y-78668476D01*
X193876000Y-78573238D01*
X193828380Y-78430380D01*
X193828380Y-78335142D01*
X193876000Y-78192285D01*
X193923619Y-78144666D01*
X194828380Y-77668476D02*
X194828380Y-77478000D01*
X194780761Y-77382761D01*
X194733142Y-77335142D01*
X194590285Y-77239904D01*
X194399809Y-77192285D01*
X194018857Y-77192285D01*
X193923619Y-77239904D01*
X193876000Y-77287523D01*
X193828380Y-77382761D01*
X193828380Y-77573238D01*
X193876000Y-77668476D01*
X193923619Y-77716095D01*
X194018857Y-77763714D01*
X194256952Y-77763714D01*
X194352190Y-77716095D01*
X194399809Y-77668476D01*
X194447428Y-77573238D01*
X194447428Y-77382761D01*
X194399809Y-77287523D01*
X194352190Y-77239904D01*
X194256952Y-77192285D01*
%TO.C,R4*%
X197048380Y-66206666D02*
X196572190Y-66540000D01*
X197048380Y-66778095D02*
X196048380Y-66778095D01*
X196048380Y-66397142D01*
X196096000Y-66301904D01*
X196143619Y-66254285D01*
X196238857Y-66206666D01*
X196381714Y-66206666D01*
X196476952Y-66254285D01*
X196524571Y-66301904D01*
X196572190Y-66397142D01*
X196572190Y-66778095D01*
X196381714Y-65349523D02*
X197048380Y-65349523D01*
X196000761Y-65587619D02*
X196715047Y-65825714D01*
X196715047Y-65206666D01*
%TO.C,J4*%
X92670380Y-123015333D02*
X93384666Y-123015333D01*
X93527523Y-123062952D01*
X93622761Y-123158190D01*
X93670380Y-123301047D01*
X93670380Y-123396285D01*
X93003714Y-122110571D02*
X93670380Y-122110571D01*
X92622761Y-122348666D02*
X93337047Y-122586761D01*
X93337047Y-121967714D01*
%TO.C,R1*%
X204922380Y-81954666D02*
X204446190Y-82288000D01*
X204922380Y-82526095D02*
X203922380Y-82526095D01*
X203922380Y-82145142D01*
X203970000Y-82049904D01*
X204017619Y-82002285D01*
X204112857Y-81954666D01*
X204255714Y-81954666D01*
X204350952Y-82002285D01*
X204398571Y-82049904D01*
X204446190Y-82145142D01*
X204446190Y-82526095D01*
X204922380Y-81002285D02*
X204922380Y-81573714D01*
X204922380Y-81288000D02*
X203922380Y-81288000D01*
X204065238Y-81383238D01*
X204160476Y-81478476D01*
X204208095Y-81573714D01*
%TO.C,C3*%
X191365142Y-96178666D02*
X191412761Y-96226285D01*
X191460380Y-96369142D01*
X191460380Y-96464380D01*
X191412761Y-96607238D01*
X191317523Y-96702476D01*
X191222285Y-96750095D01*
X191031809Y-96797714D01*
X190888952Y-96797714D01*
X190698476Y-96750095D01*
X190603238Y-96702476D01*
X190508000Y-96607238D01*
X190460380Y-96464380D01*
X190460380Y-96369142D01*
X190508000Y-96226285D01*
X190555619Y-96178666D01*
X190460380Y-95845333D02*
X190460380Y-95226285D01*
X190841333Y-95559619D01*
X190841333Y-95416761D01*
X190888952Y-95321523D01*
X190936571Y-95273904D01*
X191031809Y-95226285D01*
X191269904Y-95226285D01*
X191365142Y-95273904D01*
X191412761Y-95321523D01*
X191460380Y-95416761D01*
X191460380Y-95702476D01*
X191412761Y-95797714D01*
X191365142Y-95845333D01*
%TO.C,R6*%
X186126380Y-84494666D02*
X185650190Y-84828000D01*
X186126380Y-85066095D02*
X185126380Y-85066095D01*
X185126380Y-84685142D01*
X185174000Y-84589904D01*
X185221619Y-84542285D01*
X185316857Y-84494666D01*
X185459714Y-84494666D01*
X185554952Y-84542285D01*
X185602571Y-84589904D01*
X185650190Y-84685142D01*
X185650190Y-85066095D01*
X185126380Y-83637523D02*
X185126380Y-83828000D01*
X185174000Y-83923238D01*
X185221619Y-83970857D01*
X185364476Y-84066095D01*
X185554952Y-84113714D01*
X185935904Y-84113714D01*
X186031142Y-84066095D01*
X186078761Y-84018476D01*
X186126380Y-83923238D01*
X186126380Y-83732761D01*
X186078761Y-83637523D01*
X186031142Y-83589904D01*
X185935904Y-83542285D01*
X185697809Y-83542285D01*
X185602571Y-83589904D01*
X185554952Y-83637523D01*
X185507333Y-83732761D01*
X185507333Y-83923238D01*
X185554952Y-84018476D01*
X185602571Y-84066095D01*
X185697809Y-84113714D01*
%TO.C,R2*%
X178252380Y-63920666D02*
X177776190Y-64254000D01*
X178252380Y-64492095D02*
X177252380Y-64492095D01*
X177252380Y-64111142D01*
X177300000Y-64015904D01*
X177347619Y-63968285D01*
X177442857Y-63920666D01*
X177585714Y-63920666D01*
X177680952Y-63968285D01*
X177728571Y-64015904D01*
X177776190Y-64111142D01*
X177776190Y-64492095D01*
X177347619Y-63539714D02*
X177300000Y-63492095D01*
X177252380Y-63396857D01*
X177252380Y-63158761D01*
X177300000Y-63063523D01*
X177347619Y-63015904D01*
X177442857Y-62968285D01*
X177538095Y-62968285D01*
X177680952Y-63015904D01*
X178252380Y-63587333D01*
X178252380Y-62968285D01*
%TO.C,J3*%
X180554380Y-115625333D02*
X181268666Y-115625333D01*
X181411523Y-115672952D01*
X181506761Y-115768190D01*
X181554380Y-115911047D01*
X181554380Y-116006285D01*
X180554380Y-115244380D02*
X180554380Y-114625333D01*
X180935333Y-114958666D01*
X180935333Y-114815809D01*
X180982952Y-114720571D01*
X181030571Y-114672952D01*
X181125809Y-114625333D01*
X181363904Y-114625333D01*
X181459142Y-114672952D01*
X181506761Y-114720571D01*
X181554380Y-114815809D01*
X181554380Y-115101523D01*
X181506761Y-115196761D01*
X181459142Y-115244380D01*
%TO.C,IC_0*%
X89606380Y-92558142D02*
X88606380Y-92558142D01*
X89511142Y-91510523D02*
X89558761Y-91558142D01*
X89606380Y-91701000D01*
X89606380Y-91796238D01*
X89558761Y-91939095D01*
X89463523Y-92034333D01*
X89368285Y-92081952D01*
X89177809Y-92129571D01*
X89034952Y-92129571D01*
X88844476Y-92081952D01*
X88749238Y-92034333D01*
X88654000Y-91939095D01*
X88606380Y-91796238D01*
X88606380Y-91701000D01*
X88654000Y-91558142D01*
X88701619Y-91510523D01*
X89701619Y-91320047D02*
X89701619Y-90558142D01*
X88606380Y-90129571D02*
X88606380Y-90034333D01*
X88654000Y-89939095D01*
X88701619Y-89891476D01*
X88796857Y-89843857D01*
X88987333Y-89796238D01*
X89225428Y-89796238D01*
X89415904Y-89843857D01*
X89511142Y-89891476D01*
X89558761Y-89939095D01*
X89606380Y-90034333D01*
X89606380Y-90129571D01*
X89558761Y-90224809D01*
X89511142Y-90272428D01*
X89415904Y-90320047D01*
X89225428Y-90367666D01*
X88987333Y-90367666D01*
X88796857Y-90320047D01*
X88701619Y-90272428D01*
X88654000Y-90224809D01*
X88606380Y-90129571D01*
X136984000Y-94083142D02*
X137031619Y-94130761D01*
X136984000Y-94178380D01*
X136936380Y-94130761D01*
X136984000Y-94083142D01*
X136984000Y-94178380D01*
D14*
%TO.C,C12*%
X201160748Y-91667000D02*
X201683252Y-91667000D01*
X201160748Y-90197000D02*
X201683252Y-90197000D01*
%TO.C,J2*%
X202732000Y-68584000D02*
X203232000Y-68834000D01*
X203232000Y-68834000D02*
X202732000Y-69084000D01*
X202732000Y-69084000D02*
X202732000Y-68584000D01*
D15*
%TO.C,IC_4*%
X199253000Y-73613000D02*
X199253000Y-74663000D01*
X196228000Y-75013000D02*
X199128000Y-75013000D01*
X196228000Y-75863000D02*
X196228000Y-75013000D01*
X199128000Y-75013000D02*
X199128000Y-75863000D01*
X199128000Y-75863000D02*
X196228000Y-75863000D01*
D14*
%TO.C,R9*%
X187986936Y-85879000D02*
X188441064Y-85879000D01*
X187986936Y-87349000D02*
X188441064Y-87349000D01*
%TO.C,J10*%
X149424065Y-58702981D02*
X167264065Y-58702981D01*
X146824065Y-56042981D02*
X148154065Y-56042981D01*
X149424065Y-56042981D02*
X167264065Y-56042981D01*
X167264065Y-58702981D02*
X167264065Y-56042981D01*
X146824065Y-57372981D02*
X146824065Y-56042981D01*
X149424065Y-58702981D02*
X149424065Y-56042981D01*
D15*
%TO.C,IC_3*%
X197332000Y-106088000D02*
X198532000Y-106088000D01*
%TO.C,IC_5*%
X183634000Y-55646000D02*
X183634000Y-58546000D01*
X181484000Y-55596000D02*
X182684000Y-55596000D01*
X183034000Y-58546000D02*
X183034000Y-55646000D01*
X183034000Y-55646000D02*
X183634000Y-55646000D01*
X183634000Y-58546000D02*
X183034000Y-58546000D01*
D14*
%TO.C,JP2*%
X188176000Y-59146000D02*
X188176000Y-55046000D01*
X190176000Y-55046000D02*
X190176000Y-59146000D01*
X188176000Y-55046000D02*
X190176000Y-55046000D01*
X190176000Y-59146000D02*
X188176000Y-59146000D01*
%TO.C,J1*%
X202732000Y-108454000D02*
X202732000Y-107954000D01*
X203232000Y-108204000D02*
X202732000Y-108454000D01*
X202732000Y-107954000D02*
X203232000Y-108204000D01*
%TO.C,C5*%
X198889252Y-101627000D02*
X198366748Y-101627000D01*
X198889252Y-103097000D02*
X198366748Y-103097000D01*
%TO.C,J8*%
X93487000Y-54530000D02*
X98627000Y-54530000D01*
X93487000Y-57130000D02*
X93487000Y-54530000D01*
X90887000Y-57130000D02*
X93487000Y-57130000D01*
X90887000Y-59730000D02*
X98627000Y-59730000D01*
X90887000Y-59730000D02*
X90887000Y-57130000D01*
X90887000Y-54530000D02*
X92217000Y-54530000D01*
X98627000Y-59730000D02*
X98627000Y-54530000D01*
X90887000Y-55860000D02*
X90887000Y-54530000D01*
D15*
%TO.C,D3*%
X198482000Y-69713000D02*
X199282000Y-69713000D01*
D16*
X197082000Y-69088000D02*
X197082000Y-69088000D01*
D15*
X198482000Y-68463000D02*
X199282000Y-68463000D01*
D16*
X196982000Y-69088000D02*
X196982000Y-69088000D01*
D15*
X198482000Y-69713000D02*
X198482000Y-69713000D01*
D16*
X197082000Y-69088000D02*
G75*
G03*
X196982000Y-69088000I-50000J0D01*
G01*
X196982000Y-69088000D02*
G75*
G03*
X197082000Y-69088000I50000J0D01*
G01*
D14*
%TO.C,J7*%
X121487000Y-58201000D02*
X121487000Y-55541000D01*
X103647000Y-55541000D02*
X121487000Y-55541000D01*
X103647000Y-58201000D02*
X103647000Y-55541000D01*
X103647000Y-58201000D02*
X121487000Y-58201000D01*
X101047000Y-55541000D02*
X102377000Y-55541000D01*
X101047000Y-56871000D02*
X101047000Y-55541000D01*
%TO.C,C10*%
X194825252Y-70639000D02*
X194302748Y-70639000D01*
X194825252Y-72109000D02*
X194302748Y-72109000D01*
%TO.C,R3*%
X187933000Y-63526936D02*
X187933000Y-63981064D01*
X186463000Y-63526936D02*
X186463000Y-63981064D01*
%TO.C,D2*%
X183952000Y-62754000D02*
X183952000Y-65439000D01*
X183952000Y-65439000D02*
X185872000Y-65439000D01*
X185872000Y-65439000D02*
X185872000Y-62754000D01*
D15*
%TO.C,IC_1*%
X197731000Y-90663000D02*
X196256000Y-90663000D01*
X195906000Y-85638000D02*
X195906000Y-90638000D01*
X195906000Y-90638000D02*
X192206000Y-90638000D01*
X192206000Y-90638000D02*
X192206000Y-85638000D01*
X192206000Y-85638000D02*
X195906000Y-85638000D01*
D14*
%TO.C,JP3*%
X200468000Y-82820000D02*
X201868000Y-82820000D01*
X202568000Y-83520000D02*
X202568000Y-84120000D01*
X201868000Y-84820000D02*
X200468000Y-84820000D01*
X199768000Y-84120000D02*
X199768000Y-83520000D01*
X200468000Y-82820000D02*
G75*
G03*
X199768000Y-83520000I-1J-699999D01*
G01*
X201868000Y-84820000D02*
G75*
G03*
X202568000Y-84120000I0J700000D01*
G01*
X199768000Y-84120000D02*
G75*
G03*
X200468000Y-84820000I699999J-1D01*
G01*
X202568000Y-83520000D02*
G75*
G03*
X201868000Y-82820000I-700000J0D01*
G01*
%TO.C,C2*%
X185607252Y-53247000D02*
X185084748Y-53247000D01*
X185607252Y-54717000D02*
X185084748Y-54717000D01*
%TO.C,J5*%
X139327335Y-120194561D02*
X139327335Y-117534561D01*
X118887335Y-118864561D02*
X118887335Y-117534561D01*
X121487335Y-117534561D02*
X139327335Y-117534561D01*
X118887335Y-117534561D02*
X120217335Y-117534561D01*
X121487335Y-120194561D02*
X139327335Y-120194561D01*
X121487335Y-120194561D02*
X121487335Y-117534561D01*
D15*
%TO.C,IC_2*%
X202618000Y-87330000D02*
X202618000Y-87930000D01*
X199718000Y-87930000D02*
X199718000Y-87330000D01*
X202618000Y-87930000D02*
X199718000Y-87930000D01*
X199718000Y-87330000D02*
X202618000Y-87330000D01*
X202668000Y-85780000D02*
X202668000Y-86980000D01*
D14*
%TO.C,R5*%
X194791064Y-68607000D02*
X194336936Y-68607000D01*
X194791064Y-70077000D02*
X194336936Y-70077000D01*
%TO.C,C11*%
X189711000Y-92702748D02*
X189711000Y-93225252D01*
X188241000Y-92702748D02*
X188241000Y-93225252D01*
%TO.C,JP1*%
X179840000Y-59398000D02*
X181240000Y-59398000D01*
X179140000Y-60698000D02*
X179140000Y-60098000D01*
X181240000Y-61398000D02*
X179840000Y-61398000D01*
X181940000Y-60098000D02*
X181940000Y-60698000D01*
X181240000Y-61398000D02*
G75*
G03*
X181940000Y-60698000I1J699999D01*
G01*
X181940000Y-60098000D02*
G75*
G03*
X181240000Y-59398000I-699999J1D01*
G01*
X179840000Y-59398000D02*
G75*
G03*
X179140000Y-60098000I0J-700000D01*
G01*
X179140000Y-60698000D02*
G75*
G03*
X179840000Y-61398000I700000J0D01*
G01*
%TO.C,C7*%
X201160748Y-92229000D02*
X201683252Y-92229000D01*
X201160748Y-93699000D02*
X201683252Y-93699000D01*
%TO.C,C1*%
X181020748Y-54717000D02*
X181543252Y-54717000D01*
X181020748Y-53247000D02*
X181543252Y-53247000D01*
%TO.C,R10*%
X201395064Y-77951000D02*
X200940936Y-77951000D01*
X201395064Y-76481000D02*
X200940936Y-76481000D01*
%TO.C,C4*%
X193067000Y-92702748D02*
X193067000Y-93225252D01*
X194537000Y-92702748D02*
X194537000Y-93225252D01*
%TO.C,D1*%
X180904000Y-62754000D02*
X180904000Y-65439000D01*
X180904000Y-65439000D02*
X182824000Y-65439000D01*
X182824000Y-65439000D02*
X182824000Y-62754000D01*
%TO.C,C6*%
X192825000Y-75699252D02*
X192825000Y-75176748D01*
X191355000Y-75699252D02*
X191355000Y-75176748D01*
%TO.C,J9*%
X126581958Y-58702981D02*
X144421958Y-58702981D01*
X144421958Y-58702981D02*
X144421958Y-56042981D01*
X126581958Y-56042981D02*
X144421958Y-56042981D01*
X126581958Y-58702981D02*
X126581958Y-56042981D01*
X123981958Y-56042981D02*
X125311958Y-56042981D01*
X123981958Y-57372981D02*
X123981958Y-56042981D01*
%TO.C,C8*%
X198889252Y-105383000D02*
X198366748Y-105383000D01*
X198889252Y-103913000D02*
X198366748Y-103913000D01*
%TO.C,J6*%
X162127000Y-120431000D02*
X162127000Y-117771000D01*
X144287000Y-120431000D02*
X144287000Y-117771000D01*
X144287000Y-120431000D02*
X162127000Y-120431000D01*
X144287000Y-117771000D02*
X162127000Y-117771000D01*
X141687000Y-117771000D02*
X143017000Y-117771000D01*
X141687000Y-119101000D02*
X141687000Y-117771000D01*
%TO.C,C9*%
X193641000Y-75699252D02*
X193641000Y-75176748D01*
X195111000Y-75699252D02*
X195111000Y-75176748D01*
%TO.C,R4*%
X199363064Y-66775000D02*
X198908936Y-66775000D01*
X199363064Y-65305000D02*
X198908936Y-65305000D01*
%TO.C,J4*%
X117438000Y-120177000D02*
X117438000Y-117517000D01*
X94518000Y-120177000D02*
X94518000Y-117517000D01*
X94518000Y-117517000D02*
X117438000Y-117517000D01*
X91918000Y-118847000D02*
X91918000Y-117517000D01*
X94518000Y-120177000D02*
X117438000Y-120177000D01*
X91918000Y-117517000D02*
X93248000Y-117517000D01*
%TO.C,R1*%
X205205000Y-85063064D02*
X205205000Y-84608936D01*
X203735000Y-85063064D02*
X203735000Y-84608936D01*
%TO.C,C3*%
X191743000Y-92702748D02*
X191743000Y-93225252D01*
X190273000Y-92702748D02*
X190273000Y-93225252D01*
%TO.C,R6*%
X188441064Y-83593000D02*
X187986936Y-83593000D01*
X188441064Y-85063000D02*
X187986936Y-85063000D01*
%TO.C,R2*%
X178843000Y-63526936D02*
X178843000Y-63981064D01*
X180313000Y-63526936D02*
X180313000Y-63981064D01*
D10*
%TO.C,IC_0*%
X173560000Y-61722000D02*
X173560000Y-62992000D01*
X74500000Y-115062000D02*
X172036000Y-115062000D01*
X172036000Y-115062000D02*
X173560000Y-113538000D01*
X176100000Y-99822000D02*
X173560000Y-102362000D01*
X176100000Y-65532000D02*
X176100000Y-99822000D01*
X74500000Y-61722000D02*
X173560000Y-61722000D01*
X173560000Y-102362000D02*
X173560000Y-113538000D01*
X173560000Y-62992000D02*
X176100000Y-65532000D01*
X74500000Y-115062000D02*
X74500000Y-61722000D01*
%TD*%
%LPC*%
D17*
%TO.C,C12*%
X200472000Y-90932000D03*
X202372000Y-90932000D03*
%TD*%
D18*
%TO.C,J2*%
X206952000Y-68834000D03*
D19*
X206952000Y-73214000D03*
X206952000Y-64454000D03*
%TD*%
D20*
%TO.C,IC_4*%
X198628000Y-74138000D03*
X197678000Y-74138000D03*
X196728000Y-74138000D03*
X196728000Y-76738000D03*
X197678000Y-76738000D03*
X198628000Y-76738000D03*
%TD*%
D21*
%TO.C,R9*%
X187301500Y-86614000D03*
X189126500Y-86614000D03*
%TD*%
D22*
%TO.C,J10*%
X148154065Y-57372981D03*
D23*
X150694065Y-57372981D03*
X153234065Y-57372981D03*
X155774065Y-57372981D03*
X158314065Y-57372981D03*
X160854065Y-57372981D03*
X163394065Y-57372981D03*
X165934065Y-57372981D03*
%TD*%
D24*
%TO.C,IC_3*%
X197932000Y-106538000D03*
X197932000Y-107188000D03*
X197932000Y-107838000D03*
X199832000Y-107838000D03*
X199832000Y-106538000D03*
%TD*%
D25*
%TO.C,IC_5*%
X182084000Y-56146000D03*
X182084000Y-57096000D03*
X182084000Y-58046000D03*
X184584000Y-58046000D03*
X184584000Y-56146000D03*
%TD*%
D26*
%TO.C,JP2*%
X189176000Y-55796000D03*
X189176000Y-57096000D03*
X189176000Y-58396000D03*
%TD*%
D18*
%TO.C,J1*%
X206952000Y-108204000D03*
D19*
X206952000Y-112584000D03*
X206952000Y-103824000D03*
%TD*%
D27*
%TO.C,C5*%
X199578000Y-102362000D03*
X197678000Y-102362000D03*
%TD*%
D22*
%TO.C,J8*%
X92217000Y-55860000D03*
D23*
X92217000Y-58400000D03*
X94757000Y-55860000D03*
X94757000Y-58400000D03*
X97297000Y-55860000D03*
X97297000Y-58400000D03*
%TD*%
D28*
%TO.C,D3*%
X197832000Y-69088000D03*
X199932000Y-69088000D03*
%TD*%
D22*
%TO.C,J7*%
X102377000Y-56871000D03*
D23*
X104917000Y-56871000D03*
X107457000Y-56871000D03*
X109997000Y-56871000D03*
X112537000Y-56871000D03*
X115077000Y-56871000D03*
X117617000Y-56871000D03*
X120157000Y-56871000D03*
%TD*%
D27*
%TO.C,C10*%
X195514000Y-71374000D03*
X193614000Y-71374000D03*
%TD*%
D29*
%TO.C,R3*%
X187198000Y-62841500D03*
X187198000Y-64666500D03*
%TD*%
D30*
%TO.C,D2*%
X184912000Y-64691500D03*
X184912000Y-62816500D03*
%TD*%
D31*
%TO.C,IC_1*%
X196994000Y-90088000D03*
X196994000Y-89438000D03*
X196994000Y-88788000D03*
X196994000Y-88138000D03*
X196994000Y-87488000D03*
X196994000Y-86838000D03*
X196994000Y-86188000D03*
X191118000Y-86188000D03*
X191118000Y-86838000D03*
X191118000Y-87488000D03*
X191118000Y-88138000D03*
X191118000Y-88788000D03*
X191118000Y-89438000D03*
X191118000Y-90088000D03*
%TD*%
D32*
%TO.C,JP3*%
X200518000Y-83820000D03*
D33*
X201818000Y-83820000D03*
%TD*%
D27*
%TO.C,C2*%
X186296000Y-53982000D03*
X184396000Y-53982000D03*
%TD*%
D22*
%TO.C,J5*%
X120217335Y-118864561D03*
D23*
X122757335Y-118864561D03*
X125297335Y-118864561D03*
X127837335Y-118864561D03*
X130377335Y-118864561D03*
X132917335Y-118864561D03*
X135457335Y-118864561D03*
X137997335Y-118864561D03*
%TD*%
D34*
%TO.C,IC_2*%
X202118000Y-86380000D03*
X201168000Y-86380000D03*
X200218000Y-86380000D03*
X200218000Y-88880000D03*
X202118000Y-88880000D03*
%TD*%
D35*
%TO.C,R5*%
X195476500Y-69342000D03*
X193651500Y-69342000D03*
%TD*%
D36*
%TO.C,C11*%
X188976000Y-92014000D03*
X188976000Y-93914000D03*
%TD*%
D37*
%TO.C,JP1*%
X181190000Y-60398000D03*
D38*
X179890000Y-60398000D03*
%TD*%
D17*
%TO.C,C7*%
X200472000Y-92964000D03*
X202372000Y-92964000D03*
%TD*%
%TO.C,C1*%
X180332000Y-53982000D03*
X182232000Y-53982000D03*
%TD*%
D35*
%TO.C,R10*%
X202080500Y-77216000D03*
X200255500Y-77216000D03*
%TD*%
D36*
%TO.C,C4*%
X193802000Y-92014000D03*
X193802000Y-93914000D03*
%TD*%
D30*
%TO.C,D1*%
X181864000Y-64691500D03*
X181864000Y-62816500D03*
%TD*%
D39*
%TO.C,C6*%
X192090000Y-76388000D03*
X192090000Y-74488000D03*
%TD*%
D22*
%TO.C,J9*%
X125311958Y-57372981D03*
D23*
X127851958Y-57372981D03*
X130391958Y-57372981D03*
X132931958Y-57372981D03*
X135471958Y-57372981D03*
X138011958Y-57372981D03*
X140551958Y-57372981D03*
X143091958Y-57372981D03*
%TD*%
D27*
%TO.C,C8*%
X199578000Y-104648000D03*
X197678000Y-104648000D03*
%TD*%
D22*
%TO.C,J6*%
X143017000Y-119101000D03*
D23*
X145557000Y-119101000D03*
X148097000Y-119101000D03*
X150637000Y-119101000D03*
X153177000Y-119101000D03*
X155717000Y-119101000D03*
X158257000Y-119101000D03*
X160797000Y-119101000D03*
%TD*%
D39*
%TO.C,C9*%
X194376000Y-76388000D03*
X194376000Y-74488000D03*
%TD*%
D35*
%TO.C,R4*%
X200048500Y-66040000D03*
X198223500Y-66040000D03*
%TD*%
D22*
%TO.C,J4*%
X93248000Y-118847000D03*
D23*
X95788000Y-118847000D03*
X98328000Y-118847000D03*
X100868000Y-118847000D03*
X103408000Y-118847000D03*
X105948000Y-118847000D03*
X108488000Y-118847000D03*
X111028000Y-118847000D03*
X113568000Y-118847000D03*
X116108000Y-118847000D03*
%TD*%
D40*
%TO.C,R1*%
X204470000Y-85748500D03*
X204470000Y-83923500D03*
%TD*%
D36*
%TO.C,C3*%
X191008000Y-92014000D03*
X191008000Y-93914000D03*
%TD*%
D35*
%TO.C,R6*%
X189126500Y-84328000D03*
X187301500Y-84328000D03*
%TD*%
D29*
%TO.C,R2*%
X179578000Y-62841500D03*
X179578000Y-64666500D03*
%TD*%
D22*
%TO.C,J3*%
X182372000Y-112522000D03*
D23*
X179832000Y-112522000D03*
X182372000Y-109982000D03*
X179832000Y-109982000D03*
X182372000Y-107442000D03*
X179832000Y-107442000D03*
X182372000Y-104902000D03*
X179832000Y-104902000D03*
X182372000Y-102362000D03*
X179832000Y-102362000D03*
X182372000Y-99822000D03*
X179832000Y-99822000D03*
X182372000Y-97282000D03*
X179832000Y-97282000D03*
X182372000Y-94742000D03*
X179832000Y-94742000D03*
X182372000Y-92202000D03*
X179832000Y-92202000D03*
X182372000Y-89662000D03*
X179832000Y-89662000D03*
X182372000Y-87122000D03*
X179832000Y-87122000D03*
X182372000Y-84582000D03*
X179832000Y-84582000D03*
X182372000Y-82042000D03*
X179832000Y-82042000D03*
X182372000Y-79502000D03*
X179832000Y-79502000D03*
X182372000Y-76962000D03*
X179832000Y-76962000D03*
X182372000Y-74422000D03*
X179832000Y-74422000D03*
X182372000Y-71882000D03*
X179832000Y-71882000D03*
X182372000Y-69342000D03*
X179832000Y-69342000D03*
%TD*%
D41*
%TO.C,IC_0*%
X140540000Y-69342000D03*
X171020000Y-64262000D03*
X88470000Y-64262000D03*
X140540000Y-97282000D03*
X89740000Y-112522000D03*
D42*
X102440000Y-64262000D03*
D41*
X164670000Y-112522000D03*
D42*
X110060000Y-64262000D03*
X112600000Y-64262000D03*
X140667000Y-92202000D03*
X168480000Y-112522000D03*
X171020000Y-112522000D03*
X125300000Y-64262000D03*
X127840000Y-64262000D03*
X130380000Y-64262000D03*
X132920000Y-64262000D03*
X135460000Y-64262000D03*
X138000000Y-64262000D03*
X140540000Y-64262000D03*
X143080000Y-64262000D03*
X148160000Y-64262000D03*
X150700000Y-64262000D03*
X153240000Y-64262000D03*
X155780000Y-64262000D03*
X98376000Y-112522000D03*
X163400000Y-64262000D03*
X165940000Y-64262000D03*
X138000000Y-112522000D03*
X135460000Y-112522000D03*
X132920000Y-112522000D03*
X130380000Y-112522000D03*
X127840000Y-112522000D03*
X125300000Y-112522000D03*
X122760000Y-112522000D03*
X120220000Y-112522000D03*
X116156000Y-112522000D03*
X113616000Y-112522000D03*
X111076000Y-112522000D03*
X108536000Y-112522000D03*
X105996000Y-112522000D03*
X103456000Y-112522000D03*
X143080000Y-112522000D03*
X145620000Y-112522000D03*
X148160000Y-112522000D03*
X150700000Y-112522000D03*
X153240000Y-112522000D03*
X155780000Y-112522000D03*
X158320000Y-112522000D03*
X160860000Y-112522000D03*
X168480000Y-109982000D03*
X171020000Y-109982000D03*
X168480000Y-107442000D03*
X171020000Y-107442000D03*
X168480000Y-104902000D03*
X171020000Y-104902000D03*
X168480000Y-102362000D03*
X171020000Y-102362000D03*
X168480000Y-99822000D03*
X171020000Y-99822000D03*
X168480000Y-97282000D03*
X171020000Y-97282000D03*
X168480000Y-94742000D03*
X171020000Y-94742000D03*
X168480000Y-92202000D03*
X171020000Y-92202000D03*
X168480000Y-89662000D03*
X171020000Y-89662000D03*
X168480000Y-87122000D03*
X171020000Y-87122000D03*
X168480000Y-84582000D03*
X171020000Y-84582000D03*
X168480000Y-82042000D03*
X171020000Y-82042000D03*
X168480000Y-79502000D03*
X171020000Y-79502000D03*
X168480000Y-76962000D03*
X171020000Y-76962000D03*
X168480000Y-74422000D03*
X171020000Y-74422000D03*
X168480000Y-71882000D03*
X171020000Y-71882000D03*
X158320000Y-64262000D03*
X160860000Y-64262000D03*
D43*
X100916000Y-112522000D03*
X115140000Y-64262000D03*
X117680000Y-64262000D03*
X140667000Y-87122000D03*
X168480000Y-69342000D03*
X171020000Y-69342000D03*
D42*
X104980000Y-64262000D03*
X138127000Y-92202000D03*
X140667000Y-89662000D03*
X107520000Y-64262000D03*
X138127000Y-87122000D03*
X138127000Y-89662000D03*
X93296000Y-112522000D03*
X95836000Y-112522000D03*
X120220000Y-64262000D03*
%TD*%
M02*
