%TF.GenerationSoftware,KiCad,Pcbnew,(6.0.10)*%
%TF.CreationDate,2025-05-13T20:50:00+02:00*%
%TF.ProjectId,Progetto Lidar,50726f67-6574-4746-9f20-4c696461722e,rev?*%
%TF.SameCoordinates,Original*%
%TF.FileFunction,Drillmap*%
%TF.FilePolarity,Positive*%
%FSLAX45Y45*%
G04 Gerber Fmt 4.5, Leading zero omitted, Abs format (unit mm)*
G04 Created by KiCad (PCBNEW (6.0.10)) date 2025-05-13 20:50:00*
%MOMM*%
%LPD*%
G01*
G04 APERTURE LIST*
%ADD10C,0.100000*%
%ADD11C,0.200000*%
%ADD12C,0.030000*%
%ADD13C,0.040000*%
%ADD14C,0.046000*%
%ADD15C,0.101600*%
G04 APERTURE END LIST*
D10*
X21000000Y-5500000D02*
G75*
G03*
X20500000Y-5000000I-521960J-21960D01*
G01*
X8067999Y-11939854D02*
X8700000Y-11000000D01*
X8700000Y-12200000D02*
G75*
G03*
X8700000Y-12200000I-200000J0D01*
G01*
X8500000Y-5000000D02*
X20500000Y-5000000D01*
X20500000Y-12700000D02*
G75*
G03*
X21000000Y-12200000I-24130J524130D01*
G01*
X8700000Y-6700000D02*
X8067999Y-5760146D01*
X20700000Y-12200000D02*
G75*
G03*
X20700000Y-12200000I-200000J0D01*
G01*
X8700000Y-6700000D02*
X8700000Y-11000000D01*
X8500000Y-12700000D02*
X20500000Y-12700000D01*
X20700000Y-5500000D02*
G75*
G03*
X20700000Y-5500000I-200000J0D01*
G01*
X8500000Y-5000001D02*
G75*
G03*
X8067999Y-5760146I0J-502829D01*
G01*
X21000000Y-12200000D02*
X21000000Y-5500000D01*
X8067998Y-11939853D02*
G75*
G03*
X8500000Y-12700000I432002J-257317D01*
G01*
X8700000Y-5500000D02*
G75*
G03*
X8700000Y-5500000I-200000J0D01*
G01*
D11*
D12*
X11161000Y-9586200D02*
X11191000Y-9616200D01*
X11191000Y-9586200D02*
X11161000Y-9616200D01*
X11186400Y-10170400D02*
X11216400Y-10200400D01*
X11216400Y-10170400D02*
X11186400Y-10200400D01*
X11719800Y-9586200D02*
X11749800Y-9616200D01*
X11749800Y-9586200D02*
X11719800Y-9616200D01*
X11719800Y-10170400D02*
X11749800Y-10200400D01*
X11749800Y-10170400D02*
X11719800Y-10200400D01*
X12634200Y-7147800D02*
X12664200Y-7177800D01*
X12664200Y-7147800D02*
X12634200Y-7177800D01*
X12659600Y-7732000D02*
X12689600Y-7762000D01*
X12689600Y-7732000D02*
X12659600Y-7762000D01*
X13193000Y-7147800D02*
X13223000Y-7177800D01*
X13223000Y-7147800D02*
X13193000Y-7177800D01*
X13193000Y-7732000D02*
X13223000Y-7762000D01*
X13223000Y-7732000D02*
X13193000Y-7762000D01*
X14590000Y-8951200D02*
X14620000Y-8981200D01*
X14620000Y-8951200D02*
X14590000Y-8981200D01*
X14590000Y-9154400D02*
X14620000Y-9184400D01*
X14620000Y-9154400D02*
X14590000Y-9184400D01*
X15428200Y-7808200D02*
X15458200Y-7838200D01*
X15458200Y-7808200D02*
X15428200Y-7838200D01*
X15428200Y-9535400D02*
X15458200Y-9565400D01*
X15458200Y-9535400D02*
X15428200Y-9565400D01*
X15453600Y-8392400D02*
X15483600Y-8422400D01*
X15483600Y-8392400D02*
X15453600Y-8422400D01*
X15453600Y-10119600D02*
X15483600Y-10149600D01*
X15483600Y-10119600D02*
X15453600Y-10149600D01*
X15987000Y-7808200D02*
X16017000Y-7838200D01*
X16017000Y-7808200D02*
X15987000Y-7838200D01*
X15987000Y-8392400D02*
X16017000Y-8422400D01*
X16017000Y-8392400D02*
X15987000Y-8422400D01*
X15987000Y-9535400D02*
X16017000Y-9565400D01*
X16017000Y-9535400D02*
X15987000Y-9565400D01*
X15987000Y-10119600D02*
X16017000Y-10149600D01*
X16017000Y-10119600D02*
X15987000Y-10149600D01*
X16647400Y-9002000D02*
X16677400Y-9032000D01*
X16677400Y-9002000D02*
X16647400Y-9032000D01*
X16647400Y-9154400D02*
X16677400Y-9184400D01*
X16677400Y-9154400D02*
X16647400Y-9184400D01*
X18450800Y-8544800D02*
X18480800Y-8574800D01*
X18480800Y-8544800D02*
X18450800Y-8574800D01*
X18450800Y-8697200D02*
X18480800Y-8727200D01*
X18480800Y-8697200D02*
X18450800Y-8727200D01*
X18450800Y-9205200D02*
X18480800Y-9235200D01*
X18480800Y-9205200D02*
X18450800Y-9235200D01*
X18682773Y-8759677D02*
X18712773Y-8789677D01*
X18712773Y-8759677D02*
X18682773Y-8789677D01*
X18730200Y-8290800D02*
X18760200Y-8320800D01*
X18760200Y-8290800D02*
X18730200Y-8320800D01*
X18806400Y-5395200D02*
X18836400Y-5425200D01*
X18836400Y-5395200D02*
X18806400Y-5425200D01*
X18839199Y-8861937D02*
X18869199Y-8891937D01*
X18869199Y-8861937D02*
X18839199Y-8891937D01*
X18908000Y-8925800D02*
X18938000Y-8955800D01*
X18938000Y-8925800D02*
X18908000Y-8955800D01*
X19009600Y-8380750D02*
X19039600Y-8410750D01*
X19039600Y-8380750D02*
X19009600Y-8410750D01*
X19212800Y-6766800D02*
X19242800Y-6796800D01*
X19242800Y-6766800D02*
X19212800Y-6796800D01*
X19212800Y-6868400D02*
X19242800Y-6898400D01*
X19242800Y-6868400D02*
X19212800Y-6898400D01*
X19212800Y-6970000D02*
X19242800Y-7000000D01*
X19242800Y-6970000D02*
X19212800Y-7000000D01*
X19212800Y-7071600D02*
X19242800Y-7101600D01*
X19242800Y-7071600D02*
X19212800Y-7101600D01*
X19212800Y-7173200D02*
X19242800Y-7203200D01*
X19242800Y-7173200D02*
X19212800Y-7203200D01*
X19314400Y-6766800D02*
X19344400Y-6796800D01*
X19344400Y-6766800D02*
X19314400Y-6796800D01*
X19314400Y-8710950D02*
X19344400Y-8740950D01*
X19344400Y-8710950D02*
X19314400Y-8740950D01*
X19365200Y-8494000D02*
X19395200Y-8524000D01*
X19395200Y-8494000D02*
X19365200Y-8524000D01*
X19390600Y-8798800D02*
X19420600Y-8828800D01*
X19420600Y-8798800D02*
X19390600Y-8828800D01*
X19466800Y-7986000D02*
X19496800Y-8016000D01*
X19496800Y-7986000D02*
X19466800Y-8016000D01*
X19466800Y-8087600D02*
X19496800Y-8117600D01*
X19496800Y-8087600D02*
X19466800Y-8117600D01*
X19466800Y-8189200D02*
X19496800Y-8219200D01*
X19496800Y-8189200D02*
X19466800Y-8219200D01*
X19466800Y-8290800D02*
X19496800Y-8320800D01*
X19496800Y-8290800D02*
X19466800Y-8320800D01*
X19466800Y-8392400D02*
X19496800Y-8422400D01*
X19496800Y-8392400D02*
X19466800Y-8422400D01*
X19466800Y-8494000D02*
X19496800Y-8524000D01*
X19496800Y-8494000D02*
X19466800Y-8524000D01*
X19466800Y-8595600D02*
X19496800Y-8625600D01*
X19496800Y-8595600D02*
X19466800Y-8625600D01*
X19466800Y-8925800D02*
X19496800Y-8955800D01*
X19496800Y-8925800D02*
X19466800Y-8955800D01*
X19517600Y-9103600D02*
X19547600Y-9133600D01*
X19547600Y-9103600D02*
X19517600Y-9133600D01*
X19517600Y-10449800D02*
X19547600Y-10479800D01*
X19547600Y-10449800D02*
X19517600Y-10479800D01*
X19517600Y-10551400D02*
X19547600Y-10581400D01*
X19547600Y-10551400D02*
X19517600Y-10581400D01*
X19517600Y-10754600D02*
X19547600Y-10784600D01*
X19547600Y-10754600D02*
X19517600Y-10784600D01*
X19517600Y-10856200D02*
X19547600Y-10886200D01*
X19547600Y-10856200D02*
X19517600Y-10886200D01*
X19517600Y-10957800D02*
X19547600Y-10987800D01*
X19547600Y-10957800D02*
X19517600Y-10987800D01*
X19543000Y-6766800D02*
X19573000Y-6796800D01*
X19573000Y-6766800D02*
X19543000Y-6796800D01*
X19543000Y-7909800D02*
X19573000Y-7939800D01*
X19573000Y-7909800D02*
X19543000Y-7939800D01*
X19619200Y-8087600D02*
X19649200Y-8117600D01*
X19649200Y-8087600D02*
X19619200Y-8117600D01*
X19619200Y-8189200D02*
X19649200Y-8219200D01*
X19649200Y-8189200D02*
X19619200Y-8219200D01*
X19619200Y-8290800D02*
X19649200Y-8320800D01*
X19649200Y-8290800D02*
X19619200Y-8320800D01*
X19619200Y-8392400D02*
X19649200Y-8422400D01*
X19649200Y-8392400D02*
X19619200Y-8422400D01*
X19619200Y-8494000D02*
X19649200Y-8524000D01*
X19649200Y-8494000D02*
X19619200Y-8524000D01*
X19619200Y-10449800D02*
X19649200Y-10479800D01*
X19649200Y-10449800D02*
X19619200Y-10479800D01*
X19619200Y-10551400D02*
X19649200Y-10581400D01*
X19649200Y-10551400D02*
X19619200Y-10581400D01*
X19619200Y-10754600D02*
X19649200Y-10784600D01*
X19649200Y-10754600D02*
X19619200Y-10784600D01*
X19619200Y-10856200D02*
X19649200Y-10886200D01*
X19649200Y-10856200D02*
X19619200Y-10886200D01*
X19619200Y-10957800D02*
X19649200Y-10987800D01*
X19649200Y-10957800D02*
X19619200Y-10987800D01*
X19644600Y-6817600D02*
X19674600Y-6847600D01*
X19674600Y-6817600D02*
X19644600Y-6847600D01*
X19644600Y-7833600D02*
X19674600Y-7863600D01*
X19674600Y-7833600D02*
X19644600Y-7863600D01*
X19670000Y-7020800D02*
X19700000Y-7050800D01*
X19700000Y-7020800D02*
X19670000Y-7050800D01*
X19670000Y-7122400D02*
X19700000Y-7152400D01*
X19700000Y-7122400D02*
X19670000Y-7152400D01*
X19695400Y-8011400D02*
X19725400Y-8041400D01*
X19725400Y-8011400D02*
X19695400Y-8041400D01*
X19720800Y-8494000D02*
X19750800Y-8524000D01*
X19750800Y-8494000D02*
X19720800Y-8524000D01*
X19720800Y-10856200D02*
X19750800Y-10886200D01*
X19750800Y-10856200D02*
X19720800Y-10886200D01*
X19720800Y-10957800D02*
X19750800Y-10987800D01*
X19750800Y-10957800D02*
X19720800Y-10987800D01*
X19746200Y-7274800D02*
X19776200Y-7304800D01*
X19776200Y-7274800D02*
X19746200Y-7304800D01*
X19746200Y-9129000D02*
X19776200Y-9159000D01*
X19776200Y-9129000D02*
X19746200Y-9159000D01*
X19746200Y-9230600D02*
X19776200Y-9260600D01*
X19776200Y-9230600D02*
X19746200Y-9260600D01*
X19746200Y-9332200D02*
X19776200Y-9362200D01*
X19776200Y-9332200D02*
X19746200Y-9362200D01*
X19771600Y-7020800D02*
X19801600Y-7050800D01*
X19801600Y-7020800D02*
X19771600Y-7050800D01*
X19771600Y-7122400D02*
X19801600Y-7152400D01*
X19801600Y-7122400D02*
X19771600Y-7152400D01*
X19771600Y-7935200D02*
X19801600Y-7965200D01*
X19801600Y-7935200D02*
X19771600Y-7965200D01*
X19797000Y-9484600D02*
X19827000Y-9514600D01*
X19827000Y-9484600D02*
X19797000Y-9514600D01*
X19822400Y-8900400D02*
X19852400Y-8930400D01*
X19852400Y-8900400D02*
X19822400Y-8930400D01*
X19847800Y-7274800D02*
X19877800Y-7304800D01*
X19877800Y-7274800D02*
X19847800Y-7304800D01*
X19847800Y-7859000D02*
X19877800Y-7889000D01*
X19877800Y-7859000D02*
X19847800Y-7889000D01*
X19847800Y-10856200D02*
X19877800Y-10886200D01*
X19877800Y-10856200D02*
X19847800Y-10886200D01*
X19847800Y-10957800D02*
X19877800Y-10987800D01*
X19877800Y-10957800D02*
X19847800Y-10987800D01*
X19898600Y-9027400D02*
X19928600Y-9057400D01*
X19928600Y-9027400D02*
X19898600Y-9057400D01*
X19898600Y-9129000D02*
X19928600Y-9159000D01*
X19928600Y-9129000D02*
X19898600Y-9159000D01*
X19898600Y-9230600D02*
X19928600Y-9260600D01*
X19928600Y-9230600D02*
X19898600Y-9260600D01*
X19898600Y-9332200D02*
X19928600Y-9362200D01*
X19928600Y-9332200D02*
X19898600Y-9362200D01*
X19924000Y-7020800D02*
X19954000Y-7050800D01*
X19954000Y-7020800D02*
X19924000Y-7050800D01*
X19949400Y-10856200D02*
X19979400Y-10886200D01*
X19979400Y-10856200D02*
X19949400Y-10886200D01*
X19949400Y-10957800D02*
X19979400Y-10987800D01*
X19979400Y-10957800D02*
X19949400Y-10987800D01*
X19974800Y-7097000D02*
X20004800Y-7127000D01*
X20004800Y-7097000D02*
X19974800Y-7127000D01*
X19974800Y-7198600D02*
X20004800Y-7228600D01*
X20004800Y-7198600D02*
X19974800Y-7228600D01*
X19974800Y-7300200D02*
X20004800Y-7330200D01*
X20004800Y-7300200D02*
X19974800Y-7330200D01*
X19974800Y-7401800D02*
X20004800Y-7431800D01*
X20004800Y-7401800D02*
X19974800Y-7431800D01*
X19974800Y-7503400D02*
X20004800Y-7533400D01*
X20004800Y-7503400D02*
X19974800Y-7533400D01*
X20000200Y-9738600D02*
X20030200Y-9768600D01*
X20030200Y-9738600D02*
X20000200Y-9768600D01*
X20000200Y-9840200D02*
X20030200Y-9870200D01*
X20030200Y-9840200D02*
X20000200Y-9870200D01*
X20000200Y-9941800D02*
X20030200Y-9971800D01*
X20030200Y-9941800D02*
X20000200Y-9971800D01*
X20025600Y-7020800D02*
X20055600Y-7050800D01*
X20055600Y-7020800D02*
X20025600Y-7050800D01*
X20051000Y-10856200D02*
X20081000Y-10886200D01*
X20081000Y-10856200D02*
X20051000Y-10886200D01*
X20051000Y-10957800D02*
X20081000Y-10987800D01*
X20081000Y-10957800D02*
X20051000Y-10987800D01*
X20076400Y-9560800D02*
X20106400Y-9590800D01*
X20106400Y-9560800D02*
X20076400Y-9590800D01*
X20127200Y-6741400D02*
X20157200Y-6771400D01*
X20157200Y-6741400D02*
X20127200Y-6771400D01*
X20127200Y-6995400D02*
X20157200Y-7025400D01*
X20157200Y-6995400D02*
X20127200Y-7025400D01*
X20152600Y-9637000D02*
X20182600Y-9667000D01*
X20182600Y-9637000D02*
X20152600Y-9667000D01*
X20152600Y-9738600D02*
X20182600Y-9768600D01*
X20182600Y-9738600D02*
X20152600Y-9768600D01*
X20152600Y-9840200D02*
X20182600Y-9870200D01*
X20182600Y-9840200D02*
X20152600Y-9870200D01*
X20152600Y-9941800D02*
X20182600Y-9971800D01*
X20182600Y-9941800D02*
X20152600Y-9971800D01*
X20152600Y-10043400D02*
X20182600Y-10073400D01*
X20182600Y-10043400D02*
X20152600Y-10073400D01*
X20152600Y-10145000D02*
X20182600Y-10175000D01*
X20182600Y-10145000D02*
X20152600Y-10175000D01*
X20152600Y-10246600D02*
X20182600Y-10276600D01*
X20182600Y-10246600D02*
X20152600Y-10276600D01*
X20152600Y-10449800D02*
X20182600Y-10479800D01*
X20182600Y-10449800D02*
X20152600Y-10479800D01*
X20152600Y-10551400D02*
X20182600Y-10581400D01*
X20182600Y-10551400D02*
X20152600Y-10581400D01*
X20152600Y-10653000D02*
X20182600Y-10683000D01*
X20182600Y-10653000D02*
X20152600Y-10683000D01*
X20152600Y-10856200D02*
X20182600Y-10886200D01*
X20182600Y-10856200D02*
X20152600Y-10886200D01*
X20152600Y-10957800D02*
X20182600Y-10987800D01*
X20182600Y-10957800D02*
X20152600Y-10987800D01*
X20228800Y-6741400D02*
X20258800Y-6771400D01*
X20258800Y-6741400D02*
X20228800Y-6771400D01*
X20228800Y-6995400D02*
X20258800Y-7025400D01*
X20258800Y-6995400D02*
X20228800Y-7025400D01*
X20254200Y-10653000D02*
X20284200Y-10683000D01*
X20284200Y-10653000D02*
X20254200Y-10683000D01*
X20254200Y-10856200D02*
X20284200Y-10886200D01*
X20284200Y-10856200D02*
X20254200Y-10886200D01*
X20254200Y-10957800D02*
X20284200Y-10987800D01*
X20284200Y-10957800D02*
X20254200Y-10987800D01*
X20305000Y-8595600D02*
X20335000Y-8625600D01*
X20335000Y-8595600D02*
X20305000Y-8625600D01*
D13*
X19222400Y-8001000D02*
G75*
G03*
X19222400Y-8001000I-20000J0D01*
G01*
X19730400Y-9474200D02*
G75*
G03*
X19730400Y-9474200I-20000J0D01*
G01*
X19755800Y-9906000D02*
G75*
G03*
X19755800Y-9906000I-20000J0D01*
G01*
X20213000Y-9448800D02*
G75*
G03*
X20213000Y-9448800I-20000J0D01*
G01*
D14*
X20351200Y-6422400D02*
X20351200Y-6468400D01*
X20328200Y-6445400D02*
X20374200Y-6445400D01*
X20351200Y-7298400D02*
X20351200Y-7344400D01*
X20328200Y-7321400D02*
X20374200Y-7321400D01*
X20351200Y-10359400D02*
X20351200Y-10405400D01*
X20328200Y-10382400D02*
X20374200Y-10382400D01*
X20351200Y-11235400D02*
X20351200Y-11281400D01*
X20328200Y-11258400D02*
X20374200Y-11258400D01*
D10*
X9257056Y-5621356D02*
X9257056Y-5550644D01*
X9186344Y-5550644D01*
X9186344Y-5621356D01*
X9257056Y-5621356D01*
X9257056Y-5875356D02*
X9257056Y-5804644D01*
X9186344Y-5804644D01*
X9186344Y-5875356D01*
X9257056Y-5875356D01*
X9360156Y-11920056D02*
X9360156Y-11849344D01*
X9289444Y-11849344D01*
X9289444Y-11920056D01*
X9360156Y-11920056D01*
X9511056Y-5621356D02*
X9511056Y-5550644D01*
X9440344Y-5550644D01*
X9440344Y-5621356D01*
X9511056Y-5621356D01*
X9511056Y-5875356D02*
X9511056Y-5804644D01*
X9440344Y-5804644D01*
X9440344Y-5875356D01*
X9511056Y-5875356D01*
X9614156Y-11920056D02*
X9614156Y-11849344D01*
X9543444Y-11849344D01*
X9543444Y-11920056D01*
X9614156Y-11920056D01*
X9765056Y-5621356D02*
X9765056Y-5550644D01*
X9694344Y-5550644D01*
X9694344Y-5621356D01*
X9765056Y-5621356D01*
X9765056Y-5875356D02*
X9765056Y-5804644D01*
X9694344Y-5804644D01*
X9694344Y-5875356D01*
X9765056Y-5875356D01*
X9868156Y-11920056D02*
X9868156Y-11849344D01*
X9797444Y-11849344D01*
X9797444Y-11920056D01*
X9868156Y-11920056D01*
X10122156Y-11920056D02*
X10122156Y-11849344D01*
X10051444Y-11849344D01*
X10051444Y-11920056D01*
X10122156Y-11920056D01*
X10273056Y-5722456D02*
X10273056Y-5651744D01*
X10202344Y-5651744D01*
X10202344Y-5722456D01*
X10273056Y-5722456D01*
X10376156Y-11920056D02*
X10376156Y-11849344D01*
X10305444Y-11849344D01*
X10305444Y-11920056D01*
X10376156Y-11920056D01*
X10527056Y-5722456D02*
X10527056Y-5651744D01*
X10456344Y-5651744D01*
X10456344Y-5722456D01*
X10527056Y-5722456D01*
X10630156Y-11920056D02*
X10630156Y-11849344D01*
X10559444Y-11849344D01*
X10559444Y-11920056D01*
X10630156Y-11920056D01*
X10781056Y-5722456D02*
X10781056Y-5651744D01*
X10710344Y-5651744D01*
X10710344Y-5722456D01*
X10781056Y-5722456D01*
X10884156Y-11920056D02*
X10884156Y-11849344D01*
X10813444Y-11849344D01*
X10813444Y-11920056D01*
X10884156Y-11920056D01*
X11035056Y-5722456D02*
X11035056Y-5651744D01*
X10964344Y-5651744D01*
X10964344Y-5722456D01*
X11035056Y-5722456D01*
X11138156Y-11920056D02*
X11138156Y-11849344D01*
X11067444Y-11849344D01*
X11067444Y-11920056D01*
X11138156Y-11920056D01*
X11289056Y-5722456D02*
X11289056Y-5651744D01*
X11218344Y-5651744D01*
X11218344Y-5722456D01*
X11289056Y-5722456D01*
X11392156Y-11920056D02*
X11392156Y-11849344D01*
X11321444Y-11849344D01*
X11321444Y-11920056D01*
X11392156Y-11920056D01*
X11543056Y-5722456D02*
X11543056Y-5651744D01*
X11472344Y-5651744D01*
X11472344Y-5722456D01*
X11543056Y-5722456D01*
X11646156Y-11920056D02*
X11646156Y-11849344D01*
X11575444Y-11849344D01*
X11575444Y-11920056D01*
X11646156Y-11920056D01*
X11797056Y-5722456D02*
X11797056Y-5651744D01*
X11726344Y-5651744D01*
X11726344Y-5722456D01*
X11797056Y-5722456D01*
X12051056Y-5722456D02*
X12051056Y-5651744D01*
X11980344Y-5651744D01*
X11980344Y-5722456D01*
X12051056Y-5722456D01*
X12057089Y-11921812D02*
X12057089Y-11851100D01*
X11986378Y-11851100D01*
X11986378Y-11921812D01*
X12057089Y-11921812D01*
X12311089Y-11921812D02*
X12311089Y-11851100D01*
X12240378Y-11851100D01*
X12240378Y-11921812D01*
X12311089Y-11921812D01*
X12565089Y-11921812D02*
X12565089Y-11851100D01*
X12494378Y-11851100D01*
X12494378Y-11921812D01*
X12565089Y-11921812D01*
X12566551Y-5772654D02*
X12566551Y-5701942D01*
X12495840Y-5701942D01*
X12495840Y-5772654D01*
X12566551Y-5772654D01*
X12819089Y-11921812D02*
X12819089Y-11851100D01*
X12748378Y-11851100D01*
X12748378Y-11921812D01*
X12819089Y-11921812D01*
X12820551Y-5772654D02*
X12820551Y-5701942D01*
X12749840Y-5701942D01*
X12749840Y-5772654D01*
X12820551Y-5772654D01*
X13073089Y-11921812D02*
X13073089Y-11851100D01*
X13002378Y-11851100D01*
X13002378Y-11921812D01*
X13073089Y-11921812D01*
X13074551Y-5772654D02*
X13074551Y-5701942D01*
X13003840Y-5701942D01*
X13003840Y-5772654D01*
X13074551Y-5772654D01*
X13327089Y-11921812D02*
X13327089Y-11851100D01*
X13256378Y-11851100D01*
X13256378Y-11921812D01*
X13327089Y-11921812D01*
X13328551Y-5772654D02*
X13328551Y-5701942D01*
X13257840Y-5701942D01*
X13257840Y-5772654D01*
X13328551Y-5772654D01*
X13581089Y-11921812D02*
X13581089Y-11851100D01*
X13510378Y-11851100D01*
X13510378Y-11921812D01*
X13581089Y-11921812D01*
X13582551Y-5772654D02*
X13582551Y-5701942D01*
X13511840Y-5701942D01*
X13511840Y-5772654D01*
X13582551Y-5772654D01*
X13835089Y-11921812D02*
X13835089Y-11851100D01*
X13764378Y-11851100D01*
X13764378Y-11921812D01*
X13835089Y-11921812D01*
X13836551Y-5772654D02*
X13836551Y-5701942D01*
X13765840Y-5701942D01*
X13765840Y-5772654D01*
X13836551Y-5772654D01*
X14090551Y-5772654D02*
X14090551Y-5701942D01*
X14019840Y-5701942D01*
X14019840Y-5772654D01*
X14090551Y-5772654D01*
X14337056Y-11945456D02*
X14337056Y-11874744D01*
X14266344Y-11874744D01*
X14266344Y-11945456D01*
X14337056Y-11945456D01*
X14344551Y-5772654D02*
X14344551Y-5701942D01*
X14273840Y-5701942D01*
X14273840Y-5772654D01*
X14344551Y-5772654D01*
X14591056Y-11945456D02*
X14591056Y-11874744D01*
X14520344Y-11874744D01*
X14520344Y-11945456D01*
X14591056Y-11945456D01*
X14845056Y-11945456D02*
X14845056Y-11874744D01*
X14774344Y-11874744D01*
X14774344Y-11945456D01*
X14845056Y-11945456D01*
X14850762Y-5772654D02*
X14850762Y-5701942D01*
X14780051Y-5701942D01*
X14780051Y-5772654D01*
X14850762Y-5772654D01*
X15099056Y-11945456D02*
X15099056Y-11874744D01*
X15028344Y-11874744D01*
X15028344Y-11945456D01*
X15099056Y-11945456D01*
X15104762Y-5772654D02*
X15104762Y-5701942D01*
X15034051Y-5701942D01*
X15034051Y-5772654D01*
X15104762Y-5772654D01*
X15353056Y-11945456D02*
X15353056Y-11874744D01*
X15282344Y-11874744D01*
X15282344Y-11945456D01*
X15353056Y-11945456D01*
X15358762Y-5772654D02*
X15358762Y-5701942D01*
X15288051Y-5701942D01*
X15288051Y-5772654D01*
X15358762Y-5772654D01*
X15607056Y-11945456D02*
X15607056Y-11874744D01*
X15536344Y-11874744D01*
X15536344Y-11945456D01*
X15607056Y-11945456D01*
X15612762Y-5772654D02*
X15612762Y-5701942D01*
X15542051Y-5701942D01*
X15542051Y-5772654D01*
X15612762Y-5772654D01*
X15861056Y-11945456D02*
X15861056Y-11874744D01*
X15790344Y-11874744D01*
X15790344Y-11945456D01*
X15861056Y-11945456D01*
X15866762Y-5772654D02*
X15866762Y-5701942D01*
X15796051Y-5701942D01*
X15796051Y-5772654D01*
X15866762Y-5772654D01*
X16115056Y-11945456D02*
X16115056Y-11874744D01*
X16044344Y-11874744D01*
X16044344Y-11945456D01*
X16115056Y-11945456D01*
X16120762Y-5772654D02*
X16120762Y-5701942D01*
X16050051Y-5701942D01*
X16050051Y-5772654D01*
X16120762Y-5772654D01*
X16374762Y-5772654D02*
X16374762Y-5701942D01*
X16304051Y-5701942D01*
X16304051Y-5772654D01*
X16374762Y-5772654D01*
X16628762Y-5772654D02*
X16628762Y-5701942D01*
X16558051Y-5701942D01*
X16558051Y-5772654D01*
X16628762Y-5772654D01*
X18018556Y-6969556D02*
X18018556Y-6898844D01*
X17947844Y-6898844D01*
X17947844Y-6969556D01*
X18018556Y-6969556D01*
X18018556Y-7223556D02*
X18018556Y-7152844D01*
X17947844Y-7152844D01*
X17947844Y-7223556D01*
X18018556Y-7223556D01*
X18018556Y-7477556D02*
X18018556Y-7406844D01*
X17947844Y-7406844D01*
X17947844Y-7477556D01*
X18018556Y-7477556D01*
X18018556Y-7731556D02*
X18018556Y-7660844D01*
X17947844Y-7660844D01*
X17947844Y-7731556D01*
X18018556Y-7731556D01*
X18018556Y-7985556D02*
X18018556Y-7914844D01*
X17947844Y-7914844D01*
X17947844Y-7985556D01*
X18018556Y-7985556D01*
X18018556Y-8239556D02*
X18018556Y-8168844D01*
X17947844Y-8168844D01*
X17947844Y-8239556D01*
X18018556Y-8239556D01*
X18018556Y-8493556D02*
X18018556Y-8422844D01*
X17947844Y-8422844D01*
X17947844Y-8493556D01*
X18018556Y-8493556D01*
X18018556Y-8747556D02*
X18018556Y-8676844D01*
X17947844Y-8676844D01*
X17947844Y-8747556D01*
X18018556Y-8747556D01*
X18018556Y-9001556D02*
X18018556Y-8930844D01*
X17947844Y-8930844D01*
X17947844Y-9001556D01*
X18018556Y-9001556D01*
X18018556Y-9255556D02*
X18018556Y-9184844D01*
X17947844Y-9184844D01*
X17947844Y-9255556D01*
X18018556Y-9255556D01*
X18018556Y-9509556D02*
X18018556Y-9438844D01*
X17947844Y-9438844D01*
X17947844Y-9509556D01*
X18018556Y-9509556D01*
X18018556Y-9763556D02*
X18018556Y-9692844D01*
X17947844Y-9692844D01*
X17947844Y-9763556D01*
X18018556Y-9763556D01*
X18018556Y-10017556D02*
X18018556Y-9946844D01*
X17947844Y-9946844D01*
X17947844Y-10017556D01*
X18018556Y-10017556D01*
X18018556Y-10271556D02*
X18018556Y-10200844D01*
X17947844Y-10200844D01*
X17947844Y-10271556D01*
X18018556Y-10271556D01*
X18018556Y-10525556D02*
X18018556Y-10454844D01*
X17947844Y-10454844D01*
X17947844Y-10525556D01*
X18018556Y-10525556D01*
X18018556Y-10779556D02*
X18018556Y-10708844D01*
X17947844Y-10708844D01*
X17947844Y-10779556D01*
X18018556Y-10779556D01*
X18018556Y-11033556D02*
X18018556Y-10962844D01*
X17947844Y-10962844D01*
X17947844Y-11033556D01*
X18018556Y-11033556D01*
X18018556Y-11287556D02*
X18018556Y-11216844D01*
X17947844Y-11216844D01*
X17947844Y-11287556D01*
X18018556Y-11287556D01*
X18272556Y-6969556D02*
X18272556Y-6898844D01*
X18201844Y-6898844D01*
X18201844Y-6969556D01*
X18272556Y-6969556D01*
X18272556Y-7223556D02*
X18272556Y-7152844D01*
X18201844Y-7152844D01*
X18201844Y-7223556D01*
X18272556Y-7223556D01*
X18272556Y-7477556D02*
X18272556Y-7406844D01*
X18201844Y-7406844D01*
X18201844Y-7477556D01*
X18272556Y-7477556D01*
X18272556Y-7731556D02*
X18272556Y-7660844D01*
X18201844Y-7660844D01*
X18201844Y-7731556D01*
X18272556Y-7731556D01*
X18272556Y-7985556D02*
X18272556Y-7914844D01*
X18201844Y-7914844D01*
X18201844Y-7985556D01*
X18272556Y-7985556D01*
X18272556Y-8239556D02*
X18272556Y-8168844D01*
X18201844Y-8168844D01*
X18201844Y-8239556D01*
X18272556Y-8239556D01*
X18272556Y-8493556D02*
X18272556Y-8422844D01*
X18201844Y-8422844D01*
X18201844Y-8493556D01*
X18272556Y-8493556D01*
X18272556Y-8747556D02*
X18272556Y-8676844D01*
X18201844Y-8676844D01*
X18201844Y-8747556D01*
X18272556Y-8747556D01*
X18272556Y-9001556D02*
X18272556Y-8930844D01*
X18201844Y-8930844D01*
X18201844Y-9001556D01*
X18272556Y-9001556D01*
X18272556Y-9255556D02*
X18272556Y-9184844D01*
X18201844Y-9184844D01*
X18201844Y-9255556D01*
X18272556Y-9255556D01*
X18272556Y-9509556D02*
X18272556Y-9438844D01*
X18201844Y-9438844D01*
X18201844Y-9509556D01*
X18272556Y-9509556D01*
X18272556Y-9763556D02*
X18272556Y-9692844D01*
X18201844Y-9692844D01*
X18201844Y-9763556D01*
X18272556Y-9763556D01*
X18272556Y-10017556D02*
X18272556Y-9946844D01*
X18201844Y-9946844D01*
X18201844Y-10017556D01*
X18272556Y-10017556D01*
X18272556Y-10271556D02*
X18272556Y-10200844D01*
X18201844Y-10200844D01*
X18201844Y-10271556D01*
X18272556Y-10271556D01*
X18272556Y-10525556D02*
X18272556Y-10454844D01*
X18201844Y-10454844D01*
X18201844Y-10525556D01*
X18272556Y-10525556D01*
X18272556Y-10779556D02*
X18272556Y-10708844D01*
X18201844Y-10708844D01*
X18201844Y-10779556D01*
X18272556Y-10779556D01*
X18272556Y-11033556D02*
X18272556Y-10962844D01*
X18201844Y-10962844D01*
X18201844Y-11033556D01*
X18272556Y-11033556D01*
X18272556Y-11287556D02*
X18272556Y-11216844D01*
X18201844Y-11216844D01*
X18201844Y-11287556D01*
X18272556Y-11287556D01*
D15*
X9329600Y-11303000D02*
X9380400Y-11252200D01*
X9329600Y-11201400D01*
X9278800Y-11252200D01*
X9329600Y-11303000D01*
X9583600Y-11303000D02*
X9634400Y-11252200D01*
X9583600Y-11201400D01*
X9532800Y-11252200D01*
X9583600Y-11303000D01*
X9837600Y-11303000D02*
X9888400Y-11252200D01*
X9837600Y-11201400D01*
X9786800Y-11252200D01*
X9837600Y-11303000D01*
X10091600Y-11303000D02*
X10142400Y-11252200D01*
X10091600Y-11201400D01*
X10040800Y-11252200D01*
X10091600Y-11303000D01*
X10244000Y-6477000D02*
X10294800Y-6426200D01*
X10244000Y-6375400D01*
X10193200Y-6426200D01*
X10244000Y-6477000D01*
X10345600Y-11303000D02*
X10396400Y-11252200D01*
X10345600Y-11201400D01*
X10294800Y-11252200D01*
X10345600Y-11303000D01*
X10498000Y-6477000D02*
X10548800Y-6426200D01*
X10498000Y-6375400D01*
X10447200Y-6426200D01*
X10498000Y-6477000D01*
X10599600Y-11303000D02*
X10650400Y-11252200D01*
X10599600Y-11201400D01*
X10548800Y-11252200D01*
X10599600Y-11303000D01*
X10752000Y-6477000D02*
X10802800Y-6426200D01*
X10752000Y-6375400D01*
X10701200Y-6426200D01*
X10752000Y-6477000D01*
X10853600Y-11303000D02*
X10904400Y-11252200D01*
X10853600Y-11201400D01*
X10802800Y-11252200D01*
X10853600Y-11303000D01*
X11006000Y-6477000D02*
X11056800Y-6426200D01*
X11006000Y-6375400D01*
X10955200Y-6426200D01*
X11006000Y-6477000D01*
X11107600Y-11303000D02*
X11158400Y-11252200D01*
X11107600Y-11201400D01*
X11056800Y-11252200D01*
X11107600Y-11303000D01*
X11260000Y-6477000D02*
X11310800Y-6426200D01*
X11260000Y-6375400D01*
X11209200Y-6426200D01*
X11260000Y-6477000D01*
X11361600Y-11303000D02*
X11412400Y-11252200D01*
X11361600Y-11201400D01*
X11310800Y-11252200D01*
X11361600Y-11303000D01*
X11514000Y-6477000D02*
X11564800Y-6426200D01*
X11514000Y-6375400D01*
X11463200Y-6426200D01*
X11514000Y-6477000D01*
X11615600Y-11303000D02*
X11666400Y-11252200D01*
X11615600Y-11201400D01*
X11564800Y-11252200D01*
X11615600Y-11303000D01*
X11768000Y-6477000D02*
X11818800Y-6426200D01*
X11768000Y-6375400D01*
X11717200Y-6426200D01*
X11768000Y-6477000D01*
X12022000Y-6477000D02*
X12072800Y-6426200D01*
X12022000Y-6375400D01*
X11971200Y-6426200D01*
X12022000Y-6477000D01*
X12022000Y-11303000D02*
X12072800Y-11252200D01*
X12022000Y-11201400D01*
X11971200Y-11252200D01*
X12022000Y-11303000D01*
X12276000Y-11303000D02*
X12326800Y-11252200D01*
X12276000Y-11201400D01*
X12225200Y-11252200D01*
X12276000Y-11303000D01*
X12530000Y-6477000D02*
X12580800Y-6426200D01*
X12530000Y-6375400D01*
X12479200Y-6426200D01*
X12530000Y-6477000D01*
X12530000Y-11303000D02*
X12580800Y-11252200D01*
X12530000Y-11201400D01*
X12479200Y-11252200D01*
X12530000Y-11303000D01*
X12784000Y-6477000D02*
X12834800Y-6426200D01*
X12784000Y-6375400D01*
X12733200Y-6426200D01*
X12784000Y-6477000D01*
X12784000Y-11303000D02*
X12834800Y-11252200D01*
X12784000Y-11201400D01*
X12733200Y-11252200D01*
X12784000Y-11303000D01*
X13038000Y-6477000D02*
X13088800Y-6426200D01*
X13038000Y-6375400D01*
X12987200Y-6426200D01*
X13038000Y-6477000D01*
X13038000Y-11303000D02*
X13088800Y-11252200D01*
X13038000Y-11201400D01*
X12987200Y-11252200D01*
X13038000Y-11303000D01*
X13292000Y-6477000D02*
X13342800Y-6426200D01*
X13292000Y-6375400D01*
X13241200Y-6426200D01*
X13292000Y-6477000D01*
X13292000Y-11303000D02*
X13342800Y-11252200D01*
X13292000Y-11201400D01*
X13241200Y-11252200D01*
X13292000Y-11303000D01*
X13546000Y-6477000D02*
X13596800Y-6426200D01*
X13546000Y-6375400D01*
X13495200Y-6426200D01*
X13546000Y-6477000D01*
X13546000Y-11303000D02*
X13596800Y-11252200D01*
X13546000Y-11201400D01*
X13495200Y-11252200D01*
X13546000Y-11303000D01*
X13800000Y-6477000D02*
X13850800Y-6426200D01*
X13800000Y-6375400D01*
X13749200Y-6426200D01*
X13800000Y-6477000D01*
X13800000Y-11303000D02*
X13850800Y-11252200D01*
X13800000Y-11201400D01*
X13749200Y-11252200D01*
X13800000Y-11303000D01*
X13812700Y-8763000D02*
X13863500Y-8712200D01*
X13812700Y-8661400D01*
X13761900Y-8712200D01*
X13812700Y-8763000D01*
X13812700Y-9017000D02*
X13863500Y-8966200D01*
X13812700Y-8915400D01*
X13761900Y-8966200D01*
X13812700Y-9017000D01*
X13812700Y-9271000D02*
X13863500Y-9220200D01*
X13812700Y-9169400D01*
X13761900Y-9220200D01*
X13812700Y-9271000D01*
X14054000Y-6477000D02*
X14104800Y-6426200D01*
X14054000Y-6375400D01*
X14003200Y-6426200D01*
X14054000Y-6477000D01*
X14066700Y-8763000D02*
X14117500Y-8712200D01*
X14066700Y-8661400D01*
X14015900Y-8712200D01*
X14066700Y-8763000D01*
X14066700Y-9017000D02*
X14117500Y-8966200D01*
X14066700Y-8915400D01*
X14015900Y-8966200D01*
X14066700Y-9017000D01*
X14066700Y-9271000D02*
X14117500Y-9220200D01*
X14066700Y-9169400D01*
X14015900Y-9220200D01*
X14066700Y-9271000D01*
X14308000Y-6477000D02*
X14358800Y-6426200D01*
X14308000Y-6375400D01*
X14257200Y-6426200D01*
X14308000Y-6477000D01*
X14308000Y-11303000D02*
X14358800Y-11252200D01*
X14308000Y-11201400D01*
X14257200Y-11252200D01*
X14308000Y-11303000D01*
X14562000Y-11303000D02*
X14612800Y-11252200D01*
X14562000Y-11201400D01*
X14511200Y-11252200D01*
X14562000Y-11303000D01*
X14816000Y-6477000D02*
X14866800Y-6426200D01*
X14816000Y-6375400D01*
X14765200Y-6426200D01*
X14816000Y-6477000D01*
X14816000Y-11303000D02*
X14866800Y-11252200D01*
X14816000Y-11201400D01*
X14765200Y-11252200D01*
X14816000Y-11303000D01*
X15070000Y-6477000D02*
X15120800Y-6426200D01*
X15070000Y-6375400D01*
X15019200Y-6426200D01*
X15070000Y-6477000D01*
X15070000Y-11303000D02*
X15120800Y-11252200D01*
X15070000Y-11201400D01*
X15019200Y-11252200D01*
X15070000Y-11303000D01*
X15324000Y-6477000D02*
X15374800Y-6426200D01*
X15324000Y-6375400D01*
X15273200Y-6426200D01*
X15324000Y-6477000D01*
X15324000Y-11303000D02*
X15374800Y-11252200D01*
X15324000Y-11201400D01*
X15273200Y-11252200D01*
X15324000Y-11303000D01*
X15578000Y-6477000D02*
X15628800Y-6426200D01*
X15578000Y-6375400D01*
X15527200Y-6426200D01*
X15578000Y-6477000D01*
X15578000Y-11303000D02*
X15628800Y-11252200D01*
X15578000Y-11201400D01*
X15527200Y-11252200D01*
X15578000Y-11303000D01*
X15832000Y-6477000D02*
X15882800Y-6426200D01*
X15832000Y-6375400D01*
X15781200Y-6426200D01*
X15832000Y-6477000D01*
X15832000Y-11303000D02*
X15882800Y-11252200D01*
X15832000Y-11201400D01*
X15781200Y-11252200D01*
X15832000Y-11303000D01*
X16086000Y-6477000D02*
X16136800Y-6426200D01*
X16086000Y-6375400D01*
X16035200Y-6426200D01*
X16086000Y-6477000D01*
X16086000Y-11303000D02*
X16136800Y-11252200D01*
X16086000Y-11201400D01*
X16035200Y-11252200D01*
X16086000Y-11303000D01*
X16340000Y-6477000D02*
X16390800Y-6426200D01*
X16340000Y-6375400D01*
X16289200Y-6426200D01*
X16340000Y-6477000D01*
X16594000Y-6477000D02*
X16644800Y-6426200D01*
X16594000Y-6375400D01*
X16543200Y-6426200D01*
X16594000Y-6477000D01*
X16848000Y-6985000D02*
X16898800Y-6934200D01*
X16848000Y-6883400D01*
X16797200Y-6934200D01*
X16848000Y-6985000D01*
X16848000Y-7239000D02*
X16898800Y-7188200D01*
X16848000Y-7137400D01*
X16797200Y-7188200D01*
X16848000Y-7239000D01*
X16848000Y-7493000D02*
X16898800Y-7442200D01*
X16848000Y-7391400D01*
X16797200Y-7442200D01*
X16848000Y-7493000D01*
X16848000Y-7747000D02*
X16898800Y-7696200D01*
X16848000Y-7645400D01*
X16797200Y-7696200D01*
X16848000Y-7747000D01*
X16848000Y-8001000D02*
X16898800Y-7950200D01*
X16848000Y-7899400D01*
X16797200Y-7950200D01*
X16848000Y-8001000D01*
X16848000Y-8255000D02*
X16898800Y-8204200D01*
X16848000Y-8153400D01*
X16797200Y-8204200D01*
X16848000Y-8255000D01*
X16848000Y-8509000D02*
X16898800Y-8458200D01*
X16848000Y-8407400D01*
X16797200Y-8458200D01*
X16848000Y-8509000D01*
X16848000Y-8763000D02*
X16898800Y-8712200D01*
X16848000Y-8661400D01*
X16797200Y-8712200D01*
X16848000Y-8763000D01*
X16848000Y-9017000D02*
X16898800Y-8966200D01*
X16848000Y-8915400D01*
X16797200Y-8966200D01*
X16848000Y-9017000D01*
X16848000Y-9271000D02*
X16898800Y-9220200D01*
X16848000Y-9169400D01*
X16797200Y-9220200D01*
X16848000Y-9271000D01*
X16848000Y-9525000D02*
X16898800Y-9474200D01*
X16848000Y-9423400D01*
X16797200Y-9474200D01*
X16848000Y-9525000D01*
X16848000Y-9779000D02*
X16898800Y-9728200D01*
X16848000Y-9677400D01*
X16797200Y-9728200D01*
X16848000Y-9779000D01*
X16848000Y-10033000D02*
X16898800Y-9982200D01*
X16848000Y-9931400D01*
X16797200Y-9982200D01*
X16848000Y-10033000D01*
X16848000Y-10287000D02*
X16898800Y-10236200D01*
X16848000Y-10185400D01*
X16797200Y-10236200D01*
X16848000Y-10287000D01*
X16848000Y-10541000D02*
X16898800Y-10490200D01*
X16848000Y-10439400D01*
X16797200Y-10490200D01*
X16848000Y-10541000D01*
X16848000Y-10795000D02*
X16898800Y-10744200D01*
X16848000Y-10693400D01*
X16797200Y-10744200D01*
X16848000Y-10795000D01*
X16848000Y-11049000D02*
X16898800Y-10998200D01*
X16848000Y-10947400D01*
X16797200Y-10998200D01*
X16848000Y-11049000D01*
X16848000Y-11303000D02*
X16898800Y-11252200D01*
X16848000Y-11201400D01*
X16797200Y-11252200D01*
X16848000Y-11303000D01*
X17102000Y-6985000D02*
X17152800Y-6934200D01*
X17102000Y-6883400D01*
X17051200Y-6934200D01*
X17102000Y-6985000D01*
X17102000Y-7239000D02*
X17152800Y-7188200D01*
X17102000Y-7137400D01*
X17051200Y-7188200D01*
X17102000Y-7239000D01*
X17102000Y-7493000D02*
X17152800Y-7442200D01*
X17102000Y-7391400D01*
X17051200Y-7442200D01*
X17102000Y-7493000D01*
X17102000Y-7747000D02*
X17152800Y-7696200D01*
X17102000Y-7645400D01*
X17051200Y-7696200D01*
X17102000Y-7747000D01*
X17102000Y-8001000D02*
X17152800Y-7950200D01*
X17102000Y-7899400D01*
X17051200Y-7950200D01*
X17102000Y-8001000D01*
X17102000Y-8255000D02*
X17152800Y-8204200D01*
X17102000Y-8153400D01*
X17051200Y-8204200D01*
X17102000Y-8255000D01*
X17102000Y-8509000D02*
X17152800Y-8458200D01*
X17102000Y-8407400D01*
X17051200Y-8458200D01*
X17102000Y-8509000D01*
X17102000Y-8763000D02*
X17152800Y-8712200D01*
X17102000Y-8661400D01*
X17051200Y-8712200D01*
X17102000Y-8763000D01*
X17102000Y-9017000D02*
X17152800Y-8966200D01*
X17102000Y-8915400D01*
X17051200Y-8966200D01*
X17102000Y-9017000D01*
X17102000Y-9271000D02*
X17152800Y-9220200D01*
X17102000Y-9169400D01*
X17051200Y-9220200D01*
X17102000Y-9271000D01*
X17102000Y-9525000D02*
X17152800Y-9474200D01*
X17102000Y-9423400D01*
X17051200Y-9474200D01*
X17102000Y-9525000D01*
X17102000Y-9779000D02*
X17152800Y-9728200D01*
X17102000Y-9677400D01*
X17051200Y-9728200D01*
X17102000Y-9779000D01*
X17102000Y-10033000D02*
X17152800Y-9982200D01*
X17102000Y-9931400D01*
X17051200Y-9982200D01*
X17102000Y-10033000D01*
X17102000Y-10287000D02*
X17152800Y-10236200D01*
X17102000Y-10185400D01*
X17051200Y-10236200D01*
X17102000Y-10287000D01*
X17102000Y-10541000D02*
X17152800Y-10490200D01*
X17102000Y-10439400D01*
X17051200Y-10490200D01*
X17102000Y-10541000D01*
X17102000Y-10795000D02*
X17152800Y-10744200D01*
X17102000Y-10693400D01*
X17051200Y-10744200D01*
X17102000Y-10795000D01*
X17102000Y-11049000D02*
X17152800Y-10998200D01*
X17102000Y-10947400D01*
X17051200Y-10998200D01*
X17102000Y-11049000D01*
X17102000Y-11303000D02*
X17152800Y-11252200D01*
X17102000Y-11201400D01*
X17051200Y-11252200D01*
X17102000Y-11303000D01*
D11*
X8249789Y-13015476D02*
X8249789Y-12815476D01*
X8297408Y-12815476D01*
X8325979Y-12825000D01*
X8345027Y-12844048D01*
X8354551Y-12863095D01*
X8364075Y-12901190D01*
X8364075Y-12929762D01*
X8354551Y-12967857D01*
X8345027Y-12986905D01*
X8325979Y-13005952D01*
X8297408Y-13015476D01*
X8249789Y-13015476D01*
X8449789Y-13015476D02*
X8449789Y-12882143D01*
X8449789Y-12920238D02*
X8459313Y-12901190D01*
X8468837Y-12891667D01*
X8487884Y-12882143D01*
X8506932Y-12882143D01*
X8573599Y-13015476D02*
X8573599Y-12882143D01*
X8573599Y-12815476D02*
X8564075Y-12825000D01*
X8573599Y-12834524D01*
X8583122Y-12825000D01*
X8573599Y-12815476D01*
X8573599Y-12834524D01*
X8697408Y-13015476D02*
X8678360Y-13005952D01*
X8668837Y-12986905D01*
X8668837Y-12815476D01*
X8802170Y-13015476D02*
X8783122Y-13005952D01*
X8773599Y-12986905D01*
X8773599Y-12815476D01*
X9030741Y-13015476D02*
X9030741Y-12815476D01*
X9097408Y-12958333D01*
X9164075Y-12815476D01*
X9164075Y-13015476D01*
X9345027Y-13015476D02*
X9345027Y-12910714D01*
X9335503Y-12891667D01*
X9316456Y-12882143D01*
X9278360Y-12882143D01*
X9259313Y-12891667D01*
X9345027Y-13005952D02*
X9325980Y-13015476D01*
X9278360Y-13015476D01*
X9259313Y-13005952D01*
X9249789Y-12986905D01*
X9249789Y-12967857D01*
X9259313Y-12948809D01*
X9278360Y-12939286D01*
X9325980Y-12939286D01*
X9345027Y-12929762D01*
X9440265Y-12882143D02*
X9440265Y-13082143D01*
X9440265Y-12891667D02*
X9459313Y-12882143D01*
X9497408Y-12882143D01*
X9516456Y-12891667D01*
X9525980Y-12901190D01*
X9535503Y-12920238D01*
X9535503Y-12977381D01*
X9525980Y-12996428D01*
X9516456Y-13005952D01*
X9497408Y-13015476D01*
X9459313Y-13015476D01*
X9440265Y-13005952D01*
X9621218Y-12996428D02*
X9630741Y-13005952D01*
X9621218Y-13015476D01*
X9611694Y-13005952D01*
X9621218Y-12996428D01*
X9621218Y-13015476D01*
X9621218Y-12891667D02*
X9630741Y-12901190D01*
X9621218Y-12910714D01*
X9611694Y-12901190D01*
X9621218Y-12891667D01*
X9621218Y-12910714D01*
D12*
X7962170Y-13330000D02*
X7992170Y-13360000D01*
X7992170Y-13330000D02*
X7962170Y-13360000D01*
D11*
X8287884Y-13235476D02*
X8306932Y-13235476D01*
X8325979Y-13245000D01*
X8335503Y-13254524D01*
X8345027Y-13273571D01*
X8354551Y-13311667D01*
X8354551Y-13359286D01*
X8345027Y-13397381D01*
X8335503Y-13416428D01*
X8325979Y-13425952D01*
X8306932Y-13435476D01*
X8287884Y-13435476D01*
X8268837Y-13425952D01*
X8259313Y-13416428D01*
X8249789Y-13397381D01*
X8240265Y-13359286D01*
X8240265Y-13311667D01*
X8249789Y-13273571D01*
X8259313Y-13254524D01*
X8268837Y-13245000D01*
X8287884Y-13235476D01*
X8440265Y-13416428D02*
X8449789Y-13425952D01*
X8440265Y-13435476D01*
X8430741Y-13425952D01*
X8440265Y-13416428D01*
X8440265Y-13435476D01*
X8516456Y-13235476D02*
X8640265Y-13235476D01*
X8573599Y-13311667D01*
X8602170Y-13311667D01*
X8621218Y-13321190D01*
X8630741Y-13330714D01*
X8640265Y-13349762D01*
X8640265Y-13397381D01*
X8630741Y-13416428D01*
X8621218Y-13425952D01*
X8602170Y-13435476D01*
X8545027Y-13435476D01*
X8525980Y-13425952D01*
X8516456Y-13416428D01*
X8764075Y-13235476D02*
X8783122Y-13235476D01*
X8802170Y-13245000D01*
X8811694Y-13254524D01*
X8821218Y-13273571D01*
X8830741Y-13311667D01*
X8830741Y-13359286D01*
X8821218Y-13397381D01*
X8811694Y-13416428D01*
X8802170Y-13425952D01*
X8783122Y-13435476D01*
X8764075Y-13435476D01*
X8745027Y-13425952D01*
X8735503Y-13416428D01*
X8725980Y-13397381D01*
X8716456Y-13359286D01*
X8716456Y-13311667D01*
X8725980Y-13273571D01*
X8735503Y-13254524D01*
X8745027Y-13245000D01*
X8764075Y-13235476D01*
X8954551Y-13235476D02*
X8973599Y-13235476D01*
X8992646Y-13245000D01*
X9002170Y-13254524D01*
X9011694Y-13273571D01*
X9021218Y-13311667D01*
X9021218Y-13359286D01*
X9011694Y-13397381D01*
X9002170Y-13416428D01*
X8992646Y-13425952D01*
X8973599Y-13435476D01*
X8954551Y-13435476D01*
X8935503Y-13425952D01*
X8925980Y-13416428D01*
X8916456Y-13397381D01*
X8906932Y-13359286D01*
X8906932Y-13311667D01*
X8916456Y-13273571D01*
X8925980Y-13254524D01*
X8935503Y-13245000D01*
X8954551Y-13235476D01*
X9106932Y-13435476D02*
X9106932Y-13302143D01*
X9106932Y-13321190D02*
X9116456Y-13311667D01*
X9135503Y-13302143D01*
X9164075Y-13302143D01*
X9183122Y-13311667D01*
X9192646Y-13330714D01*
X9192646Y-13435476D01*
X9192646Y-13330714D02*
X9202170Y-13311667D01*
X9221218Y-13302143D01*
X9249789Y-13302143D01*
X9268837Y-13311667D01*
X9278360Y-13330714D01*
X9278360Y-13435476D01*
X9373599Y-13435476D02*
X9373599Y-13302143D01*
X9373599Y-13321190D02*
X9383122Y-13311667D01*
X9402170Y-13302143D01*
X9430741Y-13302143D01*
X9449789Y-13311667D01*
X9459313Y-13330714D01*
X9459313Y-13435476D01*
X9459313Y-13330714D02*
X9468837Y-13311667D01*
X9487884Y-13302143D01*
X9516456Y-13302143D01*
X9535503Y-13311667D01*
X9545027Y-13330714D01*
X9545027Y-13435476D01*
X9935503Y-13225952D02*
X9764075Y-13483095D01*
X10192646Y-13235476D02*
X10211694Y-13235476D01*
X10230741Y-13245000D01*
X10240265Y-13254524D01*
X10249789Y-13273571D01*
X10259313Y-13311667D01*
X10259313Y-13359286D01*
X10249789Y-13397381D01*
X10240265Y-13416428D01*
X10230741Y-13425952D01*
X10211694Y-13435476D01*
X10192646Y-13435476D01*
X10173599Y-13425952D01*
X10164075Y-13416428D01*
X10154551Y-13397381D01*
X10145027Y-13359286D01*
X10145027Y-13311667D01*
X10154551Y-13273571D01*
X10164075Y-13254524D01*
X10173599Y-13245000D01*
X10192646Y-13235476D01*
X10345027Y-13416428D02*
X10354551Y-13425952D01*
X10345027Y-13435476D01*
X10335503Y-13425952D01*
X10345027Y-13416428D01*
X10345027Y-13435476D01*
X10478360Y-13235476D02*
X10497408Y-13235476D01*
X10516456Y-13245000D01*
X10525980Y-13254524D01*
X10535503Y-13273571D01*
X10545027Y-13311667D01*
X10545027Y-13359286D01*
X10535503Y-13397381D01*
X10525980Y-13416428D01*
X10516456Y-13425952D01*
X10497408Y-13435476D01*
X10478360Y-13435476D01*
X10459313Y-13425952D01*
X10449789Y-13416428D01*
X10440265Y-13397381D01*
X10430741Y-13359286D01*
X10430741Y-13311667D01*
X10440265Y-13273571D01*
X10449789Y-13254524D01*
X10459313Y-13245000D01*
X10478360Y-13235476D01*
X10735503Y-13435476D02*
X10621218Y-13435476D01*
X10678360Y-13435476D02*
X10678360Y-13235476D01*
X10659313Y-13264048D01*
X10640265Y-13283095D01*
X10621218Y-13292619D01*
X10925980Y-13435476D02*
X10811694Y-13435476D01*
X10868837Y-13435476D02*
X10868837Y-13235476D01*
X10849789Y-13264048D01*
X10830741Y-13283095D01*
X10811694Y-13292619D01*
X11040265Y-13321190D02*
X11021218Y-13311667D01*
X11011694Y-13302143D01*
X11002170Y-13283095D01*
X11002170Y-13273571D01*
X11011694Y-13254524D01*
X11021218Y-13245000D01*
X11040265Y-13235476D01*
X11078360Y-13235476D01*
X11097408Y-13245000D01*
X11106932Y-13254524D01*
X11116456Y-13273571D01*
X11116456Y-13283095D01*
X11106932Y-13302143D01*
X11097408Y-13311667D01*
X11078360Y-13321190D01*
X11040265Y-13321190D01*
X11021218Y-13330714D01*
X11011694Y-13340238D01*
X11002170Y-13359286D01*
X11002170Y-13397381D01*
X11011694Y-13416428D01*
X11021218Y-13425952D01*
X11040265Y-13435476D01*
X11078360Y-13435476D01*
X11097408Y-13425952D01*
X11106932Y-13416428D01*
X11116456Y-13397381D01*
X11116456Y-13359286D01*
X11106932Y-13340238D01*
X11097408Y-13330714D01*
X11078360Y-13321190D01*
X11192646Y-13235476D02*
X11192646Y-13273571D01*
X11268837Y-13235476D02*
X11268837Y-13273571D01*
X11564075Y-13511667D02*
X11554551Y-13502143D01*
X11535503Y-13473571D01*
X11525979Y-13454524D01*
X11516456Y-13425952D01*
X11506932Y-13378333D01*
X11506932Y-13340238D01*
X11516456Y-13292619D01*
X11525979Y-13264048D01*
X11535503Y-13245000D01*
X11554551Y-13216428D01*
X11564075Y-13206905D01*
X11745027Y-13435476D02*
X11630741Y-13435476D01*
X11687884Y-13435476D02*
X11687884Y-13235476D01*
X11668837Y-13264048D01*
X11649789Y-13283095D01*
X11630741Y-13292619D01*
X11821218Y-13254524D02*
X11830741Y-13245000D01*
X11849789Y-13235476D01*
X11897408Y-13235476D01*
X11916456Y-13245000D01*
X11925979Y-13254524D01*
X11935503Y-13273571D01*
X11935503Y-13292619D01*
X11925979Y-13321190D01*
X11811694Y-13435476D01*
X11935503Y-13435476D01*
X12106932Y-13302143D02*
X12106932Y-13435476D01*
X12059313Y-13225952D02*
X12011694Y-13368809D01*
X12135503Y-13368809D01*
X12364075Y-13435476D02*
X12364075Y-13235476D01*
X12449789Y-13435476D02*
X12449789Y-13330714D01*
X12440265Y-13311667D01*
X12421218Y-13302143D01*
X12392646Y-13302143D01*
X12373598Y-13311667D01*
X12364075Y-13321190D01*
X12573598Y-13435476D02*
X12554551Y-13425952D01*
X12545027Y-13416428D01*
X12535503Y-13397381D01*
X12535503Y-13340238D01*
X12545027Y-13321190D01*
X12554551Y-13311667D01*
X12573598Y-13302143D01*
X12602170Y-13302143D01*
X12621218Y-13311667D01*
X12630741Y-13321190D01*
X12640265Y-13340238D01*
X12640265Y-13397381D01*
X12630741Y-13416428D01*
X12621218Y-13425952D01*
X12602170Y-13435476D01*
X12573598Y-13435476D01*
X12754551Y-13435476D02*
X12735503Y-13425952D01*
X12725979Y-13406905D01*
X12725979Y-13235476D01*
X12906932Y-13425952D02*
X12887884Y-13435476D01*
X12849789Y-13435476D01*
X12830741Y-13425952D01*
X12821218Y-13406905D01*
X12821218Y-13330714D01*
X12830741Y-13311667D01*
X12849789Y-13302143D01*
X12887884Y-13302143D01*
X12906932Y-13311667D01*
X12916456Y-13330714D01*
X12916456Y-13349762D01*
X12821218Y-13368809D01*
X12992646Y-13425952D02*
X13011694Y-13435476D01*
X13049789Y-13435476D01*
X13068837Y-13425952D01*
X13078360Y-13406905D01*
X13078360Y-13397381D01*
X13068837Y-13378333D01*
X13049789Y-13368809D01*
X13021218Y-13368809D01*
X13002170Y-13359286D01*
X12992646Y-13340238D01*
X12992646Y-13330714D01*
X13002170Y-13311667D01*
X13021218Y-13302143D01*
X13049789Y-13302143D01*
X13068837Y-13311667D01*
X13145027Y-13511667D02*
X13154551Y-13502143D01*
X13173598Y-13473571D01*
X13183122Y-13454524D01*
X13192646Y-13425952D01*
X13202170Y-13378333D01*
X13202170Y-13340238D01*
X13192646Y-13292619D01*
X13183122Y-13264048D01*
X13173598Y-13245000D01*
X13154551Y-13216428D01*
X13145027Y-13206905D01*
D13*
X7992170Y-13609000D02*
G75*
G03*
X7992170Y-13609000I-20000J0D01*
G01*
D11*
X8287884Y-13499476D02*
X8306932Y-13499476D01*
X8325979Y-13509000D01*
X8335503Y-13518524D01*
X8345027Y-13537571D01*
X8354551Y-13575667D01*
X8354551Y-13623286D01*
X8345027Y-13661381D01*
X8335503Y-13680428D01*
X8325979Y-13689952D01*
X8306932Y-13699476D01*
X8287884Y-13699476D01*
X8268837Y-13689952D01*
X8259313Y-13680428D01*
X8249789Y-13661381D01*
X8240265Y-13623286D01*
X8240265Y-13575667D01*
X8249789Y-13537571D01*
X8259313Y-13518524D01*
X8268837Y-13509000D01*
X8287884Y-13499476D01*
X8440265Y-13680428D02*
X8449789Y-13689952D01*
X8440265Y-13699476D01*
X8430741Y-13689952D01*
X8440265Y-13680428D01*
X8440265Y-13699476D01*
X8621218Y-13566143D02*
X8621218Y-13699476D01*
X8573599Y-13489952D02*
X8525980Y-13632809D01*
X8649789Y-13632809D01*
X8764075Y-13499476D02*
X8783122Y-13499476D01*
X8802170Y-13509000D01*
X8811694Y-13518524D01*
X8821218Y-13537571D01*
X8830741Y-13575667D01*
X8830741Y-13623286D01*
X8821218Y-13661381D01*
X8811694Y-13680428D01*
X8802170Y-13689952D01*
X8783122Y-13699476D01*
X8764075Y-13699476D01*
X8745027Y-13689952D01*
X8735503Y-13680428D01*
X8725980Y-13661381D01*
X8716456Y-13623286D01*
X8716456Y-13575667D01*
X8725980Y-13537571D01*
X8735503Y-13518524D01*
X8745027Y-13509000D01*
X8764075Y-13499476D01*
X8954551Y-13499476D02*
X8973599Y-13499476D01*
X8992646Y-13509000D01*
X9002170Y-13518524D01*
X9011694Y-13537571D01*
X9021218Y-13575667D01*
X9021218Y-13623286D01*
X9011694Y-13661381D01*
X9002170Y-13680428D01*
X8992646Y-13689952D01*
X8973599Y-13699476D01*
X8954551Y-13699476D01*
X8935503Y-13689952D01*
X8925980Y-13680428D01*
X8916456Y-13661381D01*
X8906932Y-13623286D01*
X8906932Y-13575667D01*
X8916456Y-13537571D01*
X8925980Y-13518524D01*
X8935503Y-13509000D01*
X8954551Y-13499476D01*
X9106932Y-13699476D02*
X9106932Y-13566143D01*
X9106932Y-13585190D02*
X9116456Y-13575667D01*
X9135503Y-13566143D01*
X9164075Y-13566143D01*
X9183122Y-13575667D01*
X9192646Y-13594714D01*
X9192646Y-13699476D01*
X9192646Y-13594714D02*
X9202170Y-13575667D01*
X9221218Y-13566143D01*
X9249789Y-13566143D01*
X9268837Y-13575667D01*
X9278360Y-13594714D01*
X9278360Y-13699476D01*
X9373599Y-13699476D02*
X9373599Y-13566143D01*
X9373599Y-13585190D02*
X9383122Y-13575667D01*
X9402170Y-13566143D01*
X9430741Y-13566143D01*
X9449789Y-13575667D01*
X9459313Y-13594714D01*
X9459313Y-13699476D01*
X9459313Y-13594714D02*
X9468837Y-13575667D01*
X9487884Y-13566143D01*
X9516456Y-13566143D01*
X9535503Y-13575667D01*
X9545027Y-13594714D01*
X9545027Y-13699476D01*
X9935503Y-13489952D02*
X9764075Y-13747095D01*
X10192646Y-13499476D02*
X10211694Y-13499476D01*
X10230741Y-13509000D01*
X10240265Y-13518524D01*
X10249789Y-13537571D01*
X10259313Y-13575667D01*
X10259313Y-13623286D01*
X10249789Y-13661381D01*
X10240265Y-13680428D01*
X10230741Y-13689952D01*
X10211694Y-13699476D01*
X10192646Y-13699476D01*
X10173599Y-13689952D01*
X10164075Y-13680428D01*
X10154551Y-13661381D01*
X10145027Y-13623286D01*
X10145027Y-13575667D01*
X10154551Y-13537571D01*
X10164075Y-13518524D01*
X10173599Y-13509000D01*
X10192646Y-13499476D01*
X10345027Y-13680428D02*
X10354551Y-13689952D01*
X10345027Y-13699476D01*
X10335503Y-13689952D01*
X10345027Y-13680428D01*
X10345027Y-13699476D01*
X10478360Y-13499476D02*
X10497408Y-13499476D01*
X10516456Y-13509000D01*
X10525980Y-13518524D01*
X10535503Y-13537571D01*
X10545027Y-13575667D01*
X10545027Y-13623286D01*
X10535503Y-13661381D01*
X10525980Y-13680428D01*
X10516456Y-13689952D01*
X10497408Y-13699476D01*
X10478360Y-13699476D01*
X10459313Y-13689952D01*
X10449789Y-13680428D01*
X10440265Y-13661381D01*
X10430741Y-13623286D01*
X10430741Y-13575667D01*
X10440265Y-13537571D01*
X10449789Y-13518524D01*
X10459313Y-13509000D01*
X10478360Y-13499476D01*
X10735503Y-13699476D02*
X10621218Y-13699476D01*
X10678360Y-13699476D02*
X10678360Y-13499476D01*
X10659313Y-13528048D01*
X10640265Y-13547095D01*
X10621218Y-13556619D01*
X10916456Y-13499476D02*
X10821218Y-13499476D01*
X10811694Y-13594714D01*
X10821218Y-13585190D01*
X10840265Y-13575667D01*
X10887884Y-13575667D01*
X10906932Y-13585190D01*
X10916456Y-13594714D01*
X10925980Y-13613762D01*
X10925980Y-13661381D01*
X10916456Y-13680428D01*
X10906932Y-13689952D01*
X10887884Y-13699476D01*
X10840265Y-13699476D01*
X10821218Y-13689952D01*
X10811694Y-13680428D01*
X10992646Y-13499476D02*
X11125980Y-13499476D01*
X11040265Y-13699476D01*
X11192646Y-13499476D02*
X11192646Y-13537571D01*
X11268837Y-13499476D02*
X11268837Y-13537571D01*
X11564075Y-13775667D02*
X11554551Y-13766143D01*
X11535503Y-13737571D01*
X11525979Y-13718524D01*
X11516456Y-13689952D01*
X11506932Y-13642333D01*
X11506932Y-13604238D01*
X11516456Y-13556619D01*
X11525979Y-13528048D01*
X11535503Y-13509000D01*
X11554551Y-13480428D01*
X11564075Y-13470905D01*
X11725979Y-13566143D02*
X11725979Y-13699476D01*
X11678360Y-13489952D02*
X11630741Y-13632809D01*
X11754551Y-13632809D01*
X11983122Y-13699476D02*
X11983122Y-13499476D01*
X12068837Y-13699476D02*
X12068837Y-13594714D01*
X12059313Y-13575667D01*
X12040265Y-13566143D01*
X12011694Y-13566143D01*
X11992646Y-13575667D01*
X11983122Y-13585190D01*
X12192646Y-13699476D02*
X12173598Y-13689952D01*
X12164075Y-13680428D01*
X12154551Y-13661381D01*
X12154551Y-13604238D01*
X12164075Y-13585190D01*
X12173598Y-13575667D01*
X12192646Y-13566143D01*
X12221218Y-13566143D01*
X12240265Y-13575667D01*
X12249789Y-13585190D01*
X12259313Y-13604238D01*
X12259313Y-13661381D01*
X12249789Y-13680428D01*
X12240265Y-13689952D01*
X12221218Y-13699476D01*
X12192646Y-13699476D01*
X12373598Y-13699476D02*
X12354551Y-13689952D01*
X12345027Y-13670905D01*
X12345027Y-13499476D01*
X12525979Y-13689952D02*
X12506932Y-13699476D01*
X12468837Y-13699476D01*
X12449789Y-13689952D01*
X12440265Y-13670905D01*
X12440265Y-13594714D01*
X12449789Y-13575667D01*
X12468837Y-13566143D01*
X12506932Y-13566143D01*
X12525979Y-13575667D01*
X12535503Y-13594714D01*
X12535503Y-13613762D01*
X12440265Y-13632809D01*
X12611694Y-13689952D02*
X12630741Y-13699476D01*
X12668837Y-13699476D01*
X12687884Y-13689952D01*
X12697408Y-13670905D01*
X12697408Y-13661381D01*
X12687884Y-13642333D01*
X12668837Y-13632809D01*
X12640265Y-13632809D01*
X12621218Y-13623286D01*
X12611694Y-13604238D01*
X12611694Y-13594714D01*
X12621218Y-13575667D01*
X12640265Y-13566143D01*
X12668837Y-13566143D01*
X12687884Y-13575667D01*
X12764075Y-13775667D02*
X12773598Y-13766143D01*
X12792646Y-13737571D01*
X12802170Y-13718524D01*
X12811694Y-13689952D01*
X12821218Y-13642333D01*
X12821218Y-13604238D01*
X12811694Y-13556619D01*
X12802170Y-13528048D01*
X12792646Y-13509000D01*
X12773598Y-13480428D01*
X12764075Y-13470905D01*
D14*
X7969170Y-13850000D02*
X7969170Y-13896000D01*
X7946170Y-13873000D02*
X7992170Y-13873000D01*
D11*
X8287884Y-13763476D02*
X8306932Y-13763476D01*
X8325979Y-13773000D01*
X8335503Y-13782524D01*
X8345027Y-13801571D01*
X8354551Y-13839667D01*
X8354551Y-13887286D01*
X8345027Y-13925381D01*
X8335503Y-13944428D01*
X8325979Y-13953952D01*
X8306932Y-13963476D01*
X8287884Y-13963476D01*
X8268837Y-13953952D01*
X8259313Y-13944428D01*
X8249789Y-13925381D01*
X8240265Y-13887286D01*
X8240265Y-13839667D01*
X8249789Y-13801571D01*
X8259313Y-13782524D01*
X8268837Y-13773000D01*
X8287884Y-13763476D01*
X8440265Y-13944428D02*
X8449789Y-13953952D01*
X8440265Y-13963476D01*
X8430741Y-13953952D01*
X8440265Y-13944428D01*
X8440265Y-13963476D01*
X8621218Y-13830143D02*
X8621218Y-13963476D01*
X8573599Y-13753952D02*
X8525980Y-13896809D01*
X8649789Y-13896809D01*
X8811694Y-13763476D02*
X8773599Y-13763476D01*
X8754551Y-13773000D01*
X8745027Y-13782524D01*
X8725980Y-13811095D01*
X8716456Y-13849190D01*
X8716456Y-13925381D01*
X8725980Y-13944428D01*
X8735503Y-13953952D01*
X8754551Y-13963476D01*
X8792646Y-13963476D01*
X8811694Y-13953952D01*
X8821218Y-13944428D01*
X8830741Y-13925381D01*
X8830741Y-13877762D01*
X8821218Y-13858714D01*
X8811694Y-13849190D01*
X8792646Y-13839667D01*
X8754551Y-13839667D01*
X8735503Y-13849190D01*
X8725980Y-13858714D01*
X8716456Y-13877762D01*
X8954551Y-13763476D02*
X8973599Y-13763476D01*
X8992646Y-13773000D01*
X9002170Y-13782524D01*
X9011694Y-13801571D01*
X9021218Y-13839667D01*
X9021218Y-13887286D01*
X9011694Y-13925381D01*
X9002170Y-13944428D01*
X8992646Y-13953952D01*
X8973599Y-13963476D01*
X8954551Y-13963476D01*
X8935503Y-13953952D01*
X8925980Y-13944428D01*
X8916456Y-13925381D01*
X8906932Y-13887286D01*
X8906932Y-13839667D01*
X8916456Y-13801571D01*
X8925980Y-13782524D01*
X8935503Y-13773000D01*
X8954551Y-13763476D01*
X9106932Y-13963476D02*
X9106932Y-13830143D01*
X9106932Y-13849190D02*
X9116456Y-13839667D01*
X9135503Y-13830143D01*
X9164075Y-13830143D01*
X9183122Y-13839667D01*
X9192646Y-13858714D01*
X9192646Y-13963476D01*
X9192646Y-13858714D02*
X9202170Y-13839667D01*
X9221218Y-13830143D01*
X9249789Y-13830143D01*
X9268837Y-13839667D01*
X9278360Y-13858714D01*
X9278360Y-13963476D01*
X9373599Y-13963476D02*
X9373599Y-13830143D01*
X9373599Y-13849190D02*
X9383122Y-13839667D01*
X9402170Y-13830143D01*
X9430741Y-13830143D01*
X9449789Y-13839667D01*
X9459313Y-13858714D01*
X9459313Y-13963476D01*
X9459313Y-13858714D02*
X9468837Y-13839667D01*
X9487884Y-13830143D01*
X9516456Y-13830143D01*
X9535503Y-13839667D01*
X9545027Y-13858714D01*
X9545027Y-13963476D01*
X9935503Y-13753952D02*
X9764075Y-14011095D01*
X10192646Y-13763476D02*
X10211694Y-13763476D01*
X10230741Y-13773000D01*
X10240265Y-13782524D01*
X10249789Y-13801571D01*
X10259313Y-13839667D01*
X10259313Y-13887286D01*
X10249789Y-13925381D01*
X10240265Y-13944428D01*
X10230741Y-13953952D01*
X10211694Y-13963476D01*
X10192646Y-13963476D01*
X10173599Y-13953952D01*
X10164075Y-13944428D01*
X10154551Y-13925381D01*
X10145027Y-13887286D01*
X10145027Y-13839667D01*
X10154551Y-13801571D01*
X10164075Y-13782524D01*
X10173599Y-13773000D01*
X10192646Y-13763476D01*
X10345027Y-13944428D02*
X10354551Y-13953952D01*
X10345027Y-13963476D01*
X10335503Y-13953952D01*
X10345027Y-13944428D01*
X10345027Y-13963476D01*
X10478360Y-13763476D02*
X10497408Y-13763476D01*
X10516456Y-13773000D01*
X10525980Y-13782524D01*
X10535503Y-13801571D01*
X10545027Y-13839667D01*
X10545027Y-13887286D01*
X10535503Y-13925381D01*
X10525980Y-13944428D01*
X10516456Y-13953952D01*
X10497408Y-13963476D01*
X10478360Y-13963476D01*
X10459313Y-13953952D01*
X10449789Y-13944428D01*
X10440265Y-13925381D01*
X10430741Y-13887286D01*
X10430741Y-13839667D01*
X10440265Y-13801571D01*
X10449789Y-13782524D01*
X10459313Y-13773000D01*
X10478360Y-13763476D01*
X10735503Y-13963476D02*
X10621218Y-13963476D01*
X10678360Y-13963476D02*
X10678360Y-13763476D01*
X10659313Y-13792048D01*
X10640265Y-13811095D01*
X10621218Y-13820619D01*
X10849789Y-13849190D02*
X10830741Y-13839667D01*
X10821218Y-13830143D01*
X10811694Y-13811095D01*
X10811694Y-13801571D01*
X10821218Y-13782524D01*
X10830741Y-13773000D01*
X10849789Y-13763476D01*
X10887884Y-13763476D01*
X10906932Y-13773000D01*
X10916456Y-13782524D01*
X10925980Y-13801571D01*
X10925980Y-13811095D01*
X10916456Y-13830143D01*
X10906932Y-13839667D01*
X10887884Y-13849190D01*
X10849789Y-13849190D01*
X10830741Y-13858714D01*
X10821218Y-13868238D01*
X10811694Y-13887286D01*
X10811694Y-13925381D01*
X10821218Y-13944428D01*
X10830741Y-13953952D01*
X10849789Y-13963476D01*
X10887884Y-13963476D01*
X10906932Y-13953952D01*
X10916456Y-13944428D01*
X10925980Y-13925381D01*
X10925980Y-13887286D01*
X10916456Y-13868238D01*
X10906932Y-13858714D01*
X10887884Y-13849190D01*
X11116456Y-13963476D02*
X11002170Y-13963476D01*
X11059313Y-13963476D02*
X11059313Y-13763476D01*
X11040265Y-13792048D01*
X11021218Y-13811095D01*
X11002170Y-13820619D01*
X11192646Y-13763476D02*
X11192646Y-13801571D01*
X11268837Y-13763476D02*
X11268837Y-13801571D01*
X11564075Y-14039667D02*
X11554551Y-14030143D01*
X11535503Y-14001571D01*
X11525979Y-13982524D01*
X11516456Y-13953952D01*
X11506932Y-13906333D01*
X11506932Y-13868238D01*
X11516456Y-13820619D01*
X11525979Y-13792048D01*
X11535503Y-13773000D01*
X11554551Y-13744428D01*
X11564075Y-13734905D01*
X11725979Y-13830143D02*
X11725979Y-13963476D01*
X11678360Y-13753952D02*
X11630741Y-13896809D01*
X11754551Y-13896809D01*
X11983122Y-13963476D02*
X11983122Y-13763476D01*
X12068837Y-13963476D02*
X12068837Y-13858714D01*
X12059313Y-13839667D01*
X12040265Y-13830143D01*
X12011694Y-13830143D01*
X11992646Y-13839667D01*
X11983122Y-13849190D01*
X12192646Y-13963476D02*
X12173598Y-13953952D01*
X12164075Y-13944428D01*
X12154551Y-13925381D01*
X12154551Y-13868238D01*
X12164075Y-13849190D01*
X12173598Y-13839667D01*
X12192646Y-13830143D01*
X12221218Y-13830143D01*
X12240265Y-13839667D01*
X12249789Y-13849190D01*
X12259313Y-13868238D01*
X12259313Y-13925381D01*
X12249789Y-13944428D01*
X12240265Y-13953952D01*
X12221218Y-13963476D01*
X12192646Y-13963476D01*
X12373598Y-13963476D02*
X12354551Y-13953952D01*
X12345027Y-13934905D01*
X12345027Y-13763476D01*
X12525979Y-13953952D02*
X12506932Y-13963476D01*
X12468837Y-13963476D01*
X12449789Y-13953952D01*
X12440265Y-13934905D01*
X12440265Y-13858714D01*
X12449789Y-13839667D01*
X12468837Y-13830143D01*
X12506932Y-13830143D01*
X12525979Y-13839667D01*
X12535503Y-13858714D01*
X12535503Y-13877762D01*
X12440265Y-13896809D01*
X12611694Y-13953952D02*
X12630741Y-13963476D01*
X12668837Y-13963476D01*
X12687884Y-13953952D01*
X12697408Y-13934905D01*
X12697408Y-13925381D01*
X12687884Y-13906333D01*
X12668837Y-13896809D01*
X12640265Y-13896809D01*
X12621218Y-13887286D01*
X12611694Y-13868238D01*
X12611694Y-13858714D01*
X12621218Y-13839667D01*
X12640265Y-13830143D01*
X12668837Y-13830143D01*
X12687884Y-13839667D01*
X12764075Y-14039667D02*
X12773598Y-14030143D01*
X12792646Y-14001571D01*
X12802170Y-13982524D01*
X12811694Y-13953952D01*
X12821218Y-13906333D01*
X12821218Y-13868238D01*
X12811694Y-13820619D01*
X12802170Y-13792048D01*
X12792646Y-13773000D01*
X12773598Y-13744428D01*
X12764075Y-13734905D01*
D10*
X7977526Y-14172356D02*
X7977526Y-14101644D01*
X7906814Y-14101644D01*
X7906814Y-14172356D01*
X7977526Y-14172356D01*
D11*
X8354551Y-14227476D02*
X8240265Y-14227476D01*
X8297408Y-14227476D02*
X8297408Y-14027476D01*
X8278360Y-14056048D01*
X8259313Y-14075095D01*
X8240265Y-14084619D01*
X8440265Y-14208428D02*
X8449789Y-14217952D01*
X8440265Y-14227476D01*
X8430741Y-14217952D01*
X8440265Y-14208428D01*
X8440265Y-14227476D01*
X8573599Y-14027476D02*
X8592646Y-14027476D01*
X8611694Y-14037000D01*
X8621218Y-14046524D01*
X8630741Y-14065571D01*
X8640265Y-14103667D01*
X8640265Y-14151286D01*
X8630741Y-14189381D01*
X8621218Y-14208428D01*
X8611694Y-14217952D01*
X8592646Y-14227476D01*
X8573599Y-14227476D01*
X8554551Y-14217952D01*
X8545027Y-14208428D01*
X8535503Y-14189381D01*
X8525980Y-14151286D01*
X8525980Y-14103667D01*
X8535503Y-14065571D01*
X8545027Y-14046524D01*
X8554551Y-14037000D01*
X8573599Y-14027476D01*
X8764075Y-14027476D02*
X8783122Y-14027476D01*
X8802170Y-14037000D01*
X8811694Y-14046524D01*
X8821218Y-14065571D01*
X8830741Y-14103667D01*
X8830741Y-14151286D01*
X8821218Y-14189381D01*
X8811694Y-14208428D01*
X8802170Y-14217952D01*
X8783122Y-14227476D01*
X8764075Y-14227476D01*
X8745027Y-14217952D01*
X8735503Y-14208428D01*
X8725980Y-14189381D01*
X8716456Y-14151286D01*
X8716456Y-14103667D01*
X8725980Y-14065571D01*
X8735503Y-14046524D01*
X8745027Y-14037000D01*
X8764075Y-14027476D01*
X8954551Y-14027476D02*
X8973599Y-14027476D01*
X8992646Y-14037000D01*
X9002170Y-14046524D01*
X9011694Y-14065571D01*
X9021218Y-14103667D01*
X9021218Y-14151286D01*
X9011694Y-14189381D01*
X9002170Y-14208428D01*
X8992646Y-14217952D01*
X8973599Y-14227476D01*
X8954551Y-14227476D01*
X8935503Y-14217952D01*
X8925980Y-14208428D01*
X8916456Y-14189381D01*
X8906932Y-14151286D01*
X8906932Y-14103667D01*
X8916456Y-14065571D01*
X8925980Y-14046524D01*
X8935503Y-14037000D01*
X8954551Y-14027476D01*
X9106932Y-14227476D02*
X9106932Y-14094143D01*
X9106932Y-14113190D02*
X9116456Y-14103667D01*
X9135503Y-14094143D01*
X9164075Y-14094143D01*
X9183122Y-14103667D01*
X9192646Y-14122714D01*
X9192646Y-14227476D01*
X9192646Y-14122714D02*
X9202170Y-14103667D01*
X9221218Y-14094143D01*
X9249789Y-14094143D01*
X9268837Y-14103667D01*
X9278360Y-14122714D01*
X9278360Y-14227476D01*
X9373599Y-14227476D02*
X9373599Y-14094143D01*
X9373599Y-14113190D02*
X9383122Y-14103667D01*
X9402170Y-14094143D01*
X9430741Y-14094143D01*
X9449789Y-14103667D01*
X9459313Y-14122714D01*
X9459313Y-14227476D01*
X9459313Y-14122714D02*
X9468837Y-14103667D01*
X9487884Y-14094143D01*
X9516456Y-14094143D01*
X9535503Y-14103667D01*
X9545027Y-14122714D01*
X9545027Y-14227476D01*
X9935503Y-14017952D02*
X9764075Y-14275095D01*
X10192646Y-14027476D02*
X10211694Y-14027476D01*
X10230741Y-14037000D01*
X10240265Y-14046524D01*
X10249789Y-14065571D01*
X10259313Y-14103667D01*
X10259313Y-14151286D01*
X10249789Y-14189381D01*
X10240265Y-14208428D01*
X10230741Y-14217952D01*
X10211694Y-14227476D01*
X10192646Y-14227476D01*
X10173599Y-14217952D01*
X10164075Y-14208428D01*
X10154551Y-14189381D01*
X10145027Y-14151286D01*
X10145027Y-14103667D01*
X10154551Y-14065571D01*
X10164075Y-14046524D01*
X10173599Y-14037000D01*
X10192646Y-14027476D01*
X10345027Y-14208428D02*
X10354551Y-14217952D01*
X10345027Y-14227476D01*
X10335503Y-14217952D01*
X10345027Y-14208428D01*
X10345027Y-14227476D01*
X10478360Y-14027476D02*
X10497408Y-14027476D01*
X10516456Y-14037000D01*
X10525980Y-14046524D01*
X10535503Y-14065571D01*
X10545027Y-14103667D01*
X10545027Y-14151286D01*
X10535503Y-14189381D01*
X10525980Y-14208428D01*
X10516456Y-14217952D01*
X10497408Y-14227476D01*
X10478360Y-14227476D01*
X10459313Y-14217952D01*
X10449789Y-14208428D01*
X10440265Y-14189381D01*
X10430741Y-14151286D01*
X10430741Y-14103667D01*
X10440265Y-14065571D01*
X10449789Y-14046524D01*
X10459313Y-14037000D01*
X10478360Y-14027476D01*
X10611694Y-14027476D02*
X10735503Y-14027476D01*
X10668837Y-14103667D01*
X10697408Y-14103667D01*
X10716456Y-14113190D01*
X10725980Y-14122714D01*
X10735503Y-14141762D01*
X10735503Y-14189381D01*
X10725980Y-14208428D01*
X10716456Y-14217952D01*
X10697408Y-14227476D01*
X10640265Y-14227476D01*
X10621218Y-14217952D01*
X10611694Y-14208428D01*
X10830741Y-14227476D02*
X10868837Y-14227476D01*
X10887884Y-14217952D01*
X10897408Y-14208428D01*
X10916456Y-14179857D01*
X10925980Y-14141762D01*
X10925980Y-14065571D01*
X10916456Y-14046524D01*
X10906932Y-14037000D01*
X10887884Y-14027476D01*
X10849789Y-14027476D01*
X10830741Y-14037000D01*
X10821218Y-14046524D01*
X10811694Y-14065571D01*
X10811694Y-14113190D01*
X10821218Y-14132238D01*
X10830741Y-14141762D01*
X10849789Y-14151286D01*
X10887884Y-14151286D01*
X10906932Y-14141762D01*
X10916456Y-14132238D01*
X10925980Y-14113190D01*
X11097408Y-14094143D02*
X11097408Y-14227476D01*
X11049789Y-14017952D02*
X11002170Y-14160809D01*
X11125980Y-14160809D01*
X11192646Y-14027476D02*
X11192646Y-14065571D01*
X11268837Y-14027476D02*
X11268837Y-14065571D01*
X11564075Y-14303667D02*
X11554551Y-14294143D01*
X11535503Y-14265571D01*
X11525979Y-14246524D01*
X11516456Y-14217952D01*
X11506932Y-14170333D01*
X11506932Y-14132238D01*
X11516456Y-14084619D01*
X11525979Y-14056048D01*
X11535503Y-14037000D01*
X11554551Y-14008428D01*
X11564075Y-13998905D01*
X11649789Y-14227476D02*
X11687884Y-14227476D01*
X11706932Y-14217952D01*
X11716456Y-14208428D01*
X11735503Y-14179857D01*
X11745027Y-14141762D01*
X11745027Y-14065571D01*
X11735503Y-14046524D01*
X11725979Y-14037000D01*
X11706932Y-14027476D01*
X11668837Y-14027476D01*
X11649789Y-14037000D01*
X11640265Y-14046524D01*
X11630741Y-14065571D01*
X11630741Y-14113190D01*
X11640265Y-14132238D01*
X11649789Y-14141762D01*
X11668837Y-14151286D01*
X11706932Y-14151286D01*
X11725979Y-14141762D01*
X11735503Y-14132238D01*
X11745027Y-14113190D01*
X11821218Y-14046524D02*
X11830741Y-14037000D01*
X11849789Y-14027476D01*
X11897408Y-14027476D01*
X11916456Y-14037000D01*
X11925979Y-14046524D01*
X11935503Y-14065571D01*
X11935503Y-14084619D01*
X11925979Y-14113190D01*
X11811694Y-14227476D01*
X11935503Y-14227476D01*
X12173598Y-14227476D02*
X12173598Y-14027476D01*
X12259313Y-14227476D02*
X12259313Y-14122714D01*
X12249789Y-14103667D01*
X12230741Y-14094143D01*
X12202170Y-14094143D01*
X12183122Y-14103667D01*
X12173598Y-14113190D01*
X12383122Y-14227476D02*
X12364075Y-14217952D01*
X12354551Y-14208428D01*
X12345027Y-14189381D01*
X12345027Y-14132238D01*
X12354551Y-14113190D01*
X12364075Y-14103667D01*
X12383122Y-14094143D01*
X12411694Y-14094143D01*
X12430741Y-14103667D01*
X12440265Y-14113190D01*
X12449789Y-14132238D01*
X12449789Y-14189381D01*
X12440265Y-14208428D01*
X12430741Y-14217952D01*
X12411694Y-14227476D01*
X12383122Y-14227476D01*
X12564075Y-14227476D02*
X12545027Y-14217952D01*
X12535503Y-14198905D01*
X12535503Y-14027476D01*
X12716456Y-14217952D02*
X12697408Y-14227476D01*
X12659313Y-14227476D01*
X12640265Y-14217952D01*
X12630741Y-14198905D01*
X12630741Y-14122714D01*
X12640265Y-14103667D01*
X12659313Y-14094143D01*
X12697408Y-14094143D01*
X12716456Y-14103667D01*
X12725979Y-14122714D01*
X12725979Y-14141762D01*
X12630741Y-14160809D01*
X12802170Y-14217952D02*
X12821218Y-14227476D01*
X12859313Y-14227476D01*
X12878360Y-14217952D01*
X12887884Y-14198905D01*
X12887884Y-14189381D01*
X12878360Y-14170333D01*
X12859313Y-14160809D01*
X12830741Y-14160809D01*
X12811694Y-14151286D01*
X12802170Y-14132238D01*
X12802170Y-14122714D01*
X12811694Y-14103667D01*
X12830741Y-14094143D01*
X12859313Y-14094143D01*
X12878360Y-14103667D01*
X12954551Y-14303667D02*
X12964075Y-14294143D01*
X12983122Y-14265571D01*
X12992646Y-14246524D01*
X13002170Y-14217952D01*
X13011694Y-14170333D01*
X13011694Y-14132238D01*
X13002170Y-14084619D01*
X12992646Y-14056048D01*
X12983122Y-14037000D01*
X12964075Y-14008428D01*
X12954551Y-13998905D01*
D15*
X7941370Y-14451800D02*
X7992170Y-14401000D01*
X7941370Y-14350200D01*
X7890570Y-14401000D01*
X7941370Y-14451800D01*
D11*
X8354551Y-14491476D02*
X8240265Y-14491476D01*
X8297408Y-14491476D02*
X8297408Y-14291476D01*
X8278360Y-14320048D01*
X8259313Y-14339095D01*
X8240265Y-14348619D01*
X8440265Y-14472428D02*
X8449789Y-14481952D01*
X8440265Y-14491476D01*
X8430741Y-14481952D01*
X8440265Y-14472428D01*
X8440265Y-14491476D01*
X8573599Y-14291476D02*
X8592646Y-14291476D01*
X8611694Y-14301000D01*
X8621218Y-14310524D01*
X8630741Y-14329571D01*
X8640265Y-14367667D01*
X8640265Y-14415286D01*
X8630741Y-14453381D01*
X8621218Y-14472428D01*
X8611694Y-14481952D01*
X8592646Y-14491476D01*
X8573599Y-14491476D01*
X8554551Y-14481952D01*
X8545027Y-14472428D01*
X8535503Y-14453381D01*
X8525980Y-14415286D01*
X8525980Y-14367667D01*
X8535503Y-14329571D01*
X8545027Y-14310524D01*
X8554551Y-14301000D01*
X8573599Y-14291476D01*
X8830741Y-14491476D02*
X8716456Y-14491476D01*
X8773599Y-14491476D02*
X8773599Y-14291476D01*
X8754551Y-14320048D01*
X8735503Y-14339095D01*
X8716456Y-14348619D01*
X9002170Y-14291476D02*
X8964075Y-14291476D01*
X8945027Y-14301000D01*
X8935503Y-14310524D01*
X8916456Y-14339095D01*
X8906932Y-14377190D01*
X8906932Y-14453381D01*
X8916456Y-14472428D01*
X8925980Y-14481952D01*
X8945027Y-14491476D01*
X8983122Y-14491476D01*
X9002170Y-14481952D01*
X9011694Y-14472428D01*
X9021218Y-14453381D01*
X9021218Y-14405762D01*
X9011694Y-14386714D01*
X9002170Y-14377190D01*
X8983122Y-14367667D01*
X8945027Y-14367667D01*
X8925980Y-14377190D01*
X8916456Y-14386714D01*
X8906932Y-14405762D01*
X9106932Y-14491476D02*
X9106932Y-14358143D01*
X9106932Y-14377190D02*
X9116456Y-14367667D01*
X9135503Y-14358143D01*
X9164075Y-14358143D01*
X9183122Y-14367667D01*
X9192646Y-14386714D01*
X9192646Y-14491476D01*
X9192646Y-14386714D02*
X9202170Y-14367667D01*
X9221218Y-14358143D01*
X9249789Y-14358143D01*
X9268837Y-14367667D01*
X9278360Y-14386714D01*
X9278360Y-14491476D01*
X9373599Y-14491476D02*
X9373599Y-14358143D01*
X9373599Y-14377190D02*
X9383122Y-14367667D01*
X9402170Y-14358143D01*
X9430741Y-14358143D01*
X9449789Y-14367667D01*
X9459313Y-14386714D01*
X9459313Y-14491476D01*
X9459313Y-14386714D02*
X9468837Y-14367667D01*
X9487884Y-14358143D01*
X9516456Y-14358143D01*
X9535503Y-14367667D01*
X9545027Y-14386714D01*
X9545027Y-14491476D01*
X9935503Y-14281952D02*
X9764075Y-14539095D01*
X10192646Y-14291476D02*
X10211694Y-14291476D01*
X10230741Y-14301000D01*
X10240265Y-14310524D01*
X10249789Y-14329571D01*
X10259313Y-14367667D01*
X10259313Y-14415286D01*
X10249789Y-14453381D01*
X10240265Y-14472428D01*
X10230741Y-14481952D01*
X10211694Y-14491476D01*
X10192646Y-14491476D01*
X10173599Y-14481952D01*
X10164075Y-14472428D01*
X10154551Y-14453381D01*
X10145027Y-14415286D01*
X10145027Y-14367667D01*
X10154551Y-14329571D01*
X10164075Y-14310524D01*
X10173599Y-14301000D01*
X10192646Y-14291476D01*
X10345027Y-14472428D02*
X10354551Y-14481952D01*
X10345027Y-14491476D01*
X10335503Y-14481952D01*
X10345027Y-14472428D01*
X10345027Y-14491476D01*
X10478360Y-14291476D02*
X10497408Y-14291476D01*
X10516456Y-14301000D01*
X10525980Y-14310524D01*
X10535503Y-14329571D01*
X10545027Y-14367667D01*
X10545027Y-14415286D01*
X10535503Y-14453381D01*
X10525980Y-14472428D01*
X10516456Y-14481952D01*
X10497408Y-14491476D01*
X10478360Y-14491476D01*
X10459313Y-14481952D01*
X10449789Y-14472428D01*
X10440265Y-14453381D01*
X10430741Y-14415286D01*
X10430741Y-14367667D01*
X10440265Y-14329571D01*
X10449789Y-14310524D01*
X10459313Y-14301000D01*
X10478360Y-14291476D01*
X10716456Y-14358143D02*
X10716456Y-14491476D01*
X10668837Y-14281952D02*
X10621218Y-14424809D01*
X10745027Y-14424809D01*
X10859313Y-14291476D02*
X10878360Y-14291476D01*
X10897408Y-14301000D01*
X10906932Y-14310524D01*
X10916456Y-14329571D01*
X10925980Y-14367667D01*
X10925980Y-14415286D01*
X10916456Y-14453381D01*
X10906932Y-14472428D01*
X10897408Y-14481952D01*
X10878360Y-14491476D01*
X10859313Y-14491476D01*
X10840265Y-14481952D01*
X10830741Y-14472428D01*
X10821218Y-14453381D01*
X10811694Y-14415286D01*
X10811694Y-14367667D01*
X10821218Y-14329571D01*
X10830741Y-14310524D01*
X10840265Y-14301000D01*
X10859313Y-14291476D01*
X11049789Y-14291476D02*
X11068837Y-14291476D01*
X11087884Y-14301000D01*
X11097408Y-14310524D01*
X11106932Y-14329571D01*
X11116456Y-14367667D01*
X11116456Y-14415286D01*
X11106932Y-14453381D01*
X11097408Y-14472428D01*
X11087884Y-14481952D01*
X11068837Y-14491476D01*
X11049789Y-14491476D01*
X11030741Y-14481952D01*
X11021218Y-14472428D01*
X11011694Y-14453381D01*
X11002170Y-14415286D01*
X11002170Y-14367667D01*
X11011694Y-14329571D01*
X11021218Y-14310524D01*
X11030741Y-14301000D01*
X11049789Y-14291476D01*
X11192646Y-14291476D02*
X11192646Y-14329571D01*
X11268837Y-14291476D02*
X11268837Y-14329571D01*
X11564075Y-14567667D02*
X11554551Y-14558143D01*
X11535503Y-14529571D01*
X11525979Y-14510524D01*
X11516456Y-14481952D01*
X11506932Y-14434333D01*
X11506932Y-14396238D01*
X11516456Y-14348619D01*
X11525979Y-14320048D01*
X11535503Y-14301000D01*
X11554551Y-14272428D01*
X11564075Y-14262905D01*
X11649789Y-14491476D02*
X11687884Y-14491476D01*
X11706932Y-14481952D01*
X11716456Y-14472428D01*
X11735503Y-14443857D01*
X11745027Y-14405762D01*
X11745027Y-14329571D01*
X11735503Y-14310524D01*
X11725979Y-14301000D01*
X11706932Y-14291476D01*
X11668837Y-14291476D01*
X11649789Y-14301000D01*
X11640265Y-14310524D01*
X11630741Y-14329571D01*
X11630741Y-14377190D01*
X11640265Y-14396238D01*
X11649789Y-14405762D01*
X11668837Y-14415286D01*
X11706932Y-14415286D01*
X11725979Y-14405762D01*
X11735503Y-14396238D01*
X11745027Y-14377190D01*
X11821218Y-14310524D02*
X11830741Y-14301000D01*
X11849789Y-14291476D01*
X11897408Y-14291476D01*
X11916456Y-14301000D01*
X11925979Y-14310524D01*
X11935503Y-14329571D01*
X11935503Y-14348619D01*
X11925979Y-14377190D01*
X11811694Y-14491476D01*
X11935503Y-14491476D01*
X12173598Y-14491476D02*
X12173598Y-14291476D01*
X12259313Y-14491476D02*
X12259313Y-14386714D01*
X12249789Y-14367667D01*
X12230741Y-14358143D01*
X12202170Y-14358143D01*
X12183122Y-14367667D01*
X12173598Y-14377190D01*
X12383122Y-14491476D02*
X12364075Y-14481952D01*
X12354551Y-14472428D01*
X12345027Y-14453381D01*
X12345027Y-14396238D01*
X12354551Y-14377190D01*
X12364075Y-14367667D01*
X12383122Y-14358143D01*
X12411694Y-14358143D01*
X12430741Y-14367667D01*
X12440265Y-14377190D01*
X12449789Y-14396238D01*
X12449789Y-14453381D01*
X12440265Y-14472428D01*
X12430741Y-14481952D01*
X12411694Y-14491476D01*
X12383122Y-14491476D01*
X12564075Y-14491476D02*
X12545027Y-14481952D01*
X12535503Y-14462905D01*
X12535503Y-14291476D01*
X12716456Y-14481952D02*
X12697408Y-14491476D01*
X12659313Y-14491476D01*
X12640265Y-14481952D01*
X12630741Y-14462905D01*
X12630741Y-14386714D01*
X12640265Y-14367667D01*
X12659313Y-14358143D01*
X12697408Y-14358143D01*
X12716456Y-14367667D01*
X12725979Y-14386714D01*
X12725979Y-14405762D01*
X12630741Y-14424809D01*
X12802170Y-14481952D02*
X12821218Y-14491476D01*
X12859313Y-14491476D01*
X12878360Y-14481952D01*
X12887884Y-14462905D01*
X12887884Y-14453381D01*
X12878360Y-14434333D01*
X12859313Y-14424809D01*
X12830741Y-14424809D01*
X12811694Y-14415286D01*
X12802170Y-14396238D01*
X12802170Y-14386714D01*
X12811694Y-14367667D01*
X12830741Y-14358143D01*
X12859313Y-14358143D01*
X12878360Y-14367667D01*
X12954551Y-14567667D02*
X12964075Y-14558143D01*
X12983122Y-14529571D01*
X12992646Y-14510524D01*
X13002170Y-14481952D01*
X13011694Y-14434333D01*
X13011694Y-14396238D01*
X13002170Y-14348619D01*
X12992646Y-14320048D01*
X12983122Y-14301000D01*
X12964075Y-14272428D01*
X12954551Y-14262905D01*
M02*
