M48
; DRILL file {KiCad (6.0.10)} date Tue May 13 20:49:59 2025
; FORMAT={-:-/ absolute / metric / decimal}
; #@! TF.CreationDate,2025-05-13T20:49:59+02:00
; #@! TF.GenerationSoftware,Kicad,Pcbnew,(6.0.10)
; #@! TF.FileFunction,Plated,1,2,PTH
FMAT,2
METRIC
; #@! TA.AperFunction,Plated,PTH,ViaDrill
T1C0.300
; #@! TA.AperFunction,Plated,PTH,ViaDrill
T2C0.400
; #@! TA.AperFunction,Plated,PTH,ComponentDrill
T3C0.460
; #@! TA.AperFunction,Plated,PTH,ComponentDrill
T4C1.000
; #@! TA.AperFunction,Plated,PTH,ComponentDrill
T5C1.016
%
G90
G05
T1
X111.76Y-96.012
X112.014Y-101.854
X117.348Y-96.012
X117.348Y-101.854
X126.492Y-71.628
X126.746Y-77.47
X132.08Y-71.628
X132.08Y-77.47
X146.05Y-89.662
X146.05Y-91.694
X154.432Y-78.232
X154.432Y-95.504
X154.686Y-84.074
X154.686Y-101.346
X160.02Y-78.232
X160.02Y-84.074
X160.02Y-95.504
X160.02Y-101.346
X166.624Y-90.17
X166.624Y-91.694
X184.658Y-85.598
X184.658Y-87.122
X184.658Y-92.202
X186.978Y-87.747
X187.452Y-83.058
X188.214Y-54.102
X188.542Y-88.769
X189.23Y-89.408
X190.246Y-83.957
X192.278Y-67.818
X192.278Y-68.834
X192.278Y-69.85
X192.278Y-70.866
X192.278Y-71.882
X193.294Y-67.818
X193.294Y-87.26
X193.802Y-85.09
X194.056Y-88.138
X194.818Y-80.01
X194.818Y-81.026
X194.818Y-82.042
X194.818Y-83.058
X194.818Y-84.074
X194.818Y-85.09
X194.818Y-86.106
X194.818Y-89.408
X195.326Y-91.186
X195.326Y-104.648
X195.326Y-105.664
X195.326Y-107.696
X195.326Y-108.712
X195.326Y-109.728
X195.58Y-67.818
X195.58Y-79.248
X196.342Y-81.026
X196.342Y-82.042
X196.342Y-83.058
X196.342Y-84.074
X196.342Y-85.09
X196.342Y-104.648
X196.342Y-105.664
X196.342Y-107.696
X196.342Y-108.712
X196.342Y-109.728
X196.596Y-68.326
X196.596Y-78.486
X196.85Y-70.358
X196.85Y-71.374
X197.104Y-80.264
X197.358Y-85.09
X197.358Y-108.712
X197.358Y-109.728
X197.612Y-72.898
X197.612Y-91.44
X197.612Y-92.456
X197.612Y-93.472
X197.866Y-70.358
X197.866Y-71.374
X197.866Y-79.502
X198.12Y-94.996
X198.374Y-89.154
X198.628Y-72.898
X198.628Y-78.74
X198.628Y-108.712
X198.628Y-109.728
X199.136Y-90.424
X199.136Y-91.44
X199.136Y-92.456
X199.136Y-93.472
X199.39Y-70.358
X199.644Y-108.712
X199.644Y-109.728
X199.898Y-71.12
X199.898Y-72.136
X199.898Y-73.152
X199.898Y-74.168
X199.898Y-75.184
X200.152Y-97.536
X200.152Y-98.552
X200.152Y-99.568
X200.406Y-70.358
X200.66Y-108.712
X200.66Y-109.728
X200.914Y-95.758
X201.422Y-67.564
X201.422Y-70.104
X201.676Y-96.52
X201.676Y-97.536
X201.676Y-98.552
X201.676Y-99.568
X201.676Y-100.584
X201.676Y-101.6
X201.676Y-102.616
X201.676Y-104.648
X201.676Y-105.664
X201.676Y-106.68
X201.676Y-108.712
X201.676Y-109.728
X202.438Y-67.564
X202.438Y-70.104
X202.692Y-106.68
X202.692Y-108.712
X202.692Y-109.728
X203.2Y-86.106
T2
X192.024Y-80.01
X197.104Y-94.742
X197.358Y-99.06
X201.93Y-94.488
T3
X203.512Y-64.454
X203.512Y-73.214
X203.512Y-103.824
X203.512Y-112.584
T4
X92.217Y-55.86
X92.217Y-58.4
X93.248Y-118.847
X94.757Y-55.86
X94.757Y-58.4
X95.788Y-118.847
X97.297Y-55.86
X97.297Y-58.4
X98.328Y-118.847
X100.868Y-118.847
X102.377Y-56.871
X103.408Y-118.847
X104.917Y-56.871
X105.948Y-118.847
X107.457Y-56.871
X108.488Y-118.847
X109.997Y-56.871
X111.028Y-118.847
X112.537Y-56.871
X113.568Y-118.847
X115.077Y-56.871
X116.108Y-118.847
X117.617Y-56.871
X120.157Y-56.871
X120.217Y-118.865
X122.757Y-118.865
X125.297Y-118.865
X125.312Y-57.373
X127.837Y-118.865
X127.852Y-57.373
X130.377Y-118.865
X130.392Y-57.373
X132.917Y-118.865
X132.932Y-57.373
X135.457Y-118.865
X135.472Y-57.373
X137.997Y-118.865
X138.012Y-57.373
X140.552Y-57.373
X143.017Y-119.101
X143.092Y-57.373
X145.557Y-119.101
X148.097Y-119.101
X148.154Y-57.373
X150.637Y-119.101
X150.694Y-57.373
X153.177Y-119.101
X153.234Y-57.373
X155.717Y-119.101
X155.774Y-57.373
X158.257Y-119.101
X158.314Y-57.373
X160.797Y-119.101
X160.854Y-57.373
X163.394Y-57.373
X165.934Y-57.373
X179.832Y-69.342
X179.832Y-71.882
X179.832Y-74.422
X179.832Y-76.962
X179.832Y-79.502
X179.832Y-82.042
X179.832Y-84.582
X179.832Y-87.122
X179.832Y-89.662
X179.832Y-92.202
X179.832Y-94.742
X179.832Y-97.282
X179.832Y-99.822
X179.832Y-102.362
X179.832Y-104.902
X179.832Y-107.442
X179.832Y-109.982
X179.832Y-112.522
X182.372Y-69.342
X182.372Y-71.882
X182.372Y-74.422
X182.372Y-76.962
X182.372Y-79.502
X182.372Y-82.042
X182.372Y-84.582
X182.372Y-87.122
X182.372Y-89.662
X182.372Y-92.202
X182.372Y-94.742
X182.372Y-97.282
X182.372Y-99.822
X182.372Y-102.362
X182.372Y-104.902
X182.372Y-107.442
X182.372Y-109.982
X182.372Y-112.522
T5
X93.296Y-112.522
X95.836Y-112.522
X98.376Y-112.522
X100.916Y-112.522
X102.44Y-64.262
X103.456Y-112.522
X104.98Y-64.262
X105.996Y-112.522
X107.52Y-64.262
X108.536Y-112.522
X110.06Y-64.262
X111.076Y-112.522
X112.6Y-64.262
X113.616Y-112.522
X115.14Y-64.262
X116.156Y-112.522
X117.68Y-64.262
X120.22Y-64.262
X120.22Y-112.522
X122.76Y-112.522
X125.3Y-64.262
X125.3Y-112.522
X127.84Y-64.262
X127.84Y-112.522
X130.38Y-64.262
X130.38Y-112.522
X132.92Y-64.262
X132.92Y-112.522
X135.46Y-64.262
X135.46Y-112.522
X138.0Y-64.262
X138.0Y-112.522
X138.127Y-87.122
X138.127Y-89.662
X138.127Y-92.202
X140.54Y-64.262
X140.667Y-87.122
X140.667Y-89.662
X140.667Y-92.202
X143.08Y-64.262
X143.08Y-112.522
X145.62Y-112.522
X148.16Y-64.262
X148.16Y-112.522
X150.7Y-64.262
X150.7Y-112.522
X153.24Y-64.262
X153.24Y-112.522
X155.78Y-64.262
X155.78Y-112.522
X158.32Y-64.262
X158.32Y-112.522
X160.86Y-64.262
X160.86Y-112.522
X163.4Y-64.262
X165.94Y-64.262
X168.48Y-69.342
X168.48Y-71.882
X168.48Y-74.422
X168.48Y-76.962
X168.48Y-79.502
X168.48Y-82.042
X168.48Y-84.582
X168.48Y-87.122
X168.48Y-89.662
X168.48Y-92.202
X168.48Y-94.742
X168.48Y-97.282
X168.48Y-99.822
X168.48Y-102.362
X168.48Y-104.902
X168.48Y-107.442
X168.48Y-109.982
X168.48Y-112.522
X171.02Y-69.342
X171.02Y-71.882
X171.02Y-74.422
X171.02Y-76.962
X171.02Y-79.502
X171.02Y-82.042
X171.02Y-84.582
X171.02Y-87.122
X171.02Y-89.662
X171.02Y-92.202
X171.02Y-94.742
X171.02Y-97.282
X171.02Y-99.822
X171.02Y-102.362
X171.02Y-104.902
X171.02Y-107.442
X171.02Y-109.982
X171.02Y-112.522
T0
M30
